<svg width="767" height="483" viewBox="0 0 767 483" fill="none" xmlns="http://www.w3.org/2000/svg">
<path d="M110.215 483C110.215 483 30.1186 423.29 7.06645 321.635C-15.9857 219.98 19.1938 96.7377 85.9453 34.5255C152.697 -27.6867 272.841 14.1975 326.233 66.2918L379.64 118.386C379.64 118.386 430.613 147.558 497.35 145.07C564.087 142.583 623.565 237.836 639.343 312.807C655.122 387.778 619.076 483 619.076 483H110.215Z" fill="#FFEDDE"/>
<path d="M159.428 470.591C159.428 470.591 99.8263 440.212 84.2801 369.734C68.7338 299.256 136.101 234.857 142.582 199.618C149.064 164.379 134.755 120.638 194.403 86.5594C254.052 52.4804 360.246 64.7406 400.419 56.2539C440.592 47.7672 487.199 -10.5973 567.561 2.76412C647.922 16.1256 725.685 56.2392 729.505 143.72C733.325 231.201 703.595 233.638 733.403 281.034C763.212 328.431 774.86 361.232 760.613 409.833C746.367 458.433 716.558 471.78 716.558 471.78L159.428 470.591Z" fill="#FFF8E9"/>
<path d="M695.272 156.983H546.652C542.603 156.983 539.32 160.266 539.32 164.315V246.126C539.32 250.175 542.603 253.458 546.652 253.458H695.272C699.322 253.458 702.604 250.175 702.604 246.126V164.315C702.604 160.266 699.322 156.983 695.272 156.983Z" fill="#BE4E1E"/>
<path d="M620.956 291.203L642.102 241.096H599.825L620.956 291.203Z" fill="#BE4E1E"/>
<path d="M620.457 188.671H658.642V194.243L677.354 183.451L658.642 172.658V178.245H620.457V188.671Z" fill="white"/>
<path d="M677.354 210.625H639.168V205.038L620.457 215.83L639.168 226.623V221.036H677.354V210.625Z" fill="white"/>
<path d="M597.01 220.449L595.192 221.109C591.711 217.024 588.819 212.473 586.599 207.588C584.724 202.577 583.693 197.29 583.548 191.942L584.883 191.385L576.803 172.072C575.23 173.276 573.901 174.769 572.888 176.471C568.313 184.199 568.767 196.048 573.357 207.618C577.947 219.188 582.874 229.511 591.834 236.007C597.127 239.849 601.673 240.509 605.193 239.952L597.01 220.449Z" fill="white"/>
<path d="M602.819 218.176L600.312 219.085L608.567 238.867C609.434 238.58 610.273 238.217 611.075 237.782C612.105 237.217 612.893 236.297 613.293 235.193C613.692 234.089 613.675 232.877 613.245 231.784L608.919 220.918C608.46 219.756 607.566 218.82 606.426 218.308C605.287 217.796 603.993 217.748 602.819 218.176Z" fill="white"/>
<path d="M583.138 168.685C582.02 169.073 580.94 169.563 579.912 170.151L588.124 189.992L590.896 188.833C592.053 188.352 592.977 187.436 593.467 186.282C593.958 185.128 593.977 183.828 593.52 182.66L589.194 171.53C588.755 170.36 587.876 169.408 586.745 168.876C585.613 168.345 584.319 168.276 583.138 168.685Z" fill="white"/>
<path d="M263.783 438.196V328.978C263.783 328.978 262.566 299.547 278.051 291.057C293.537 282.566 358.703 287.112 358.703 287.112V438.152L263.783 438.196Z" fill="#F2811C"/>
<path d="M379.13 184.859C379.13 184.859 375.185 217.941 373.66 220.669L372.194 223.396L364.642 228.558C364.642 228.558 379.203 249.19 397.093 252.519C414.983 255.848 413.488 245.187 413.488 245.187L410.745 239.409L414.397 207.867C414.397 207.867 381.857 193.056 379.13 184.859Z" fill="#FFC0C4"/>
<path d="M355.154 231.286L366.988 226.124C366.988 226.124 374.569 238.559 392.166 245.847C409.763 253.135 410.071 248.883 410.98 245.847C411.479 243.734 411.372 241.523 410.672 239.468L411.977 228.852L419.016 231.198L443.446 428.796L380.64 431.831L355.154 231.286Z" fill="#FFB727"/>
<path d="M413.106 229.056C413.106 229.056 417.359 238.867 421.304 261.933C425.248 285 428.885 323.815 429.794 350.518C430.703 377.222 431.261 438.195 431.261 438.195H510.446C511.355 438.195 516.825 408.163 516.825 408.163C516.825 408.163 482.277 378.527 480.488 373.673C479.271 370.447 479.886 310.471 474.725 282.859C469.563 255.246 462.891 249.689 448.901 242.782C434.487 235.699 413.106 229.056 413.106 229.056Z" fill="#6A1C1A"/>
<path d="M454.373 403.442C454.178 403.442 453.992 403.365 453.854 403.227C453.717 403.09 453.639 402.903 453.639 402.709C453.639 400.538 453.243 369.715 452.877 339.903C452.51 310.091 452.114 279.281 452.114 277.096C452.114 276.902 452.192 276.716 452.329 276.578C452.467 276.441 452.653 276.363 452.847 276.363C453.042 276.363 453.228 276.441 453.366 276.578C453.503 276.716 453.581 276.902 453.581 277.096C453.581 279.267 453.977 310.091 454.343 339.888C454.71 369.685 455.106 400.524 455.106 402.709C455.102 402.902 455.024 403.086 454.887 403.223C454.75 403.36 454.566 403.438 454.373 403.442Z" fill="#F9ECC7"/>
<path d="M296.602 396.022L296.001 438.196H388.223C388.223 438.196 392.168 402.401 390.657 399.057C389.147 395.714 296.602 396.022 296.602 396.022Z" fill="#6A1C1A"/>
<path d="M399.25 219.76C403.175 222.71 407.526 225.044 412.154 226.682L414.325 207.926C414.325 207.926 389.938 196.752 381.668 188.438C383.398 197.882 387.651 210.39 399.25 219.76Z" fill="#8E9BBB"/>
<path d="M442.846 123.271C446.928 130.795 449.504 139.044 450.427 147.554C451.644 160.899 450.427 195.183 439.502 209.745C428.577 224.306 405.775 220.009 395.51 211.211C386.037 203.146 376.696 194.23 374.277 176.633C371.857 159.036 379.424 125.661 400.965 118.681C422.507 111.701 442.846 123.271 442.846 123.271Z" fill="#FFC0C4"/>
<path d="M470.224 419.132C470.224 419.132 469.153 419.132 467.526 419.132H466.279L460.883 418.986H459.592C457.686 418.986 456.058 419.176 454.533 419.088C454.211 419.088 453.742 419.088 453.36 419.088C453.199 419.102 453.037 419.102 452.876 419.088C452.17 418.928 451.493 418.661 450.867 418.297C440.577 415.678 430.016 414.271 419.398 414.103C405.849 414.103 393.692 415.085 391.713 413.428C389.733 411.771 388.516 394.717 400.086 393.602L414.31 398.999C414.31 398.999 446.791 395.142 458.698 403.926C470.605 412.71 470.224 419.132 470.224 419.132Z" fill="#FFC0C4"/>
<path d="M454.476 418.985C454.153 418.985 453.684 418.985 453.303 418.985C452.93 418.397 452.513 417.838 452.056 417.313C448.39 413.574 439.533 411.155 436.322 410.377C436.181 410.342 436.059 410.254 435.983 410.131C435.906 410.007 435.88 409.859 435.911 409.717C435.928 409.646 435.96 409.579 436.003 409.52C436.046 409.46 436.101 409.41 436.163 409.372C436.226 409.334 436.296 409.308 436.368 409.297C436.441 409.286 436.515 409.289 436.586 409.307C441.264 410.436 451.25 413.325 454.007 418.105C454.095 418.237 454.329 418.75 454.476 418.985Z" fill="#223A7A"/>
<path d="M460.868 418.912C460.443 418.912 460.003 418.912 459.577 418.912C455.574 411.58 449.034 409.527 440.939 406.917L440.456 406.756C440.387 406.733 440.324 406.696 440.27 406.649C440.215 406.601 440.171 406.544 440.139 406.479C440.107 406.414 440.088 406.344 440.083 406.272C440.078 406.2 440.088 406.128 440.111 406.059C440.134 405.991 440.17 405.928 440.218 405.873C440.265 405.819 440.323 405.775 440.388 405.743C440.453 405.711 440.523 405.692 440.595 405.687C440.667 405.682 440.739 405.691 440.808 405.715L441.277 405.876C449.826 408.574 456.718 410.774 460.868 418.912Z" fill="#223A7A"/>
<path d="M467.511 419.073H466.264C464.057 415.123 461.035 411.687 457.4 408.992C453.765 406.297 449.599 404.405 445.177 403.441C445.104 403.431 445.034 403.405 444.971 403.367C444.908 403.328 444.854 403.277 444.811 403.217C444.768 403.156 444.739 403.088 444.723 403.016C444.708 402.943 444.708 402.869 444.723 402.796C444.754 402.658 444.837 402.536 444.953 402.454C445.07 402.373 445.212 402.338 445.353 402.356C456.307 404.409 465.15 413.34 467.511 419.073Z" fill="#223A7A"/>
<path d="M381.55 161.661C386.466 158.835 390.428 154.608 392.929 149.519C395.732 144.3 397.142 138.446 397.021 132.523C397.021 132.523 405.526 131.16 418.269 134.958C431.012 138.756 446.131 143.903 458.918 136.629C471.705 129.356 471.661 117.669 465.443 112.815C458.478 107.375 444.664 110.689 444.664 110.689C444.664 110.689 449.972 105.527 447.084 102.491C444.195 99.456 433.739 103.401 433.739 103.401C433.739 103.401 420.996 93.2385 396.874 94.4556C372.752 95.6727 361.226 112.507 359.862 131.336C358.498 150.164 365.317 168.949 365.317 168.949L381.55 161.661Z" fill="#2E3442"/>
<path d="M430.484 166.221C429.121 169.579 429.15 173.553 428.813 177.073C428.549 179.859 428.035 183.1 430.587 184.977C431.804 185.871 437.552 188.291 434.59 190.256C433.233 190.82 431.743 190.988 430.294 190.74C429.399 190.74 428.505 190.74 427.625 190.593C426.745 190.446 425.733 190.241 424.795 190.226C424.676 190.231 424.562 190.273 424.469 190.347C424.376 190.421 424.309 190.523 424.278 190.637C424.247 190.752 424.253 190.873 424.296 190.984C424.339 191.095 424.416 191.189 424.516 191.253C426.232 192.144 428.141 192.597 430.074 192.573C431.654 192.751 433.253 192.471 434.678 191.766C435.199 191.579 435.664 191.265 436.033 190.853C436.402 190.441 436.662 189.943 436.79 189.405C436.794 188.754 436.629 188.112 436.31 187.544C435.991 186.976 435.53 186.5 434.972 186.164C433.828 185.314 432.42 184.918 431.262 184.082C429.649 182.938 429.795 181.003 429.898 179.199C430.162 174.888 431.159 170.65 431.54 166.353C431.54 165.708 430.69 165.708 430.484 166.221Z" fill="#8E9BBB"/>
<path d="M442.89 176.297C442.435 178.863 440.573 180.696 438.74 180.344C436.907 179.992 435.807 177.675 436.218 175.123C436.628 172.572 438.535 170.724 440.368 171.076C442.201 171.428 443.344 173.745 442.89 176.297Z" fill="#202124"/>
<path d="M419.677 174.271C419.267 177.028 417.316 179.037 415.278 178.671C413.24 178.304 412.008 175.899 412.419 173.142C412.829 170.385 414.779 168.391 416.818 168.743C418.856 169.095 420.088 171.515 419.677 174.271Z" fill="#202124"/>
<path d="M437.48 165.767C438.946 166.001 440.339 165.767 441.761 165.855L442.788 165.957H442.671H442.891L443.433 166.06C443.726 166.133 444.02 166.251 444.328 166.324C444.611 166.392 444.901 166.431 445.193 166.441L445.662 166.368H445.369C445.564 166.38 445.76 166.38 445.955 166.368C446.348 166.249 446.681 165.982 446.883 165.625C447.085 165.267 447.141 164.845 447.041 164.447C446.98 164.223 446.875 164.014 446.733 163.831C446.733 163.743 446.601 163.67 446.542 163.596L446.718 163.787L446.527 163.538C446.447 163.406 446.336 163.296 446.205 163.215L445.853 162.951C445.452 162.701 445.01 162.522 444.548 162.423C443.694 162.209 442.818 162.096 441.937 162.086C441.073 162.096 440.211 162.164 439.357 162.291C438.563 162.383 437.803 162.664 437.142 163.113C436.896 163.262 436.699 163.481 436.577 163.742C436.454 164.003 436.411 164.294 436.453 164.579C436.491 164.857 436.609 165.117 436.79 165.33C436.972 165.543 437.211 165.7 437.48 165.781V165.767Z" fill="#202124"/>
<path d="M421.304 161.705C421.111 161.588 420.911 161.485 420.703 161.397C420.542 161.324 420.072 161.074 420.424 161.265L420.028 161.06C419.444 160.773 418.829 160.551 418.195 160.4C416.806 160.053 415.367 159.954 413.943 160.107C412.458 160.222 411.019 160.674 409.734 161.426C409.539 161.531 409.357 161.659 409.192 161.808L408.898 162.204V162.072C408.7 162.209 408.539 162.394 408.429 162.608C408.319 162.823 408.263 163.062 408.268 163.303C408.268 163.529 408.329 163.751 408.445 163.945C408.562 164.138 408.728 164.297 408.928 164.403C409.16 164.501 409.409 164.551 409.661 164.551C409.913 164.551 410.162 164.501 410.394 164.403H409.632C410.009 164.484 410.398 164.484 410.775 164.403C410.775 164.403 411.186 164.3 410.922 164.403C410.658 164.506 411.333 164.403 411.406 164.403C411.479 164.403 411.948 164.403 411.406 164.403H411.67L412.359 164.33C413.356 164.33 414.353 164.212 415.365 164.183C416.377 164.154 417.242 164.183 418.181 164.183H419.369C419.5 164.183 419.588 164.183 419.369 164.183H419.618L420.116 164.344C420.443 164.42 420.786 164.381 421.087 164.234C421.389 164.087 421.631 163.842 421.773 163.538C421.895 163.224 421.904 162.877 421.8 162.557C421.696 162.236 421.485 161.961 421.202 161.778L421.304 161.705Z" fill="#202124"/>
<path d="M428.503 203.878C430.008 201.094 432.426 198.914 435.351 197.705C432.814 197.441 420.819 196.341 417.754 198.057C414.367 199.978 418.385 207.72 425.394 208.102C426.081 208.139 426.769 208.1 427.447 207.984C427.507 206.557 427.866 205.158 428.503 203.878Z" fill="#202124"/>
<path d="M373.061 187.602C373.061 187.602 374.278 192.294 381.258 197.764C386.558 201.594 392.305 204.765 398.371 207.207L399.177 203.673C399.177 203.673 388.707 199.127 383.853 194.112C378.999 189.097 378.398 186.384 378.398 186.384L373.061 187.602Z" fill="#DEE1EB"/>
<path d="M400.365 201.063C402.48 200.94 404.569 201.584 406.247 202.877C407.925 204.17 409.081 206.025 409.501 208.102C409.897 211.035 407.198 214.202 400.893 211.372C393.048 207.852 394.749 201.312 400.365 201.063Z" fill="#202124"/>
<path d="M377.459 152.862C377.459 152.862 379.878 135.426 391.566 123.534C413.87 100.937 432.83 102.3 432.83 102.3C432.83 102.3 432.669 99.1183 425.498 96.6841C418.811 94.4112 415.791 95.6283 415.791 95.6283C415.791 95.6283 397.431 97.0947 381.961 114.281C366.49 131.467 364.862 153.331 364.862 153.331L377.459 152.862Z" fill="#D9DEE8"/>
<path d="M375.789 150.736C361.125 148.258 353.03 159.682 352.429 171.266C351.828 182.851 360.245 191.458 371.389 190.623C396.567 188.658 393.693 153.772 375.789 150.736Z" fill="white"/>
<path d="M368.514 179.419C366.67 179.447 364.855 178.963 363.271 178.021C361.686 177.078 360.394 175.714 359.539 174.081C358.559 172.312 358.08 170.309 358.155 168.288C358.23 166.267 358.856 164.305 359.964 162.614C360.005 162.554 360.057 162.503 360.117 162.463C360.177 162.423 360.244 162.396 360.315 162.382C360.386 162.369 360.459 162.369 360.53 162.384C360.6 162.398 360.667 162.427 360.727 162.467C360.787 162.507 360.838 162.559 360.877 162.619C360.917 162.68 360.945 162.747 360.958 162.818C360.972 162.889 360.971 162.961 360.957 163.032C360.942 163.103 360.914 163.17 360.874 163.23C359.888 164.747 359.334 166.503 359.269 168.311C359.205 170.119 359.633 171.911 360.507 173.494C361.282 175.003 362.476 176.255 363.946 177.1C365.416 177.946 367.099 178.349 368.792 178.26C370.37 178.254 371.923 177.859 373.312 177.11C374.701 176.36 375.884 175.28 376.755 173.964C377.778 172.384 378.419 170.587 378.628 168.716C378.837 166.846 378.607 164.952 377.957 163.186C377.354 161.527 376.232 160.108 374.758 159.138C373.284 158.169 371.536 157.701 369.775 157.804C369.703 157.814 369.631 157.81 369.561 157.792C369.491 157.774 369.426 157.742 369.368 157.698C369.311 157.655 369.263 157.6 369.227 157.538C369.191 157.475 369.168 157.406 369.159 157.335C369.142 157.191 369.181 157.047 369.269 156.932C369.356 156.817 369.485 156.74 369.628 156.719C371.641 156.563 373.65 157.075 375.344 158.175C377.037 159.275 378.322 160.902 378.998 162.804C379.695 164.73 379.939 166.79 379.71 168.824C379.481 170.859 378.786 172.813 377.679 174.535C376.71 175.987 375.403 177.18 373.87 178.013C372.337 178.846 370.625 179.293 368.88 179.316L368.514 179.419Z" fill="#818FB3"/>
<path d="M357.882 227.033C357.882 227.033 313.597 237.958 298.126 255.555C282.656 273.152 275.368 359.919 275.06 376.005C274.752 392.092 285.985 398.764 292.657 403.309C299.329 407.855 328.76 416.053 352.427 417.27C376.095 418.487 398.546 417.27 398.546 417.27C398.821 412.818 400.035 408.475 402.109 404.527C405.482 397.488 409.764 396.021 409.764 396.021L389.439 388.689C389.439 388.689 385.876 324.901 380.333 294.106C373.969 258.59 357.882 227.033 357.882 227.033Z" fill="#6A1C1A"/>
<path d="M431.306 378.556C431.209 378.575 431.11 378.575 431.013 378.556C430.836 378.476 430.698 378.329 430.63 378.148C430.561 377.966 430.567 377.765 430.646 377.588C434.796 368.218 439.093 349.844 441.512 336.939L441.717 335.898C442.451 332.1 443.36 327.379 441.541 324.167C440.603 322.51 438.506 318.903 436.497 315.442C434.488 311.981 432.435 308.447 431.878 307.435C430.807 305.456 434.18 300.103 439.049 292.903C440.354 290.938 441.497 289.252 442.157 288.108C443.902 285.175 442.744 282.345 441.41 279.163L440.896 277.975C439.694 275.043 438.315 272.022 436.981 269.177L435.353 265.628C434.635 264.059 433.887 262.475 433.198 260.848C429.002 250.899 424.228 241.204 418.9 231.813C418.803 231.643 418.777 231.442 418.826 231.253C418.875 231.064 418.997 230.902 419.164 230.801C419.247 230.752 419.338 230.719 419.433 230.705C419.529 230.692 419.626 230.698 419.719 230.722C419.812 230.747 419.899 230.79 419.975 230.849C420.051 230.908 420.114 230.981 420.161 231.065C425.549 240.487 430.382 250.216 434.635 260.203L436.79 264.968L438.418 268.502C439.752 271.435 441.131 274.368 442.363 277.403L442.817 278.489C444.181 281.744 445.589 285.102 443.492 288.753C442.803 289.941 441.659 291.686 440.324 293.637C437.787 297.42 432.494 305.294 433.227 306.644C433.77 307.641 435.735 311.043 437.817 314.621C439.899 318.199 441.952 321.704 442.876 323.419C444.958 327.144 443.99 332.144 443.213 336.177L443.008 337.203C442.128 341.911 437.45 365.96 432.039 378.175C431.969 378.305 431.862 378.41 431.731 378.479C431.601 378.547 431.452 378.574 431.306 378.556Z" fill="#F9ECC7"/>
<path d="M388.105 381.138C388.009 381.139 387.913 381.12 387.825 381.082C387.737 381.044 387.657 380.988 387.592 380.918C384.131 377.442 367.517 348.657 366.27 343.246C365.596 340.313 367.297 332.761 368.939 325.488C370.215 319.857 371.535 314.035 371.168 312.466C370.596 310.105 366.344 306.6 362.238 303.272C357.267 299.21 352.134 295.016 351.137 291.232C350.008 286.936 350.976 260.057 351.621 242.269C351.841 235.861 352.031 230.817 352.031 229.071C352.031 228.877 352.109 228.691 352.246 228.553C352.384 228.416 352.57 228.338 352.765 228.338C352.959 228.338 353.146 228.416 353.283 228.553C353.421 228.691 353.498 228.877 353.498 229.071C353.498 230.89 353.307 235.964 353.087 242.372C352.486 259.001 351.489 286.833 352.559 290.924C353.439 294.238 358.601 298.462 363.161 302.201C367.722 305.94 371.96 309.342 372.59 312.173C373.045 314.079 371.799 319.505 370.376 325.869C368.91 332.658 367.106 340.328 367.707 342.982C368.924 348.275 385.304 376.533 388.633 379.95C388.701 380.017 388.755 380.096 388.792 380.185C388.829 380.273 388.849 380.367 388.849 380.463C388.849 380.559 388.829 380.653 388.792 380.741C388.755 380.83 388.701 380.909 388.633 380.976C388.561 381.038 388.477 381.084 388.386 381.112C388.295 381.14 388.199 381.148 388.105 381.138Z" fill="#F9ECC7"/>
<path d="M328.467 368.541H328.364C328.268 368.529 328.174 368.497 328.09 368.448C328.006 368.399 327.932 368.333 327.873 368.256C327.815 368.178 327.772 368.089 327.748 367.994C327.724 367.9 327.719 367.802 327.734 367.705C328.276 363.893 336.693 287.933 337.075 282.111C337.088 281.917 337.179 281.736 337.326 281.608C337.473 281.48 337.665 281.416 337.859 281.429C338.054 281.443 338.235 281.533 338.363 281.68C338.491 281.828 338.555 282.019 338.541 282.214C338.145 288.08 329.743 364.098 329.185 367.911C329.161 368.084 329.075 368.243 328.943 368.359C328.811 368.475 328.642 368.539 328.467 368.541Z" fill="#F9ECC7"/>
<path d="M388.838 389.174C388.746 389.194 388.651 389.194 388.56 389.174C386.697 388.426 378.456 385.639 368.03 382.12C346.972 375.023 318.172 365.3 312.644 362.456C312.473 362.362 312.345 362.206 312.287 362.02C312.23 361.833 312.247 361.632 312.336 361.458C312.426 361.288 312.58 361.161 312.764 361.103C312.948 361.045 313.147 361.063 313.318 361.151C318.7 363.951 348.673 374.055 368.484 380.742C378.94 384.261 387.21 387.047 389.117 387.824C389.295 387.899 389.437 388.041 389.511 388.22C389.585 388.398 389.586 388.599 389.513 388.778C389.448 388.899 389.35 389.001 389.231 389.071C389.112 389.141 388.976 389.176 388.838 389.174Z" fill="#F9ECC7"/>
<path d="M378.705 419.425C360.184 419.425 324.257 416.082 296.968 406.433C296.871 406.401 296.782 406.351 296.705 406.285C296.629 406.218 296.566 406.138 296.52 406.047C296.474 405.957 296.447 405.858 296.44 405.757C296.432 405.656 296.445 405.554 296.476 405.458C296.508 405.362 296.559 405.272 296.625 405.196C296.691 405.119 296.772 405.056 296.862 405.01C296.953 404.965 297.051 404.937 297.153 404.93C297.254 404.922 297.355 404.935 297.452 404.967C331.927 417.167 380.157 419.249 389.131 417.24C389.227 417.219 389.327 417.217 389.424 417.234C389.521 417.252 389.614 417.288 389.697 417.341C389.78 417.394 389.852 417.463 389.908 417.544C389.964 417.625 390.004 417.716 390.026 417.812C390.047 417.909 390.049 418.008 390.032 418.105C390.014 418.202 389.978 418.295 389.925 418.378C389.872 418.461 389.803 418.533 389.722 418.589C389.641 418.646 389.55 418.686 389.454 418.707C385.901 419.279 382.302 419.519 378.705 419.425Z" fill="#F9ECC7"/>
<path d="M166.678 237.268C172.426 242.328 179.714 245.568 184.758 251.419C186.753 253.721 188.527 256.17 190.375 258.59C191.724 260.35 195.302 263.253 195.888 265.467C196.138 266.435 196.079 265.115 195.888 264.148V264.03C195.39 259.558 195.023 255.071 194.862 250.569C194.701 246.067 194.994 241.58 194.715 237.092C194.305 230.787 192.34 224.657 187.178 220.698C184.656 218.777 181.4 217.589 179.083 215.448C176.766 213.307 177.764 211.049 179.083 208.806C180.484 206.764 181.548 204.511 182.236 202.133C182.58 199.316 181.898 196.468 180.315 194.112C177.309 189.068 170.637 183.437 164.331 184.199C159.067 184.83 158.466 190.901 158.554 195.124C158.642 199.347 159.023 203.336 159.067 207.456C159.111 211.577 158.392 215.815 158.334 220.024C158.055 227.18 161.355 232.635 166.678 237.268Z" fill="#3DB6C4"/>
<path d="M220.069 302.904C221.634 299.118 223.538 295.481 225.759 292.038C228.868 287.273 232.299 282.624 234.381 277.301C236.464 271.978 236.2 266.01 236.405 260.276C236.566 256.067 237.871 251.859 237.475 247.621C237.314 245.597 236.141 242.327 233.531 242.65C231.478 242.914 230.275 245.451 229.483 247.049C228.196 249.912 227.085 252.85 226.155 255.848C225.759 257.006 225.378 258.179 224.879 259.294C224.586 259.939 223.647 261.523 222.782 261.317C221.316 260.936 222.635 254.85 222.782 253.78C223.896 248.369 225.583 243.339 225.803 237.767C226.14 229.687 225.524 220.067 217.62 215.653C215.553 214.495 212.942 213.806 210.977 215.536C209.012 217.266 208.485 220.199 208.206 222.619C207.326 230.083 209.071 237.151 211.476 244.16C213.441 250.026 215.787 255.892 215.963 262.138C216.125 268.107 213.03 273.386 211.564 279.031C210.079 284.448 209.455 290.065 209.716 295.675C209.716 299.312 209.834 302.919 210.098 306.556C210.347 309.899 210.64 313.228 211.051 316.557C211.051 317.231 211.197 317.935 211.3 318.639C210.01 315.545 209.555 312.011 208.499 308.902C206.608 303.388 204.423 297.977 202.634 292.434C201.249 287.814 199.619 283.272 197.75 278.826C195.888 274.705 193.659 270.336 190.199 267.3C188.175 265.436 185.53 264.39 182.779 264.367C181.038 264.508 179.323 264.873 177.675 265.452C176.752 265.772 175.763 265.85 174.801 265.681C173.838 265.512 172.935 265.1 172.176 264.485C166.516 260.085 164.844 252.328 160.606 246.888C157.527 242.782 150.107 235.787 144.681 240.26C141.749 242.635 140.986 247.24 141.147 250.759C141.541 255.123 143.057 259.31 145.547 262.916C147.995 266.846 151.148 270.365 153.406 274.398C154.601 276.644 155.062 279.208 154.726 281.73C154.341 284.211 154.491 286.746 155.166 289.164C157.762 296.496 165.871 295.484 172.176 295.675C176.703 295.771 181.192 296.516 185.506 297.889C187.775 298.586 189.842 299.819 191.534 301.483C193.226 303.147 194.493 305.194 195.228 307.45C196.475 310.911 197.149 314.782 199.51 317.788C200.633 319.149 202.066 320.22 203.689 320.912C206.153 321.997 213.646 322.466 213.705 321.792C214.105 319.431 214.759 317.12 215.655 314.9C216.916 310.852 218.412 306.878 220.069 302.904Z" fill="#3DB6C4"/>
<path d="M254.87 301.555C254.224 297.347 254.342 292.757 252.347 288.871C252.311 288.807 252.262 288.752 252.204 288.707C252.146 288.662 252.08 288.629 252.009 288.61C251.938 288.591 251.864 288.586 251.791 288.596C251.719 288.605 251.648 288.629 251.585 288.666C250.118 289.458 250.118 291.76 249.972 293.168C249.781 295.514 249.972 297.86 249.635 300.192C249.143 304.356 248.159 308.446 246.702 312.378C245.959 314.384 244.739 316.181 243.148 317.611C241.556 319.042 239.64 320.064 237.566 320.589C234.709 321.248 232.002 322.442 229.589 324.109C227.53 325.858 225.92 328.076 224.896 330.576C221.963 337.189 220.497 344.565 219.192 351.633C218.268 356.384 217.52 361.165 216.362 365.872C215.097 370.542 214.079 375.275 213.312 380.052C213.194 380.301 213.077 380.536 212.974 380.785C212.667 381.504 213.796 381.885 214.177 381.299C218.737 374.274 224.295 367.984 231.862 364.127C235.278 362.382 239.824 362.015 242.684 359.273C244.854 357.191 245.147 354.009 244.825 351.164C244.399 347.439 242.61 344.374 240.748 341.207C239.722 339.462 238.519 337.585 238.93 335.473C239.207 334.509 239.68 333.612 240.318 332.838C240.956 332.063 241.746 331.428 242.64 330.972C245.778 329.021 249.459 328.141 252.039 325.326C254.398 322.737 255.805 319.422 256.028 315.926C256.177 311.108 255.789 306.288 254.87 301.555Z" fill="#3DB6C4"/>
<path d="M192.736 325.766C188.706 320.621 183.867 316.164 178.41 312.568C175.477 310.633 168.629 306.82 167.236 312.568C166.429 315.912 169.699 319.196 171.855 321.293C175.096 324.446 178.835 327.159 181.562 330.796C178.19 331.881 174.656 332.086 171.708 334.432C168.233 337.204 166.664 342.542 170.124 345.944C171.916 347.481 173.94 348.724 176.122 349.624C178.85 350.929 181.621 352.132 184.407 353.29C190.434 355.812 196.534 358.364 201.667 362.485C206.799 366.605 211.829 373.791 212.24 380.639C212.24 381.299 212.034 380.639 212.415 380.404C212.635 380.595 213.354 380.243 213.354 379.862C213.365 369.821 211.288 359.889 207.254 350.695C203.424 341.837 198.551 333.468 192.736 325.766Z" fill="#3DB6C4"/>
<path d="M178.85 231.051C181.079 235.656 183.395 240.143 185.859 244.63C188.317 248.881 190.492 253.29 192.37 257.828C194.555 263.503 196.769 269.09 199.145 274.721C201.574 280.559 203.664 286.532 205.406 292.611C208.824 304.508 211.194 316.682 212.489 328.992C213.141 335.241 213.391 341.525 213.237 347.806C213.105 352.704 212.548 357.558 212.093 362.47C211.502 367.551 211.364 372.674 211.682 377.78C212.049 382.032 212.724 387.091 216.082 390.127C216.214 390.243 216.383 390.31 216.559 390.316C216.736 390.322 216.909 390.267 217.049 390.16C217.189 390.052 217.287 389.9 217.328 389.728C217.368 389.556 217.347 389.376 217.269 389.217C213.339 381.167 213.559 372.383 214.337 363.643C214.762 358.834 215.334 354.038 215.495 349.199C215.686 343.039 215.48 336.872 214.879 330.737C213.653 318.686 211.427 306.757 208.222 295.074C206.61 289.1 204.651 283.224 202.356 277.478C200.083 271.7 197.444 266.069 195.229 260.262C191.226 249.748 185.111 240.436 179.715 230.641C179.436 230.127 178.703 230.641 178.938 231.095L178.85 231.051Z" fill="#43588E"/>
<path d="M212.679 317.041C213.31 309.386 213.984 302.025 216.565 294.722C217.768 291.32 219.234 288.006 220.393 284.59C221.346 281.759 222.783 277.888 222.05 274.882C222.034 274.806 221.992 274.739 221.932 274.69C221.872 274.641 221.797 274.615 221.72 274.615C221.642 274.615 221.567 274.641 221.507 274.69C221.447 274.739 221.406 274.806 221.39 274.882C220.891 276.598 220.95 278.475 220.583 280.234C220.235 281.945 219.79 283.634 219.249 285.293C218.12 288.827 216.639 292.215 215.348 295.705C212.786 302.511 211.692 309.782 212.137 317.041C212.137 317.111 212.165 317.178 212.214 317.228C212.264 317.277 212.331 317.305 212.401 317.305C212.471 317.305 212.538 317.277 212.587 317.228C212.637 317.178 212.665 317.111 212.665 317.041H212.679Z" fill="#43588E"/>
<path d="M168.321 273.064C171.356 280.396 180.492 280.821 187.15 282.463C189.421 283.081 191.545 284.148 193.396 285.602C195.247 287.055 196.788 288.865 197.928 290.924C200.587 295.585 202.651 300.561 204.072 305.735C204.072 305.735 204.174 305.735 204.16 305.735C202.297 296.937 199.643 286.349 190.566 282.273C183.234 278.988 173.732 280.63 169.083 272.785C168.849 272.404 168.145 272.653 168.321 273.108V273.064Z" fill="#43588E"/>
<path d="M207.871 315.883C208.237 316.366 208.56 316.88 208.941 317.349C209.114 317.588 209.316 317.805 209.542 317.994C209.771 318.226 210.07 318.376 210.393 318.419C210.424 318.421 210.456 318.414 210.484 318.399C210.512 318.384 210.536 318.362 210.552 318.335C210.569 318.308 210.577 318.277 210.578 318.246C210.578 318.214 210.57 318.183 210.554 318.155C210.368 317.93 210.151 317.733 209.909 317.569L209.264 316.997C208.838 316.586 208.457 316.146 208.032 315.736C208.032 315.663 207.797 315.736 207.871 315.868V315.883Z" fill="#43588E"/>
<path d="M188.881 339.169C194.188 343.487 198.872 348.521 202.797 354.126C204.631 356.815 206.32 359.6 207.856 362.47C209.408 365.61 210.778 368.837 211.962 372.134C212.05 372.383 212.504 372.383 212.475 372.134C211.742 365.227 207.372 359.317 203.867 353.569C202.006 350.703 199.821 348.061 197.356 345.694C194.913 343.094 192.233 340.728 189.35 338.626C188.998 338.377 188.529 338.949 188.881 339.242V339.169Z" fill="#43588E"/>
<path d="M230.599 331.03C228.077 332.496 228.004 336.455 227.945 338.992C227.857 343.89 229.059 348.48 226.918 353.143C224.983 357.352 221.889 360.871 219.44 364.772C217.167 368.438 214.923 373.116 215.041 377.515C215.041 377.779 215.436 377.911 215.554 377.661C216.32 375.581 216.956 373.456 217.46 371.297C218.188 368.975 219.235 366.764 220.569 364.728C222.915 361.091 225.789 357.792 227.696 353.876C229.602 349.961 229.397 345.694 229.265 341.236C229.177 338.391 228.898 333.816 231.186 331.704C231.552 331.367 231.098 330.81 230.672 331.03H230.599Z" fill="#43588E"/>
<path d="M213.723 377.97C203.561 377.838 184.277 377.692 184.277 377.692L189.058 413.267C189.58 417.138 191.489 420.689 194.432 423.259C197.374 425.829 201.149 427.244 205.056 427.241H222.55C226.455 427.241 230.226 425.824 233.166 423.254C236.105 420.685 238.013 417.136 238.534 413.267L243.256 377.692C243.256 377.692 223.87 377.838 213.723 377.97Z" fill="#314B87"/>
<path d="M705.127 312.583L647.131 427.476L478.04 428.693L530.215 310.97L705.127 312.583Z" fill="#F6F7FA"/>
<path d="M365.816 427.974V418.78H475.269L525.64 308.345H700.728L705.128 312.598H534.116L481.78 427.886C481.78 427.886 365.816 427.666 365.816 427.974Z" fill="#D9DEE8"/>
<path d="M617.32 375.99C615.414 381.724 605.046 386.137 594.165 385.873C583.285 385.609 576.011 380.741 577.918 375.007C579.824 369.274 590.206 364.845 601.087 365.124C611.968 365.402 619.226 370.256 617.32 375.99Z" fill="#D9DEE8"/>
<path d="M481.781 428.62C481.674 428.616 481.569 428.591 481.473 428.546C481.296 428.466 481.158 428.32 481.09 428.138C481.021 427.957 481.027 427.756 481.106 427.579L533.633 311.865H705.202C705.396 311.865 705.583 311.942 705.72 312.08C705.858 312.217 705.935 312.403 705.935 312.598C705.931 312.791 705.853 312.976 705.716 313.112C705.58 313.249 705.395 313.327 705.202 313.331H534.586L482.441 428.195C482.384 428.322 482.291 428.43 482.174 428.505C482.057 428.581 481.92 428.621 481.781 428.62Z" fill="white"/>
<path d="M358.191 437.702H157.044V482.296H358.191V437.702Z" fill="#9B7159"/>
<path d="M718.955 437.702H357.047V482.296H718.955V437.702Z" fill="#B18871"/>
<g style="mix-blend-mode:multiply">
<path d="M358.191 436.67H357.047H157.044V444.867H357.047H358.191H718.955V436.67H358.191Z" fill="#BDC4D7"/>
</g>
<path d="M366.99 427.872H147.337V438.797H366.99V427.872Z" fill="#9B7159"/>
<path d="M727.752 427.872H365.844V438.797H727.752V427.872Z" fill="#B18871"/>
<path d="M307.409 142.524H236.406C232.008 142.524 228.443 146.089 228.443 150.486V185.929C228.443 190.327 232.008 193.892 236.406 193.892H307.409C311.807 193.892 315.372 190.327 315.372 185.929V150.486C315.372 146.089 311.807 142.524 307.409 142.524Z" fill="white"/>
<path d="M335.607 168.201L308.934 156.954V179.448L335.607 168.201Z" fill="white"/>
<path d="M255.059 173.113C257.772 173.113 259.971 170.914 259.971 168.201C259.971 165.488 257.772 163.288 255.059 163.288C252.346 163.288 250.146 165.488 250.146 168.201C250.146 170.914 252.346 173.113 255.059 173.113Z" fill="#BE4E1E"/>
<path d="M271.908 173.113C274.621 173.113 276.82 170.914 276.82 168.201C276.82 165.488 274.621 163.288 271.908 163.288C269.194 163.288 266.995 165.488 266.995 168.201C266.995 170.914 269.194 173.113 271.908 173.113Z" fill="#BE4E1E"/>
<path d="M288.757 173.113C291.47 173.113 293.67 170.914 293.67 168.201C293.67 165.488 291.47 163.288 288.757 163.288C286.044 163.288 283.845 165.488 283.845 168.201C283.845 170.914 286.044 173.113 288.757 173.113Z" fill="#BE4E1E"/>
</svg>
