<svg width="744" height="232" viewBox="0 0 744 232" fill="none" xmlns="http://www.w3.org/2000/svg">
<g filter="url(#filter0_i_1163_474)">
<path d="M0 36.7651V232H742.942C751.942 213.447 705.42 88.2904 529.953 98.9117C437.319 104.519 395.855 108.361 292.368 48.4219C188.881 -11.5171 64.3386 -16.2822 0 36.7651Z" fill="url(#paint0_linear_1163_474)" fill-opacity="0.6"/>
</g>
<mask id="mask0_1163_474" style="mask-type:alpha" maskUnits="userSpaceOnUse" x="263" y="76" width="218" height="156">
<rect x="263" y="76" width="217.206" height="155.775" fill="white"/>
</mask>
<g mask="url(#mask0_1163_474)">
<path d="M311.054 104.738C311.897 105.504 312.944 105.998 314.064 106.158C315.183 106.318 316.324 106.137 317.342 105.638C318.36 105.138 319.209 104.342 319.783 103.351C320.357 102.36 320.629 101.218 320.565 100.069C320.501 98.9206 320.104 97.8171 319.424 96.8983C318.744 95.9795 317.811 95.2866 316.744 94.9072C315.677 94.5278 314.523 94.479 313.429 94.7669C312.335 95.0548 311.349 95.6666 310.596 96.5248C310.096 97.0946 309.712 97.759 309.464 98.4802C309.217 99.2013 309.111 99.965 309.154 100.728C309.196 101.49 309.386 102.237 309.712 102.925C310.038 103.613 310.494 104.229 311.054 104.738Z" fill="#FFB727"/>
<path d="M285.761 225.693H283.05V87.7928C283.05 86.2983 283.468 84.8345 284.256 83.5734C285.044 82.3123 286.169 81.3062 287.499 80.6732C288.829 80.0402 290.309 79.8065 291.765 79.9998C293.221 80.193 294.593 80.805 295.719 81.764L302.958 87.9288L301.221 90.0428L293.982 83.88C293.251 83.2581 292.36 82.8613 291.415 82.7362C290.47 82.6112 289.51 82.7631 288.646 83.174C287.783 83.585 287.053 84.238 286.542 85.0565C286.03 85.8749 285.759 86.8249 285.759 87.7948L285.761 225.693Z" fill="#2E3442"/>
<path d="M298.088 85.7182C298.781 84.9284 299.753 84.4511 300.792 84.3912C301.831 84.3313 302.85 84.6937 303.626 85.3988L311.594 92.6412L306.369 98.5979L298.397 91.3555C297.622 90.6493 297.155 89.659 297.097 88.602C297.038 87.5451 297.395 86.5078 298.088 85.7182Z" fill="#F2811C"/>
<path d="M300.357 98.0253L310.353 86.6229C312.539 84.1303 315.608 82.6234 318.886 82.4337C322.163 82.244 325.38 83.3869 327.83 85.6112L301.349 115.807C298.901 113.582 297.421 110.46 297.235 107.125C297.049 103.791 298.172 100.517 300.357 98.0253Z" fill="#314B87"/>
<path d="M300.905 223.981H360.057C360.057 223.981 358.438 171.613 352.662 164.795C346.887 157.977 290.86 156.129 289.326 163.243C287.791 170.358 300.905 223.981 300.905 223.981Z" fill="#2E3442"/>
<g style="mix-blend-mode:overlay" opacity="0.5">
<path d="M300.905 223.981H310.045C310.045 223.981 300.597 189.366 297.86 178.796C295.123 168.226 291.091 159.864 289.336 163.244C287.815 170.371 300.905 223.981 300.905 223.981Z" fill="#2E3442"/>
</g>
<path d="M314.167 225.118H381.232L370.272 165.125C361.823 158.284 346.587 150.832 346.587 150.832C346.587 150.832 325.382 149.595 312.655 160.019C306.365 170.127 304.193 190.041 303.09 205.526L302.567 210.31C302.029 218.162 314.167 225.118 314.167 225.118Z" fill="#FFB727"/>
<path d="M338.433 152.832C338.552 154.893 345.862 168.558 350.215 168.253C354.567 167.948 354.264 158.064 354.264 158.064V157.489L354.199 150.865C353.974 148.784 352.946 146.816 351.567 145.058C347.852 140.319 341.897 135.91 341.897 135.91L338.433 152.832Z" fill="#FFC0C4"/>
<g style="mix-blend-mode:multiply" opacity="0.7">
<path d="M345.115 143.544C345.115 143.544 349.024 154.089 354.27 157.483L354.205 150.858C353.98 148.777 352.952 146.81 351.573 145.052L345.115 143.544Z" fill="#FFC0C4"/>
</g>
<path d="M342.365 139.734C344.306 144.473 351.442 153.576 357.446 154.273C360.102 154.73 366.129 151.483 369.449 147.731C370.238 146.764 370.831 145.052 371.27 142.975C371.396 142.396 371.505 141.786 371.611 141.162C372.588 135.127 372.558 127.39 372.404 126.09C371.999 122.604 366.983 119.497 361.325 118.318C350.075 115.971 347.304 121.289 347.3 121.293C346.646 122.458 345.976 122.701 344.466 125.958C342.028 131.221 341.178 136.815 342.365 139.734Z" fill="#FFC0C4"/>
<path d="M377.105 124.495C377.105 124.495 381.222 130.656 371.86 133.291L374.048 130.147C374.048 130.147 370.432 133.901 362.147 131.076C362.147 131.076 365.529 130.792 366.95 128.81C366.95 128.81 360.29 131.264 351.592 125.925C351.592 125.925 350.579 130.887 346.162 131.014L345.213 139.716L342.541 137.505L343.713 131.624C343.713 131.624 342.162 126.72 341.233 126.337C341.233 126.337 344.067 116.194 346.108 115.211C348.148 114.228 349.683 115.81 349.683 115.81C349.683 115.81 351.909 112.291 355.565 111.76C359.221 111.228 373.623 118.88 377.105 124.495Z" fill="#2E3442"/>
<path d="M366.017 138.603C366.389 138.283 366.804 138.018 367.248 137.814C367.433 137.737 367.629 137.693 367.829 137.684H367.966C368.013 137.684 368.057 137.698 368.102 137.705C368.144 137.709 368.186 137.721 368.225 137.738C368.266 137.745 368.306 137.76 368.343 137.781C368.705 137.992 369.014 138.287 369.244 138.642C369.525 139.031 369.79 139.466 370.094 139.913C370.143 139.364 370.063 138.811 369.861 138.3C369.81 138.167 369.75 138.039 369.681 137.915C369.646 137.853 369.612 137.789 369.571 137.727L369.44 137.548C369.248 137.291 368.997 137.086 368.709 136.95C368.632 136.913 368.552 136.884 368.468 136.866C368.388 136.839 368.305 136.822 368.221 136.814C368.14 136.814 368.059 136.8 367.978 136.8C367.897 136.8 367.816 136.812 367.737 136.823C367.431 136.877 367.142 137.005 366.893 137.196C366.445 137.543 366.134 138.042 366.017 138.603Z" fill="#2E3442"/>
<g style="mix-blend-mode:multiply" opacity="0.7">
<path d="M354.205 139.194C354.205 139.194 352.524 139.944 351.113 139.32C349.702 138.696 349.089 136.936 349.089 136.936C349.089 136.936 350.767 136.186 352.18 136.81C353.593 137.435 354.205 139.194 354.205 139.194Z" fill="#FFC0C4"/>
</g>
<g style="mix-blend-mode:multiply" opacity="0.7">
<path d="M368.441 142.019C368.441 142.019 369.425 143.087 370.627 143.082C370.849 143.081 371.07 143.045 371.281 142.975C371.406 142.396 371.516 141.786 371.621 141.162C371.303 141.016 370.958 140.939 370.609 140.938C369.41 140.944 368.441 142.019 368.441 142.019Z" fill="#FFC0C4"/>
</g>
<path d="M359.788 132.022C359.788 132.022 355.723 129.286 351.488 133.158C351.498 133.153 356.418 125.777 359.788 132.022Z" fill="#2E3442"/>
<path d="M366.311 133.207C366.311 133.207 370.157 132.694 371.86 136.574C371.86 136.574 370.564 129.816 366.311 133.207Z" fill="#2E3442"/>
<g style="mix-blend-mode:multiply" opacity="0.7">
<path d="M362.218 140.387C362.546 140.367 362.872 140.348 363.194 140.348C363.511 140.343 363.829 140.363 364.143 140.41C364.29 140.434 364.434 140.474 364.572 140.529C364.687 140.567 364.785 140.644 364.849 140.748C364.897 140.867 364.913 140.997 364.898 141.125C364.886 141.273 364.856 141.418 364.807 141.558C364.614 142.148 364.232 142.656 363.722 143C363.176 143.338 362.53 143.467 361.9 143.363C362.371 143.56 362.892 143.598 363.386 143.472C363.553 143.425 363.715 143.361 363.87 143.28C364.491 142.94 364.962 142.371 365.185 141.689C365.242 141.515 365.276 141.335 365.289 141.152C365.292 141.104 365.292 141.056 365.289 141.007C365.288 140.958 365.283 140.909 365.275 140.861C365.267 140.81 365.256 140.76 365.242 140.711C365.225 140.658 365.203 140.608 365.175 140.56L365.131 140.488C365.113 140.466 365.092 140.443 365.072 140.422C365.053 140.402 365.032 140.383 365.009 140.367C364.99 140.35 364.97 140.335 364.949 140.321C364.868 140.268 364.781 140.224 364.69 140.192C364.521 140.135 364.346 140.102 364.169 140.093C363.831 140.072 363.491 140.091 363.157 140.148C362.838 140.202 362.524 140.282 362.218 140.387Z" fill="#FFC0C4"/>
</g>
<path d="M359.591 137.289C359.701 136.644 359.585 135.98 359.263 135.414C359.086 135.102 358.838 134.838 358.541 134.643C358.462 134.596 358.381 134.552 358.298 134.509C358.215 134.466 358.126 134.445 358.039 134.414C357.948 134.383 357.854 134.363 357.759 134.357C357.665 134.339 357.568 134.332 357.472 134.336C357.112 134.347 356.759 134.447 356.445 134.627L356.229 134.754C356.16 134.802 356.095 134.851 356.026 134.901C355.899 134.999 355.778 135.105 355.664 135.22C355.222 135.663 354.885 136.204 354.68 136.8C355.19 136.452 355.66 136.11 356.13 135.822C356.599 135.533 357.079 135.315 357.486 135.309C357.587 135.309 357.687 135.32 357.786 135.341C357.836 135.356 357.891 135.366 357.941 135.383C357.992 135.399 358.041 135.428 358.093 135.447C358.302 135.551 358.492 135.691 358.656 135.859C359.035 136.286 359.35 136.768 359.591 137.289Z" fill="#2E3442"/>
<path d="M354.45 145.996C355.091 147.164 356.357 148.211 358.731 148.674C360.148 148.969 361.306 148.841 362.243 148.489C364.916 147.496 365.814 144.702 365.814 144.702C365.443 144.841 365.061 144.944 364.671 145.011C364.408 145.062 364.143 145.098 363.877 145.12C362.258 145.271 359.735 145.075 356.927 143.311C356.774 143.218 356.618 143.117 356.462 143.01C355.675 142.468 354.934 141.86 354.247 141.191C354.247 141.191 353.251 143.808 354.45 145.996Z" fill="#2E3442"/>
<path d="M356.698 144.988C359.041 146.707 363.917 146.663 364.189 146.457C364.344 146.344 364.537 145.61 364.672 145.015C364.41 145.066 364.145 145.102 363.879 145.124C362.259 145.275 359.737 145.079 356.929 143.315C356.763 143.856 356.685 144.421 356.698 144.988Z" fill="white"/>
<path d="M354.45 145.996C355.092 147.164 356.357 148.211 358.731 148.674C360.148 148.969 361.306 148.841 362.244 148.489C361.09 147.457 357.879 145.013 354.45 145.996Z" fill="#FFC0C4"/>
<g style="mix-blend-mode:multiply">
<path d="M354.45 145.996C355.092 147.164 356.357 148.211 358.731 148.674C360.148 148.969 361.306 148.841 362.244 148.489C361.09 147.457 357.879 145.013 354.45 145.996Z" fill="#FFC0C4"/>
</g>
<path d="M343.712 131.643C343.712 131.643 343.243 126.587 340.305 125.975C337.368 125.363 334.41 140.991 342.735 136.536L343.712 131.643Z" fill="#FFC0C4"/>
<g style="mix-blend-mode:multiply" opacity="0.7">
<path d="M342.41 133.988C342.369 133.978 342.333 133.955 342.306 133.922C342.28 133.889 342.265 133.847 342.265 133.804C342.265 133.792 342.265 132.578 341.639 132.127C341.348 131.921 340.949 131.905 340.455 132.088C340.432 132.096 340.409 132.1 340.385 132.099C340.361 132.098 340.337 132.092 340.316 132.082C340.294 132.072 340.274 132.058 340.258 132.04C340.242 132.022 340.229 132.001 340.221 131.978C340.213 131.955 340.209 131.931 340.21 131.906C340.211 131.882 340.217 131.858 340.227 131.836C340.237 131.814 340.251 131.794 340.269 131.778C340.286 131.761 340.307 131.748 340.329 131.74C340.937 131.513 341.455 131.534 341.85 131.826C341.944 131.894 342.029 131.973 342.103 132.063C341.852 131.132 341.354 130.436 340.763 130.339C340.568 130.315 340.37 130.34 340.187 130.412C340.004 130.484 339.841 130.6 339.712 130.751C339.553 130.917 339.417 131.105 339.307 131.309C339.297 131.331 339.282 131.35 339.264 131.366C339.246 131.382 339.225 131.394 339.202 131.402C339.18 131.409 339.156 131.412 339.132 131.41C339.108 131.408 339.085 131.401 339.064 131.39C339.021 131.368 338.989 131.329 338.974 131.283C338.959 131.237 338.962 131.186 338.983 131.142C339.011 131.087 339.678 129.785 340.829 129.97C341.941 130.149 342.769 131.913 342.637 133.817C342.633 133.865 342.611 133.909 342.576 133.941C342.54 133.973 342.494 133.99 342.447 133.988H342.41Z" fill="#FFC0C4"/>
</g>
<path d="M339.53 135.032C339.53 135.032 340.915 136.489 341.909 137.505C342.066 137.671 342.239 137.821 342.427 137.95C343.091 138.389 343.413 138.007 343.16 137.385C342.755 136.328 342.16 135.082 341.883 134.519C342.208 134.053 342.391 133.5 342.407 132.928C342.461 131.556 341.652 130.407 340.585 130.363C340.529 130.36 340.473 130.36 340.417 130.363H340.405C339.425 130.442 338.617 131.472 338.565 132.768C338.53 133.751 338.923 134.595 339.53 135.032Z" fill="white"/>
<g style="mix-blend-mode:multiply" opacity="0.1">
<path d="M341.994 132.298C342.033 132.691 341.982 133.088 341.843 133.457C341.705 133.826 341.485 134.157 341.198 134.424C341.198 134.424 342.798 137.088 342.925 137.476C343.053 137.863 342.78 138.127 342.421 137.96C343.085 138.399 343.407 138.018 343.154 137.395C342.749 136.338 342.154 135.092 341.877 134.529C342.202 134.064 342.385 133.51 342.401 132.939C342.456 131.566 341.646 130.417 340.579 130.373C340.523 130.37 340.467 130.37 340.411 130.373C340.835 130.494 341.213 130.742 341.496 131.086C341.778 131.429 341.952 131.852 341.994 132.298Z" fill="#2E3442"/>
</g>
<g style="mix-blend-mode:multiply" opacity="0.1">
<path d="M339.399 132.576C339.37 133.326 339.706 133.948 340.15 133.967C340.593 133.985 340.98 133.392 341.008 132.642C341.036 131.892 340.702 131.272 340.257 131.253C339.812 131.235 339.429 131.828 339.399 132.576Z" fill="#2E3442"/>
</g>
<g style="mix-blend-mode:overlay" opacity="0.5">
<path d="M302.521 210.293V210.318C318.637 221.498 321.309 224.176 321.309 224.176C336.374 219.097 329.303 171.048 329.303 171.048C324.811 163.425 312.606 160.027 312.606 160.027C306.318 170.127 303.622 194.811 302.521 210.293Z" fill="#2E3442"/>
</g>
<path d="M370.282 165.125C370.282 165.125 402.626 197.886 406.504 205.357C410.383 212.828 406.338 223.643 398.852 223.643H380.736L370.282 165.125Z" fill="#FFB727"/>
<g style="mix-blend-mode:overlay" opacity="0.5">
<path d="M370.282 165.125C370.282 165.125 402.626 197.886 406.504 205.357C410.383 212.828 406.338 223.643 398.852 223.643H380.736L370.282 165.125Z" fill="#2E3442"/>
</g>
<path d="M406.62 165.627L405.756 177.489L394.213 181.32L398.515 164.976L406.62 165.627Z" fill="#FFC0C4"/>
<path d="M402.01 168.391C400.561 168.143 398.877 155.41 398.877 155.41L411.719 158.101C411.719 158.101 411.982 161.266 411.458 163.089C411.197 164.004 409.563 165.71 408.573 167.128C407.583 168.545 404.703 168.85 402.01 168.391Z" fill="#FFC0C4"/>
<g style="mix-blend-mode:multiply" opacity="0.7">
<path d="M402.018 167.684C400.569 167.437 398.877 155.41 398.877 155.41L411.719 158.101C411.719 158.101 411.982 161.266 411.458 163.089C411.197 164.004 409.253 165.669 408.043 166.87C406.832 168.071 404.715 168.141 402.018 167.684Z" fill="#FFC0C4"/>
</g>
<path d="M399.184 136.862C399.684 141.3 398.071 150.29 397.21 154.612C397.182 154.738 397.158 154.86 397.133 154.977C396.878 156.257 396.704 157.037 396.704 157.037C397.983 160.901 400.224 157.777 400.224 157.777C400.224 157.777 400.512 156.747 400.919 155.179L401.05 154.678C401.988 151.013 404.119 143.985 404.17 140.822C404.251 136.064 399.184 136.862 399.184 136.862Z" fill="#FFC0C4"/>
<path d="M398.623 156.45L398.498 160.258C398.664 162.782 408.911 164.191 409.834 163.678C410.758 163.165 411.685 161 412.146 160.231C412.608 159.463 412.796 155.445 412.335 154.851C411.873 154.258 410.039 154.083 410.039 154.083C410.062 153.746 409.96 153.413 409.754 153.149C409.548 152.885 409.253 152.709 408.926 152.655C407.711 152.42 406.012 152.564 406.012 152.564C406.012 152.564 405.405 151.182 404.893 151.134C404.243 151.072 403.588 151.081 402.939 151.161C402.595 151.208 402.255 151.29 401.927 151.408C401.696 151.491 401.476 151.603 401.271 151.74C400.091 152.542 398.623 156.45 398.623 156.45Z" fill="#FFC0C4"/>
<g style="mix-blend-mode:multiply" opacity="0.7">
<path d="M410.035 154.085C410.035 154.085 409.75 158.307 409.397 159.086C409.045 159.865 407.778 162.671 407.778 162.671C407.778 162.671 409.897 160.198 410.086 159.038C410.274 157.878 410.693 154.18 410.693 154.18L410.035 154.085Z" fill="#FFC0C4"/>
</g>
<g style="mix-blend-mode:multiply" opacity="0.7">
<path d="M406.007 152.564C406.007 152.564 405.804 157.351 405.464 158.128C405.124 158.904 403.693 162.094 403.693 162.094C403.693 162.094 405.45 159.743 406.049 158.36C406.239 157.194 407.167 152.519 407.167 152.519L406.007 152.564Z" fill="#FFC0C4"/>
</g>
<g style="mix-blend-mode:multiply" opacity="0.7">
<path d="M403.083 168.386L403.411 167.045C403.411 167.045 404.32 162.456 401.994 160.658C401.994 160.658 405.84 160.186 405.486 155.23C405.486 155.23 403.278 154.89 401.053 154.691C399.559 154.557 398.055 154.485 397.207 154.623C397.178 154.748 397.154 154.87 397.13 154.987C396.905 155.01 396.683 155.052 396.466 155.113C395.466 156.881 392.625 164.799 403.083 168.386Z" fill="#FFC0C4"/>
</g>
<path d="M394.859 156.854C394.417 160.05 397.553 166.394 397.677 167.204C399.432 168.663 402.535 168.401 403.084 168.386C403.232 168.157 403.327 167.896 403.361 167.624C403.381 167.418 403.397 167.233 403.412 167.045C403.817 161.043 399.97 160.116 399.97 160.116C405.436 160.672 405.068 155.599 405.068 155.599C403.827 155.616 402.456 155.393 400.916 155.187C399.551 155 398.209 154.849 397.13 154.981C396.906 155.004 396.683 155.046 396.466 155.107C395.596 155.344 394.998 155.865 394.859 156.854Z" fill="#FFC0C4"/>
<g style="mix-blend-mode:multiply" opacity="0.7">
<path d="M401.923 151.409L401.164 154.464L402.936 151.167C402.591 151.212 402.252 151.293 401.923 151.409Z" fill="#FFC0C4"/>
</g>
<path d="M408.248 173.921C408.248 173.921 410.343 196.954 408.079 213.102C405.816 229.249 395.668 226.667 387.646 221.481C379.623 216.295 386.315 201.563 386.315 201.563L394.909 172.371C394.909 172.371 401.053 167.304 408.248 173.921Z" fill="#FFB727"/>
<path d="M327.121 153.512L325.04 169.509L313.731 173.824L318.288 156.51L327.121 153.512Z" fill="#FFC0C4"/>
<path d="M320.097 128.048L320.548 138.871L322.992 144.912C324.47 144.341 326.336 144.383 327.5 144.5C326.777 143.367 326.022 141.951 325.721 140.616C325.061 137.711 324.54 127.411 320.097 128.048Z" fill="#FFC0C4"/>
<path d="M320.096 128.048L320.546 138.871C320.546 138.871 317.784 145.1 316.766 147.525C315.748 149.95 317.56 159.966 317.56 159.966L324.1 160.996C324.1 160.996 331.694 158.159 332.477 154.196C333.261 150.234 334.777 144.848 337.287 143.276C337.287 143.276 335.558 140.898 333.414 141.76C331.271 142.621 329.182 146.797 329.182 146.797C328.575 146.067 328.013 145.3 327.499 144.5C327.36 144.278 327.214 144.049 327.078 143.806C326.501 142.817 325.961 141.69 325.72 140.618C325.056 137.711 324.538 127.411 320.096 128.048Z" fill="#FFC0C4"/>
<g style="mix-blend-mode:multiply" opacity="0.7">
<path d="M325.716 140.612C326.009 141.737 326.466 142.812 327.072 143.8C327.208 144.043 327.353 144.271 327.493 144.494C328.007 145.294 328.569 146.061 329.175 146.791C325.286 148.916 324.013 153.179 323.744 154.273C324.699 150.026 323.629 146.905 323.629 146.905L324.942 144.484C324.274 144.537 323.616 144.681 322.985 144.912L320.541 138.871L320.09 128.048C324.539 127.411 325.06 137.711 325.716 140.612Z" fill="#FFC0C4"/>
</g>
<path d="M313.81 128.173L313.406 128.26C313.406 128.26 313.037 127.641 313.11 127.524C313.183 127.407 313.841 127.763 313.841 127.763L313.81 128.173Z" fill="#2E3442"/>
<path d="M314.481 130.2L313.402 128.26C313.428 128.146 313.482 128.042 313.558 127.955C313.633 127.869 313.729 127.802 313.837 127.763L315.825 128.713C315.721 129.046 315.547 129.352 315.315 129.609C315.083 129.866 314.798 130.068 314.481 130.2Z" fill="#F2811C"/>
<path d="M336.198 148.299L337.872 149.801C337.872 149.801 338.346 148.062 337.872 147.148C337.399 146.233 331.409 141.333 331.409 141.333C331.307 141.512 331.256 141.715 331.259 141.921C331.263 142.127 331.322 142.328 331.429 142.503C331.53 142.665 331.673 142.796 331.841 142.883C332.01 142.97 332.198 143.009 332.386 142.996C332.386 142.996 334.965 145.378 335.749 146.181C336.532 146.985 336.198 148.299 336.198 148.299Z" fill="#F2811C"/>
<path d="M338.807 150.36C338.088 152.818 336.348 153.005 336.232 153.016L314.486 130.213C314.891 128.633 315.833 128.721 315.833 128.721L338.807 150.36Z" fill="#2E3442"/>
<g style="mix-blend-mode:overlay" opacity="0.3">
<path d="M338.807 150.36C338.088 152.818 336.348 153.005 336.232 153.016C336.232 153.016 336.39 150.628 338.807 150.36Z" fill="white"/>
</g>
<path d="M339.842 152.28C339.79 152.682 339.619 153.058 339.351 153.357C339.082 153.656 338.73 153.864 338.342 153.953L336.874 152.173C336.928 151.9 337.056 151.648 337.243 151.446C337.43 151.243 337.669 151.097 337.933 151.025L339.842 152.28Z" fill="#F2811C"/>
<g style="mix-blend-mode:overlay" opacity="0.5">
<path d="M339.842 152.28C339.79 152.682 339.619 153.058 339.351 153.357C339.082 153.656 338.73 153.864 338.342 153.953C338.35 153.537 338.507 153.137 338.783 152.829C339.059 152.522 339.435 152.326 339.842 152.28Z" fill="#2E3442"/>
</g>
<path d="M323.698 146.667C323.698 146.667 328.64 138.366 328.322 136.365C328.004 134.364 327.356 134.21 327.356 134.21L325.573 136.87C325.573 136.87 327.864 132.25 327.366 130.347C327.028 129.167 326.294 128.146 325.291 127.462L320.544 138.862L323.698 146.667Z" fill="#FFC0C4"/>
<path d="M331.838 155.696C331.305 154.699 330.791 153.694 330.342 152.655C329.443 150.572 329.293 148.596 329.303 146.55C329.777 145.66 331.57 142.491 333.411 141.753C335.554 140.892 337.283 143.27 337.283 143.27C334.773 144.844 333.255 150.232 332.473 154.19C332.357 154.729 332.141 155.24 331.838 155.696Z" fill="#FFC0C4"/>
<path d="M328.599 165.986C328.599 165.986 330.825 190.381 328.421 207.489C326.016 224.597 314.641 228.437 306.152 222.942C297.664 217.447 299.098 203.135 304.065 191.704C309.033 180.273 314.479 164.34 314.479 164.34C314.479 164.34 320.977 158.976 328.599 165.986Z" fill="#FFB727"/>
<path d="M300.952 145.837C300.974 145.837 303.201 145.056 303.861 141.345C303.879 141.29 303.914 141.242 303.96 141.208C304.007 141.174 304.062 141.156 304.12 141.156C304.177 141.156 304.233 141.174 304.279 141.208C304.326 141.242 304.361 141.29 304.379 141.345C305.039 145.054 307.266 145.831 307.286 145.837C307.334 145.848 307.376 145.875 307.407 145.913C307.437 145.952 307.454 146.001 307.454 146.05C307.454 146.1 307.437 146.148 307.407 146.187C307.376 146.226 307.334 146.253 307.286 146.264C307.264 146.264 305.043 147.02 304.379 150.755C304.361 150.811 304.326 150.859 304.279 150.893C304.233 150.927 304.177 150.945 304.12 150.945C304.062 150.945 304.007 150.927 303.96 150.893C303.914 150.859 303.879 150.811 303.861 150.755C303.201 147.046 300.974 146.272 300.954 146.264C300.906 146.253 300.863 146.226 300.833 146.187C300.802 146.148 300.785 146.1 300.785 146.05C300.785 146.001 300.802 145.952 300.833 145.913C300.863 145.875 300.906 145.848 300.954 145.837H300.952Z" fill="white"/>
<path d="M308.037 134.76C308.049 134.76 309.341 134.307 309.721 132.158C309.731 132.124 309.75 132.095 309.778 132.074C309.806 132.054 309.839 132.043 309.873 132.045C309.907 132.043 309.941 132.053 309.968 132.074C309.995 132.095 310.015 132.124 310.023 132.158C310.406 134.307 311.695 134.756 311.707 134.76C311.736 134.766 311.761 134.781 311.78 134.803C311.798 134.826 311.809 134.854 311.809 134.884C311.809 134.913 311.798 134.942 311.78 134.964C311.761 134.987 311.736 135.002 311.707 135.007C311.695 135.007 310.408 135.444 310.023 137.61C310.014 137.643 309.995 137.672 309.967 137.692C309.94 137.713 309.907 137.723 309.873 137.721C309.839 137.723 309.806 137.713 309.778 137.693C309.751 137.672 309.731 137.643 309.721 137.61C309.341 135.459 308.049 135.012 308.037 135.007C308.009 135.002 307.983 134.987 307.965 134.964C307.946 134.942 307.936 134.913 307.936 134.884C307.936 134.854 307.946 134.826 307.965 134.803C307.983 134.781 308.009 134.766 308.037 134.76Z" fill="white"/>
<path d="M292.14 132.372C292.172 132.362 295.275 131.27 296.188 126.043C296.212 125.963 296.26 125.894 296.325 125.845C296.39 125.795 296.469 125.769 296.551 125.769C296.632 125.769 296.711 125.795 296.776 125.845C296.842 125.894 296.889 125.963 296.913 126.043C297.83 131.27 300.935 132.362 300.962 132.372C301.03 132.386 301.091 132.424 301.135 132.479C301.179 132.534 301.203 132.602 301.203 132.673C301.203 132.744 301.179 132.812 301.135 132.867C301.091 132.922 301.03 132.96 300.962 132.974C300.931 132.984 297.836 134.039 296.913 139.304C296.889 139.383 296.842 139.452 296.776 139.501C296.711 139.551 296.632 139.577 296.551 139.577C296.469 139.577 296.39 139.551 296.325 139.501C296.26 139.452 296.212 139.383 296.188 139.304C295.271 134.076 292.168 132.984 292.14 132.974C292.074 132.956 292.015 132.918 291.972 132.864C291.929 132.811 291.904 132.744 291.901 132.675C291.904 132.605 291.929 132.538 291.972 132.484C292.015 132.43 292.073 132.39 292.14 132.372Z" fill="white"/>
<path d="M351.774 221.827L365.506 184.647C365.668 184.212 365.955 183.837 366.331 183.572C366.707 183.308 367.153 183.166 367.61 183.165H425.254C425.609 183.166 425.959 183.252 426.275 183.416C426.591 183.581 426.864 183.819 427.072 184.111C427.281 184.403 427.418 184.742 427.474 185.098C427.529 185.455 427.501 185.82 427.392 186.164L415.444 223.339C415.296 223.797 415.01 224.196 414.627 224.479C414.244 224.762 413.782 224.914 413.309 224.915H353.878C353.515 224.914 353.159 224.823 352.838 224.652C352.517 224.48 352.242 224.232 352.035 223.929C351.829 223.626 351.697 223.276 351.652 222.91C351.606 222.544 351.648 222.173 351.774 221.827Z" fill="#F2811C"/>
<g style="mix-blend-mode:overlay" opacity="0.6">
<path d="M351.774 221.827L365.506 184.647C365.668 184.212 365.955 183.837 366.331 183.572C366.707 183.308 367.153 183.166 367.61 183.165H425.254C425.609 183.166 425.959 183.252 426.275 183.416C426.591 183.581 426.864 183.819 427.072 184.111C427.281 184.403 427.418 184.742 427.474 185.098C427.529 185.455 427.501 185.82 427.392 186.164L415.444 223.339C415.296 223.797 415.01 224.196 414.627 224.479C414.244 224.762 413.782 224.914 413.309 224.915H353.878C353.515 224.914 353.159 224.823 352.838 224.652C352.517 224.48 352.242 224.232 352.035 223.929C351.829 223.626 351.697 223.276 351.652 222.91C351.606 222.544 351.648 222.173 351.774 221.827Z" fill="#2E3442"/>
</g>
<path d="M358.448 222.879V224.919H324.214C323.683 224.919 323.173 224.704 322.797 224.321C322.421 223.939 322.21 223.42 322.21 222.879H358.448Z" fill="#F2811C"/>
<path d="M355.988 224.917H415.418C415.891 224.917 416.352 224.765 416.736 224.483C417.12 224.2 417.406 223.802 417.555 223.345L417.703 222.879L429.5 186.163C429.609 185.82 429.637 185.456 429.581 185.1C429.525 184.744 429.388 184.407 429.18 184.115C428.972 183.823 428.7 183.586 428.385 183.421C428.07 183.257 427.721 183.17 427.367 183.169H369.718C369.262 183.17 368.816 183.313 368.441 183.578C368.066 183.843 367.779 184.218 367.619 184.653L353.887 221.828C353.761 222.174 353.719 222.546 353.764 222.912C353.809 223.277 353.941 223.627 354.147 223.93C354.353 224.233 354.628 224.481 354.949 224.653C355.269 224.825 355.626 224.915 355.988 224.917Z" fill="#F2811C"/>
<g style="mix-blend-mode:overlay" opacity="0.3">
<path d="M384.784 202.396H400.821C401.25 202.396 401.662 202.569 401.966 202.879C402.269 203.188 402.44 203.607 402.44 204.044C402.44 204.481 402.269 204.9 401.966 205.209C401.662 205.519 401.25 205.692 400.821 205.692H384.784C384.355 205.692 383.943 205.519 383.639 205.209C383.336 204.9 383.165 204.481 383.165 204.044C383.165 203.607 383.336 203.188 383.639 202.879C383.943 202.569 384.355 202.396 384.784 202.396Z" fill="white"/>
</g>
<g style="mix-blend-mode:overlay" opacity="0.3">
<path d="M358.448 222.879H417.703L429.5 186.163C429.609 185.82 429.637 185.456 429.581 185.1C429.525 184.744 429.388 184.407 429.18 184.115C428.972 183.823 428.7 183.586 428.385 183.421C428.07 183.257 427.721 183.17 427.367 183.169H419.193L358.448 222.879Z" fill="#2E3442"/>
</g>
<path d="M274.981 224.919H471.914V228.08H274.981V224.919Z" fill="#B25A1F"/>
<path d="M442.062 197.428L411.648 208.977L442.062 220.887L472.477 208.977L442.062 197.428Z" fill="#314B87"/>
<g style="mix-blend-mode:overlay" opacity="0.6">
<path d="M442.063 198.589L412.796 209.426L442.063 220.887L471.375 209.409L442.063 198.589Z" fill="#2E3442"/>
</g>
<path d="M457.785 224.919H426.343L426.562 222.081L427.538 209.16C427.538 209.16 432.205 205.736 442.069 205.736C451.934 205.736 456.603 209.16 456.603 209.16L456.85 212.42L457.785 224.919Z" fill="#314B87"/>
<g style="mix-blend-mode:overlay" opacity="0.3">
<path d="M457.785 224.919H426.343L426.562 222.081C450.769 224.789 456.845 212.426 456.845 212.426L457.785 224.919Z" fill="#2E3442"/>
</g>
<path d="M454.141 224.741H453.191V208.984C453.191 201.081 449.142 200.086 449.1 200.077L447.412 199.462C448.183 198.858 449.288 199.131 449.288 199.131C449.476 199.175 454.124 200.312 454.124 208.984L454.141 224.741Z" fill="#FFB727"/>
<path d="M453.66 222.117C452.71 222.977 452.02 224.093 451.669 225.337C450.918 228.03 451.731 229.14 451.731 229.14L452.44 227.612C452.358 228.238 452.323 228.87 452.337 229.502C452.352 230.648 453.6 231.873 453.6 231.873C454.197 231.365 454.623 230.681 454.819 229.915C455.028 228.933 454.763 226.189 454.763 226.189L455.279 229.417C455.279 229.417 455.746 229.063 455.943 227.889C456.005 226.105 455.048 223.25 453.66 222.117Z" fill="#FFB727"/>
<path d="M454.897 222.528C454.873 222.779 454.777 223.017 454.62 223.213C454.463 223.408 454.252 223.552 454.015 223.625C453.778 223.699 453.525 223.7 453.287 223.627C453.05 223.554 452.839 223.411 452.682 223.216C452.524 223.021 452.427 222.783 452.402 222.532C452.377 222.281 452.427 222.028 452.543 221.805C452.66 221.582 452.839 221.4 453.057 221.281C453.276 221.161 453.524 221.111 453.771 221.135C454.102 221.168 454.406 221.333 454.617 221.594C454.828 221.856 454.929 222.191 454.897 222.528Z" fill="#F2811C"/>
<path d="M370.234 220.222C370.223 221.335 370.31 222.446 370.491 223.544C370.649 224.392 370.867 224.919 371.103 224.919C371.103 224.919 385.038 223.874 389.778 223.649C390.341 223.626 390.759 223.612 391.025 223.612C391.258 223.612 391.618 223.622 392.078 223.645C396.621 223.836 410.95 224.919 410.95 224.919V215.526C410.95 215.526 396.94 216.578 392.236 216.794C391.701 216.817 391.286 216.83 391.025 216.83C390.804 216.83 390.476 216.83 390.057 216.804C385.614 216.613 371.105 215.526 371.105 215.526C370.626 215.526 370.234 217.629 370.234 220.222Z" fill="white"/>
<path d="M412.575 219.042C412.575 219.042 412.473 224.917 410.948 224.917V219.042H412.575Z" fill="white"/>
<g style="mix-blend-mode:multiply" opacity="0.1">
<path d="M412.575 219.042C412.575 219.042 412.473 224.917 410.948 224.917V219.042H412.575Z" fill="#2E3442"/>
</g>
<path d="M410.087 220.222C410.087 220.423 410.087 220.622 410.087 220.818C410.136 223.053 410.479 224.795 410.901 224.915H410.946C411.425 224.915 411.812 222.814 411.812 220.219C411.812 217.623 411.425 215.522 410.946 215.522C410.468 215.522 410.087 217.629 410.087 220.222Z" fill="white"/>
<g style="mix-blend-mode:multiply" opacity="0.2">
<path d="M410.087 220.222C410.087 220.423 410.087 220.622 410.087 220.818C410.135 222.957 410.451 224.638 410.837 224.892C410.854 224.892 410.869 224.909 410.886 224.915H410.905H410.922C411.4 224.915 411.787 222.814 411.787 220.219C411.787 217.623 411.4 215.522 410.922 215.522C410.58 215.522 410.284 216.59 410.143 218.143C410.113 218.775 410.087 219.476 410.087 220.222Z" fill="#2E3442"/>
</g>
<path d="M389.778 223.649C390.341 223.626 390.76 223.612 391.026 223.612C391.259 223.612 391.619 223.622 392.079 223.645C390.988 220.207 392.236 216.794 392.236 216.794C391.702 216.817 391.287 216.83 391.026 216.83C390.805 216.83 390.476 216.83 390.058 216.804C388.996 219.269 389.508 222.421 389.778 223.649Z" fill="#3DB6C4"/>
<g style="mix-blend-mode:multiply" opacity="0.2">
<path d="M410.087 220.222C410.087 220.423 410.087 220.622 410.087 220.818C410.136 222.957 410.451 224.638 410.838 224.892L410.886 224.909C410.774 224.85 410.481 224.497 410.481 222.426C410.481 219.848 411.175 218.152 411.175 218.152H410.153C410.113 218.775 410.087 219.476 410.087 220.222Z" fill="#2E3442"/>
</g>
<path d="M278.431 219.038C278.532 218.868 280.975 214.816 286.023 214.816H315.2V224.783H285.139C281.039 224.783 278.902 221.537 278.346 219.818L278.213 219.409L278.431 219.038Z" fill="#314B87"/>
<g style="mix-blend-mode:overlay" opacity="0.2">
<path d="M278.431 219.038C278.532 218.868 280.975 214.816 286.023 214.816H315.2V224.783H285.139C281.039 224.783 278.902 221.537 278.346 219.818L278.213 219.409L278.431 219.038Z" fill="#2E3442"/>
</g>
<path d="M282.675 219.036C282.773 218.872 285.096 215.026 289.875 214.821C290.005 214.821 290.134 214.821 290.267 214.821H319.446V215.765H290.267C285.687 215.765 283.467 219.531 283.467 219.531C283.467 219.531 284.874 223.849 289.384 223.849H319.443V224.791H289.38C285.282 224.791 283.144 221.544 282.589 219.825L282.456 219.416L282.675 219.036Z" fill="#314B87"/>
<path d="M318.516 215.757H290.266C285.683 215.757 283.465 219.523 283.465 219.523C283.465 219.523 284.871 223.841 289.38 223.841H318.516V215.757Z" fill="white"/>
<path d="M287.402 216.876H318.514V217.111H287.402V216.876Z" fill="#B7EBEA"/>
<path d="M286.477 218.603H318.514V218.838H286.477V218.603Z" fill="#B7EBEA"/>
<path d="M286.477 220.329H318.514V220.564H286.477V220.329Z" fill="#B7EBEA"/>
<path d="M287.402 222.056H318.514V222.291H287.402V222.056Z" fill="#B7EBEA"/>
<path d="M288.95 218.603C289.138 218.865 289.491 219.189 289.491 220.895V222.749L290.939 221.634L292.144 222.749V220.024C292.146 219.846 292.128 219.668 292.091 219.493C292.025 219.163 291.874 218.856 291.654 218.603H288.95Z" fill="#FFB727"/>
<path d="M301.144 214.382C301.02 214.464 300.878 214.512 300.73 214.519C300.583 214.525 300.437 214.492 300.307 214.421C300.177 214.35 300.068 214.245 299.992 214.116C299.916 213.988 299.876 213.841 299.875 213.69L299.64 175.684C299.64 175.224 300.429 173.636 300.429 173.636C300.429 173.636 301.275 175.212 301.277 175.672L301.513 213.679C301.514 213.818 301.481 213.956 301.416 214.078C301.352 214.201 301.258 214.306 301.144 214.382Z" fill="#B25A1F"/>
<path d="M304.722 212.306C305.876 212.651 306.989 213.128 308.038 213.727V214.621L293.401 214.682V213.788C297.347 211.697 301.112 211.246 304.722 212.306Z" fill="#B25A1F"/>
<g style="mix-blend-mode:overlay" opacity="0.2">
<path d="M308.038 213.727V214.621L293.401 214.682V213.788C293.401 213.788 302.155 214.279 304.716 212.306C305.872 212.651 306.987 213.127 308.038 213.727Z" fill="#2E3442"/>
</g>
<path d="M310.126 206.017L310.146 205.999C312.702 203.737 314.485 200.707 315.237 197.346C315.794 194.836 315.751 192.228 315.112 189.739C314.473 187.25 313.258 184.953 311.567 183.041C311.225 182.659 310.861 182.277 310.488 181.933C310.231 181.692 309.966 181.463 309.711 181.253C309.632 181.188 309.552 181.125 309.471 181.062C307.746 179.702 305.763 178.72 303.647 178.178C301.531 177.637 299.328 177.548 297.176 177.917L297.447 179.561C299.376 179.23 301.351 179.31 303.249 179.795C305.146 180.28 306.924 181.16 308.471 182.38L308.683 182.552C308.915 182.743 309.15 182.945 309.381 183.161C309.719 183.474 310.043 183.808 310.349 184.154C311.861 185.871 312.948 187.93 313.52 190.161C314.092 192.392 314.132 194.729 313.637 196.979C312.962 199.989 311.367 202.703 309.081 204.731C308.611 205.117 308.12 205.475 307.611 205.805C307.529 205.858 307.446 205.91 307.354 205.965L307.274 206.015C307.163 206.083 307.054 206.148 306.932 206.219L306.778 206.307L306.639 206.385C306.502 206.462 306.367 206.534 306.24 206.599L306.215 206.612L306.016 206.712L305.988 206.725L305.945 206.748L305.892 206.775L305.861 206.788L305.703 206.865L305.572 206.928L305.53 206.945L305.493 206.962L305.32 207.04C305.268 207.061 305.217 207.082 305.168 207.105C304.729 207.296 304.459 207.378 304.44 207.384C304.252 207.445 304.078 207.504 303.903 207.558L303.731 207.611L303.629 207.64H303.599L303.461 207.68C303.273 207.735 303.085 207.785 302.898 207.831C302.761 207.865 302.622 207.898 302.485 207.928H302.464L302.331 207.959L301.926 208.037C301.832 208.054 301.738 208.074 301.624 208.091L301.498 208.112H301.475L301.374 208.127H301.327L301.123 208.156H301.074L300.94 208.173L300.809 208.188L300.725 208.198C298.555 208.35 296.381 207.986 294.373 207.136C292.158 206.2 290.209 204.712 288.706 202.81L287.43 203.853C289.027 205.882 291.083 207.488 293.421 208.534C295.76 209.579 298.313 210.033 300.862 209.857H300.922H300.972H301.002L301.132 209.842L301.295 209.821H301.336C301.417 209.81 301.498 209.8 301.575 209.787H301.622L301.745 209.768L301.892 209.745C302.003 209.727 302.113 209.706 302.215 209.687L302.361 209.661L302.657 209.601H302.686L302.809 209.575H302.836C302.988 209.542 303.14 209.506 303.292 209.47C303.498 209.416 303.706 209.363 303.915 209.303L304.057 209.261L304.232 209.212L304.38 209.166C304.568 209.107 304.77 209.042 304.943 208.975C304.956 208.975 305.284 208.866 305.81 208.643L305.836 208.631L305.945 208.585L306.165 208.486L306.219 208.463L306.266 208.442L306.401 208.377L306.564 208.299L306.632 208.266L306.682 208.242L306.902 208.131L306.979 208.091C307.12 208.02 307.264 207.94 307.422 207.854L307.568 207.772L307.756 207.671C307.88 207.598 308.005 207.523 308.131 207.445C308.165 207.424 308.199 207.405 308.223 207.388L308.486 207.224L308.51 207.208L308.732 207.061C309.213 206.737 309.679 206.388 310.126 206.017Z" fill="#B25A1F"/>
<path d="M288.139 190.159C288.006 190.613 287.899 191.074 287.818 191.54C287.736 192.006 287.679 192.476 287.648 192.948C287.619 193.388 287.612 193.834 287.627 194.284C287.716 197.045 288.678 199.703 290.369 201.863C291.39 203.169 292.649 204.263 294.078 205.083C294.554 205.334 295.042 205.559 295.542 205.755L295.795 205.849L295.882 205.881C295.992 205.921 296.099 205.96 296.206 205.994L296.366 206.046L296.501 206.089C296.634 206.131 296.765 206.17 296.887 206.202C296.911 206.211 296.936 206.218 296.961 206.223L297.098 206.259L297.163 206.279L297.238 206.298L297.383 206.334L297.52 206.366L297.585 206.38C297.651 206.397 297.715 206.41 297.773 206.422L297.891 206.447C298.334 206.536 298.599 206.563 298.599 206.563C298.766 206.584 298.933 206.603 299.096 206.618L299.229 206.63L299.359 206.641H299.492L300.01 206.67H300.385H300.886H301.151H301.275H301.393H301.419C301.496 206.67 301.569 206.67 301.644 206.655H301.768H301.892C301.918 206.653 301.943 206.653 301.969 206.655H302.012C304.993 206.241 307.731 204.758 309.734 202.474C309.835 202.359 309.933 202.245 310.03 202.126C312.027 199.692 313.069 196.592 312.955 193.423C312.944 193.131 312.925 192.841 312.897 192.554C312.622 189.808 311.486 187.224 309.657 185.186L309.469 184.976C309.166 184.651 308.846 184.343 308.51 184.053C306.103 181.961 303.012 180.865 299.848 180.982C299.437 180.999 299.032 181.032 298.632 181.085C297.137 181.284 295.688 181.754 294.356 182.474C293.817 182.766 293.299 183.097 292.806 183.463C292.034 184.03 291.326 184.684 290.697 185.411C290.644 185.472 290.592 185.535 290.541 185.602C290.367 185.816 290.198 186.038 290.036 186.263C289.795 186.599 289.571 186.947 289.365 187.306C288.844 188.203 288.433 189.161 288.139 190.159Z" fill="#3DB6C4"/>
<g style="mix-blend-mode:overlay" opacity="0.5">
<path d="M296.086 184.349C296.171 184.305 296.268 184.289 296.362 184.304C296.483 184.331 296.595 184.389 296.689 184.472C296.778 184.615 296.831 184.778 296.844 184.947C296.844 185.014 296.844 185.178 296.777 185.213C296.709 185.247 296.542 185.176 296.478 185.136C296.289 185.012 296.138 184.837 296.041 184.63C296.03 184.583 296.028 184.533 296.036 184.485C296.044 184.437 296.061 184.391 296.086 184.349Z" fill="#2E3442"/>
<path d="M294.905 183.008C294.903 183.065 294.89 183.121 294.866 183.172C294.843 183.224 294.81 183.27 294.768 183.308C294.701 183.348 294.524 183.241 294.453 183.274C294.335 183.325 294.279 183.665 294.151 183.684C294.023 183.703 293.817 183.302 293.674 183.341C293.532 183.379 293.361 183.789 293.434 183.933C293.453 183.969 293.554 183.965 293.594 183.973C293.704 183.992 293.935 183.988 294.044 184.019C294.21 184.054 294.367 184.123 294.506 184.221C294.65 184.37 294.663 184.844 294.808 184.985C294.952 185.126 295.359 185.109 295.45 185.256C295.489 185.351 295.505 185.454 295.497 185.557C295.489 185.659 295.458 185.759 295.405 185.846C295.348 185.898 295.159 185.791 295.106 185.846C295.071 185.903 295.052 185.969 295.05 186.036C295.048 186.103 295.064 186.169 295.095 186.228C295.213 186.354 295.624 186.219 295.791 186.263C295.958 186.307 296.273 186.417 296.365 186.547C296.414 186.663 296.43 186.791 296.41 186.916C296.386 187.107 296.271 187.477 296.127 187.594C296.003 187.653 295.867 187.678 295.731 187.668C295.527 187.638 295.326 187.586 295.132 187.514C295.033 187.485 294.804 187.458 294.738 187.376C294.673 187.294 294.718 187.111 294.695 187.027C294.624 186.771 294.487 186.204 294.267 186.051C294.177 185.99 293.926 186.085 293.832 186.032C293.708 185.961 293.658 185.556 293.515 185.562C293.438 185.562 293.425 185.78 293.367 185.829C293.128 186.02 292.316 185.965 292.19 186.249C292.169 186.297 292.23 186.41 292.271 186.44C292.363 186.515 292.701 186.419 292.732 186.532C292.751 186.608 292.569 186.708 292.496 186.733C292.399 186.757 292.297 186.757 292.2 186.733C292.115 186.702 291.939 186.599 291.909 186.515C291.879 186.431 292.042 186.221 292.012 186.133C291.999 186.093 291.881 186.068 291.884 186.024C291.888 185.98 291.993 185.948 292.033 185.93C292.22 185.852 292.637 185.844 292.796 185.739C292.907 185.661 293.147 185.417 293.096 185.289C293.046 185.161 292.682 185.128 292.534 185.147C292.455 185.182 292.38 185.226 292.312 185.279C292.168 185.356 291.832 185.443 291.727 185.569C291.622 185.695 291.659 185.951 291.582 186.06C291.453 186.229 291.287 186.366 291.098 186.459C291.075 186.469 291.05 186.475 291.025 186.475C291 186.475 290.975 186.469 290.952 186.459C290.871 186.416 290.884 186.278 290.91 186.129C290.955 185.988 290.968 185.838 290.946 185.692C290.91 185.611 290.788 185.445 290.691 185.42C291.719 184.207 292.96 183.199 294.35 182.447C294.483 182.515 294.608 182.596 294.725 182.689C294.81 182.779 294.871 182.889 294.905 183.008Z" fill="#2E3442"/>
<path d="M295.496 185.069C295.327 185.037 295.163 184.979 295.01 184.897C294.931 184.829 294.779 184.618 294.823 184.529C294.866 184.439 295.052 184.517 295.123 184.491C295.19 184.454 295.253 184.41 295.311 184.359C295.425 184.268 295.531 184.166 295.628 184.055C295.706 183.946 295.735 183.614 295.862 183.57C295.99 183.526 296.191 183.681 296.264 183.761C296.306 183.823 296.331 183.896 296.337 183.971C296.341 184.042 296.323 184.113 296.286 184.173C296.245 184.219 296.108 184.238 296.048 184.259C295.988 184.28 295.776 184.307 295.712 184.368C295.648 184.429 295.613 184.517 295.635 184.569C295.658 184.62 295.892 184.64 295.93 184.71C295.957 184.785 295.965 184.866 295.953 184.946C295.941 185.025 295.909 185.1 295.86 185.163C295.791 185.22 295.586 185.098 295.496 185.069Z" fill="#2E3442"/>
<path d="M290.442 185.984C290.33 186.108 290.191 186.203 290.036 186.261C290.198 186.034 290.367 185.814 290.541 185.598C290.529 185.731 290.495 185.862 290.442 185.984Z" fill="#2E3442"/>
<path d="M303.667 188.012C303.714 188.032 303.744 188.144 303.75 188.203C303.755 188.263 303.761 188.368 303.719 188.394C303.672 188.403 303.623 188.399 303.577 188.384C303.531 188.368 303.49 188.341 303.457 188.305C303.446 188.273 303.442 188.24 303.445 188.207C303.448 188.174 303.458 188.143 303.474 188.114C303.497 188.083 303.526 188.059 303.559 188.041C303.593 188.024 303.629 188.014 303.667 188.012Z" fill="#2E3442"/>
<path d="M312.55 192.575C312.363 192.754 312.423 193.36 312.297 193.589C312.171 193.818 311.809 194.238 311.563 194.328C311.462 194.364 311.199 194.368 311.13 194.284C311.06 194.2 311.117 194.044 311.15 193.973C311.25 193.763 311.7 193.536 311.833 193.343C311.94 193.186 312.199 192.804 312.113 192.634C312.075 192.598 312.028 192.573 311.978 192.56C311.927 192.548 311.874 192.548 311.824 192.562C311.646 192.647 311.636 193.125 311.511 193.285C311.323 193.545 310.633 193.828 310.541 194.137C310.511 194.231 310.668 194.424 310.64 194.519C310.582 194.722 310.214 195.016 310.015 195.092C309.737 195.201 309.004 195.319 308.82 195.092C308.792 195.056 308.893 194.951 308.865 194.913C308.798 194.864 308.72 194.834 308.639 194.825C308.557 194.816 308.475 194.828 308.4 194.861C308.334 194.915 308.428 195.14 308.362 195.191C308.296 195.243 308.086 195.169 307.987 195.167C307.793 195.146 307.596 195.149 307.403 195.178C307.116 195.27 306.707 195.793 306.412 195.854C306.165 195.908 305.63 195.556 305.408 195.68C305.221 195.782 305.076 196.253 305.112 196.444C305.148 196.635 305.615 196.878 305.675 197.082C305.735 197.287 305.549 197.621 305.529 197.804C305.514 197.919 305.568 198.161 305.515 198.264C305.356 198.572 304.695 198.837 304.361 199.109C304.316 199.145 304.274 199.186 304.236 199.231C304.168 199.315 304.148 199.565 304.048 199.626C303.909 199.661 303.765 199.661 303.626 199.626C303.583 199.626 302.855 199.802 302.688 199.991C302.312 200.421 302.583 201.83 302.14 202.182C302.083 202.226 301.905 202.14 301.851 202.182C301.663 202.373 301.903 203.003 301.781 203.236C301.693 203.408 301.278 203.555 301.183 203.719C301.119 203.88 301.088 204.053 301.093 204.227V204.342C301.089 204.449 301.074 204.555 301.049 204.659C301.043 204.688 301.033 204.716 301.019 204.743C300.788 205.087 300.498 205.388 300.164 205.629C299.955 205.784 299.494 206.068 299.226 206.097C299.038 206.122 298.582 206.07 298.454 205.919C298.434 205.879 298.422 205.834 298.42 205.789C298.417 205.743 298.425 205.698 298.441 205.656C298.537 205.493 299.014 205.48 299.122 205.325C299.149 205.248 299.158 205.165 299.149 205.083C299.149 205.006 299.117 204.85 299.119 204.771C299.119 204.726 299.119 204.64 299.119 204.58C299.121 204.543 299.137 204.509 299.164 204.483C299.246 204.43 299.453 204.59 299.539 204.569C299.625 204.548 299.779 204.456 299.794 204.378C299.813 204.265 299.58 204.103 299.552 203.996C299.537 203.939 299.524 203.805 299.567 203.757C299.61 203.71 299.875 203.809 299.942 203.746C299.964 203.715 299.979 203.679 299.984 203.641C299.99 203.603 299.986 203.564 299.974 203.528C299.91 203.413 299.599 203.392 299.488 203.324C299.234 203.178 299.007 202.989 298.815 202.766C298.773 202.681 298.745 202.59 298.732 202.497C298.718 202.407 298.699 202.318 298.674 202.231C298.589 201.987 298.357 201.521 298.252 201.276C298.22 201.206 298.124 201.074 298.128 200.997C298.128 200.785 298.413 200.436 298.503 200.249C298.467 200.127 298.454 199.85 298.362 199.764C298.224 199.632 297.777 199.701 297.612 199.598C297.434 199.466 297.295 199.287 297.21 199.08C297.109 198.698 297.494 197.896 297.437 197.5C297.405 197.273 297.103 196.887 297.062 196.664C297.038 196.547 296.994 196.282 297.077 196.192C297.16 196.102 297.497 196.215 297.621 196.162C297.745 196.108 297.931 195.745 298.088 195.701C298.372 195.625 298.935 195.959 299.227 195.978C299.346 195.973 299.464 195.959 299.58 195.938C299.738 195.919 300.091 195.965 300.214 195.868C300.338 195.77 300.331 195.379 300.417 195.239C300.503 195.1 300.699 194.836 300.849 194.792C301.049 194.735 301.462 195.041 301.665 194.983C301.868 194.926 302.121 194.473 302.32 194.37C302.427 194.315 302.695 194.193 302.789 194.273C302.832 194.311 302.723 194.452 302.753 194.502C302.858 194.666 303.316 194.777 303.504 194.737C303.624 194.714 303.763 194.462 303.879 194.424C304.154 194.347 304.446 194.361 304.712 194.464C304.928 194.603 304.964 195.228 305.178 195.381C305.392 195.533 306.028 195.614 306.251 195.466C306.474 195.319 306.365 194.498 306.613 194.334C306.776 194.225 307.27 194.546 307.396 194.397C307.521 194.248 307.208 193.921 307.236 193.755C307.249 193.669 307.319 193.465 307.405 193.453C307.707 193.421 307.957 194.217 308.227 194.357C308.427 194.452 308.65 194.48 308.867 194.439C309.022 194.337 309.141 194.188 309.208 194.013C309.235 193.837 309.232 193.658 309.197 193.484C309.2 193.202 309.118 192.925 308.962 192.692C308.806 192.458 308.583 192.279 308.324 192.178C307.975 191.996 307.137 191.589 306.803 191.796C306.701 191.857 306.778 192.178 306.69 192.256C306.602 192.334 306.185 192.487 306.08 192.371C305.975 192.254 306.268 191.876 306.317 191.658C306.32 191.637 306.32 191.616 306.317 191.595C306.251 191.412 306.15 191.244 306.02 191.1C305.874 190.909 305.433 190.615 305.356 190.382C305.326 190.293 305.414 190.098 305.393 190C305.332 189.712 304.99 189.21 304.806 188.979C304.65 188.788 304.041 188.547 304.078 188.303C304.078 188.278 304.163 188.283 304.168 188.259C304.223 188.068 303.909 187.686 303.731 187.582C303.658 187.562 303.581 187.562 303.508 187.582C303.47 187.596 303.421 187.688 303.382 187.678C303.301 187.661 303.279 187.449 303.226 187.386C303.215 187.372 303.174 187.363 303.177 187.348C303.2 187.292 303.365 187.374 303.423 187.374C303.481 187.374 303.635 187.399 303.684 187.357C303.733 187.291 303.755 187.208 303.744 187.126C303.723 187.071 303.687 187.024 303.641 186.989C303.553 186.946 303.457 186.922 303.359 186.918C303.31 186.916 303.261 186.924 303.215 186.941C303.159 186.973 303.112 187.132 303.048 187.132C303.023 187.133 302.999 187.128 302.976 187.118C302.953 187.108 302.933 187.093 302.917 187.074C302.917 187.074 302.917 187.059 302.917 187.057C302.917 187.055 302.883 187.057 302.873 187.057C302.736 187.039 302.606 186.983 302.498 186.895C302.468 186.853 302.526 186.725 302.498 186.689C302.466 186.664 302.428 186.651 302.388 186.65C302.349 186.649 302.31 186.661 302.277 186.684C302.245 186.707 302.22 186.74 302.207 186.779C302.194 186.817 302.194 186.858 302.205 186.897C302.22 186.958 302.414 187.036 302.38 187.088C302.327 187.115 302.34 187.279 302.294 187.309C302.179 187.388 301.873 187.328 301.731 187.336C301.68 187.336 301.562 187.315 301.519 187.348C301.489 187.353 301.459 187.351 301.431 187.341C301.403 187.331 301.377 187.315 301.357 187.292C301.344 187.239 301.344 187.183 301.356 187.129C301.367 187.076 301.391 187.026 301.425 186.983C301.5 186.91 301.736 186.925 301.839 186.906C301.896 186.897 302.014 186.906 302.057 186.868C302.1 186.83 302.138 186.765 302.125 186.729C302.112 186.692 301.971 186.629 301.92 186.597C301.869 186.565 301.721 186.511 301.695 186.45C301.679 186.372 301.678 186.292 301.694 186.214C301.71 186.136 301.742 186.062 301.787 185.997C301.839 185.938 302.016 185.927 302.093 185.904C302.17 185.881 302.305 185.873 302.354 185.825C302.489 185.688 302.386 185.134 302.575 185.079C302.765 185.023 302.993 185.489 303.166 185.577C303.224 185.608 303.354 185.676 303.414 185.64C303.538 185.556 303.38 185.147 303.493 185.048C303.68 184.893 304.243 184.96 304.467 185.067C304.608 185.156 304.716 185.291 304.774 185.449C304.825 185.669 304.47 186.11 304.557 186.32C304.626 186.49 305.08 186.557 305.187 186.702C305.294 186.847 305.215 187.212 305.317 187.338C305.367 187.397 305.534 187.495 305.604 187.458C305.773 187.378 305.63 186.84 305.791 186.734C305.953 186.629 306.29 186.826 306.457 186.809C306.59 186.794 306.718 186.75 306.833 186.681C306.928 186.603 307.097 186.37 307.079 186.246C307.03 185.908 306.369 185.495 306.097 185.291C305.977 185.199 305.722 184.932 305.577 184.977C305.485 185.008 305.517 185.298 305.427 185.338C305.372 185.348 305.315 185.345 305.261 185.328C305.207 185.312 305.158 185.283 305.118 185.243C305.089 185.201 305.166 185.09 305.14 185.052C305.099 184.979 304.866 184.997 304.825 184.924C304.822 184.912 304.821 184.9 304.823 184.888C304.825 184.876 304.829 184.865 304.836 184.855C304.864 184.828 304.958 184.855 304.992 184.832C305.026 184.809 305.093 184.691 305.073 184.641C305.031 184.546 304.759 184.571 304.679 184.504C304.6 184.411 304.536 184.306 304.491 184.192C304.491 184.192 304.491 184.173 304.491 184.17C304.467 184.158 304.457 184.091 304.436 184.074C304.196 183.894 303.913 183.784 303.616 183.753C303.491 183.753 303.179 183.851 303.162 183.975C303.125 184.257 304.119 184.477 304.014 184.739C303.894 185.044 302.939 184.93 302.701 184.716C302.614 184.637 302.72 184.345 302.643 184.259C302.626 184.238 302.562 184.24 302.536 184.233C302.425 184.204 302.177 184.2 302.097 184.122C302.016 184.043 301.93 183.795 301.993 183.711C302.057 183.627 302.324 183.776 302.404 183.711C302.485 183.646 302.432 183.329 302.521 183.253C302.569 183.207 302.725 183.22 302.793 183.209C303.059 183.163 303.592 183.003 303.862 183.018C304.149 183.074 304.424 183.178 304.677 183.325C304.793 183.396 305.052 183.558 305.086 183.688C305.12 183.818 304.817 184.149 304.898 184.276C304.979 184.404 305.298 184.387 305.41 184.326C305.456 184.288 305.493 184.241 305.52 184.188C305.548 184.135 305.564 184.077 305.568 184.017C305.559 183.854 305.11 183.608 305.193 183.471C305.317 183.289 305.855 183.568 306.061 183.646C306.146 183.673 306.224 183.719 306.289 183.782C306.332 183.849 306.38 184.04 306.324 184.097C306.268 184.154 306.054 184.013 305.99 184.068C305.96 184.118 305.942 184.176 305.94 184.234C305.937 184.293 305.949 184.352 305.975 184.404C306.056 184.521 306.422 184.467 306.512 184.574C306.549 184.62 306.512 184.765 306.546 184.809C306.679 184.962 307.154 185.126 307.332 185.031C307.429 184.977 307.463 184.618 307.493 184.597C307.282 184.572 307.075 184.516 306.88 184.429C306.743 184.328 306.456 184.007 306.521 183.856C306.551 183.788 306.743 183.763 306.814 183.793C306.925 183.841 306.97 184.141 307.071 184.21C307.248 184.306 307.45 184.346 307.649 184.322C307.793 184.286 307.962 183.973 308.107 183.94C308.233 183.925 308.361 183.938 308.482 183.979C308.817 184.269 309.138 184.577 309.441 184.901C309.315 184.987 308.921 184.641 308.765 184.71C308.734 184.732 308.708 184.76 308.688 184.793C308.668 184.826 308.656 184.863 308.651 184.901C308.651 184.964 308.827 185.063 308.79 185.115C308.675 185.277 308.201 184.874 308.013 184.941C307.94 184.97 307.799 185.117 307.825 185.188C307.904 185.398 308.501 185.476 308.7 185.378C308.752 185.354 308.749 185.205 308.797 185.178C308.919 185.103 309.229 185.214 309.372 185.197C309.437 185.197 309.548 185.144 309.632 185.124C311.462 187.162 312.598 189.745 312.873 192.491C312.764 192.518 312.612 192.514 312.55 192.575Z" fill="#2E3442"/>
<path d="M287.625 194.286C287.682 195.953 288.055 197.592 288.725 199.115C288.755 198.91 288.747 198.648 288.82 198.542C288.893 198.435 289.196 198.265 289.361 198.127C289.406 198.094 289.445 198.053 289.477 198.007C289.62 197.785 289.575 197.197 289.734 196.985C289.771 196.944 289.816 196.912 289.867 196.891C289.988 196.845 290.101 196.781 290.203 196.7C290.281 196.574 290.328 196.431 290.342 196.282C290.353 196.022 290.023 195.518 290.092 195.258C290.213 194.804 291.188 194.323 291.395 193.901C291.519 193.65 291.333 192.967 291.556 192.8C291.725 192.676 292.185 192.963 292.391 192.923C292.5 192.902 292.659 192.716 292.766 192.699C292.958 192.695 293.147 192.742 293.314 192.837C293.395 192.894 293.448 193.106 293.526 193.163C293.731 193.307 294.328 193.221 294.493 193.406C294.508 193.425 294.493 193.482 294.504 193.499C294.661 193.608 294.85 193.657 295.039 193.637C295.514 193.553 296.352 192.948 296.621 192.554C296.78 192.323 296.996 191.727 296.885 191.465C296.863 191.414 296.724 191.389 296.698 191.339C296.677 191.289 296.666 191.235 296.664 191.181C296.664 191.07 296.664 190.946 296.728 190.908C296.791 190.87 296.949 191.007 297.017 190.978C297.082 190.932 297.136 190.872 297.175 190.802C297.214 190.732 297.238 190.654 297.244 190.574C297.2 190.125 296.178 189.63 296.073 189.193C296.031 189.002 296.307 188.648 296.26 188.469C296.213 188.289 295.846 187.997 295.658 187.907C295.564 187.885 295.468 187.871 295.371 187.863C295.175 187.837 294.982 187.789 294.797 187.72C294.682 187.659 294.521 187.434 294.408 187.367C294.086 187.176 293.314 186.712 292.988 186.889C292.821 186.979 292.954 187.508 292.8 187.623C292.646 187.737 292.237 187.669 291.915 187.623C291.806 187.606 291.696 187.606 291.588 187.623C291.517 187.634 291.4 187.72 291.322 187.724C291.243 187.728 291.134 187.724 291.113 187.671C291.061 187.583 291.263 187.363 291.213 187.271C291.132 187.124 290.74 187.038 290.569 187.042C290.368 187.042 290.027 187.332 289.818 187.346C289.664 187.349 289.51 187.333 289.359 187.298C288.137 189.411 287.535 191.836 287.625 194.286Z" fill="#2E3442"/>
<path d="M303.11 188.171C303.057 188.196 302.937 188.127 302.888 188.098C302.839 188.067 302.798 188.024 302.768 187.974C302.751 187.93 302.802 187.827 302.768 187.783C302.734 187.739 302.62 187.758 302.581 187.722C302.541 187.686 302.519 187.588 302.547 187.556C302.575 187.523 302.68 187.556 302.723 187.556C302.766 187.556 302.843 187.569 302.87 187.598C302.896 187.626 302.87 187.77 302.896 187.812C302.96 187.882 303.217 187.823 303.271 187.905C303.281 187.938 303.282 187.974 303.274 188.007C303.265 188.041 303.248 188.072 303.224 188.096C303.204 188.108 303.157 188.064 303.136 188.073C303.115 188.083 303.16 188.15 303.11 188.171Z" fill="#2E3442"/>
</g>
<g style="mix-blend-mode:overlay" opacity="0.5">
<path d="M289.556 186.975C289.537 187.071 289.519 187.166 289.502 187.263C289.42 187.73 289.364 188.2 289.333 188.673C289.189 190.787 289.559 192.905 290.41 194.84C290.844 195.822 291.397 196.745 292.057 197.586C293.078 198.888 294.336 199.978 295.762 200.797C296.236 201.05 296.725 201.274 297.225 201.469L297.479 201.563L297.563 201.595C297.674 201.635 297.782 201.674 297.889 201.708C297.942 201.727 297.996 201.744 298.049 201.759L298.184 201.803C298.317 201.845 298.449 201.884 298.571 201.918L298.644 201.937L298.781 201.973L298.846 201.992L298.921 202.012L299.066 202.048L299.203 202.08L299.269 202.094C299.334 202.111 299.398 202.124 299.456 202.136L299.573 202.161C300.017 202.25 300.282 202.277 300.282 202.277C300.449 202.298 300.614 202.317 300.779 202.332L300.911 202.344L301.042 202.355H301.173L301.693 202.384H302.068H302.569H302.834H302.958C302.997 202.384 303.035 202.384 303.074 202.384H303.102C303.179 202.384 303.252 202.384 303.327 202.367H303.451H303.573C303.599 202.365 303.626 202.365 303.652 202.367H303.695C306.675 201.951 309.413 200.469 311.417 198.186C311.516 198.072 311.616 197.957 311.713 197.839C312.009 197.476 312.286 197.097 312.543 196.704C312.597 196.62 312.652 196.534 312.704 196.448C312.657 196.683 312.605 196.918 312.546 197.149C312.073 198.971 311.214 200.666 310.028 202.115C309.931 202.233 309.841 202.348 309.732 202.462C307.726 204.733 304.991 206.204 302.018 206.611H301.975C301.949 206.609 301.923 206.609 301.898 206.611H301.774H301.65C301.575 206.611 301.502 206.622 301.425 206.626H301.398H301.28H301.156H300.892H300.391H300.015L299.498 206.597H299.364L299.235 206.586L299.102 206.574C298.938 206.559 298.771 206.54 298.604 206.519C298.604 206.519 298.34 206.492 297.897 206.402L297.779 206.378C297.719 206.366 297.655 206.353 297.591 206.336L297.525 206.322L297.388 206.29L297.244 206.253L297.169 206.234L297.103 206.215L296.966 206.179C296.941 206.173 296.917 206.166 296.893 206.158C296.771 206.125 296.64 206.087 296.506 206.045L296.371 206.001L296.212 205.95C296.105 205.915 295.998 205.877 295.887 205.837L295.801 205.805L295.548 205.711C295.048 205.515 294.559 205.29 294.084 205.039C292.657 204.233 291.396 203.156 290.369 201.866C288.677 199.707 287.714 197.05 287.623 194.29C287.608 193.839 287.615 193.394 287.644 192.953C287.675 192.481 287.732 192.011 287.815 191.545C287.896 191.079 288.003 190.618 288.136 190.165C288.428 189.162 288.84 188.2 289.361 187.3C289.425 187.186 289.49 187.078 289.556 186.975Z" fill="#2E3442"/>
</g>
<path d="M335.4 195.69L332.478 186.859L353.613 189.267L335.4 195.69Z" fill="white"/>
<path d="M335.4 195.69L332.478 186.859L353.613 189.267L335.4 195.69Z" fill="#B7EBEA"/>
<path d="M353.613 189.267L329.847 194.424L331.726 188.973L353.613 189.267Z" fill="white"/>
<path d="M332.478 186.859L353.613 189.267L333.722 182.753L332.478 186.859Z" fill="white"/>
<path d="M291.904 197.327V196.754C291.411 196.754 290.904 196.736 290.403 196.714L290.379 197.287C290.893 197.308 291.405 197.321 291.904 197.327ZM293.807 197.304C294.313 197.285 294.826 197.258 295.327 197.222L295.285 196.649C294.792 196.685 294.287 196.712 293.784 196.729L293.807 197.304ZM288.483 197.166L288.53 196.593C288.155 196.563 287.75 196.524 287.35 196.482L287.04 196.439L286.961 197.011L287.282 197.055C287.695 197.096 288.097 197.134 288.483 197.166ZM297.22 197.036C297.723 196.975 298.231 196.905 298.721 196.822L298.633 196.249C298.143 196.33 297.642 196.402 297.147 196.461L297.22 197.036ZM285.081 196.691L285.19 196.118C284.705 196.023 284.224 195.903 283.751 195.759L283.584 196.311C284.076 196.463 284.576 196.59 285.081 196.691ZM300.6 196.469C301.091 196.364 301.59 196.248 302.082 196.12L301.943 195.56C301.457 195.684 300.965 195.801 300.481 195.904L300.6 196.469ZM303.917 195.604C304.392 195.457 304.88 195.298 305.366 195.132L305.178 194.584C304.698 194.75 304.216 194.907 303.746 195.05L303.917 195.604ZM282.526 195.031C282.537 194.96 282.644 194.695 283.498 194.294L283.259 193.77C282.449 194.152 282.038 194.521 281.966 194.932L282.526 195.031ZM307.152 194.481C307.61 194.305 308.072 194.12 308.565 193.908L308.351 193.371C307.863 193.574 307.413 193.753 306.951 193.933L307.152 194.481ZM285.239 193.654C286.029 193.415 286.684 193.272 286.689 193.272L286.569 192.699C286.541 192.699 285.888 192.85 285.079 193.094L285.239 193.654ZM310.314 193.173L311.704 192.56L311.477 192.031C311.02 192.236 310.557 192.439 310.091 192.642L310.314 193.173ZM313.436 191.79C313.9 191.586 314.362 191.385 314.825 191.188L314.605 190.655C314.14 190.846 313.667 191.055 313.211 191.261L313.436 191.79ZM316.57 190.472C317.065 190.281 317.527 190.107 317.981 189.947L317.794 189.401C317.332 189.563 316.867 189.737 316.364 189.933L316.57 190.472ZM319.76 189.37C320.248 189.227 320.734 189.099 321.209 188.988L321.081 188.415C320.597 188.53 320.1 188.661 319.604 188.797L319.76 189.37ZM331.233 188.679L331.325 188.106C330.818 188.022 330.308 187.953 329.81 187.898L329.748 188.471C330.246 188.526 330.745 188.595 331.24 188.675L331.233 188.679ZM323.042 188.621C323.532 188.543 324.031 188.478 324.524 188.43L324.47 187.857C323.965 187.907 323.455 187.972 322.954 188.048L323.042 188.621ZM327.883 188.335L327.906 187.762C327.39 187.741 326.874 187.737 326.376 187.747L326.388 188.32C326.883 188.306 327.386 188.31 327.898 188.331L327.883 188.335Z" fill="white"/>
<path d="M437.959 174.207C437.995 174.195 441.475 172.984 442.505 167.172C442.533 167.084 442.587 167.007 442.66 166.953C442.733 166.898 442.821 166.869 442.911 166.869C443.001 166.869 443.089 166.898 443.162 166.953C443.235 167.007 443.289 167.084 443.316 167.172C444.347 172.982 447.827 174.195 447.861 174.205C447.937 174.221 448.004 174.263 448.053 174.324C448.102 174.385 448.128 174.461 448.128 174.54C448.128 174.619 448.102 174.695 448.053 174.756C448.004 174.817 447.937 174.859 447.861 174.875C447.825 174.885 444.353 176.059 443.316 181.908C443.289 181.996 443.235 182.073 443.162 182.127C443.089 182.181 443.001 182.211 442.911 182.211C442.821 182.211 442.733 182.181 442.66 182.127C442.587 182.073 442.533 181.996 442.505 181.908C441.475 176.097 437.995 174.885 437.961 174.875C437.888 174.855 437.822 174.812 437.774 174.752C437.726 174.692 437.698 174.618 437.693 174.541C437.697 174.464 437.725 174.39 437.773 174.33C437.82 174.27 437.886 174.227 437.959 174.207Z" fill="white"/>
<path d="M452.519 163.717C452.541 163.717 454.609 162.996 455.221 159.574C455.237 159.522 455.269 159.477 455.313 159.444C455.356 159.412 455.408 159.395 455.462 159.395C455.516 159.395 455.568 159.412 455.612 159.444C455.655 159.477 455.687 159.522 455.703 159.574C456.318 162.996 458.385 163.717 458.404 163.717C458.448 163.727 458.488 163.752 458.517 163.787C458.546 163.823 458.562 163.867 458.563 163.913C458.565 163.961 458.549 164.008 458.52 164.046C458.491 164.084 458.45 164.11 458.404 164.121C458.383 164.121 456.32 164.818 455.703 168.263C455.687 168.315 455.655 168.36 455.612 168.393C455.568 168.425 455.516 168.442 455.462 168.442C455.408 168.442 455.356 168.425 455.313 168.393C455.269 168.36 455.237 168.315 455.221 168.263C454.607 164.841 452.541 164.121 452.521 164.121C452.48 164.107 452.444 164.081 452.419 164.045C452.393 164.01 452.38 163.967 452.38 163.924C452.38 163.88 452.393 163.838 452.419 163.802C452.444 163.767 452.48 163.741 452.521 163.727L452.519 163.717Z" fill="white"/>
</g>
<defs>
<filter id="filter0_i_1163_474" x="0" y="0" width="744" height="233.55" filterUnits="userSpaceOnUse" color-interpolation-filters="sRGB">
<feFlood flood-opacity="0" result="BackgroundImageFix"/>
<feBlend mode="normal" in="SourceGraphic" in2="BackgroundImageFix" result="shape"/>
<feColorMatrix in="SourceAlpha" type="matrix" values="0 0 0 0 0 0 0 0 0 0 0 0 0 0 0 0 0 0 127 0" result="hardAlpha"/>
<feOffset dy="1.55"/>
<feGaussianBlur stdDeviation="3.73937"/>
<feComposite in2="hardAlpha" operator="arithmetic" k2="-1" k3="1"/>
<feColorMatrix type="matrix" values="0 0 0 0 0.841667 0 0 0 0 0.535861 0 0 0 0 0.535861 0 0 0 0.18 0"/>
<feBlend mode="normal" in2="shape" result="effect1_innerShadow_1163_474"/>
</filter>
<linearGradient id="paint0_linear_1163_474" x1="744.157" y1="152.682" x2="-6.69985e-05" y2="152.682" gradientUnits="userSpaceOnUse">
<stop stop-color="#F1C995"/>
<stop offset="0.649" stop-color="#FFFDF6"/>
</linearGradient>
</defs>
</svg>
