<svg width="271" height="348" viewBox="0 0 271 348" fill="none" xmlns="http://www.w3.org/2000/svg">
<path d="M135.237 348C209.927 348 270.475 341.141 270.475 332.679C270.475 324.218 209.927 317.358 135.237 317.358C60.5479 317.358 0 324.218 0 332.679C0 341.141 60.5479 348 135.237 348Z" fill="#E1DCC1"/>
<path d="M133.121 290.357C133.334 290.352 133.546 290.315 133.748 290.247L206.833 263.85C207.292 263.684 207.667 263.342 207.874 262.9C208.081 262.457 208.104 261.95 207.938 261.491C207.772 261.032 207.43 260.657 206.988 260.45C206.545 260.242 206.038 260.219 205.579 260.386L132.505 286.727C132.097 286.874 131.754 287.161 131.536 287.536C131.318 287.911 131.238 288.35 131.312 288.778C131.385 289.205 131.607 289.593 131.938 289.874C132.268 290.154 132.687 290.31 133.121 290.313V290.357Z" fill="#2A2410"/>
<path d="M209.236 290.357C209.671 290.357 210.092 290.203 210.424 289.923C210.757 289.644 210.98 289.256 211.055 288.827C211.13 288.399 211.052 287.958 210.834 287.582C210.616 287.206 210.272 286.919 209.863 286.771L135.92 260.001C135.693 259.919 135.451 259.882 135.21 259.893C134.968 259.904 134.731 259.962 134.512 260.065C134.293 260.168 134.096 260.313 133.933 260.491C133.77 260.67 133.643 260.879 133.561 261.106C133.479 261.334 133.442 261.575 133.453 261.817C133.464 262.059 133.523 262.296 133.625 262.515C133.728 262.734 133.873 262.931 134.051 263.094C134.23 263.257 134.439 263.383 134.666 263.466L208.609 290.203C208.809 290.286 209.021 290.338 209.236 290.357Z" fill="#2A2410"/>
<path d="M209.303 320.504L198.173 236.145H142.938L131.632 320.515C131.531 321.272 131.159 321.967 130.584 322.47C130.01 322.974 129.272 323.252 128.508 323.253C128.058 323.254 127.614 323.159 127.204 322.973C126.794 322.788 126.428 322.516 126.132 322.178C125.836 321.839 125.616 321.44 125.487 321.009C125.358 320.578 125.323 320.124 125.385 319.679L137.043 232.571C137.147 231.814 137.522 231.12 138.098 230.618C138.675 230.117 139.414 229.841 140.178 229.843H200.934C201.699 229.84 202.439 230.116 203.014 230.621C203.589 231.125 203.96 231.823 204.057 232.582L215.54 319.679C215.599 320.124 215.563 320.577 215.433 321.007C215.303 321.438 215.083 321.835 214.788 322.174C214.492 322.512 214.127 322.783 213.718 322.97C213.309 323.156 212.865 323.252 212.416 323.253C211.652 323.249 210.916 322.968 210.344 322.462C209.771 321.957 209.402 321.261 209.303 320.504Z" fill="#2A2410"/>
<path d="M146.094 231.46L197.226 233.011C209.72 233.011 223.105 226.17 225.03 213.818C227.444 198.21 228.277 182.399 227.516 166.624C226.702 150.016 217.408 131.868 202.615 124.279C202.615 124.279 195.686 158.518 205.596 205.921C201.845 223.926 146.094 231.46 146.094 231.46Z" fill="#2A2410"/>
<path d="M75.2382 292.92L72.7195 302.676L58.3555 302.17L61.2921 290.677L75.2382 292.92Z" fill="#E69862"/>
<path d="M25.6427 324.661H77.5336C77.9568 323.757 78.1889 322.776 78.2155 321.779C78.5345 317.38 77.1157 310.396 76.4557 305.974C76.3678 305.457 76.3018 304.973 76.2358 304.544C76.1525 303.946 76.1011 303.344 76.0818 302.741C76.0818 299.133 72.8922 299.749 72.8922 299.749C67.646 304.896 61.7068 297.186 58.2313 299.749C58.2313 299.749 56.7355 300.849 52.611 304.522C48.4866 308.196 41.4586 310.638 35.5414 313.134C27.8424 316.357 25.6427 319.568 25.2358 321.779C25.0084 322.757 25.1535 323.784 25.6427 324.661Z" fill="#CF492C"/>
<path d="M25.6508 324.661H77.5417C77.9649 323.758 78.197 322.777 78.2236 321.78H25.1999C24.9858 322.763 25.1466 323.79 25.6508 324.661Z" fill="#A42E14"/>
<path d="M72.1993 324.661H73.7391C72.7506 323.529 71.9958 322.212 71.5182 320.787C71.0406 319.362 70.8497 317.856 70.9565 316.357C71.1057 314.34 71.6714 312.376 72.6179 310.589C73.5645 308.802 74.8712 307.231 76.4558 305.974C76.3678 305.457 76.3018 304.973 76.2358 304.545C74.3631 305.912 72.8126 307.674 71.6935 309.705C70.5743 311.736 69.9136 313.988 69.7577 316.302C69.5468 319.29 70.413 322.256 72.1993 324.661Z" fill="#A42E14"/>
<path d="M53.4484 307.547C53.6531 307.541 53.849 307.462 54.0005 307.324C54.1519 307.186 54.2491 306.998 54.2743 306.795C54.2996 306.592 54.2513 306.386 54.1381 306.215C54.0249 306.045 53.8544 305.92 53.6573 305.864L50.3578 305.061C50.1452 305.028 49.9277 305.075 49.7484 305.194C49.5691 305.313 49.4411 305.495 49.3899 305.704C49.3387 305.913 49.3679 306.134 49.4718 306.323C49.5757 306.511 49.7467 306.654 49.9508 306.722L53.2504 307.525C53.3147 307.543 53.3816 307.551 53.4484 307.547Z" fill="#FCF9ED"/>
<path d="M56.331 304.699C56.535 304.691 56.7293 304.61 56.879 304.471C57.0287 304.332 57.1241 304.145 57.1479 303.942C57.1718 303.739 57.1226 303.535 57.0091 303.365C56.8957 303.195 56.7255 303.072 56.529 303.016L53.2955 302.202C53.1839 302.167 53.0662 302.155 52.9497 302.166C52.8332 302.178 52.7204 302.213 52.6181 302.27C52.5158 302.327 52.4263 302.405 52.355 302.498C52.2838 302.59 52.2322 302.697 52.2037 302.811C52.1751 302.924 52.1701 303.042 52.1889 303.158C52.2077 303.273 52.25 303.384 52.3131 303.482C52.3762 303.581 52.4589 303.666 52.5559 303.731C52.653 303.797 52.7624 303.841 52.8775 303.863L56.1221 304.666C56.1894 304.688 56.26 304.7 56.331 304.699Z" fill="#FCF9ED"/>
<path d="M50.2195 309.438C50.4095 309.437 50.5935 309.372 50.7428 309.255C50.8921 309.137 50.9982 308.974 51.0444 308.789C51.0723 308.68 51.0781 308.567 51.0615 308.455C51.045 308.344 51.0064 308.237 50.948 308.141C50.8896 308.045 50.8126 307.961 50.7216 307.895C50.6305 307.829 50.5271 307.781 50.4175 307.756L47.1839 306.942C46.9692 306.901 46.7473 306.945 46.5633 307.062C46.3793 307.18 46.2472 307.364 46.1939 307.576C46.1406 307.787 46.1701 308.012 46.2764 308.202C46.3827 308.393 46.5578 308.536 46.766 308.603L50.0656 309.405C50.1155 309.422 50.1671 309.433 50.2195 309.438Z" fill="#FCF9ED"/>
<path d="M46.9718 311.242C47.1636 311.243 47.3502 311.18 47.5017 311.062C47.6532 310.945 47.761 310.78 47.8077 310.593C47.8579 310.373 47.8205 310.143 47.7035 309.95C47.5865 309.757 47.399 309.617 47.1808 309.56L43.8812 308.757C43.6686 308.723 43.4511 308.77 43.2718 308.889C43.0925 309.009 42.9646 309.191 42.9133 309.4C42.8621 309.609 42.8913 309.83 42.9952 310.018C43.0991 310.207 43.2701 310.349 43.4743 310.418L46.7078 311.22C46.7937 311.244 46.8832 311.252 46.9718 311.242Z" fill="#FCF9ED"/>
<path d="M43.45 312.925C43.6611 312.927 43.8653 312.85 44.0235 312.71C44.1816 312.57 44.2826 312.377 44.3071 312.167C44.3316 311.957 44.2779 311.746 44.1563 311.573C44.0347 311.401 43.8537 311.279 43.648 311.232L40.4144 310.429C40.1997 310.389 39.9777 310.432 39.7938 310.549C39.6098 310.667 39.4777 310.851 39.4244 311.063C39.3711 311.274 39.4006 311.499 39.5069 311.689C39.6132 311.88 39.7883 312.023 39.9965 312.09L43.296 312.892C43.3459 312.909 43.3976 312.92 43.45 312.925Z" fill="#FCF9ED"/>
<path d="M39.5941 314.399C39.8063 314.404 40.0124 314.329 40.1728 314.19C40.3331 314.051 40.4362 313.857 40.4622 313.647C40.4882 313.436 40.4352 313.223 40.3134 313.05C40.1917 312.876 40.0099 312.753 39.8031 312.706L36.5035 311.903C36.2833 311.85 36.0511 311.886 35.8574 312.003C35.6637 312.121 35.5243 312.31 35.4697 312.53C35.4418 312.639 35.436 312.752 35.4526 312.864C35.4691 312.975 35.5077 313.082 35.5661 313.178C35.6245 313.274 35.7014 313.358 35.7925 313.424C35.8836 313.49 35.987 313.538 36.0966 313.563L39.3411 314.366L39.5941 314.399Z" fill="#FCF9ED"/>
<path d="M161.464 195.11C161.464 195.11 175.509 219.175 149.421 226.456C132.516 231.185 93.6803 229.348 88.137 226.456C82.5938 223.563 77.7324 208.594 91.5576 201.852C105.383 195.11 146.077 192.547 146.077 192.547L161.464 195.11Z" fill="#2E3442"/>
<path d="M211.813 192.316C211.813 192.316 214.012 213.213 197.284 221.275C180.555 229.337 150.375 215.6 144.172 209.023C137.969 202.446 149.924 184.232 149.924 184.232C149.924 184.232 152.19 204.041 211.813 192.316Z" fill="#2E3442"/>
<path d="M107.509 228.611C107.509 228.611 106.607 245.252 94.4431 262.871C85.4463 275.882 75.6686 295.141 75.6686 295.141L60.0508 292.523C65.7248 264.255 73.6883 236.495 83.8625 209.518C83.8625 209.518 102.087 217.612 107.509 228.611Z" fill="#2E3442"/>
<path d="M76.6087 291.995H76.4988L61.3648 289.278C61.2873 289.265 61.2133 289.236 61.1469 289.194C61.0805 289.152 61.0231 289.097 60.9781 289.033C60.9331 288.968 60.9013 288.896 60.8846 288.819C60.8679 288.742 60.8667 288.663 60.8809 288.585C60.9078 288.428 60.9958 288.288 61.1255 288.195C61.2553 288.103 61.4164 288.065 61.5738 288.09L76.7187 290.807C76.7962 290.82 76.8703 290.849 76.9367 290.891C77.0031 290.933 77.0605 290.988 77.1055 291.052C77.1505 291.117 77.1823 291.189 77.1989 291.266C77.2156 291.343 77.2169 291.423 77.2027 291.5C77.177 291.639 77.1036 291.764 76.9951 291.855C76.8866 291.945 76.7499 291.995 76.6087 291.995Z" fill="#202124"/>
<path d="M75.237 291.302C75.1499 291.301 75.0639 291.282 74.9841 291.247C74.8401 291.178 74.7293 291.055 74.6757 290.904C74.6221 290.754 74.6302 290.589 74.6981 290.444C75.1491 289.487 85.6966 267.083 90.404 260.748C95.1113 254.413 104.196 231.25 103.877 222.858C103.871 222.772 103.885 222.686 103.918 222.606C103.95 222.526 104 222.454 104.064 222.396C104.127 222.337 104.202 222.293 104.283 222.266C104.365 222.24 104.452 222.232 104.537 222.242C104.922 222.242 143.659 226.059 166.327 219.548C166.405 219.515 166.49 219.498 166.576 219.5C166.662 219.502 166.746 219.523 166.823 219.56C166.9 219.597 166.969 219.65 167.024 219.715C167.079 219.78 167.12 219.857 167.143 219.939C167.167 220.021 167.172 220.108 167.16 220.192C167.148 220.277 167.118 220.358 167.072 220.43C167.026 220.502 166.965 220.564 166.893 220.611C166.822 220.658 166.741 220.689 166.657 220.703C145.429 226.807 110.366 224.002 105.065 223.496C104.944 232.735 96.1232 254.985 91.3498 261.463C86.7635 267.666 75.875 290.686 75.765 290.917C75.7219 291.024 75.6496 291.117 75.5563 291.185C75.4629 291.253 75.3523 291.294 75.237 291.302Z" fill="#202124"/>
<path d="M134.321 124.642L134.42 127.216L134.497 129.866C134.552 131.626 134.574 133.397 134.607 135.157C134.673 138.676 134.662 142.185 134.607 145.594C134.607 147.299 134.497 148.993 134.387 150.609C134.277 152.226 134.134 153.799 133.936 155.13C133.837 155.79 133.727 156.384 133.639 156.758C133.639 156.934 133.562 157.077 133.639 157.022V156.967L133.716 156.824L133.815 156.659C133.981 156.381 134.172 156.119 134.387 155.878C134.469 155.774 134.566 155.681 134.673 155.603C134.59 155.704 134.494 155.792 134.387 155.867C133.933 156.206 133.459 156.518 132.968 156.802C131.802 157.484 130.394 158.187 128.921 158.858C127.447 159.529 125.874 160.189 124.29 160.816C121.101 162.07 117.801 163.28 114.447 164.435C111.092 165.589 107.705 166.634 104.284 167.734C102.583 168.277 100.874 168.805 99.1587 169.318L94.0444 170.825L93.8904 170.88C91.8981 171.463 90.2071 172.791 89.1687 174.589C88.1302 176.386 87.8241 178.515 88.3139 180.532C88.8037 182.549 90.0518 184.301 91.7989 185.422C93.5461 186.543 95.658 186.948 97.6959 186.553L100.49 186.025L103.228 185.464C105.054 185.09 106.887 184.697 108.727 184.287C112.368 183.484 115.997 182.593 119.649 181.658C123.3 180.723 126.941 179.689 130.647 178.491C132.495 177.886 134.354 177.248 136.246 176.533C138.137 175.818 140.073 175.026 142.13 174.003C143.266 173.45 144.367 172.829 145.429 172.145C146.092 171.725 146.731 171.27 147.343 170.781C147.673 170.506 148.047 170.187 148.443 169.835C148.874 169.433 149.281 169.007 149.664 168.559C150.166 167.963 150.618 167.326 151.017 166.656L151.193 166.348L151.358 166.051L151.534 165.699C151.655 165.468 151.775 165.226 151.863 165.017C152.197 164.267 152.491 163.5 152.743 162.719C153.139 161.502 153.47 160.265 153.733 159.012C154.217 156.758 154.536 154.712 154.778 152.688C155.02 150.664 155.218 148.718 155.372 146.782C155.658 142.911 155.823 139.083 155.922 135.333C155.922 133.441 155.922 131.549 155.988 129.668V126.765V125.346V123.872C155.988 122.433 155.701 121.009 155.143 119.682C154.586 118.356 153.768 117.154 152.74 116.148C151.711 115.141 150.492 114.351 149.153 113.823C147.815 113.294 146.384 113.039 144.945 113.071C143.507 113.103 142.089 113.423 140.776 114.01C139.462 114.598 138.279 115.443 137.297 116.494C136.314 117.545 135.552 118.782 135.054 120.132C134.556 121.483 134.333 122.919 134.398 124.356V124.642H134.321Z" fill="#E69862"/>
<path d="M140.857 160.695C140.97 160.696 141.081 160.663 141.174 160.599C141.267 160.535 141.338 160.444 141.378 160.338C141.417 160.233 141.423 160.117 141.395 160.008C141.367 159.899 141.306 159.801 141.22 159.727C139.207 158.023 136.884 156.724 134.379 155.9C134.24 155.858 134.091 155.873 133.964 155.941C133.836 156.009 133.74 156.125 133.697 156.263C133.655 156.403 133.67 156.553 133.738 156.683C133.806 156.812 133.921 156.91 134.06 156.956C136.411 157.741 138.594 158.961 140.494 160.552C140.542 160.599 140.599 160.635 140.661 160.66C140.724 160.685 140.79 160.696 140.857 160.695Z" fill="#CD703A"/>
<path d="M134.143 122.64L133.428 146.122C141.47 146.481 149.527 146.257 157.536 145.451C159.395 138.434 159.175 130.24 158.295 121.672C158.005 118.699 156.632 115.936 154.438 113.909C152.244 111.881 149.382 110.73 146.395 110.674H145.889C142.75 110.72 139.756 112.003 137.557 114.243C135.358 116.484 134.131 119.501 134.143 122.64Z" fill="#F97E48"/>
<path d="M111.383 298.968L108.853 308.713L94.5 308.207L97.4256 296.724L111.383 298.968Z" fill="#E69862"/>
<path d="M61.7459 330.711H113.626C114.048 329.807 114.28 328.826 114.308 327.829C114.638 323.43 113.208 316.435 112.548 312.024C112.471 311.507 112.394 311.023 112.339 310.583C112.25 309.986 112.199 309.383 112.185 308.78C112.185 305.183 108.995 305.799 108.995 305.799C103.749 310.946 97.799 303.225 94.3345 305.799C94.3345 305.799 92.8387 306.899 88.7142 310.572C84.5898 314.246 77.5947 316.732 71.6226 319.228C63.9236 322.44 61.7239 325.662 61.317 327.873C61.1127 328.84 61.265 329.848 61.7459 330.711Z" fill="#CF492C"/>
<path d="M61.7469 330.71H113.627C114.048 329.806 114.281 328.825 114.309 327.828H61.318C61.1025 328.809 61.2552 329.835 61.7469 330.71Z" fill="#A42E14"/>
<path d="M108.327 330.71H109.867C108.876 329.579 108.119 328.263 107.639 326.838C107.16 325.413 106.967 323.906 107.073 322.406C107.222 320.39 107.787 318.425 108.734 316.638C109.68 314.851 110.988 313.28 112.573 312.024C112.496 311.507 112.419 311.023 112.364 310.583C110.492 311.952 108.941 313.714 107.82 315.745C106.699 317.776 106.035 320.026 105.875 322.34C105.672 325.333 106.541 328.3 108.327 330.71Z" fill="#A42E14"/>
<path d="M89.5987 313.596C89.8035 313.59 89.9993 313.511 90.1508 313.373C90.3023 313.235 90.3995 313.048 90.4247 312.844C90.45 312.641 90.4017 312.435 90.2885 312.265C90.1753 312.094 90.0048 311.969 89.8077 311.913L86.5082 311.1C86.2956 311.066 86.0781 311.113 85.8988 311.232C85.7195 311.351 85.5915 311.533 85.5403 311.743C85.489 311.952 85.5183 312.172 85.6222 312.361C85.7261 312.549 85.8971 312.692 86.1012 312.76L89.3348 313.563L89.5987 313.596Z" fill="#FCF9ED"/>
<path d="M92.455 310.737C92.6598 310.731 92.8556 310.652 93.0071 310.514C93.1586 310.376 93.2558 310.188 93.281 309.985C93.3063 309.782 93.2579 309.576 93.1448 309.405C93.0316 309.235 92.8611 309.11 92.664 309.054L89.3645 308.251C89.2554 308.223 89.1418 308.218 89.0305 308.234C88.9191 308.251 88.8122 308.289 88.7159 308.348C88.6197 308.406 88.536 308.483 88.4698 308.574C88.4037 308.665 88.3563 308.769 88.3306 308.878C88.2774 309.098 88.3135 309.331 88.431 309.524C88.5484 309.718 88.7377 309.857 88.9575 309.912L92.1911 310.715L92.455 310.737Z" fill="#FCF9ED"/>
<path d="M86.36 315.5C86.5514 315.499 86.737 315.434 86.8881 315.317C87.0393 315.2 87.1475 315.036 87.1959 314.851C87.2237 314.742 87.2296 314.628 87.213 314.517C87.1964 314.405 87.1578 314.298 87.0995 314.202C87.0411 314.106 86.9641 314.022 86.873 313.956C86.7819 313.89 86.6786 313.843 86.569 313.817L83.2694 313.014C83.0508 312.96 82.8198 312.995 82.6264 313.11C82.433 313.225 82.2926 313.412 82.2356 313.63C82.2007 313.743 82.1895 313.863 82.2025 313.98C82.2155 314.098 82.2526 314.212 82.3113 314.315C82.37 314.418 82.4492 314.508 82.544 314.58C82.6388 314.651 82.7472 314.702 82.8625 314.73L86.162 315.533L86.36 315.5Z" fill="#FCF9ED"/>
<path d="M83.118 317.292C83.3219 317.284 83.5162 317.203 83.6659 317.064C83.8157 316.925 83.911 316.738 83.9348 316.535C83.9587 316.332 83.9095 316.128 83.796 315.958C83.6826 315.788 83.5124 315.665 83.3159 315.609L80.0824 314.795C79.8677 314.755 79.6457 314.798 79.4617 314.916C79.2778 315.034 79.1457 315.217 79.0923 315.429C79.039 315.641 79.0685 315.865 79.1749 316.056C79.2812 316.247 79.4563 316.39 79.6644 316.456L82.909 317.259C82.9766 317.281 83.047 317.292 83.118 317.292Z" fill="#FCF9ED"/>
<path d="M79.5354 318.964C79.7267 318.963 79.9124 318.898 80.0635 318.781C80.2146 318.664 80.3228 318.5 80.3713 318.315C80.3991 318.206 80.4049 318.092 80.3883 317.981C80.3718 317.869 80.3332 317.762 80.2748 317.666C80.2164 317.57 80.1395 317.486 80.0484 317.42C79.9573 317.354 79.8539 317.307 79.7443 317.281L76.4448 316.478C76.2261 316.424 75.9952 316.459 75.8018 316.574C75.6083 316.689 75.468 316.876 75.4109 317.094C75.3575 317.315 75.3933 317.549 75.5105 317.745C75.6278 317.94 75.8172 318.082 76.0379 318.139L79.3374 318.942L79.5354 318.964Z" fill="#FCF9ED"/>
<path d="M75.7452 320.394C75.95 320.388 76.1458 320.309 76.2973 320.171C76.4488 320.033 76.546 319.845 76.5712 319.642C76.5965 319.439 76.5481 319.233 76.435 319.062C76.3218 318.892 76.1513 318.767 75.9542 318.711L72.6546 317.908C72.5463 317.881 72.4338 317.876 72.3235 317.893C72.2132 317.91 72.1073 317.948 72.0118 318.006C71.9163 318.064 71.8331 318.14 71.7669 318.229C71.7008 318.319 71.653 318.421 71.6263 318.53C71.5996 318.638 71.5944 318.75 71.6112 318.861C71.628 318.971 71.6663 319.077 71.724 319.172C71.7817 319.268 71.8577 319.351 71.9475 319.417C72.0374 319.483 72.1394 319.531 72.2477 319.558L75.4813 320.372L75.7452 320.394Z" fill="#FCF9ED"/>
<path d="M211.014 203.315C211.014 203.315 211.718 223.882 185.63 231.163C168.725 235.892 129.889 234.055 124.346 231.163C118.803 228.27 113.952 213.301 127.778 206.559C141.603 199.817 178.206 199.806 178.206 199.806L211.014 203.315Z" fill="#2E3442"/>
<path d="M143.713 233.285C143.713 233.285 142.811 249.926 130.647 267.545C121.661 280.557 111.487 300.431 111.487 300.431L95.9023 298.44C101.71 269.757 109.801 241.585 120.099 214.192C120.099 214.192 138.302 222.32 143.713 233.285Z" fill="#2E3442"/>
<path d="M110.056 296.803C109.969 296.818 109.88 296.818 109.792 296.803C109.649 296.729 109.541 296.604 109.489 296.452C109.438 296.3 109.448 296.133 109.517 295.989C112.091 290.764 124.09 269.746 128.017 263.312C135.782 250.576 139.818 234.122 139.301 227.941C139.291 227.855 139.301 227.767 139.329 227.686C139.358 227.604 139.405 227.529 139.466 227.468C139.526 227.404 139.6 227.354 139.682 227.324C139.764 227.293 139.852 227.282 139.939 227.292C150.429 227.96 160.957 227.673 171.395 226.434C180.733 225.235 188.442 223.135 194.305 220.319C201.542 216.789 205.952 212.026 207.426 206.164C207.436 206.079 207.464 205.997 207.508 205.923C207.552 205.849 207.611 205.786 207.682 205.737C207.752 205.688 207.832 205.655 207.916 205.639C208.001 205.623 208.088 205.626 208.171 205.646C208.254 205.667 208.332 205.705 208.4 205.758C208.467 205.81 208.523 205.877 208.563 205.953C208.602 206.029 208.626 206.113 208.631 206.198C208.636 206.284 208.622 206.37 208.592 206.45C207.03 212.675 202.4 217.712 194.822 221.408C188.838 224.323 181.007 226.423 171.538 227.633C161.25 228.856 150.874 229.157 140.533 228.535C140.808 236.069 136.134 252.358 129.051 263.939C125.135 270.362 113.158 291.314 110.595 296.528C110.538 296.618 110.458 296.691 110.363 296.739C110.268 296.787 110.162 296.809 110.056 296.803Z" fill="#202124"/>
<path d="M112.52 297.329L97.1224 295.46C97.0444 295.45 96.969 295.426 96.9006 295.387C96.8321 295.349 96.7719 295.297 96.7234 295.235C96.6749 295.173 96.639 295.103 96.6178 295.027C96.5967 294.951 96.5906 294.872 96.6 294.794C96.6094 294.716 96.634 294.641 96.6726 294.572C96.7111 294.504 96.7627 294.444 96.8245 294.395C96.8863 294.347 96.957 294.311 97.0327 294.29C97.1083 294.269 97.1874 294.263 97.2654 294.272L112.663 296.142C112.822 296.161 112.967 296.242 113.066 296.368C113.165 296.494 113.21 296.654 113.191 296.813C113.164 296.967 113.08 297.106 112.956 297.201C112.832 297.297 112.677 297.343 112.52 297.329Z" fill="#202124"/>
<path d="M143.805 146.584C144.102 147.684 144.41 149.114 144.729 150.731C144.85 151.291 144.96 151.83 145.081 152.468C146.071 157.517 147.281 164.171 148.656 171.045C148.777 171.661 148.909 172.288 149.041 172.903C152.186 187.696 147.853 180.888 149.041 185.673C153.649 204.084 202.207 200.961 209.631 196.407C215.262 192.943 212.172 162.015 207.695 143.208C207.542 142.57 207.399 141.943 207.245 141.327C206.035 136.202 205.045 132 204.737 129.514C203.131 117.944 199.953 105.824 197.5 100.764C195.047 95.705 175.206 94.1652 175.206 94.1652L153.429 99.9285C147.378 102.635 142.144 106.882 138.251 112.247C131.674 121.299 140.726 134.629 143.805 146.584Z" fill="#F97E48"/>
<path d="M143.67 145.276H143.725C143.797 145.27 143.867 145.25 143.931 145.217C143.995 145.184 144.052 145.139 144.098 145.083C144.144 145.028 144.178 144.964 144.199 144.895C144.22 144.826 144.227 144.753 144.22 144.682C143.389 137.75 142.107 130.879 140.381 124.115C140.343 123.975 140.25 123.856 140.125 123.784C139.999 123.712 139.85 123.692 139.71 123.73C139.641 123.746 139.575 123.777 139.517 123.819C139.459 123.861 139.411 123.915 139.374 123.976C139.337 124.038 139.313 124.106 139.302 124.177C139.292 124.248 139.296 124.32 139.314 124.389C141.025 131.097 142.299 137.908 143.131 144.781C143.142 144.916 143.203 145.042 143.303 145.134C143.403 145.225 143.534 145.276 143.67 145.276Z" fill="#BE4E1E"/>
<path d="M245.686 74.7751C245.653 76.3295 245.209 77.8475 244.399 79.1745C240.164 86.0926 232.641 93.4725 222.05 101.237C217.448 104.608 212.675 107.739 207.752 110.619C205.739 111.767 203.353 112.068 201.118 111.457C198.883 110.845 196.983 109.371 195.835 107.358C194.687 105.345 194.386 102.959 194.997 100.724C195.609 98.4895 197.083 96.5891 199.096 95.4413C205.442 91.8118 223.293 80.1754 229.496 70.0458C230.5 68.4125 232.014 67.1549 233.804 66.4664C235.594 65.778 237.56 65.6969 239.4 66.2357C241.24 66.7746 242.853 67.9034 243.988 69.4484C245.124 70.9934 245.72 72.8689 245.686 74.7861V74.7751Z" fill="#E69862"/>
<path d="M245.691 75.3581C245.57 75.875 245.427 76.4579 245.229 76.9969L238.19 73.0924C235.528 71.6076 232.691 70.2328 230.106 68.55C230.172 67.7581 230.205 66.9112 230.227 66.0314C230.227 64.2826 230.227 62.4239 230.117 60.5321C230.007 58.6404 229.875 56.7486 229.688 54.8349C229.336 50.9964 228.863 47.1359 228.302 43.2315C228.027 41.2957 227.741 39.349 227.422 37.4133L226.905 34.4877L226.41 31.6281V31.5071C226.137 29.7883 226.534 28.0301 227.518 26.595C228.503 25.1599 230.001 24.1571 231.702 23.7933C233.404 23.4295 235.181 23.7324 236.666 24.6396C238.152 25.5468 239.232 26.9892 239.686 28.6695L240.071 30.1983L240.434 31.7051L241.148 34.6967C241.61 36.691 242.054 38.6928 242.479 40.7018C243.337 44.7163 244.118 48.7637 244.789 52.8882C245.119 54.9449 245.427 57.0236 245.68 59.1463C245.933 61.269 246.142 63.4247 246.263 65.7454C246.263 66.8452 246.351 68.0221 246.329 69.2429C246.324 70.5444 246.243 71.8444 246.087 73.1364C245.999 73.7853 245.878 74.5332 245.691 75.3581Z" fill="#E69862"/>
<path d="M227.561 30.7153C227.561 30.7153 234.765 34.1138 239.219 30.1544C242.804 26.9538 241.617 20.7727 241.023 18.518C240.88 17.968 240.77 17.6601 240.77 17.6601C240.957 17.4368 241.13 17.2017 241.287 16.9562C241.969 15.9443 242.991 14.0196 242.244 12.4688C241.144 10.2691 237.47 13.0627 237.47 13.0627C237.47 13.0627 237.096 10.0601 235.567 9.68618C234.039 9.31223 232.103 11.6549 232.103 11.6549C232.103 11.6549 232.543 8.0694 230.398 7.91542C227.187 7.69545 227.451 11.8969 227.44 12.2158C227.363 11.8969 224.03 -1.37831 222.061 0.117488C220.357 1.38231 222.479 12.7218 223.084 15.7903C223.183 16.2853 223.249 16.5602 223.249 16.5602C223.107 16.6021 222.967 16.6535 222.831 16.7142C221.61 17.1981 218.102 18.8369 218.355 21.6085C218.663 24.9191 227.561 30.7153 227.561 30.7153Z" fill="#E69862"/>
<path d="M230.559 19.5301C230.682 19.7024 230.849 19.839 231.042 19.9259C231.235 20.0129 231.448 20.0471 231.659 20.025C232.879 20.025 234.177 18.8042 235.101 17.7593C234.962 18.7922 235.162 19.8424 235.673 20.7509C235.809 20.9581 235.995 21.1274 236.215 21.2428C236.434 21.3582 236.679 21.416 236.927 21.4108C237.342 21.3609 237.74 21.218 238.093 20.9929C239.185 20.2991 240.183 19.4673 241.062 18.5182C240.919 17.9793 240.82 17.6603 240.82 17.6603C240.82 17.6603 241.04 17.3964 241.337 16.9564C241.253 16.9839 241.177 17.0332 241.117 17.0994C240.017 18.3862 237.818 20.4539 236.894 20.4759C236.799 20.4837 236.704 20.4639 236.62 20.4191C236.536 20.3742 236.467 20.3061 236.421 20.223C235.877 18.8906 235.877 17.398 236.421 16.0655C236.46 15.9593 236.46 15.8428 236.422 15.7363C236.384 15.6298 236.309 15.54 236.212 15.4826C236.11 15.4322 235.993 15.4211 235.883 15.4516C235.774 15.482 235.679 15.5518 235.618 15.6476C234.991 16.5935 233.055 19.0571 231.67 19.1121C231.615 19.1192 231.559 19.1129 231.508 19.0937C231.456 19.0746 231.41 19.0431 231.373 19.0021C231.178 18.2763 231.212 17.5079 231.472 16.8024C231.491 16.7055 231.517 16.61 231.549 16.5165C231.656 16.0864 231.792 15.6638 231.956 15.2517C232 15.1406 232 15.0166 231.954 14.9059C231.909 14.7951 231.823 14.7061 231.714 14.6577H231.626C231.522 14.6442 231.416 14.6647 231.325 14.7163C231.234 14.7679 231.162 14.8477 231.12 14.9437C231.043 15.1747 230.812 15.7686 230.625 16.4835C230.463 17.0756 230.37 17.6847 230.35 18.2982C230.299 18.7204 230.371 19.1483 230.559 19.5301Z" fill="#CD703A"/>
<path d="M227.717 18.9024C227.864 19.0342 228.042 19.1266 228.234 19.1708C228.426 19.2151 228.627 19.2097 228.817 19.1554C229.352 18.9912 229.834 18.6875 230.214 18.2755C230.633 17.826 231.002 17.3318 231.313 16.8017C231.333 16.7047 231.358 16.6092 231.39 16.5157C231.378 15.892 231.434 15.2688 231.555 14.657H231.467C231.172 15.286 230.838 15.8958 230.466 16.4827C230.049 17.2768 229.385 17.9137 228.575 18.2975C228.377 18.2975 228.3 18.2975 228.267 18.2975C227.772 17.8465 227.838 15.7678 228.047 14.503C228.063 14.3837 228.031 14.2629 227.959 14.1663C227.887 14.0698 227.781 14.0051 227.662 13.9861C227.602 13.9751 227.54 13.9765 227.48 13.9901C227.421 14.0038 227.365 14.0293 227.315 14.0653C227.266 14.1013 227.224 14.147 227.193 14.1995C227.162 14.2521 227.142 14.3104 227.134 14.371C227.112 14.888 226.672 17.9565 227.717 18.9024Z" fill="#CD703A"/>
<path d="M222.724 23.5994C223.905 23.3007 225.044 22.8536 226.112 22.2686C226.944 21.8573 227.648 21.2258 228.147 20.4428C228.308 20.1558 228.407 19.8375 228.435 19.5093C228.464 19.1811 228.421 18.8506 228.312 18.5401C227.531 16.2304 224.726 15.8124 223.109 15.7574C223.208 16.2524 223.274 16.5273 223.274 16.5273C223.132 16.5692 222.992 16.6206 222.856 16.6813C224.198 16.6813 226.816 16.9673 227.443 18.881C227.512 19.0713 227.538 19.2747 227.519 19.4763C227.5 19.678 227.437 19.8729 227.333 20.0469C226.552 21.4767 223.582 22.4885 222.504 22.7525C222.387 22.7835 222.286 22.8599 222.224 22.965C222.162 23.0701 222.144 23.1953 222.174 23.3134C222.212 23.4223 222.29 23.5127 222.393 23.5658C222.495 23.619 222.614 23.631 222.724 23.5994Z" fill="#CD703A"/>
<path d="M234.983 28.4393C235.052 28.3983 235.109 28.3404 235.15 28.2711C235.19 28.2019 235.212 28.1235 235.214 28.0433C235.216 27.9832 235.205 27.9234 235.183 27.8674C235.161 27.8114 235.128 27.7604 235.086 27.7173C235.044 27.6743 234.994 27.6401 234.938 27.6167C234.883 27.5934 234.823 27.5814 234.763 27.5814C234.159 27.6071 233.556 27.5003 232.998 27.2685C232.439 27.0367 231.938 26.6855 231.53 26.2396C229.539 23.9409 230.1 19.5415 230.111 19.4975C230.124 19.4351 230.125 19.3706 230.112 19.3081C230.099 19.2456 230.074 19.1864 230.037 19.1342C230 19.082 229.953 19.038 229.899 19.0049C229.844 18.9719 229.783 18.9505 229.72 18.9421C229.657 18.9337 229.592 18.9385 229.531 18.9562C229.47 18.9739 229.413 19.0041 229.364 19.045C229.315 19.0858 229.275 19.1363 229.246 19.1934C229.218 19.2504 229.201 19.3128 229.198 19.3765C229.198 19.5745 228.582 24.2379 230.837 26.8445C231.325 27.3967 231.929 27.8347 232.606 28.1274C233.283 28.4201 234.015 28.5604 234.752 28.5383C234.836 28.5235 234.915 28.4897 234.983 28.4393Z" fill="#CD703A"/>
<path d="M230.21 68.7921C230.231 68.8374 230.261 68.8783 230.298 68.913C231.392 70.3284 232.236 71.9204 232.794 73.6204C232.835 73.7408 232.921 73.8406 233.034 73.8982C233.147 73.9558 233.278 73.9667 233.399 73.9284C233.459 73.9085 233.514 73.8771 233.561 73.8358C233.608 73.7946 233.647 73.7444 233.674 73.6881C233.702 73.6318 233.718 73.5705 233.722 73.5079C233.726 73.4453 233.717 73.3826 233.696 73.3234C233.101 71.4824 232.177 69.7646 230.969 68.2531C230.925 68.2075 230.873 68.1712 230.816 68.1464C230.758 68.1216 230.696 68.1088 230.633 68.1088C230.57 68.1088 230.508 68.1216 230.451 68.1464C230.393 68.1712 230.341 68.2075 230.298 68.2531C230.23 68.3237 230.186 68.4128 230.17 68.509C230.155 68.6051 230.168 68.7038 230.21 68.7921Z" fill="#CD703A"/>
<path d="M230.693 68.9896L230.825 69.0666C232.381 69.9591 233.77 71.1167 234.928 72.4872C234.969 72.5341 235.019 72.5725 235.075 72.6001C235.131 72.6277 235.192 72.644 235.254 72.6481C235.316 72.6522 235.379 72.644 235.438 72.6239C235.497 72.6038 235.552 72.5723 235.599 72.5311C235.645 72.49 235.684 72.44 235.711 72.384C235.739 72.328 235.755 72.2671 235.759 72.2048C235.764 72.1425 235.755 72.08 235.735 72.0209C235.715 71.9618 235.684 71.9072 235.643 71.8602C234.406 70.3873 232.916 69.147 231.243 68.1977C231.187 68.1707 231.126 68.1556 231.064 68.1533C231.002 68.1509 230.94 68.1614 230.882 68.1842C230.824 68.2069 230.772 68.2413 230.728 68.2853C230.684 68.3293 230.65 68.3818 230.627 68.4397C230.581 68.5271 230.562 68.6267 230.574 68.725C230.586 68.8234 230.627 68.9157 230.693 68.9896Z" fill="#CD703A"/>
<path d="M188.977 96.343L214.021 84.0577C215.561 87.9182 222.05 98.5647 227.824 103.481L202.649 120.826C202.649 120.826 187.493 110.234 188.977 96.343Z" fill="#F97E48"/>
<path d="M181.115 157.693H180.961C169.215 158.793 156.072 147.563 155.511 147.09C155.372 146.973 155.285 146.805 155.268 146.624C155.252 146.443 155.307 146.263 155.423 146.122C155.481 146.051 155.553 145.993 155.634 145.951C155.715 145.908 155.804 145.883 155.896 145.876C155.987 145.869 156.079 145.88 156.166 145.909C156.253 145.938 156.333 145.984 156.401 146.045C156.533 146.155 169.666 157.352 180.818 156.318C180.99 156.298 181.164 156.344 181.304 156.446C181.444 156.548 181.541 156.699 181.575 156.868C181.61 157.038 181.579 157.215 181.49 157.363C181.401 157.512 181.259 157.621 181.093 157.671L181.115 157.693Z" fill="#BE4E1E"/>
<path d="M162.507 110.597C170.866 109.497 177.388 98.6638 177.652 98.2019C177.728 98.1316 177.786 98.0449 177.823 97.9484C177.86 97.8519 177.874 97.7482 177.864 97.6455C177.854 97.5427 177.82 97.4437 177.766 97.356C177.711 97.2683 177.637 97.1944 177.549 97.14C177.462 97.0856 177.363 97.0522 177.26 97.0424C177.157 97.0325 177.053 97.0465 176.957 97.0833C176.86 97.1201 176.774 97.1786 176.704 97.2543C176.634 97.3301 176.582 97.421 176.553 97.52C176.487 97.619 170.085 108.222 162.375 109.266C156.876 110.003 154.006 104.614 153.885 104.383C153.801 104.226 153.659 104.107 153.489 104.055C153.319 104.002 153.135 104.019 152.977 104.103C152.82 104.186 152.702 104.328 152.649 104.498C152.596 104.668 152.614 104.852 152.697 105.01C152.84 105.274 156.15 111.455 162.595 110.597H162.507Z" fill="#BE4E1E"/>
<path d="M144.106 46.2009C146.761 43.6933 149.998 41.886 153.525 40.9421C157.053 39.9982 160.76 39.9474 164.312 40.7942C167.865 41.6411 171.15 43.359 173.872 45.7929C176.595 48.2268 178.668 51.3002 179.906 54.7358C180.302 55.8356 180.676 56.9905 181.006 58.2003L181.27 59.1242C182.789 64.3917 182.298 70.0358 179.892 74.9618C177.486 79.8879 173.336 83.7448 168.248 85.7845C167.148 86.2244 166.125 86.6864 165.08 87.1593C162.262 88.4664 159.199 89.1637 156.092 89.2058C152.986 89.2479 149.906 88.6337 147.053 87.4035C144.2 86.1733 141.639 84.3547 139.537 82.0668C137.435 79.7788 135.84 77.0729 134.856 74.1261L134.482 73.0263C133.241 69.3105 133.015 65.3309 133.827 61.4985C134.64 57.6662 136.46 54.1203 139.102 51.2273C140.63 49.5885 142.302 47.8727 144.106 46.2009Z" fill="#2A2410"/>
<path d="M164.304 86.7303C164.304 86.7303 175.995 83.3318 178.184 70.9915C180.263 59.2341 177.227 53.5369 173.301 47.6747C170.342 43.2753 161.785 37.776 150.864 41.0756C139.942 44.3751 132.001 50.9742 131.649 60.3999C131.011 77.9315 147.025 97.7288 164.304 86.7303Z" fill="#2A2410"/>
<path d="M151.207 44.0009C151.207 44.0009 151.284 27.3382 170.399 28.438C189.515 29.5379 180.595 55.6923 188.206 57.925C195.817 60.1577 202.306 50.138 202.306 50.138C202.306 50.138 205.826 68.0656 189.504 70.3313C173.182 72.597 153.913 57.3531 151.207 44.0009Z" fill="#2A2410"/>
<path d="M140.029 76.7548C140.029 76.7548 135.861 74.0711 135.234 78.2176C134.607 82.364 138.181 89.3041 142.482 86.6754L140.029 76.7548Z" fill="#CD703A"/>
<path d="M153.43 92.978L156.047 102.965C156.047 102.965 164.395 109.982 176.944 94.7268C172.941 92.3071 170.895 86.016 170.928 81.8146C170.003 82.5586 169.145 83.383 168.366 84.2782C168.016 84.6053 167.648 84.9137 167.266 85.2021C163.834 88.0507 158.522 91.8452 153.43 92.978Z" fill="#E69862"/>
<path d="M153.43 92.9785L154.673 97.7189C158.654 95.4532 165.671 90.7788 168.344 84.2787L167.244 85.2026C163.834 88.0512 158.522 91.8456 153.43 92.9785Z" fill="#2A2410"/>
<path d="M136.947 77.6792C137.266 78.7131 137.574 79.6919 137.871 80.6048C140.071 87.4788 141.721 91.1084 143.909 92.3292C154.908 98.4334 170.416 82.3756 170.911 81.8586C170.856 81.0227 170.768 80.2088 170.68 79.406C169.955 73.078 168.287 66.8943 165.73 61.0605C165.011 58.0668 163.351 55.3828 160.993 53.4031C158.635 51.4233 155.704 50.2522 152.631 50.062C146.12 49.721 141.633 53.9114 138.784 55.8472C134.473 58.7728 133.362 65.8448 136.012 74.6326C136.342 75.7178 136.654 76.7333 136.947 77.6792Z" fill="#E69862"/>
<path d="M154.539 76.9966C154.539 76.9966 154.539 82.7488 150.503 84.9375C145.906 87.4342 142.914 81.6379 142.914 81.6379L154.539 76.9966Z" fill="#FCF9ED"/>
<path d="M149.289 87.3688H148.97C148.915 87.3633 148.862 87.347 148.813 87.3207C148.765 87.2945 148.722 87.2589 148.687 87.2159C148.652 87.1729 148.626 87.1235 148.611 87.0705C148.595 87.0174 148.59 86.9618 148.596 86.9069C148.6 86.8524 148.615 86.7992 148.641 86.7506C148.666 86.702 148.7 86.659 148.742 86.6241C148.784 86.5892 148.833 86.5632 148.885 86.5475C148.938 86.5318 148.993 86.5269 149.047 86.5329C149.515 86.5576 149.982 86.4613 150.402 86.2532C150.822 86.0452 151.181 85.7324 151.445 85.3451C151.473 85.298 151.51 85.2571 151.555 85.2249C151.599 85.1926 151.649 85.1696 151.703 85.1573C151.756 85.1449 151.812 85.1435 151.865 85.1531C151.919 85.1627 151.971 85.1831 152.017 85.2131C152.11 85.274 152.176 85.369 152.201 85.4778C152.226 85.5866 152.207 85.7008 152.149 85.796C151.838 86.2729 151.415 86.6659 150.916 86.9402C150.417 87.2145 149.858 87.3617 149.289 87.3688Z" fill="#CD703A"/>
<path d="M147.018 62.5887C147.018 62.5887 145.324 63.2926 146.424 64.7005C147.524 66.1083 150.483 63.2817 153.881 65.4594C153.881 65.4594 153.782 61.3019 147.018 62.5887Z" fill="#2A2410"/>
<path d="M151.389 74.8632C151.642 75.6771 153.512 75.82 155.58 75.1931C157.647 74.5662 159.121 73.3894 158.879 72.5755C158.637 71.7616 156.757 71.6186 154.689 72.2455C152.621 72.8724 151.147 74.0493 151.389 74.8632Z" fill="#CD703A"/>
<g opacity="0.8">
<path d="M136.945 77.6785C137.264 78.7124 137.572 79.6912 137.869 80.6041C139.739 79.9552 141.026 78.8663 140.795 78.1074C140.564 77.3485 138.925 77.1616 136.945 77.6785Z" fill="#CD703A"/>
</g>
<path d="M150.605 70.09C150.946 71.1899 151.705 71.9598 152.354 71.7618C153.003 71.5638 153.212 70.519 152.871 69.3972C152.53 68.2753 151.771 67.5384 151.122 67.7254C150.473 67.9124 150.264 68.9792 150.605 70.09Z" fill="#2A2410"/>
<path d="M139.564 73.466C139.905 74.5659 140.664 75.3358 141.313 75.1378C141.962 74.9399 142.171 73.895 141.83 72.7731C141.489 71.6513 140.73 70.9144 140.081 71.1014C139.432 71.2883 139.223 72.3552 139.564 73.466Z" fill="#2A2410"/>
<path d="M144.57 76.7114C144.26 76.8126 143.938 76.8754 143.613 76.8984C143.548 76.903 143.483 76.8936 143.423 76.8708C143.362 76.848 143.307 76.8124 143.261 76.7664C143.212 76.72 143.174 76.6635 143.149 76.6008C143.125 76.5381 143.114 76.4707 143.118 76.4035L143.327 71.0142C143.317 70.9453 143.321 70.8749 143.34 70.8079C143.36 70.7409 143.393 70.6789 143.438 70.626C143.484 70.5732 143.54 70.5307 143.604 70.5017C143.667 70.4726 143.736 70.4575 143.805 70.4575C143.875 70.4575 143.944 70.4726 144.007 70.5017C144.071 70.5307 144.127 70.5732 144.172 70.626C144.218 70.6789 144.251 70.7409 144.271 70.8079C144.29 70.8749 144.294 70.9453 144.284 71.0142L144.097 75.8205C144.763 75.6571 145.371 75.3148 145.857 74.8307C145.9 74.7794 145.953 74.7377 146.013 74.7082C146.074 74.6786 146.139 74.6619 146.206 74.659C146.273 74.6562 146.34 74.6673 146.402 74.6916C146.465 74.7159 146.522 74.753 146.569 74.8003C146.616 74.8477 146.653 74.9044 146.678 74.9669C146.702 75.0293 146.713 75.0962 146.71 75.1631C146.707 75.2301 146.691 75.2957 146.661 75.3559C146.632 75.416 146.59 75.4694 146.539 75.5126C145.992 76.0695 145.315 76.4816 144.57 76.7114Z" fill="#2A2410"/>
<path d="M165.883 78.4376C165.982 78.5475 168.489 81.5061 170.898 81.8581C170.832 81.0222 170.755 80.2083 170.667 79.4054C169.014 79.5298 167.358 79.1949 165.883 78.4376Z" fill="#2A2410"/>
<path d="M165.572 70.0682C165.572 70.0682 168.201 62.7102 172.908 66.4167C176.791 69.4743 174.789 81.1437 168.399 79.307L165.572 70.0682Z" fill="#E69862"/>
<path d="M168.469 77.3159C168.344 77.3356 168.216 77.3067 168.112 77.2351C168.008 77.1635 167.935 77.0546 167.908 76.9309C167.609 75.386 167.721 73.7896 168.232 72.3015C168.744 70.8133 169.637 69.4856 170.823 68.4511C170.922 68.3723 171.048 68.3362 171.174 68.3506C171.3 68.3651 171.415 68.4289 171.494 68.5281C171.572 68.6273 171.608 68.7537 171.594 68.8795C171.58 69.0053 171.516 69.1202 171.417 69.199C170.371 70.1285 169.586 71.3137 169.137 72.6383C168.687 73.9628 168.59 75.3814 168.854 76.755C168.867 76.8172 168.867 76.8813 168.854 76.9435C168.841 77.0057 168.816 77.0648 168.781 77.1171C168.745 77.1695 168.699 77.214 168.645 77.2482C168.591 77.2823 168.532 77.3054 168.469 77.3159Z" fill="#2A2410"/>
<path d="M171.908 73.2244C171.805 73.2622 171.692 73.2622 171.589 73.2244C170.747 72.8374 169.793 72.7709 168.905 73.0374C168.852 73.0699 168.793 73.0915 168.731 73.1011C168.669 73.1107 168.606 73.108 168.545 73.0932C168.484 73.0784 168.427 73.0517 168.377 73.0148C168.326 72.9779 168.283 72.9313 168.251 72.8779C168.218 72.8245 168.197 72.7651 168.187 72.7033C168.178 72.6415 168.18 72.5784 168.195 72.5177C168.21 72.4569 168.237 72.3997 168.274 72.3492C168.311 72.2987 168.357 72.256 168.41 72.2235C169.675 71.4426 171.71 72.2235 171.952 72.3335C172.07 72.3822 172.163 72.4754 172.213 72.5927C172.262 72.7101 172.263 72.8422 172.216 72.9604C172.186 73.0233 172.143 73.0792 172.09 73.1246C172.037 73.17 171.975 73.204 171.908 73.2244Z" fill="#2A2410"/>
<path d="M164.83 54.8347C164.83 54.8347 160.43 62.2697 157.428 61.6758C154.425 61.0818 157.043 54.7687 157.043 54.7687C157.043 54.7687 149.498 62.4676 145.538 61.9177C141.579 61.3678 146.517 55.3186 146.517 55.3186C146.517 55.3186 141.491 63.5785 137.443 64.4144C133.396 65.2503 135.816 59.0911 135.816 59.0911C135.816 59.0911 134.353 67.153 131.79 67.274C129.227 67.395 129.37 56.4515 136.189 50.6443C143.009 44.8371 163.235 39.2498 164.83 54.8347Z" fill="#2A2410"/>
<path d="M139.12 64.9977C139.12 64.9977 140.913 64.6348 140.792 66.4165C140.671 68.1983 136.634 67.5164 135.039 71.2229C135.039 71.2229 132.807 67.7144 139.12 64.9977Z" fill="#2A2410"/>
<path d="M160.127 58.5524C160.127 58.5524 162.019 71.9045 165.252 70.9807C168.486 70.0568 170.191 64.1066 164.823 54.8019L160.127 58.5524Z" fill="#2A2410"/>
<path d="M32.2363 178.227V182.132C32.2363 184.386 33.6001 186.201 35.2719 186.201H246.443C248.115 186.201 249.479 184.386 249.479 182.132V178.227C249.479 176.027 248.115 174.158 246.443 174.158H35.2719C33.6001 174.158 32.2363 175.983 32.2363 178.227Z" fill="#7D310B"/>
<path d="M249.457 179.47H32.2363V181.263H249.457V179.47Z" fill="#54230B"/>
<path d="M231.252 196.253L44.3433 196.253C42.3743 196.253 40.486 195.471 39.0938 194.079C37.7015 192.686 36.9193 190.798 36.9193 188.829V186.167L238.676 186.167V188.829C238.676 190.798 237.894 192.686 236.501 194.079C235.109 195.471 233.221 196.253 231.252 196.253Z" fill="#54230B"/>
<path d="M47.4953 252.983L225 252.983V246.065L47.4953 246.065V252.983Z" fill="#7D310B"/>
<path d="M237.796 338.739L203.426 196.253H215.502L249.861 338.739H237.796Z" fill="#7D310B"/>
<path d="M34.9306 338.739L69.3009 196.253H57.2355L22.8652 338.739H34.9306Z" fill="#7D310B"/>
<path d="M74.053 174.168H126.758V169.219H74.053V174.168Z" fill="#CF492C"/>
<path d="M58.4579 168.489L62.9805 169.182L68.2086 135.056L63.686 134.363L58.4579 168.489Z" fill="#506FAE"/>
<path d="M63.707 134.365L68.2274 135.058L67.2376 131.605L66.7206 129.812L65.6868 131.363L63.707 134.365Z" fill="#E69862"/>
<path d="M58.8524 166.007L58.4727 168.486L62.9953 169.179L63.375 166.7L58.8524 166.007Z" fill="#2A2410"/>
<path d="M58.4668 170.506L62.3933 171.111C62.4734 171.124 62.5554 171.104 62.6213 171.057C62.6872 171.009 62.7317 170.938 62.7452 170.858L63.0312 169.219L58.5108 168.526L58.2468 170.198C58.242 170.267 58.2613 170.335 58.3014 170.391C58.3416 170.448 58.4 170.488 58.4668 170.506Z" fill="#CF492C"/>
<path d="M65.6855 131.363L67.2363 131.605L66.7194 129.812L65.6855 131.363Z" fill="#2A2410"/>
<path d="M59.1325 164.233L58.8594 166.016L63.382 166.709L63.6551 164.926L59.1325 164.233Z" fill="#FCF9ED"/>
<path d="M66.8524 136.565L62.9809 161.861C62.9648 161.951 62.9145 162.031 62.8407 162.084C62.7668 162.137 62.6752 162.16 62.585 162.147C62.539 162.142 62.4946 162.127 62.4544 162.104C62.4142 162.081 62.3792 162.05 62.3514 162.013C62.3236 161.976 62.3037 161.934 62.2928 161.889C62.2819 161.844 62.2803 161.797 62.288 161.751L66.1595 136.455C66.1757 136.364 66.2255 136.283 66.299 136.228C66.3725 136.173 66.4641 136.148 66.5555 136.158C66.648 136.174 66.7307 136.225 66.786 136.301C66.8414 136.377 66.8652 136.472 66.8524 136.565Z" fill="#2D3D81"/>
<path d="M65.0869 136.29L61.2154 161.587C61.1992 161.677 61.1494 161.758 61.0759 161.813C61.0024 161.868 60.9108 161.893 60.8195 161.884C60.773 161.877 60.7283 161.861 60.6881 161.837C60.6479 161.813 60.6129 161.781 60.5852 161.743C60.5576 161.705 60.5378 161.662 60.527 161.616C60.5162 161.57 60.5147 161.523 60.5225 161.477L64.394 136.18C64.4101 136.09 64.4604 136.011 64.5343 135.957C64.6081 135.904 64.6997 135.881 64.7899 135.894C64.8359 135.899 64.8804 135.914 64.9205 135.937C64.9607 135.96 64.9957 135.991 65.0235 136.028C65.0513 136.065 65.0712 136.108 65.0821 136.153C65.093 136.198 65.0946 136.244 65.0869 136.29Z" fill="#2D3D81"/>
<path d="M55.4286 169.045L60.0039 169.06L60.1184 134.536L55.543 134.521L55.4286 169.045Z" fill="#678E43"/>
<path d="M55.5098 134.519L60.0961 134.53L58.6003 131.263L57.8194 129.569L57.0276 131.263L55.5098 134.519Z" fill="#E69862"/>
<path d="M55.4068 166.559L55.3984 169.066L59.9738 169.082L59.9821 166.574L55.4068 166.559Z" fill="#2A2410"/>
<path d="M55.7103 171.045H59.7358C59.7757 171.045 59.8152 171.037 59.852 171.021C59.8888 171.006 59.922 170.983 59.9497 170.954C59.9774 170.925 59.9991 170.891 60.0133 170.854C60.0276 170.817 60.0342 170.777 60.0327 170.737V169.043H55.4023V170.737C55.4023 170.819 55.4348 170.897 55.4925 170.955C55.5503 171.013 55.6286 171.045 55.7103 171.045Z" fill="#CF492C"/>
<path d="M57.0352 131.263H58.6079L57.827 129.569L57.0352 131.263Z" fill="#2A2410"/>
<path d="M55.1152 163.687V165.491H59.6906V163.687H55.1152Z" fill="#FCF9ED"/>
<path d="M58.9528 136.224L58.8758 161.795C58.873 161.888 58.835 161.976 58.7696 162.041C58.7042 162.106 58.6163 162.144 58.5238 162.147C58.4305 162.147 58.341 162.11 58.275 162.044C58.209 161.978 58.1719 161.889 58.1719 161.795L58.2599 136.224C58.2598 136.132 58.2954 136.044 58.359 135.979C58.4227 135.913 58.5094 135.875 58.6008 135.872C58.6942 135.872 58.7837 135.909 58.8497 135.975C58.9157 136.041 58.9528 136.13 58.9528 136.224Z" fill="#4B6F32"/>
<path d="M57.1657 136.224L57.0887 161.796C57.0858 161.887 57.0475 161.974 56.9818 162.037C56.9161 162.101 56.8282 162.137 56.7367 162.137C56.6434 162.137 56.5539 162.099 56.4879 162.033C56.4218 161.967 56.3848 161.878 56.3848 161.785L56.4398 136.224C56.4397 136.178 56.4489 136.133 56.4667 136.091C56.4845 136.049 56.5107 136.011 56.5435 135.979C56.5763 135.947 56.6152 135.922 56.6579 135.906C56.7005 135.889 56.746 135.882 56.7917 135.883C56.8392 135.879 56.8871 135.884 56.9323 135.899C56.9776 135.914 57.0192 135.938 57.0544 135.971C57.0897 136.003 57.1178 136.042 57.1369 136.086C57.1561 136.129 57.1659 136.176 57.1657 136.224Z" fill="#4B6F32"/>
<path d="M52.1509 134.348L47.6211 134.992L52.4796 169.172L57.0095 168.528L52.1509 134.348Z" fill="#E0AD3A"/>
<path d="M47.6035 135.003L52.1349 134.366L50.1882 131.341L49.1763 129.779L48.6374 131.561L47.6035 135.003Z" fill="#E69862"/>
<path d="M56.6744 166.06L52.1445 166.704L52.4974 169.186L57.0273 168.543L56.6744 166.06Z" fill="#2A2410"/>
<path d="M53.0497 171.122L56.9762 170.561C57.0561 170.55 57.1284 170.508 57.1778 170.445C57.2271 170.381 57.2495 170.3 57.2401 170.22L56.9982 168.549L52.4668 169.219L52.7088 170.902C52.7271 170.975 52.7725 171.039 52.8358 171.08C52.8991 171.12 52.9756 171.136 53.0497 171.122Z" fill="#CF492C"/>
<path d="M48.6426 131.561L50.1934 131.341L49.1815 129.779L48.6426 131.561Z" fill="#2A2410"/>
<path d="M56.4048 164.273L51.875 164.917L52.1288 166.703L56.6587 166.059L56.4048 164.273Z" fill="#FCF9ED"/>
<path d="M51.2642 136.224L54.8607 161.52C54.8704 161.612 54.8452 161.703 54.7901 161.777C54.735 161.85 54.6541 161.9 54.5637 161.916C54.4719 161.929 54.3788 161.905 54.3047 161.849C54.2306 161.794 54.1814 161.711 54.1678 161.619L50.5712 136.323C50.5635 136.277 50.5651 136.23 50.576 136.185C50.5869 136.14 50.6068 136.098 50.6346 136.061C50.6624 136.024 50.6974 135.993 50.7376 135.97C50.7778 135.947 50.8222 135.932 50.8682 135.927C50.9595 135.917 51.0512 135.942 51.1246 135.997C51.1981 136.052 51.248 136.133 51.2642 136.224Z" fill="#CA8A24"/>
<path d="M49.4946 136.454L53.0911 161.751C53.1009 161.842 53.0757 161.934 53.0206 162.007C52.9655 162.081 52.8846 162.131 52.7942 162.147C52.7479 162.153 52.7009 162.15 52.6558 162.138C52.6107 162.126 52.5686 162.105 52.5317 162.076C52.4949 162.047 52.4641 162.012 52.4412 161.971C52.4182 161.93 52.4037 161.885 52.3982 161.839L48.8017 136.542C48.7939 136.497 48.7955 136.45 48.8064 136.405C48.8173 136.36 48.8373 136.318 48.8651 136.281C48.8929 136.244 48.9279 136.213 48.9681 136.19C49.0082 136.166 49.0527 136.152 49.0987 136.147C49.145 136.14 49.192 136.143 49.237 136.156C49.2821 136.168 49.3243 136.189 49.3611 136.218C49.398 136.246 49.4288 136.282 49.4517 136.323C49.4746 136.363 49.4892 136.408 49.4946 136.454Z" fill="#CA8A24"/>
<path d="M46.125 148.179L46.356 150.027L46.5759 151.71L46.9059 154.272L47.1259 155.933L47.4558 158.507L47.6648 160.146L48.0057 162.741L48.2147 164.358L48.5447 166.976L48.7536 168.581L49.0946 171.221L49.3036 172.794L49.4795 174.169H67.4731L67.649 172.794L67.858 171.221L68.199 168.581L68.3969 166.976L68.7379 164.358L68.9469 162.741L69.2878 160.146L69.4968 158.507L69.8268 155.933L70.0467 154.272L70.3767 151.71L70.5856 150.027L70.8276 148.179H46.125Z" fill="#CF492C"/>
<path d="M46.3594 150.027L46.5793 151.71H70.3801L70.5891 150.027H46.3594Z" fill="#A42E14"/>
<path d="M46.9121 154.272L47.1321 155.933H69.833L70.0529 154.272H46.9121Z" fill="#A42E14"/>
<path d="M47.4727 158.507L47.6816 160.146H69.3047L69.5136 158.507H47.4727Z" fill="#A42E14"/>
<path d="M48.0137 162.741L48.2226 164.358H68.7458L68.9548 162.741H48.0137Z" fill="#A42E14"/>
<path d="M48.5527 166.975L48.7617 168.581H68.2071L68.405 166.975H48.5527Z" fill="#A42E14"/>
<path d="M49.0996 171.221L49.3086 172.794H67.6541L67.863 171.221H49.0996Z" fill="#A42E14"/>
</svg>
