<svg width="273" height="317" viewBox="0 0 273 317" fill="none" xmlns="http://www.w3.org/2000/svg">
<path d="M136.5 317C211.887 317 273 310.077 273 301.536C273 292.996 211.887 286.072 136.5 286.072C61.1131 286.072 0 292.996 0 301.536C0 310.077 61.1131 317 136.5 317Z" fill="#E1DCC1"/>
<path d="M138.641 258.818C138.429 258.815 138.219 258.778 138.019 258.707L64.252 232.065C64.0224 231.982 63.8114 231.854 63.6311 231.689C63.4508 231.525 63.3046 231.326 63.201 231.105C63.0974 230.884 63.0384 230.645 63.0273 230.401C63.0162 230.157 63.0533 229.913 63.1364 229.683C63.2195 229.454 63.347 229.243 63.5116 229.063C63.6763 228.882 63.8748 228.736 64.0959 228.632C64.317 228.529 64.5564 228.47 64.8003 228.459C65.0442 228.448 65.2879 228.485 65.5176 228.568L139.274 255.155C139.686 255.304 140.033 255.594 140.253 255.974C140.473 256.353 140.553 256.798 140.477 257.23C140.401 257.662 140.176 258.054 139.84 258.337C139.504 258.619 139.08 258.774 138.641 258.774V258.818Z" fill="#2A2410"/>
<path d="M61.8639 258.818C61.4252 258.818 61.0006 258.663 60.6648 258.381C60.329 258.098 60.1034 257.707 60.0279 257.274C59.9523 256.842 60.0315 256.397 60.2516 256.018C60.4717 255.638 60.8185 255.348 61.2312 255.199L135.864 228.179C136.094 228.096 136.338 228.059 136.582 228.07C136.825 228.081 137.065 228.14 137.286 228.244C137.507 228.347 137.706 228.493 137.87 228.674C138.035 228.854 138.162 229.065 138.246 229.295C138.329 229.524 138.366 229.768 138.355 230.012C138.344 230.256 138.284 230.495 138.181 230.716C138.077 230.937 137.931 231.136 137.751 231.301C137.57 231.465 137.359 231.593 137.13 231.676L62.4634 258.663C62.2723 258.744 62.0703 258.796 61.8639 258.818Z" fill="#2A2410"/>
<path d="M61.7591 289.246L72.9602 204.101H128.71L140.122 289.258C140.224 290.022 140.6 290.723 141.18 291.231C141.76 291.74 142.504 292.02 143.275 292.022C143.729 292.021 144.177 291.923 144.59 291.736C145.002 291.548 145.37 291.274 145.669 290.932C145.967 290.591 146.189 290.189 146.32 289.755C146.451 289.321 146.488 288.863 146.428 288.414L134.649 200.493C134.547 199.729 134.171 199.03 133.591 198.523C133.011 198.017 132.267 197.738 131.497 197.74H70.196C69.4231 197.738 68.676 198.018 68.0939 198.526C67.5119 199.035 67.1345 199.738 67.0321 200.504L55.4425 288.414C55.3842 288.864 55.4224 289.322 55.5546 289.756C55.6869 290.19 55.9101 290.591 56.2094 290.933C56.5087 291.274 56.8773 291.548 57.2906 291.735C57.7039 291.923 58.1524 292.021 58.6064 292.022C59.3791 292.02 60.1248 291.738 60.7048 291.227C61.2848 290.717 61.6595 290.013 61.7591 289.246Z" fill="#2A2410"/>
<path d="M125.572 199.372L73.9291 200.937C61.3182 200.937 47.797 194.032 45.8654 181.566C43.4232 165.813 42.5827 149.853 43.3565 133.931C43.7544 125.649 45.9233 117.548 49.7168 110.176C53.5104 102.803 58.8405 96.3294 65.3479 91.1912C65.3479 91.1912 75.4833 125.749 65.47 173.595C69.2999 191.768 125.572 199.372 125.572 199.372Z" fill="#2A2410"/>
<path d="M136.016 104.557L136.283 106.089L136.582 107.687C136.793 108.797 137.004 109.83 137.226 110.907C137.67 113.049 138.148 115.192 138.658 117.312C139.669 121.564 140.801 125.771 142.089 129.845C143.298 133.785 144.782 137.636 146.529 141.368C147.292 142.991 148.183 144.55 149.193 146.031C149.582 146.599 150.012 147.137 150.481 147.64C150.719 147.9 150.983 148.135 151.269 148.34L151.514 148.495C153.552 149.801 154.989 151.863 155.507 154.228C156.026 156.593 155.583 159.067 154.278 161.106C152.972 163.145 150.91 164.582 148.545 165.1C146.18 165.618 143.706 165.176 141.667 163.87C140.037 162.839 138.544 161.604 137.226 160.196C136.137 159.036 135.135 157.797 134.229 156.488C132.661 154.209 131.28 151.807 130.099 149.306C127.977 144.786 126.174 140.123 124.704 135.351C123.25 130.733 122.018 126.126 120.93 121.519C120.382 119.21 119.872 116.898 119.398 114.581C119.154 113.471 118.921 112.261 118.698 111.095L118.377 109.341L118.055 107.499C117.638 105.121 118.183 102.676 119.569 100.7C120.956 98.7242 123.07 97.3802 125.448 96.9636C127.825 96.547 130.271 97.0919 132.247 98.4784C134.222 99.8649 135.566 101.98 135.983 104.357L136.016 104.557Z" fill="#A15927"/>
<path d="M139.015 95.5533L139.937 116.645L116.891 119.765C116.891 119.765 110.452 89.0036 123.041 77.3806C128.591 72.2963 135.019 76.6813 137.861 85.973C138.79 89.0769 139.181 92.3173 139.015 95.5533Z" fill="#FFB727"/>
<path d="M197.068 261.405L199.611 271.252L214.109 270.741L211.145 259.14L197.068 261.405Z" fill="#A15927"/>
<path d="M247.16 293.443H194.795C194.368 292.531 194.134 291.541 194.107 290.534C193.785 286.094 195.217 279.045 195.883 274.582C195.972 274.06 196.039 273.572 196.094 273.139C196.184 272.536 196.236 271.928 196.25 271.318C196.25 267.677 199.469 268.299 199.469 268.299C204.775 273.494 210.77 265.712 214.278 268.299C214.278 268.299 215.788 269.409 219.939 273.117C224.091 276.824 231.174 279.322 237.191 281.842C244.962 285.095 247.182 288.336 247.592 290.568C247.81 291.547 247.656 292.571 247.16 293.443Z" fill="#BE4E1E"/>
<path d="M247.146 293.443H194.782C194.355 292.531 194.121 291.541 194.094 290.535H247.579C247.805 291.524 247.651 292.562 247.146 293.443Z" fill="#9A391D"/>
<path d="M200.133 293.443H198.579C199.58 292.303 200.346 290.974 200.83 289.536C201.314 288.097 201.507 286.576 201.398 285.062C201.248 283.026 200.677 281.044 199.721 279.24C198.766 277.437 197.447 275.851 195.848 274.582C195.936 274.061 196.003 273.572 196.059 273.139C197.952 274.517 199.521 276.294 200.652 278.345C201.784 280.395 202.452 282.669 202.608 285.006C202.824 288.025 201.945 291.02 200.133 293.443Z" fill="#9A391D"/>
<path d="M219.046 276.17C218.854 276.17 218.667 276.105 218.516 275.987C218.365 275.868 218.259 275.701 218.214 275.515C218.16 275.292 218.196 275.058 218.315 274.862C218.434 274.667 218.625 274.526 218.846 274.471L222.11 273.661C222.223 273.625 222.342 273.613 222.459 273.624C222.577 273.636 222.691 273.672 222.794 273.729C222.897 273.787 222.987 273.865 223.059 273.959C223.131 274.052 223.183 274.16 223.212 274.275C223.241 274.389 223.246 274.508 223.227 274.625C223.208 274.742 223.165 274.853 223.102 274.953C223.038 275.052 222.955 275.138 222.857 275.204C222.759 275.27 222.648 275.315 222.532 275.337L219.202 276.147C219.151 276.161 219.099 276.168 219.046 276.17Z" fill="#FCF9ED"/>
<path d="M216.161 273.294C215.969 273.292 215.783 273.227 215.632 273.108C215.482 272.99 215.375 272.825 215.328 272.639C215.3 272.529 215.293 272.415 215.309 272.304C215.325 272.192 215.363 272.084 215.421 271.987C215.479 271.89 215.555 271.806 215.646 271.738C215.737 271.671 215.84 271.622 215.95 271.595L219.28 270.774C219.497 270.733 219.721 270.777 219.906 270.896C220.092 271.014 220.225 271.2 220.279 271.413C220.333 271.627 220.303 271.854 220.196 272.046C220.089 272.239 219.912 272.383 219.702 272.45L216.427 273.26C216.341 273.289 216.251 273.3 216.161 273.294Z" fill="#FCF9ED"/>
<path d="M222.321 278.079C222.114 278.073 221.916 277.993 221.764 277.854C221.611 277.715 221.513 277.526 221.487 277.32C221.462 277.115 221.51 276.908 221.625 276.735C221.739 276.563 221.911 276.437 222.11 276.381L225.385 275.559C225.498 275.521 225.618 275.507 225.738 275.518C225.857 275.529 225.973 275.564 226.077 275.622C226.182 275.68 226.274 275.759 226.347 275.854C226.42 275.949 226.472 276.058 226.501 276.174C226.529 276.291 226.533 276.412 226.512 276.53C226.492 276.647 226.447 276.76 226.381 276.86C226.314 276.959 226.228 277.044 226.127 277.109C226.027 277.174 225.914 277.217 225.795 277.236L222.532 278.046L222.321 278.079Z" fill="#FCF9ED"/>
<path d="M225.604 279.9C225.397 279.894 225.2 279.814 225.047 279.675C224.894 279.536 224.796 279.346 224.77 279.141C224.745 278.936 224.794 278.728 224.908 278.556C225.022 278.384 225.194 278.258 225.393 278.201L228.723 277.391C228.837 277.353 228.957 277.339 229.076 277.35C229.196 277.361 229.311 277.396 229.416 277.454C229.521 277.512 229.613 277.591 229.686 277.686C229.758 277.781 229.811 277.89 229.839 278.006C229.868 278.122 229.872 278.243 229.851 278.361C229.831 278.479 229.786 278.592 229.719 278.691C229.653 278.791 229.567 278.876 229.466 278.941C229.366 279.005 229.252 279.049 229.134 279.067L225.804 279.878C225.739 279.896 225.671 279.904 225.604 279.9Z" fill="#FCF9ED"/>
<path d="M229.159 281.597C228.967 281.598 228.78 281.533 228.629 281.414C228.478 281.295 228.371 281.129 228.326 280.942C228.269 280.72 228.302 280.484 228.419 280.286C228.535 280.088 228.726 279.945 228.948 279.888L232.278 279.077C232.392 279.039 232.512 279.025 232.631 279.036C232.75 279.047 232.866 279.082 232.971 279.14C233.076 279.198 233.168 279.277 233.241 279.372C233.313 279.467 233.366 279.576 233.394 279.692C233.423 279.809 233.427 279.93 233.406 280.047C233.385 280.165 233.341 280.278 233.274 280.378C233.208 280.477 233.122 280.562 233.021 280.627C232.92 280.692 232.807 280.735 232.689 280.754L229.425 281.564L229.159 281.597Z" fill="#FCF9ED"/>
<path d="M233.025 283.086C232.812 283.087 232.606 283.01 232.446 282.869C232.287 282.727 232.185 282.532 232.16 282.321C232.135 282.109 232.19 281.896 232.312 281.721C232.435 281.547 232.618 281.424 232.825 281.376L236.089 280.566C236.313 280.512 236.549 280.548 236.746 280.667C236.943 280.785 237.086 280.976 237.144 281.199C237.172 281.309 237.178 281.424 237.161 281.536C237.144 281.648 237.105 281.756 237.046 281.853C236.988 281.951 236.91 282.035 236.818 282.102C236.726 282.169 236.622 282.216 236.511 282.242L233.181 283.053C233.13 283.07 233.078 283.081 233.025 283.086Z" fill="#FCF9ED"/>
<path d="M110.025 162.683C110.025 162.683 95.8602 186.972 122.237 194.321C139.299 199.094 178.497 197.241 184.092 194.321C189.687 191.401 194.594 176.293 180.64 169.488C166.686 162.683 125.611 160.096 125.611 160.096L110.025 162.683Z" fill="#2E3442"/>
<path d="M59.237 159.862C59.237 159.862 57.0168 180.955 73.8905 189.092C90.7643 197.229 121.248 183.364 127.509 176.725C133.77 170.087 121.648 151.681 121.648 151.681C121.648 151.681 119.416 171.696 59.237 159.862Z" fill="#2E3442"/>
<path d="M164.504 196.497C164.504 196.497 165.414 213.293 177.692 231.077C186.773 244.209 196.631 263.648 196.631 263.648L212.405 261.005C206.688 232.476 198.665 204.457 188.416 177.225C188.416 177.225 169.977 185.395 164.504 196.497Z" fill="#2E3442"/>
<path d="M195.691 260.473H195.791L211.078 257.731C211.226 257.692 211.355 257.599 211.438 257.47C211.521 257.341 211.553 257.185 211.526 257.034C211.5 256.882 211.417 256.747 211.295 256.654C211.172 256.561 211.02 256.517 210.867 256.532L195.58 259.274C195.502 259.287 195.427 259.316 195.36 259.358C195.293 259.401 195.235 259.456 195.19 259.521C195.145 259.586 195.113 259.66 195.096 259.737C195.079 259.815 195.078 259.895 195.092 259.973C195.118 260.113 195.192 260.24 195.301 260.331C195.411 260.422 195.549 260.472 195.691 260.473Z" fill="#202124"/>
<path d="M197.068 259.773C197.156 259.77 197.242 259.751 197.323 259.718C197.469 259.648 197.581 259.524 197.635 259.372C197.689 259.22 197.681 259.053 197.612 258.907C197.157 257.941 186.511 235.328 181.76 228.934C177.008 222.54 167.828 199.161 168.161 190.691C168.164 190.604 168.149 190.517 168.116 190.437C168.084 190.357 168.035 190.284 167.972 190.224C167.908 190.165 167.833 190.121 167.75 190.094C167.668 190.067 167.581 190.059 167.494 190.069C167.095 190.069 128.008 193.921 105.128 187.349C104.979 187.32 104.825 187.348 104.695 187.427C104.566 187.506 104.47 187.63 104.427 187.776C104.384 187.921 104.397 188.078 104.463 188.214C104.529 188.351 104.643 188.458 104.784 188.515C126.22 194.676 161.611 191.845 166.951 191.334C167.073 200.659 175.976 223.117 180.794 229.656C185.423 235.917 196.413 259.151 196.524 259.385C196.567 259.495 196.642 259.591 196.738 259.66C196.835 259.729 196.949 259.768 197.068 259.773Z" fill="#202124"/>
<path d="M160.592 267.51L163.123 277.346L177.621 276.835L174.668 265.246L160.592 267.51Z" fill="#A15927"/>
<path d="M210.688 299.548H158.323C157.893 298.638 157.658 297.647 157.635 296.64C157.302 292.199 158.745 285.139 159.411 280.687C159.489 280.166 159.567 279.677 159.622 279.233C159.706 278.629 159.758 278.022 159.778 277.413C159.778 273.783 162.997 274.404 162.997 274.404C168.292 279.6 174.298 271.806 177.795 274.404C177.795 274.404 179.305 275.514 183.467 279.222C187.63 282.93 194.691 285.439 200.708 287.959C208.478 291.2 210.699 294.453 211.121 296.684C211.327 297.66 211.173 298.677 210.688 299.548Z" fill="#BE4E1E"/>
<path d="M210.691 299.549H158.327C157.896 298.638 157.662 297.647 157.639 296.64H211.124C211.342 297.63 211.187 298.665 210.691 299.549Z" fill="#9A391D"/>
<path d="M163.673 299.548H162.119C163.117 298.405 163.879 297.077 164.362 295.638C164.844 294.199 165.036 292.68 164.928 291.166C164.78 289.13 164.211 287.147 163.255 285.342C162.299 283.538 160.979 281.953 159.377 280.687C159.455 280.165 159.532 279.677 159.588 279.233C161.477 280.615 163.042 282.393 164.174 284.443C165.305 286.492 165.975 288.764 166.138 291.1C166.345 294.119 165.472 297.114 163.673 299.548Z" fill="#9A391D"/>
<path d="M182.585 282.275C182.392 282.274 182.205 282.209 182.052 282.091C181.899 281.972 181.79 281.807 181.741 281.62C181.713 281.51 181.707 281.395 181.724 281.283C181.741 281.171 181.78 281.063 181.839 280.966C181.898 280.868 181.975 280.784 182.067 280.717C182.159 280.65 182.264 280.603 182.374 280.577L185.704 279.755C185.818 279.717 185.938 279.703 186.057 279.714C186.177 279.725 186.292 279.76 186.397 279.818C186.502 279.876 186.594 279.955 186.667 280.05C186.74 280.145 186.792 280.254 186.82 280.37C186.849 280.487 186.853 280.607 186.832 280.725C186.812 280.843 186.767 280.956 186.701 281.055C186.634 281.155 186.548 281.24 186.447 281.305C186.347 281.37 186.233 281.413 186.115 281.431L182.851 282.242L182.585 282.275Z" fill="#FCF9ED"/>
<path d="M179.686 279.389C179.479 279.383 179.282 279.303 179.129 279.164C178.976 279.024 178.878 278.835 178.852 278.63C178.827 278.425 178.876 278.217 178.99 278.045C179.104 277.872 179.276 277.747 179.475 277.69L182.75 276.88C182.972 276.826 183.207 276.863 183.402 276.981C183.598 277.1 183.738 277.291 183.793 277.513C183.847 277.735 183.811 277.969 183.692 278.165C183.574 278.36 183.383 278.501 183.161 278.556L179.886 279.366L179.686 279.389Z" fill="#FCF9ED"/>
<path d="M185.842 284.196C185.65 284.192 185.466 284.126 185.315 284.008C185.165 283.89 185.057 283.726 185.009 283.541C184.981 283.431 184.975 283.316 184.992 283.204C185.008 283.091 185.047 282.983 185.106 282.886C185.165 282.789 185.243 282.705 185.335 282.638C185.427 282.571 185.531 282.523 185.642 282.497L188.906 281.687C189.018 281.651 189.137 281.639 189.254 281.651C189.372 281.662 189.486 281.698 189.589 281.756C189.692 281.813 189.783 281.891 189.855 281.985C189.927 282.079 189.979 282.186 190.007 282.301C190.036 282.415 190.041 282.535 190.022 282.651C190.003 282.768 189.961 282.879 189.897 282.979C189.833 283.079 189.75 283.164 189.652 283.23C189.554 283.296 189.444 283.341 189.327 283.363L185.997 284.174L185.842 284.196Z" fill="#FCF9ED"/>
<path d="M189.12 286.005C188.913 285.999 188.715 285.919 188.562 285.78C188.409 285.64 188.311 285.451 188.286 285.246C188.26 285.041 188.309 284.833 188.423 284.661C188.538 284.489 188.71 284.363 188.909 284.306L192.184 283.485C192.4 283.444 192.624 283.488 192.81 283.607C192.996 283.726 193.129 283.911 193.183 284.125C193.237 284.338 193.207 284.565 193.1 284.757C192.992 284.95 192.816 285.094 192.605 285.161L189.331 285.971C189.262 285.993 189.191 286.005 189.12 286.005Z" fill="#FCF9ED"/>
<path d="M192.68 287.693C192.474 287.684 192.278 287.603 192.127 287.463C191.976 287.323 191.88 287.134 191.856 286.929C191.831 286.724 191.881 286.518 191.996 286.347C192.11 286.175 192.282 286.05 192.48 285.994L195.744 285.184C195.966 285.127 196.202 285.16 196.4 285.277C196.598 285.393 196.741 285.583 196.799 285.806C196.85 286.029 196.812 286.264 196.694 286.46C196.576 286.657 196.387 286.8 196.166 286.86L192.835 287.671L192.68 287.693Z" fill="#FCF9ED"/>
<path d="M196.564 289.136C196.371 289.135 196.183 289.07 196.031 288.952C195.878 288.833 195.769 288.668 195.72 288.481C195.692 288.371 195.686 288.256 195.703 288.144C195.719 288.031 195.758 287.923 195.817 287.826C195.876 287.729 195.954 287.645 196.046 287.578C196.138 287.511 196.242 287.463 196.353 287.437L199.683 286.627C199.792 286.6 199.906 286.595 200.017 286.612C200.129 286.629 200.235 286.667 200.332 286.726C200.428 286.784 200.512 286.861 200.579 286.951C200.646 287.042 200.694 287.145 200.721 287.254C200.748 287.364 200.753 287.477 200.736 287.588C200.719 287.7 200.681 287.807 200.622 287.903C200.564 287.999 200.487 288.083 200.397 288.15C200.306 288.217 200.203 288.265 200.094 288.292L196.83 289.114L196.564 289.136Z" fill="#FCF9ED"/>
<path d="M60.0391 170.964C60.0391 170.964 59.3175 191.723 85.6495 199.072C102.712 203.845 141.921 201.991 147.516 199.072C153.111 196.152 158.007 181.044 144.053 174.238C130.099 167.433 93.1539 167.422 93.1539 167.422L60.0391 170.964Z" fill="#2E3442"/>
<path d="M127.953 201.215C127.953 201.215 128.863 218.011 141.152 235.795C150.222 248.927 160.48 268.987 160.48 268.987L176.199 266.978C170.337 238.027 162.17 209.592 151.776 181.943C151.776 181.943 133.426 190.147 127.953 201.215Z" fill="#2E3442"/>
<path d="M161.917 265.324C162.006 265.34 162.096 265.34 162.184 265.324C162.328 265.25 162.438 265.123 162.489 264.97C162.541 264.816 162.531 264.649 162.461 264.503C159.864 259.229 147.741 238.015 143.789 231.521C135.941 218.699 131.866 202.047 132.399 195.797C132.406 195.71 132.394 195.622 132.363 195.539C132.333 195.457 132.284 195.382 132.222 195.319C132.16 195.257 132.085 195.209 132.003 195.179C131.92 195.148 131.832 195.136 131.744 195.142C121.161 195.817 110.537 195.527 100.006 194.277C90.5812 193.066 82.7993 190.946 76.8824 188.104C69.5778 184.541 65.1262 179.734 63.6387 173.817C63.6197 173.739 63.5856 173.666 63.5383 173.601C63.4909 173.536 63.4313 173.481 63.3627 173.439C63.2941 173.398 63.218 173.37 63.1387 173.357C63.0594 173.345 62.9785 173.349 62.9005 173.367C62.8225 173.386 62.749 173.421 62.6842 173.468C62.6194 173.515 62.5645 173.575 62.5228 173.643C62.481 173.712 62.4532 173.788 62.4409 173.867C62.4285 173.947 62.4319 174.028 62.4508 174.106C64.0383 180.389 68.7119 185.473 76.3606 189.203C82.3997 192.145 90.3037 194.265 99.8618 195.487C110.242 196.721 120.711 197.025 131.145 196.397C130.878 204.001 135.585 220.442 142.746 232.132C146.698 238.615 158.776 259.762 161.373 265.024C161.428 265.119 161.508 265.197 161.604 265.25C161.699 265.303 161.808 265.328 161.917 265.324Z" fill="#202124"/>
<path d="M159.422 265.856H159.489L174.975 263.968C175.054 263.959 175.13 263.934 175.199 263.895C175.268 263.856 175.329 263.804 175.378 263.742C175.427 263.679 175.463 263.608 175.484 263.532C175.506 263.455 175.512 263.375 175.502 263.297C175.493 263.218 175.468 263.142 175.429 263.073C175.39 263.004 175.338 262.943 175.276 262.894C175.213 262.845 175.142 262.809 175.065 262.787C174.989 262.766 174.909 262.76 174.831 262.769L159.289 264.657C159.129 264.676 158.983 264.758 158.883 264.885C158.783 265.012 158.737 265.173 158.756 265.334C158.781 265.489 158.863 265.629 158.987 265.726C159.11 265.822 159.266 265.869 159.422 265.856Z" fill="#202124"/>
<path d="M127.851 113.705C127.551 114.815 127.241 116.258 126.908 117.89C126.797 118.456 126.686 119 126.563 119.644C125.564 124.739 124.343 131.455 122.956 138.394C122.833 139.015 122.7 139.648 122.556 140.27C119.392 155.201 123.766 148.329 122.556 153.158C117.916 171.73 68.8928 168.589 61.4106 163.993C55.7269 160.496 58.8463 129.28 63.3645 110.297C63.5199 109.653 63.6642 109.02 63.8085 108.398C65.0297 103.225 66.0287 98.9845 66.3507 96.4756C67.9715 84.7972 71.1797 72.5637 73.6442 67.4572C76.1086 62.3507 96.1573 60.7965 96.1573 60.7965L118.138 66.6912C124.243 69.4257 129.525 73.7126 133.457 79.1245C140.096 88.1831 130.948 101.638 127.851 113.705Z" fill="#FFB727"/>
<path d="M127.951 116.857H127.851C127.707 116.83 127.58 116.747 127.497 116.626C127.413 116.506 127.381 116.357 127.407 116.213C128.717 109.497 132.525 94.0105 132.558 93.8773C132.575 93.8056 132.606 93.7379 132.649 93.6782C132.693 93.6186 132.748 93.5682 132.811 93.5299C132.874 93.4917 132.944 93.4664 133.017 93.4555C133.09 93.4446 133.164 93.4484 133.235 93.4666C133.306 93.4847 133.373 93.5166 133.431 93.5605C133.489 93.6043 133.539 93.6593 133.576 93.7222C133.613 93.7851 133.637 93.8547 133.647 93.9271C133.658 93.9994 133.653 94.073 133.635 94.1437C133.635 94.2992 129.794 109.685 128.495 116.424C128.469 116.548 128.401 116.659 128.301 116.739C128.202 116.818 128.078 116.859 127.951 116.857Z" fill="#D6970B"/>
<path d="M128.742 37.3837C128.742 37.3837 137.179 40.0368 137.712 32.2882C139.174 31.7876 140.417 30.7939 141.227 29.4774C142.037 28.1609 142.365 26.6036 142.152 25.0725C141.664 21.0094 137.423 21.509 137.423 21.509C137.423 21.509 141.675 14.3043 135.714 11.9398C135.714 11.9398 138.733 6.1672 134.77 3.69164C130.807 1.21608 126.056 5.67874 126.056 5.67874C126.056 5.67874 126.333 0.549991 121.615 0.483384C116.897 0.416777 115.265 5.95627 115.265 5.95627C115.265 5.95627 112.257 0.927439 108.205 2.62592C104.153 4.3244 103.876 9.99709 103.876 9.99709C103.876 9.99709 98.1917 8.04329 93.8845 12.2173C93.2994 12.7011 92.8264 13.3063 92.4983 13.991C92.1702 14.6756 91.9948 15.4234 91.9843 16.1825C91.9737 16.9417 92.1283 17.694 92.4372 18.3876C92.7462 19.0811 93.2021 19.6992 93.7735 20.1991C93.7735 20.1991 88.3783 20.965 87.3348 24.3065C86.2913 27.6479 92.397 29.4241 92.397 29.4241C92.397 29.4241 89.3997 34.564 93.5071 36.8841C97.6145 39.2043 102.388 37.417 102.388 37.417L128.742 37.3837Z" fill="#2A2410"/>
<path d="M118.809 61.984L117.698 67.8343C116.985 68.2557 116.243 68.6266 115.478 68.9444C104.843 73.3072 95.9512 63.8823 95.9512 63.8823L99.6479 43.5894L116.477 59.7971L118.809 61.984Z" fill="#A15927"/>
<path d="M118.819 61.9837L117.709 67.8341C116.995 68.2554 116.254 68.6264 115.488 68.9442C108.006 64.0375 103.766 53.8799 103.766 53.8799L116.488 59.7968L118.819 61.9837Z" fill="#2A2410"/>
<path d="M129.187 41.3688C129.187 41.3688 132.973 38.2494 134.061 42.2569C135.149 46.2644 132.44 53.458 127.922 51.3709L129.187 41.3688Z" fill="#7D310B"/>
<path d="M130.529 52.337C130.529 52.337 128.187 63.7268 116.397 61.551C109.17 60.215 102.64 56.3845 97.9473 50.7273L98.247 48.3295L99.8345 35.8296L100.689 29.1689C100.689 29.1689 101.355 16.9576 113.067 16.8799C121.626 16.8022 129.13 19.5886 132.25 24.6507C132.35 24.8172 132.45 24.9837 132.539 25.1502C133.527 26.9684 133.952 29.0398 133.76 31.1005L131.961 43.0453L131.517 45.9649L130.529 52.337Z" fill="#A15927"/>
<path d="M114.639 44.4661C114.639 44.4661 114.739 49.7169 118.457 51.6374C122.676 53.8576 125.307 48.4958 125.307 48.4958L114.639 44.4661Z" fill="#FCF9ED"/>
<path d="M119.581 53.8252H119.87C119.97 53.8135 120.061 53.7624 120.124 53.6833C120.186 53.6042 120.214 53.5035 120.203 53.4034C120.191 53.3033 120.14 53.212 120.061 53.1495C119.982 53.0871 119.881 53.0586 119.781 53.0704C119.353 53.1056 118.923 53.0289 118.534 52.8479C118.145 52.6669 117.809 52.3878 117.561 52.038C117.535 51.9945 117.5 51.9567 117.459 51.9268C117.418 51.897 117.371 51.8757 117.322 51.8642C117.273 51.8528 117.221 51.8514 117.171 51.8602C117.122 51.869 117.074 51.8877 117.031 51.9153C116.989 51.9429 116.952 51.9789 116.924 52.0209C116.896 52.0629 116.876 52.1103 116.866 52.16C116.857 52.2098 116.857 52.261 116.868 52.3106C116.878 52.3602 116.899 52.4072 116.928 52.4487C117.222 52.879 117.619 53.2299 118.082 53.47C118.545 53.7102 119.06 53.8322 119.581 53.8252Z" fill="#7D310B"/>
<path d="M117.013 36.9399C116.802 38.05 116.125 38.9048 115.492 38.7827C114.86 38.6606 114.504 37.6726 114.715 36.5625C114.926 35.4523 115.603 34.5976 116.236 34.7086C116.869 34.8196 117.213 35.8076 117.013 36.9399Z" fill="#2A2410"/>
<path d="M128.23 38.9936C128.03 40.1037 127.342 40.9474 126.709 40.8364C126.076 40.7254 125.732 39.7263 125.932 38.6161C126.132 37.506 126.831 36.6512 127.464 36.7733C128.096 36.8955 128.463 37.8502 128.23 38.9936Z" fill="#2A2410"/>
<path d="M121.418 43.7555C122.156 43.9424 122.933 43.9165 123.658 43.6808C124.383 43.4451 125.026 43.0092 125.514 42.4234C125.557 42.3673 125.585 42.3015 125.597 42.2318C125.608 42.1622 125.603 42.0907 125.58 42.0238C124.404 37.772 123.216 33.4092 123.205 33.3648C123.188 33.3043 123.16 33.2476 123.121 33.1981C123.082 33.1486 123.034 33.1072 122.98 33.0762C122.925 33.0453 122.865 33.0254 122.803 33.0178C122.74 33.0102 122.677 33.0149 122.616 33.0318C122.556 33.0472 122.5 33.0745 122.45 33.1121C122.401 33.1496 122.36 33.1966 122.329 33.2504C122.298 33.3042 122.278 33.3636 122.27 33.4252C122.262 33.4868 122.267 33.5493 122.283 33.6091C122.283 33.6091 123.394 37.8608 124.604 42.0348C124.207 42.4088 123.722 42.677 123.195 42.8147C122.667 42.9524 122.113 42.9553 121.584 42.823C121.519 42.8029 121.451 42.7968 121.384 42.805C121.317 42.8133 121.252 42.8357 121.194 42.8709C121.136 42.9061 121.087 42.9532 121.048 43.009C121.01 43.0649 120.984 43.1282 120.972 43.1949C120.96 43.2616 120.963 43.33 120.979 43.3956C120.996 43.4613 121.026 43.5227 121.068 43.5757C121.111 43.6287 121.163 43.6722 121.224 43.7032C121.284 43.7342 121.35 43.752 121.418 43.7555Z" fill="#2A2410"/>
<path d="M116.001 22.2746C115.371 22.1721 114.725 22.2908 114.173 22.6105C113.62 22.9302 113.195 23.4312 112.97 24.0285C112.715 24.6339 112.33 25.1762 111.843 25.6172C111.356 26.0583 110.779 26.3875 110.151 26.5818C106.11 28.2248 106.177 31.5107 106.532 34.286C106.887 37.0613 100.737 40.9467 98.761 33.842C96.785 26.7372 102.202 13.5046 112.005 14.6148C121.807 15.7249 134.007 21.1977 134.285 25.7714C134.429 28.5477 134.053 31.3264 133.175 33.9641C132.751 33.3342 132.47 32.6195 132.351 31.8698C132.232 31.1201 132.278 30.3535 132.486 29.6235C133.108 26.8926 131.376 25.4606 128.279 24.4504C124.229 23.5037 120.13 22.7773 116.001 22.2746Z" fill="#2A2410"/>
<g opacity="0.8">
<path d="M131.519 45.888C131.21 45.8684 130.902 45.8276 130.598 45.7659C128.5 45.3884 126.923 44.4115 127.068 43.5456C127.212 42.6797 129.044 42.3689 131.142 42.7464C131.419 42.8019 131.697 42.8574 131.963 42.9351L131.519 45.888Z" fill="#7D310B"/>
</g>
<path d="M116.254 41.624C116.099 42.4454 114.278 42.8007 112.18 42.4232C110.082 42.0458 108.505 41.0578 108.65 40.203C108.794 39.3482 110.626 39.0152 112.724 39.4037C114.822 39.7923 116.443 40.7914 116.254 41.624Z" fill="#7D310B"/>
<path d="M111.82 30.0788C111.991 30.767 112.426 31.3606 113.03 31.7321C113.634 32.1037 114.359 32.2235 115.051 32.066C115.98 31.8491 116.928 31.719 117.882 31.6774C118.22 31.6681 118.553 31.5897 118.86 31.4471C119.167 31.3044 119.442 31.1006 119.668 30.848C119.893 30.5954 120.065 30.2994 120.172 29.9782C120.279 29.657 120.319 29.3172 120.291 28.9798C120.291 28.9798 114.929 27.4701 111.82 30.0788Z" fill="#2A2410"/>
<path d="M133.169 33.9646C132.768 34.5525 132.151 34.9582 131.452 35.0934C130.753 35.2285 130.03 35.0822 129.439 34.6862C128.647 34.1534 127.807 33.6962 126.93 33.3207C126.622 33.1918 126.344 33.0023 126.111 32.7635C125.878 32.5248 125.695 32.2416 125.574 31.9309C125.453 31.6202 125.396 31.2882 125.405 30.9549C125.415 30.6215 125.492 30.2935 125.631 29.9904C125.631 29.9904 131.215 30.4455 133.169 33.9646Z" fill="#2A2410"/>
<path d="M102.477 46.7979C102.399 46.9089 100.256 50.1282 97.9473 50.7277L98.247 48.3298C99.7698 48.2125 101.232 47.6829 102.477 46.7979Z" fill="#2A2410"/>
<path d="M101.812 38.5384C101.812 38.5384 98.3932 31.6223 94.197 35.8075C90.7445 39.2488 94.0416 50.4721 100.103 47.9299L101.812 38.5384Z" fill="#A15927"/>
<path d="M99.8371 45.9878C99.962 45.9939 100.084 45.9508 100.178 45.8678C100.271 45.7847 100.328 45.6684 100.337 45.5437C100.453 43.9956 100.162 42.4439 99.4921 41.0434C98.822 39.6429 97.7965 38.4425 96.5178 37.562C96.4103 37.4961 96.281 37.4754 96.1583 37.5046C96.0356 37.5337 95.9294 37.6102 95.8629 37.7174C95.8283 37.7695 95.8045 37.8281 95.7931 37.8896C95.7816 37.9512 95.7826 38.0144 95.7961 38.0755C95.8096 38.1366 95.8352 38.1944 95.8714 38.2454C95.9077 38.2964 95.9539 38.3396 96.0072 38.3724C97.143 39.1577 98.0533 40.2268 98.6473 41.4733C99.2414 42.7199 99.4985 44.1003 99.3931 45.4771C99.3885 45.5398 99.3964 45.6028 99.4163 45.6625C99.4362 45.7221 99.4677 45.7773 99.509 45.8247C99.5503 45.8722 99.6005 45.911 99.6568 45.939C99.7131 45.9669 99.7744 45.9835 99.8371 45.9878Z" fill="#2A2410"/>
<path d="M95.9949 42.3683C96.0988 42.4065 96.2129 42.4065 96.3168 42.3683C97.0971 41.891 98.027 41.7208 98.9257 41.8909C99.0393 41.9403 99.1676 41.9437 99.2836 41.9002C99.3996 41.8567 99.4942 41.7697 99.5473 41.6578C99.575 41.6012 99.591 41.5396 99.5942 41.4766C99.5974 41.4137 99.5879 41.3507 99.5661 41.2916C99.5443 41.2324 99.5107 41.1783 99.4674 41.1325C99.4241 41.0867 99.372 41.0501 99.3142 41.025C97.982 40.4145 96.0726 41.4247 95.8506 41.5357C95.7427 41.5985 95.6637 41.701 95.6305 41.8214C95.5973 41.9418 95.6125 42.0703 95.673 42.1796C95.7098 42.2325 95.7576 42.2768 95.8132 42.3094C95.8688 42.342 95.9308 42.3621 95.9949 42.3683Z" fill="#2A2410"/>
<path d="M89.1233 125.704H89.2787C101.135 126.814 114.412 115.48 114.967 114.992C115.046 114.935 115.112 114.863 115.161 114.779C115.211 114.695 115.242 114.602 115.253 114.506C115.265 114.41 115.256 114.312 115.228 114.219C115.199 114.126 115.152 114.04 115.088 113.967C115.025 113.893 114.947 113.834 114.859 113.792C114.771 113.75 114.676 113.727 114.579 113.724C114.482 113.722 114.385 113.739 114.295 113.776C114.205 113.812 114.124 113.867 114.057 113.937C113.923 114.048 100.668 125.349 89.4008 124.306C89.3095 124.296 89.2172 124.306 89.1295 124.333C89.0418 124.36 88.9604 124.404 88.89 124.463C88.8197 124.522 88.7619 124.594 88.72 124.676C88.678 124.758 88.6529 124.847 88.6459 124.938C88.6222 125.102 88.6571 125.268 88.7445 125.409C88.8319 125.549 88.966 125.654 89.1233 125.704Z" fill="#D6970B"/>
<path d="M108.978 77.3808C100.552 76.2707 93.969 65.336 93.6914 64.8698C93.6038 64.714 93.5791 64.5306 93.6225 64.3571C93.6658 64.1837 93.7739 64.0335 93.9246 63.9373C94.081 63.8478 94.2663 63.8232 94.4407 63.8689C94.615 63.9146 94.7645 64.0268 94.857 64.1815C94.9236 64.2814 101.385 74.983 109.166 76.0376C114.717 76.7813 117.614 71.3418 117.737 71.1086C117.777 71.03 117.834 70.9603 117.902 70.9036C117.97 70.8469 118.049 70.8044 118.133 70.7786C118.218 70.7527 118.307 70.7441 118.395 70.7531C118.484 70.7621 118.569 70.7886 118.647 70.8311C118.805 70.9139 118.925 71.0562 118.979 71.2267C119.033 71.3973 119.017 71.5823 118.935 71.7414C118.791 72.0078 115.45 78.2467 108.944 77.3808H108.978Z" fill="#D6970B"/>
<path d="M87.1878 91.0355V91.6239V93.5888C87.1878 94.4769 87.1878 95.365 87.1878 96.2531C87.1878 98.0404 87.2433 99.8276 87.321 101.604C87.4653 105.145 87.6984 108.675 88.0981 112.039C88.309 113.726 88.5421 115.369 88.8307 116.935C89.0908 118.366 89.4317 119.782 89.852 121.175C89.852 121.342 89.9409 121.464 89.9853 121.608L90.1295 122.03V122.13V122.208L90.1962 122.385L90.3294 122.729C90.3294 122.807 90.4071 122.885 90.4404 122.974V123.096C90.4446 123.114 90.4446 123.133 90.4404 123.151C90.4404 123.151 90.4404 123.229 90.4404 123.273C90.2628 123.096 90.0851 122.918 89.8853 122.752L89.5967 122.518L89.4191 122.385L89.0861 122.152L88.8307 122.008L88.6531 121.919L88.5199 121.852H88.4422H88.3756C88.4049 121.858 88.435 121.858 88.4643 121.852C88.4643 121.852 88.5421 121.852 88.5865 121.919L88.7419 121.974C88.8751 121.974 88.9862 122.074 89.1416 122.119C89.297 122.163 89.7632 122.319 90.1185 122.418C91.5394 122.818 93.2268 123.184 94.9363 123.529C96.6459 123.873 98.4332 124.161 100.232 124.439C103.817 125.005 107.492 125.549 111.177 125.949C114.863 126.348 118.582 126.815 122.279 127.192L127.829 127.747L133.38 128.247H133.435C135.512 128.397 137.448 129.352 138.831 130.908C140.215 132.465 140.936 134.499 140.842 136.579C140.748 138.66 139.846 140.621 138.328 142.046C136.81 143.471 134.796 144.248 132.714 144.21L126.941 144.155L121.191 144.055C117.361 143.966 113.52 143.855 109.668 143.688C105.816 143.522 101.897 143.322 98.0225 143.022C96.0576 142.878 94.0705 142.7 92.0501 142.478C90.0297 142.256 87.9759 141.99 85.7113 141.557C85.134 141.446 84.5457 141.324 83.924 141.168L82.9582 140.924L82.4364 140.78L81.8925 140.613L81.3041 140.413L80.6603 140.169L80.3272 140.047L79.9276 139.87L79.539 139.692L79.3281 139.592L79.0839 139.459L78.5955 139.192L78.3623 139.059L78.0515 138.859L77.4187 138.426L77.2633 138.315L77.1856 138.26L77.0968 138.193L76.6749 137.838C76.3974 137.594 76.1199 137.338 75.8645 137.083L75.8091 137.017L75.7425 136.95L75.6204 136.806L75.1208 136.262L74.6434 135.695L74.4103 135.407L74.2216 135.152C73.9663 134.807 73.7109 134.452 73.4667 134.097L73.2891 133.83C73.232 133.753 73.1801 133.671 73.1336 133.586L72.834 133.087L72.2456 132.099L71.7571 131.155L71.524 130.689L71.4019 130.456L71.302 130.223L70.9024 129.335C70.7691 129.035 70.6248 128.724 70.5249 128.446C69.6462 126.275 68.9046 124.05 68.3047 121.786C67.7274 119.654 67.25 117.589 66.8393 115.536C66.0067 111.439 65.4184 107.432 64.9299 103.436C64.6857 101.448 64.4859 99.4502 64.2971 97.4631C64.2083 96.464 64.1306 95.4649 64.0529 94.4547L63.9419 92.9449V92.1678V91.3352C63.8566 89.8076 64.0736 88.2781 64.5802 86.8344C65.0869 85.3907 65.8734 84.0611 66.8946 82.9218C67.9159 81.7824 69.1518 80.8557 70.5317 80.1947C71.9116 79.5337 73.4083 79.1514 74.9362 79.0696C76.464 78.9878 77.993 79.2083 79.4356 79.7182C80.8781 80.2282 82.2059 81.0177 83.3429 82.0416C84.4799 83.0654 85.4038 84.3035 86.0616 85.6849C86.7195 87.0663 87.0984 88.5639 87.1766 90.0919C87.1877 90.3805 87.1989 90.7247 87.1878 91.0355Z" fill="#A15927"/>
<path d="M83.1215 125.449C83.0355 125.449 82.9507 125.428 82.8738 125.39C82.7968 125.351 82.7297 125.296 82.6774 125.227C82.6342 125.168 82.6031 125.101 82.5859 125.03C82.5687 124.959 82.5657 124.886 82.5771 124.813C82.5884 124.741 82.6139 124.672 82.6521 124.61C82.6902 124.547 82.7403 124.493 82.7995 124.45C84.7913 122.962 87.1774 122.093 89.66 121.953C89.8072 121.953 89.9484 122.011 90.0525 122.115C90.1566 122.219 90.2151 122.36 90.2151 122.508C90.2151 122.655 90.1566 122.796 90.0525 122.9C89.9484 123.004 89.8072 123.063 89.66 123.063C87.4153 123.215 85.2616 124.009 83.4545 125.349C83.3561 125.416 83.24 125.45 83.1215 125.449Z" fill="#7D310B"/>
<path d="M138.453 127.47C138.453 127.47 141.062 121.775 145.791 120.92C150.52 120.066 152.985 120.487 154.505 121.808C155.167 122.436 155.632 123.242 155.843 124.13C156.054 125.017 156.002 125.946 155.693 126.804C155.038 128.058 138.453 127.47 138.453 127.47Z" fill="#7D310B"/>
<path d="M159.952 142.812C159.706 142.754 159.477 142.638 159.284 142.474C159.091 142.31 158.939 142.102 158.842 141.868L148.174 116.335C148.093 116.141 148.051 115.934 148.051 115.723C148.05 115.513 148.091 115.305 148.171 115.111C148.251 114.917 148.368 114.74 148.516 114.591C148.665 114.442 148.841 114.324 149.035 114.243C149.228 114.162 149.436 114.12 149.646 114.119C149.857 114.119 150.065 114.16 150.259 114.24C150.453 114.319 150.63 114.437 150.779 114.585C150.928 114.733 151.046 114.909 151.127 115.103L161.795 140.636C161.877 140.83 161.92 141.038 161.922 141.248C161.923 141.459 161.883 141.667 161.804 141.862C161.724 142.057 161.607 142.235 161.459 142.384C161.311 142.534 161.135 142.653 160.941 142.734C160.627 142.862 160.282 142.89 159.952 142.812Z" fill="#2A2410"/>
<path d="M151.785 143.266C147.344 143.111 144.924 142.644 138.819 143.266C132.713 143.888 128.339 131.932 134.378 127.358C135.526 125.949 136.877 124.718 138.386 123.706C140.351 122.596 149.887 121.142 152.551 121.63C154.771 122.041 158.212 122.451 159.511 123.684C162.775 126.792 156.481 127.935 156.481 127.935C156.481 127.935 159.012 128.346 159.078 130.466C159.145 132.587 157.657 132.687 157.657 132.687C158.316 133.289 158.803 134.055 159.067 134.907C159.6 136.45 157.691 137.582 157.691 137.582C157.691 137.582 159.522 138.803 158.801 140.38C157.691 142.978 151.785 143.266 151.785 143.266Z" fill="#A15927"/>
<path d="M152.127 128.424C152.057 128.413 151.994 128.376 151.951 128.32C151.908 128.264 151.887 128.194 151.894 128.124C151.902 128.052 151.938 127.987 151.994 127.941C152.05 127.895 152.122 127.873 152.194 127.88C153.608 127.985 155.031 127.9 156.423 127.624C156.46 127.609 156.501 127.601 156.541 127.603C156.582 127.604 156.621 127.615 156.657 127.633C156.693 127.651 156.725 127.678 156.75 127.71C156.775 127.742 156.792 127.779 156.801 127.818C156.811 127.858 156.811 127.899 156.802 127.938C156.794 127.978 156.777 128.015 156.752 128.047C156.728 128.08 156.697 128.106 156.661 128.125C156.625 128.144 156.586 128.155 156.545 128.157C155.085 128.456 153.59 128.545 152.105 128.424H152.127Z" fill="#7D310B"/>
<path d="M153.548 133.342C153.485 133.324 153.43 133.283 153.394 133.228C153.357 133.173 153.342 133.107 153.35 133.042C153.358 132.976 153.389 132.916 153.437 132.871C153.486 132.826 153.549 132.8 153.615 132.798C154.799 132.824 155.981 132.701 157.134 132.432C157.204 132.418 157.277 132.433 157.337 132.472C157.397 132.512 157.44 132.573 157.456 132.643C157.464 132.678 157.465 132.714 157.458 132.749C157.452 132.785 157.439 132.819 157.419 132.849C157.399 132.879 157.374 132.904 157.344 132.924C157.314 132.944 157.28 132.958 157.245 132.965C156.043 133.256 154.807 133.383 153.57 133.342H153.548Z" fill="#7D310B"/>
<path d="M153.61 138.326C153.546 138.308 153.491 138.267 153.454 138.21C153.418 138.154 153.403 138.087 153.413 138.021C153.422 137.955 153.455 137.894 153.506 137.85C153.556 137.807 153.621 137.782 153.688 137.782C154.851 137.901 156.026 137.76 157.129 137.372C157.198 137.35 157.273 137.354 157.339 137.385C157.405 137.416 157.457 137.471 157.484 137.538C157.509 137.607 157.506 137.684 157.475 137.75C157.443 137.817 157.387 137.868 157.318 137.893C156.131 138.318 154.863 138.466 153.61 138.326Z" fill="#7D310B"/>
<path d="M89.1931 86.595L88.194 109.397L61.9286 106.677C61.9286 106.677 60.6298 80.0342 73.2185 68.4557C78.7691 63.3713 85.1967 67.7563 88.0386 77.048C88.9647 80.1412 89.3551 83.3701 89.1931 86.595Z" fill="#FFB727"/>
<path d="M90.9879 109.907H90.9213C90.7758 109.89 90.6428 109.817 90.5514 109.703C90.4599 109.588 90.4172 109.442 90.4328 109.297C91.2543 101.659 91.3986 83.8639 91.3986 83.6752C91.4015 83.5299 91.4613 83.3915 91.5651 83.2898C91.6689 83.1881 91.8084 83.1312 91.9537 83.1312C92.1009 83.1312 92.2421 83.1897 92.3462 83.2938C92.4503 83.3979 92.5088 83.5391 92.5088 83.6863C92.5088 83.8639 92.3644 101.726 91.5319 109.419C91.5157 109.552 91.4517 109.675 91.3517 109.765C91.2516 109.855 91.1224 109.906 90.9879 109.907Z" fill="#D6970B"/>
<path d="M240.462 145.642V149.583C240.462 151.859 239.096 153.69 237.398 153.69H24.2553C22.5569 153.69 21.1914 151.859 21.1914 149.583V145.642C21.1914 143.422 22.5569 141.535 24.2553 141.535H237.398C239.096 141.535 240.462 143.377 240.462 145.642Z" fill="#7D310B"/>
<path d="M240.461 146.896H21.2129V148.706H240.461V146.896Z" fill="#54230B"/>
<path d="M32.0918 153.656H235.676V156.343C235.676 158.33 234.887 160.236 233.481 161.642C232.076 163.047 230.17 163.836 228.183 163.836H39.5851C37.5977 163.836 35.6918 163.047 34.2865 161.642C32.8813 160.236 32.0918 158.33 32.0918 156.343V153.656Z" fill="#54230B"/>
<path d="M225.054 214.114H45.8926V221.096H225.054V214.114Z" fill="#7D310B"/>
<path d="M32.9846 307.652L67.6758 163.837H55.4867L20.8066 307.652H32.9846Z" fill="#7D310B"/>
<path d="M237.736 307.653L203.045 163.837H215.234L249.914 307.653H237.736Z" fill="#7D310B"/>
<path d="M211.75 101.386L207.186 102.085L212.462 136.53L217.027 135.83L211.75 101.386Z" fill="#CF492C"/>
<path d="M211.761 101.37L207.188 102.069L208.198 98.5836L208.719 96.7741L209.752 98.3393L211.761 101.37Z" fill="#E69862"/>
<path d="M216.655 133.325L212.09 134.024L212.473 136.526L217.038 135.827L216.655 133.325Z" fill="#2A2410"/>
<path d="M217.037 137.849L213.073 138.46C213.034 138.466 212.994 138.464 212.955 138.455C212.916 138.445 212.88 138.428 212.848 138.405C212.816 138.381 212.789 138.351 212.768 138.316C212.748 138.282 212.735 138.244 212.729 138.205L212.463 136.517L217.037 135.818L217.292 137.505C217.298 137.545 217.297 137.585 217.287 137.624C217.278 137.662 217.26 137.699 217.237 137.731C217.213 137.763 217.183 137.79 217.149 137.81C217.114 137.831 217.076 137.844 217.037 137.849Z" fill="#CF492C"/>
<path d="M209.748 98.3393L208.193 98.5835L208.715 96.774L209.748 98.3393Z" fill="#2A2410"/>
<path d="M216.385 131.498L211.82 132.197L212.096 133.997L216.661 133.297L216.385 131.498Z" fill="#FCF9ED"/>
<path d="M208.583 103.591L212.491 129.124C212.496 129.17 212.511 129.214 212.534 129.255C212.558 129.295 212.589 129.329 212.627 129.357C212.665 129.384 212.707 129.403 212.753 129.412C212.798 129.422 212.845 129.422 212.891 129.412C212.936 129.406 212.98 129.39 213.019 129.366C213.058 129.342 213.092 129.311 213.119 129.274C213.146 129.236 213.165 129.194 213.176 129.149C213.186 129.104 213.187 129.058 213.179 129.013L209.272 103.48C209.258 103.388 209.208 103.304 209.133 103.248C209.059 103.192 208.965 103.168 208.872 103.18C208.779 103.197 208.697 103.249 208.643 103.326C208.589 103.403 208.567 103.498 208.583 103.591Z" fill="#A42E14"/>
<path d="M210.38 103.313L214.288 128.846C214.302 128.938 214.351 129.021 214.426 129.078C214.501 129.134 214.595 129.158 214.687 129.145C214.78 129.129 214.863 129.077 214.917 129C214.971 128.923 214.992 128.827 214.976 128.735L211.068 103.202C211.063 103.156 211.049 103.111 211.025 103.071C211.002 103.031 210.97 102.996 210.933 102.969C210.895 102.942 210.852 102.923 210.807 102.913C210.761 102.904 210.714 102.904 210.669 102.913C210.623 102.918 210.578 102.933 210.538 102.957C210.498 102.98 210.463 103.012 210.436 103.049C210.409 103.087 210.39 103.13 210.38 103.175C210.371 103.221 210.371 103.267 210.38 103.313Z" fill="#A42E14"/>
<path d="M220.02 101.483L215.402 101.499L215.518 136.345L220.136 136.33L220.02 101.483Z" fill="#678E43"/>
<path d="M220.019 101.526L215.4 101.537L216.91 98.2403L217.698 96.5307L218.487 98.2403L220.019 101.526Z" fill="#E69862"/>
<path d="M220.142 133.809L215.523 133.825L215.532 136.356L220.15 136.34L220.142 133.809Z" fill="#2A2410"/>
<path d="M219.842 138.393H215.835C215.793 138.395 215.752 138.388 215.714 138.373C215.675 138.358 215.64 138.335 215.611 138.306C215.582 138.276 215.559 138.241 215.544 138.203C215.529 138.165 215.522 138.124 215.524 138.082V136.373H220.153V138.082C220.153 138.165 220.12 138.244 220.062 138.302C220.004 138.36 219.924 138.393 219.842 138.393Z" fill="#CF492C"/>
<path d="M218.483 98.2403H216.906L217.694 96.5307L218.483 98.2403Z" fill="#2A2410"/>
<path d="M220.126 131.99L215.508 132.005L215.514 133.826L220.132 133.811L220.126 131.99Z" fill="#FCF9ED"/>
<path d="M216.547 103.246L216.636 129.057C216.636 129.103 216.645 129.149 216.663 129.193C216.681 129.236 216.707 129.275 216.74 129.308C216.773 129.341 216.812 129.367 216.855 129.385C216.898 129.403 216.944 129.412 216.991 129.412C217.037 129.412 217.083 129.403 217.125 129.385C217.168 129.367 217.206 129.34 217.238 129.307C217.27 129.274 217.295 129.235 217.312 129.192C217.329 129.149 217.337 129.103 217.335 129.057L217.268 103.246C217.268 103.152 217.231 103.062 217.164 102.995C217.098 102.929 217.007 102.891 216.913 102.891C216.866 102.89 216.818 102.898 216.774 102.915C216.729 102.932 216.689 102.958 216.655 102.991C216.621 103.024 216.594 103.064 216.575 103.108C216.556 103.152 216.547 103.199 216.547 103.246Z" fill="#4B6F32"/>
<path d="M218.381 103.247L218.47 129.057C218.47 129.103 218.479 129.149 218.497 129.191C218.515 129.234 218.541 129.272 218.574 129.304C218.608 129.336 218.647 129.361 218.69 129.378C218.733 129.395 218.779 129.403 218.825 129.401C218.871 129.401 218.917 129.392 218.959 129.374C219.002 129.356 219.04 129.33 219.072 129.296C219.104 129.263 219.129 129.224 219.146 129.181C219.163 129.138 219.171 129.092 219.169 129.046L219.069 103.247C219.066 103.154 219.028 103.067 218.961 103.003C218.895 102.938 218.806 102.903 218.714 102.903C218.625 102.908 218.542 102.946 218.481 103.01C218.419 103.074 218.383 103.158 218.381 103.247Z" fill="#4B6F32"/>
<path d="M223.476 101.411L218.572 135.911L223.144 136.561L228.048 102.061L223.476 101.411Z" fill="#E0AD3A"/>
<path d="M227.991 102.014L223.406 101.37L225.382 98.3173L226.404 96.741L226.948 98.5394L227.991 102.014Z" fill="#E69862"/>
<path d="M218.93 133.409L218.574 135.915L223.146 136.565L223.503 134.059L218.93 133.409Z" fill="#2A2410"/>
<path d="M222.509 138.471L218.534 137.905C218.495 137.9 218.457 137.886 218.422 137.866C218.388 137.846 218.358 137.819 218.334 137.787C218.311 137.755 218.293 137.718 218.284 137.679C218.275 137.641 218.273 137.6 218.279 137.561L218.512 135.874L223.097 136.518L222.82 138.216C222.809 138.29 222.771 138.356 222.713 138.404C222.656 138.451 222.583 138.475 222.509 138.471Z" fill="#CF492C"/>
<path d="M226.966 98.5394L225.4 98.3173L226.422 96.741L226.966 98.5394Z" fill="#2A2410"/>
<path d="M219.18 131.585L218.924 133.388L223.496 134.038L223.752 132.235L219.18 131.585Z" fill="#FCF9ED"/>
<path d="M224.321 103.247L220.691 128.78C220.678 128.873 220.702 128.967 220.759 129.041C220.815 129.116 220.898 129.166 220.99 129.18C221.083 129.19 221.175 129.164 221.249 129.108C221.323 129.053 221.374 128.971 221.39 128.88L225.02 103.347C225.033 103.255 225.009 103.161 224.952 103.086C224.896 103.011 224.813 102.961 224.721 102.948C224.628 102.935 224.534 102.959 224.459 103.015C224.384 103.072 224.335 103.155 224.321 103.247Z" fill="#CA8A24"/>
<path d="M226.155 103.48L222.525 129.013C222.512 129.106 222.536 129.2 222.593 129.274C222.649 129.349 222.732 129.399 222.825 129.413C222.917 129.422 223.009 129.397 223.083 129.341C223.158 129.286 223.208 129.204 223.224 129.113L226.854 103.58C226.867 103.488 226.843 103.394 226.787 103.319C226.73 103.244 226.647 103.194 226.555 103.181C226.508 103.173 226.461 103.174 226.416 103.185C226.37 103.196 226.328 103.216 226.29 103.244C226.253 103.273 226.222 103.308 226.198 103.348C226.175 103.389 226.16 103.434 226.155 103.48Z" fill="#CA8A24"/>
<path d="M229.494 115.314L229.25 117.179L229.028 118.878L228.694 121.464L228.484 123.141L228.151 125.738L227.928 127.392L227.595 130.012L227.385 131.644L227.04 134.286L226.841 135.907L226.496 138.571L226.286 140.159L226.108 141.546H207.935L207.769 140.159L207.558 138.571L207.214 135.907L207.003 134.286L206.659 131.644L206.448 130.012L206.115 127.392L205.904 125.738L205.56 123.141L205.349 121.464L205.016 118.878L204.794 117.179L204.561 115.314H229.494Z" fill="#506FAE"/>
<path d="M229.247 117.179L229.025 118.877H205.013L204.791 117.179H229.247Z" fill="#2D3D81"/>
<path d="M228.691 121.464L228.481 123.14H205.557L205.346 121.464H228.691Z" fill="#2D3D81"/>
<path d="M228.143 125.738L227.921 127.392H206.107L205.896 125.738H228.143Z" fill="#2D3D81"/>
<path d="M227.597 130.012L227.386 131.644H206.66L206.449 130.012H227.597Z" fill="#2D3D81"/>
<path d="M227.034 134.286L226.834 135.907H207.207L206.996 134.286H227.034Z" fill="#2D3D81"/>
<path d="M226.495 138.571L226.284 140.158H207.768L207.557 138.571H226.495Z" fill="#2D3D81"/>
<path d="M199.171 136.528H145.975V141.523H199.171V136.528Z" fill="#F97E48"/>
</svg>
