<svg width="562" height="396" viewBox="0 0 562 396" fill="none" xmlns="http://www.w3.org/2000/svg">
<mask id="mask0_345_55" style="mask-type:alpha" maskUnits="userSpaceOnUse" x="0" y="0" width="562" height="396">
<rect width="562" height="396" fill="white"/>
</mask>
<g mask="url(#mask0_345_55)">
<path d="M124.332 73.0545C126.514 75.002 129.224 76.2588 132.12 76.666C135.016 77.0732 137.968 76.6125 140.602 75.3422C143.236 74.0719 145.434 72.049 146.919 69.5293C148.403 67.0096 149.107 64.1063 148.942 61.1866C148.776 58.2668 147.749 55.4617 145.989 53.1259C144.229 50.7902 141.816 49.0287 139.055 48.0643C136.295 47.0999 133.31 46.9758 130.478 47.7077C127.647 48.4397 125.096 49.9948 123.149 52.1764C121.855 53.625 120.86 55.3141 120.22 57.1473C119.579 58.9805 119.306 60.9219 119.416 62.8606C119.526 64.7993 120.017 66.6974 120.86 68.4465C121.704 70.1956 122.884 71.7614 124.332 73.0545Z" fill="#FFB727"/>
<path d="M58.8902 380.538H51.8767V29.9784C51.8745 26.1791 52.9562 22.4581 54.995 19.2522C57.0337 16.0463 59.9448 13.4886 63.3865 11.8794C66.8281 10.2703 70.6574 9.6764 74.4248 10.1676C78.1922 10.6588 81.7412 12.2146 84.6552 14.6524L103.386 30.3241L98.8917 35.6981L80.1611 20.0317C78.269 18.4506 75.9651 17.442 73.5199 17.1241C71.0747 16.8062 68.5896 17.1922 66.356 18.237C64.1225 19.2817 62.2333 20.9418 60.9099 23.0224C59.5866 25.103 58.8842 27.5179 58.8849 29.9836L58.8902 380.538Z" fill="#2E3442"/>
<path d="M90.784 24.7039C92.5769 22.6962 95.0938 21.4828 97.7813 21.3305C100.469 21.1783 103.107 22.0997 105.115 23.892L125.731 42.3031L112.212 57.4457L91.5854 39.0347C89.5804 37.2396 88.3698 34.7221 88.2195 32.0351C88.0693 29.3481 88.9916 26.7114 90.784 24.7039Z" fill="#F2811C"/>
<path d="M96.6556 55.9897L122.52 27.0034C128.176 20.6669 136.117 16.8363 144.597 16.354C153.077 15.8717 161.401 18.7773 167.739 24.4316L99.2222 101.192C92.8886 95.5378 89.0602 87.5993 88.5789 79.1225C88.0976 70.6457 91.0028 62.3248 96.6556 55.9897Z" fill="#314B87"/>
<path d="M98.0746 376.185H251.125C251.125 376.185 246.934 243.06 231.991 225.728C217.047 208.395 72.0844 203.697 68.1141 221.783C64.1438 239.87 98.0746 376.185 98.0746 376.185Z" fill="#2E3442"/>
<g style="mix-blend-mode:overlay" opacity="0.5">
<path d="M98.0747 376.185H121.724C121.724 376.185 97.2786 288.189 90.197 261.319C83.1154 234.449 72.6816 213.193 68.1404 221.783C64.2068 239.901 98.0747 376.185 98.0747 376.185Z" fill="#2E3442"/>
</g>
<path d="M132.388 379.076H305.913L277.555 226.566C255.693 209.176 216.272 190.231 216.272 190.231C216.272 190.231 161.406 187.088 128.476 213.586C112.201 239.283 106.581 289.907 103.727 329.27L102.375 341.432C100.982 361.393 132.388 379.076 132.388 379.076Z" fill="#FFB727"/>
<path d="M195.174 195.317C195.483 200.554 214.397 235.292 225.659 234.517C236.92 233.742 236.134 208.616 236.134 208.616V207.154L235.967 190.314C235.385 185.024 232.725 180.022 229.158 175.554C219.546 163.507 204.136 152.298 204.136 152.298L195.174 195.317Z" fill="#FFC0C4"/>
<g style="mix-blend-mode:multiply" opacity="0.7">
<path d="M212.464 171.704C212.464 171.704 222.579 198.512 236.15 207.139L235.982 190.299C235.401 185.009 232.74 180.006 229.173 175.539L212.464 171.704Z" fill="#FFC0C4"/>
</g>
<path d="M205.346 162.02C210.369 174.067 228.833 197.207 244.368 198.978C251.24 200.141 266.833 191.886 275.423 182.348C277.466 179.891 279.001 175.538 280.137 170.259C280.462 168.787 280.745 167.236 281.017 165.649C283.547 150.308 283.469 130.64 283.071 127.334C282.023 118.472 269.044 110.573 254.404 107.577C225.297 101.611 218.126 115.13 218.116 115.141C216.424 118.1 214.69 118.718 210.783 126.999C204.477 140.377 202.277 154.598 205.346 162.02Z" fill="#FFC0C4"/>
<path d="M295.233 123.28C295.233 123.28 305.887 138.942 281.662 145.641L287.324 137.648C287.324 137.648 277.969 147.191 256.53 140.01C256.53 140.01 265.283 139.287 268.96 134.248C268.96 134.248 251.727 140.487 229.22 126.915C229.22 126.915 226.601 139.528 215.172 139.853L212.716 161.972L205.802 156.352L208.834 141.403C208.834 141.403 204.822 128.937 202.418 127.963C202.418 127.963 209.751 102.177 215.031 99.6785C220.311 97.1801 224.281 101.203 224.281 101.203C224.281 101.203 230.043 92.2565 239.502 90.9051C248.962 89.5538 286.224 109.007 295.233 123.28Z" fill="#2E3442"/>
<path d="M266.545 159.144C267.509 158.332 268.581 157.657 269.73 157.138C270.209 156.943 270.717 156.832 271.233 156.808H271.589C271.71 156.808 271.825 156.845 271.94 156.86C272.05 156.873 272.158 156.901 272.26 156.944C272.366 156.964 272.469 157.001 272.563 157.054C273.502 157.59 274.301 158.34 274.894 159.243C275.622 160.233 276.309 161.339 277.094 162.475C277.222 161.08 277.015 159.674 276.492 158.374C276.36 158.037 276.204 157.709 276.026 157.394C275.937 157.237 275.848 157.075 275.743 156.918L275.402 156.462C274.905 155.809 274.256 155.288 273.512 154.943C273.313 154.847 273.104 154.775 272.888 154.728C272.681 154.66 272.467 154.616 272.249 154.597C272.04 154.597 271.83 154.561 271.621 154.561C271.411 154.561 271.202 154.592 270.997 154.618C270.205 154.758 269.456 155.082 268.813 155.566C267.653 156.449 266.848 157.718 266.545 159.144Z" fill="#2E3442"/>
<g style="mix-blend-mode:multiply" opacity="0.7">
<path d="M235.982 160.647C235.982 160.647 231.635 162.554 227.984 160.967C224.333 159.38 222.746 154.906 222.746 154.906C222.746 154.906 227.089 153 230.745 154.587C234.401 156.174 235.982 160.647 235.982 160.647Z" fill="#FFC0C4"/>
</g>
<g style="mix-blend-mode:multiply" opacity="0.7">
<path d="M272.815 167.828C272.815 167.828 275.36 170.541 278.472 170.531C279.046 170.528 279.617 170.436 280.163 170.259C280.488 168.787 280.771 167.236 281.043 165.649C280.22 165.277 279.328 165.082 278.425 165.078C275.324 165.094 272.815 167.828 272.815 167.828Z" fill="#FFC0C4"/>
</g>
<path d="M250.428 142.414C250.428 142.414 239.911 135.458 228.953 145.3C228.979 145.29 241.707 126.538 250.428 142.414Z" fill="#2E3442"/>
<path d="M267.305 145.426C267.305 145.426 277.257 144.122 281.662 153.985C281.662 153.985 278.309 136.804 267.305 145.426Z" fill="#2E3442"/>
<g style="mix-blend-mode:multiply" opacity="0.7">
<path d="M256.714 163.68C257.562 163.627 258.406 163.58 259.238 163.58C260.06 163.566 260.882 163.619 261.695 163.737C262.075 163.799 262.447 163.901 262.805 164.041C263.102 164.137 263.356 164.334 263.523 164.596C263.645 164.9 263.688 165.23 263.649 165.555C263.618 165.93 263.539 166.3 263.413 166.655C262.913 168.156 261.924 169.447 260.606 170.321C259.194 171.181 257.522 171.508 255.891 171.243C257.11 171.745 258.458 171.843 259.736 171.521C260.169 171.403 260.589 171.24 260.988 171.034C262.597 170.169 263.814 168.723 264.392 166.99C264.538 166.547 264.628 166.088 264.66 165.623C264.667 165.501 264.667 165.379 264.66 165.256C264.658 165.132 264.645 165.007 264.623 164.885C264.604 164.755 264.576 164.628 264.539 164.502C264.495 164.369 264.437 164.241 264.366 164.12L264.251 163.937C264.204 163.879 264.152 163.821 264.099 163.769C264.049 163.717 263.995 163.67 263.937 163.627C263.887 163.586 263.835 163.547 263.78 163.512C263.57 163.376 263.345 163.266 263.109 163.182C262.674 163.039 262.221 162.954 261.763 162.931C260.888 162.878 260.009 162.926 259.144 163.072C258.319 163.209 257.506 163.412 256.714 163.68Z" fill="#FFC0C4"/>
</g>
<path d="M249.92 155.802C250.205 154.163 249.905 152.476 249.072 151.036C248.613 150.243 247.972 149.572 247.202 149.077C246.997 148.956 246.788 148.846 246.573 148.736C246.358 148.626 246.128 148.574 245.903 148.495C245.669 148.415 245.426 148.366 245.18 148.349C244.935 148.303 244.685 148.285 244.436 148.296C243.504 148.324 242.593 148.578 241.78 149.035L241.22 149.36C241.042 149.48 240.874 149.606 240.696 149.732C240.366 149.981 240.053 150.252 239.759 150.543C238.615 151.671 237.744 153.045 237.213 154.561C238.533 153.676 239.748 152.806 240.963 152.073C242.179 151.34 243.42 150.784 244.473 150.769C244.733 150.77 244.993 150.798 245.248 150.852C245.379 150.889 245.52 150.915 245.651 150.957C245.782 150.999 245.908 151.072 246.044 151.12C246.584 151.386 247.076 151.74 247.5 152.167C248.481 153.254 249.296 154.478 249.92 155.802Z" fill="#2E3442"/>
<path d="M236.616 177.937C238.277 180.907 241.55 183.568 247.694 184.746C251.361 185.495 254.357 185.171 256.782 184.275C263.696 181.75 266.021 174.648 266.021 174.648C265.061 175.001 264.071 175.264 263.062 175.434C262.383 175.563 261.698 175.655 261.009 175.711C256.819 176.093 250.292 175.596 243.027 171.112C242.629 170.877 242.226 170.62 241.823 170.348C239.786 168.97 237.869 167.423 236.092 165.723C236.092 165.723 233.515 172.375 236.616 177.937Z" fill="#2E3442"/>
<path d="M242.435 175.376C248.495 179.744 261.113 179.634 261.815 179.111C262.219 178.823 262.716 176.958 263.067 175.444C262.388 175.573 261.703 175.666 261.014 175.722C256.824 176.104 250.297 175.607 243.032 171.123C242.602 172.498 242.401 173.935 242.435 175.376Z" fill="white"/>
<path d="M236.616 177.937C238.276 180.907 241.55 183.568 247.694 184.746C251.361 185.495 254.357 185.171 256.782 184.275C253.796 181.651 245.489 175.439 236.616 177.937Z" fill="#FFC0C4"/>
<g style="mix-blend-mode:multiply">
<path d="M236.616 177.937C238.276 180.907 241.55 183.568 247.694 184.746C251.361 185.495 254.357 185.171 256.782 184.275C253.796 181.651 245.489 175.439 236.616 177.937Z" fill="#FFC0C4"/>
</g>
<path d="M208.835 141.45C208.835 141.45 207.619 128.597 200.019 127.041C192.419 125.485 184.767 165.215 206.305 153.89L208.835 141.45Z" fill="#FFC0C4"/>
<g style="mix-blend-mode:multiply" opacity="0.7">
<path d="M205.467 147.411C205.36 147.387 205.265 147.328 205.197 147.244C205.128 147.159 205.09 147.054 205.09 146.945C205.09 146.913 205.09 143.828 203.471 142.681C202.717 142.158 201.685 142.116 200.407 142.582C200.349 142.603 200.287 142.613 200.225 142.61C200.163 142.608 200.103 142.593 200.046 142.567C199.99 142.541 199.94 142.504 199.898 142.459C199.856 142.413 199.823 142.36 199.802 142.302C199.781 142.243 199.771 142.182 199.773 142.12C199.776 142.058 199.791 141.997 199.817 141.941C199.843 141.885 199.88 141.834 199.925 141.792C199.971 141.75 200.024 141.718 200.082 141.697C201.653 141.12 202.994 141.173 204.016 141.917C204.259 142.088 204.479 142.29 204.67 142.519C204.021 140.151 202.732 138.381 201.203 138.135C200.699 138.074 200.187 138.138 199.713 138.32C199.239 138.503 198.818 138.799 198.485 139.182C198.073 139.606 197.72 140.083 197.437 140.602C197.41 140.657 197.372 140.706 197.325 140.747C197.279 140.787 197.224 140.818 197.166 140.837C197.107 140.856 197.045 140.863 196.984 140.858C196.923 140.852 196.863 140.835 196.808 140.806C196.698 140.75 196.614 140.653 196.575 140.535C196.535 140.417 196.544 140.289 196.599 140.178C196.672 140.036 198.396 136.726 201.376 137.197C204.251 137.653 206.394 142.137 206.053 146.976C206.043 147.098 205.986 147.211 205.894 147.292C205.802 147.373 205.683 147.416 205.561 147.411H205.467Z" fill="#FFC0C4"/>
</g>
<path d="M198.013 150.067C198.013 150.067 201.596 153.77 204.168 156.352C204.573 156.776 205.023 157.155 205.509 157.484C207.227 158.599 208.059 157.63 207.405 156.048C206.357 153.361 204.817 150.192 204.1 148.762C204.942 147.579 205.415 146.171 205.456 144.719C205.598 141.23 203.502 138.308 200.742 138.198C200.597 138.19 200.452 138.19 200.307 138.198H200.276C197.741 138.397 195.651 141.016 195.515 144.31C195.426 146.809 196.442 148.956 198.013 150.067Z" fill="white"/>
<g style="mix-blend-mode:multiply" opacity="0.1">
<path d="M204.388 143.116C204.489 144.115 204.355 145.124 203.998 146.062C203.64 147.001 203.069 147.843 202.329 148.521C202.329 148.521 206.467 155.294 206.797 156.279C207.127 157.263 206.42 157.934 205.493 157.51C207.211 158.625 208.044 157.656 207.389 156.074C206.341 153.387 204.801 150.219 204.084 148.789C204.927 147.605 205.399 146.198 205.44 144.745C205.582 141.257 203.487 138.334 200.726 138.224C200.581 138.216 200.436 138.216 200.291 138.224C201.389 138.53 202.367 139.161 203.098 140.034C203.83 140.908 204.279 141.982 204.388 143.116Z" fill="#2E3442"/>
</g>
<g style="mix-blend-mode:multiply" opacity="0.1">
<path d="M197.673 143.823C197.599 145.73 198.469 147.312 199.616 147.359C200.763 147.406 201.763 145.897 201.837 143.991C201.91 142.084 201.046 140.508 199.893 140.461C198.741 140.413 197.751 141.922 197.673 143.823Z" fill="#2E3442"/>
</g>
<g style="mix-blend-mode:overlay" opacity="0.5">
<path d="M102.254 341.39V341.453C143.953 369.873 150.867 376.683 150.867 376.683C189.847 363.771 171.551 241.624 171.551 241.624C159.928 222.244 128.349 213.607 128.349 213.607C112.081 239.283 105.104 302.033 102.254 341.39Z" fill="#2E3442"/>
</g>
<path d="M277.581 226.565C277.581 226.565 361.267 309.847 371.302 328.84C381.338 347.832 370.873 375.326 351.503 375.326H304.63L277.581 226.565Z" fill="#FFB727"/>
<g style="mix-blend-mode:overlay" opacity="0.5">
<path d="M277.581 226.565C277.581 226.565 361.267 309.847 371.302 328.84C381.338 347.832 370.873 375.326 351.503 375.326H304.63L277.581 226.565Z" fill="#2E3442"/>
</g>
<path d="M371.601 227.844L369.364 257.998L339.498 267.735L350.628 226.188L371.601 227.844Z" fill="#FFC0C4"/>
<path d="M359.674 234.868C355.924 234.239 351.566 201.869 351.566 201.869L384.795 208.71C384.795 208.71 385.476 216.755 384.119 221.391C383.444 223.716 379.217 228.053 376.655 231.657C374.094 235.26 366.641 236.036 359.674 234.868Z" fill="#FFC0C4"/>
<g style="mix-blend-mode:multiply" opacity="0.7">
<path d="M359.695 233.071C355.945 232.443 351.566 201.869 351.566 201.869L384.795 208.71C384.795 208.71 385.476 216.755 384.119 221.391C383.444 223.716 378.415 227.948 375.283 231.002C372.151 234.056 366.672 234.234 359.695 233.071Z" fill="#FFC0C4"/>
</g>
<path d="M352.362 154.718C353.656 166 349.481 188.853 347.255 199.842C347.182 200.161 347.119 200.471 347.056 200.769C346.396 204.022 345.946 206.007 345.946 206.007C349.256 215.828 355.055 207.887 355.055 207.887C355.055 207.887 355.798 205.268 356.851 201.282L357.192 200.01C359.617 190.691 365.132 172.825 365.263 164.785C365.473 152.691 352.362 154.718 352.362 154.718Z" fill="#FFC0C4"/>
<path d="M350.911 204.514L350.587 214.194C351.016 220.61 377.53 224.193 379.919 222.889C382.307 221.584 384.706 216.079 385.9 214.126C387.094 212.172 387.582 201.958 386.387 200.45C385.193 198.941 380.448 198.496 380.448 198.496C380.507 197.64 380.244 196.794 379.711 196.122C379.178 195.451 378.413 195.002 377.567 194.866C374.424 194.269 370.029 194.636 370.029 194.636C370.029 194.636 368.458 191.121 367.133 191C365.451 190.841 363.756 190.864 362.078 191.069C361.186 191.187 360.308 191.397 359.459 191.697C358.862 191.908 358.292 192.191 357.762 192.54C354.709 194.578 350.911 204.514 350.911 204.514Z" fill="#FFC0C4"/>
<g style="mix-blend-mode:multiply" opacity="0.7">
<path d="M380.437 198.501C380.437 198.501 379.699 209.234 378.787 211.213C377.876 213.193 374.597 220.327 374.597 220.327C374.597 220.327 380.081 214.042 380.568 211.093C381.055 208.144 382.14 198.742 382.14 198.742L380.437 198.501Z" fill="#FFC0C4"/>
</g>
<g style="mix-blend-mode:multiply" opacity="0.7">
<path d="M370.014 194.636C370.014 194.636 369.49 206.803 368.61 208.778C367.73 210.752 364.027 218.861 364.027 218.861C364.027 218.861 368.573 212.884 370.124 209.37C370.616 206.405 373.015 194.52 373.015 194.52L370.014 194.636Z" fill="#FFC0C4"/>
</g>
<g style="mix-blend-mode:multiply" opacity="0.7">
<path d="M362.45 234.857L363.299 231.447C363.299 231.447 365.651 219.782 359.632 215.21C359.632 215.21 369.584 214.01 368.668 201.413C368.668 201.413 362.953 200.549 357.197 200.041C353.331 199.701 349.439 199.517 347.245 199.868C347.171 200.188 347.109 200.497 347.046 200.795C346.465 200.852 345.89 200.959 345.328 201.115C342.74 205.609 335.392 225.738 362.45 234.857Z" fill="#FFC0C4"/>
</g>
<path d="M341.169 205.541C340.027 213.665 348.141 229.792 348.46 231.851C353.002 235.559 361.031 234.894 362.451 234.857C362.834 234.274 363.079 233.611 363.168 232.919C363.221 232.396 363.263 231.924 363.299 231.448C364.347 216.19 354.395 213.833 354.395 213.833C368.537 215.247 367.584 202.351 367.584 202.351C364.373 202.393 360.827 201.827 356.841 201.304C353.311 200.827 349.838 200.445 347.046 200.78C346.465 200.837 345.891 200.944 345.328 201.099C343.076 201.702 341.531 203.027 341.169 205.541Z" fill="#FFC0C4"/>
<g style="mix-blend-mode:multiply" opacity="0.7">
<path d="M359.449 191.697L357.485 199.465L362.068 191.084C361.176 191.197 360.298 191.403 359.449 191.697Z" fill="#FFC0C4"/>
</g>
<path d="M375.812 248.926C375.812 248.926 381.233 307.48 375.377 348.529C369.521 389.578 343.264 383.015 322.506 369.831C301.749 356.648 319.065 319.197 319.065 319.197L341.3 244.987C341.3 244.987 357.197 232.107 375.812 248.926Z" fill="#FFB727"/>
<path d="M165.905 197.045L160.521 237.712L131.262 248.68L143.052 204.666L165.905 197.045Z" fill="#FFC0C4"/>
<path d="M147.73 132.31L148.898 159.825L155.22 175.182C159.044 173.731 163.873 173.836 166.885 174.135C165.015 171.254 163.061 167.655 162.281 164.261C160.573 156.876 159.227 130.692 147.73 132.31Z" fill="#FFC0C4"/>
<path d="M147.73 132.31L148.892 159.825C148.892 159.825 141.748 175.659 139.113 181.824C136.479 187.989 141.167 213.45 141.167 213.45L158.09 216.069C158.09 216.069 177.737 208.856 179.764 198.784C181.791 188.712 185.715 175.02 192.209 171.023C192.209 171.023 187.736 164.979 182.189 167.168C176.643 169.358 171.237 179.975 171.237 179.975C169.668 178.119 168.215 176.168 166.884 174.135C166.523 173.569 166.146 172.988 165.795 172.369C164.302 169.855 162.904 166.99 162.28 164.266C160.562 156.876 159.221 130.692 147.73 132.31Z" fill="#FFC0C4"/>
<g style="mix-blend-mode:multiply" opacity="0.7">
<path d="M162.27 164.251C163.029 167.112 164.212 169.843 165.779 172.354C166.13 172.972 166.507 173.553 166.869 174.119C168.199 176.153 169.652 178.103 171.221 179.959C161.159 185.359 157.865 196.196 157.168 198.978C159.64 188.183 156.869 180.247 156.869 180.247L160.269 174.093C158.54 174.229 156.836 174.595 155.204 175.182L148.882 159.825L147.714 132.31C159.226 130.692 160.573 156.876 162.27 164.251Z" fill="#FFC0C4"/>
</g>
<path d="M131.466 132.63L130.419 132.85C130.419 132.85 129.465 131.279 129.654 130.98C129.842 130.682 131.545 131.588 131.545 131.588L131.466 132.63Z" fill="#2E3442"/>
<path d="M133.2 137.784L130.408 132.85C130.477 132.563 130.615 132.297 130.812 132.076C131.008 131.856 131.257 131.688 131.534 131.588L136.678 134.002C136.411 134.849 135.961 135.626 135.36 136.28C134.759 136.933 134.021 137.447 133.2 137.784Z" fill="#F2811C"/>
<path d="M189.391 183.793L193.723 187.612C193.723 187.612 194.949 183.191 193.723 180.865C192.497 178.54 176.999 166.084 176.999 166.084C176.737 166.538 176.603 167.055 176.613 167.579C176.622 168.103 176.773 168.615 177.051 169.059C177.314 169.471 177.682 169.804 178.118 170.024C178.554 170.245 179.041 170.344 179.528 170.311C179.528 170.311 186.201 176.366 188.229 178.409C190.256 180.452 189.391 183.793 189.391 183.793Z" fill="#F2811C"/>
<path d="M196.144 189.031C194.284 195.28 189.78 195.756 189.481 195.783L133.216 137.815C134.264 133.798 136.699 134.023 136.699 134.023L196.144 189.031Z" fill="#2E3442"/>
<g style="mix-blend-mode:overlay" opacity="0.3">
<path d="M196.144 189.031C194.284 195.28 189.78 195.757 189.481 195.783C189.481 195.783 189.89 189.712 196.144 189.031Z" fill="white"/>
</g>
<path d="M198.82 193.913C198.687 194.934 198.243 195.89 197.549 196.651C196.855 197.411 195.943 197.94 194.939 198.166L191.141 193.64C191.281 192.947 191.612 192.307 192.096 191.792C192.58 191.277 193.198 190.906 193.88 190.723L198.82 193.913Z" fill="#F2811C"/>
<g style="mix-blend-mode:overlay" opacity="0.5">
<path d="M198.82 193.913C198.687 194.934 198.243 195.89 197.549 196.651C196.855 197.411 195.943 197.94 194.939 198.166C194.96 197.107 195.365 196.092 196.079 195.309C196.793 194.527 197.767 194.031 198.82 193.913Z" fill="#2E3442"/>
</g>
<path d="M157.048 179.645C157.048 179.645 169.834 158.542 169.011 153.456C168.189 148.37 166.513 147.977 166.513 147.977L161.898 154.739C161.898 154.739 167.828 142.996 166.539 138.156C165.664 135.158 163.764 132.562 161.17 130.823L148.887 159.804L157.048 179.645Z" fill="#FFC0C4"/>
<path d="M178.109 202.597C176.732 200.062 175.401 197.506 174.239 194.866C171.913 189.571 171.525 184.548 171.552 179.347C172.777 177.084 177.418 169.028 182.179 167.153C187.726 164.963 192.199 171.008 192.199 171.008C185.704 175.01 181.776 188.707 179.754 198.768C179.454 200.138 178.896 201.437 178.109 202.597Z" fill="#FFC0C4"/>
<path d="M169.729 228.755C169.729 228.755 175.49 290.771 169.268 334.261C163.045 377.751 133.614 387.514 111.651 373.545C89.6889 359.576 93.3973 323.193 106.251 294.134C119.105 265.074 133.194 224.57 133.194 224.57C133.194 224.57 150.008 210.936 169.729 228.755Z" fill="#FFB727"/>
<path d="M98.1952 177.534C98.2528 177.534 104.014 175.549 105.722 166.116C105.769 165.975 105.859 165.853 105.979 165.766C106.1 165.68 106.244 165.633 106.392 165.633C106.541 165.633 106.685 165.68 106.805 165.766C106.926 165.853 107.016 165.975 107.063 166.116C108.77 175.544 114.532 177.518 114.584 177.534C114.708 177.561 114.818 177.63 114.897 177.729C114.977 177.827 115.02 177.95 115.02 178.076C115.02 178.203 114.977 178.325 114.897 178.424C114.818 178.522 114.708 178.591 114.584 178.618C114.527 178.618 108.781 180.541 107.063 190.037C107.016 190.177 106.926 190.3 106.805 190.386C106.685 190.473 106.541 190.519 106.392 190.519C106.244 190.519 106.1 190.473 105.979 190.386C105.859 190.3 105.769 190.177 105.722 190.037C104.014 180.609 98.2528 178.639 98.2004 178.618C98.077 178.591 97.9666 178.522 97.8874 178.424C97.8083 178.325 97.7651 178.203 97.7651 178.076C97.7651 177.95 97.8083 177.827 97.8874 177.729C97.9666 177.63 98.077 177.561 98.2004 177.534H98.1952Z" fill="white"/>
<path d="M116.528 149.375C116.559 149.375 119.901 148.223 120.886 142.76C120.909 142.675 120.961 142.6 121.032 142.548C121.103 142.495 121.19 142.469 121.278 142.472C121.366 142.468 121.453 142.494 121.523 142.547C121.594 142.599 121.644 142.675 121.666 142.76C122.656 148.223 125.993 149.365 126.024 149.375C126.098 149.389 126.164 149.428 126.212 149.485C126.26 149.542 126.286 149.615 126.286 149.69C126.286 149.764 126.26 149.837 126.212 149.894C126.164 149.952 126.098 149.99 126.024 150.004C125.993 150.004 122.661 151.114 121.666 156.619C121.643 156.704 121.593 156.778 121.522 156.829C121.452 156.88 121.366 156.906 121.278 156.902C121.191 156.907 121.104 156.881 121.032 156.83C120.961 156.778 120.909 156.704 120.886 156.619C119.901 151.151 116.559 150.014 116.528 150.004C116.454 149.99 116.388 149.952 116.34 149.894C116.292 149.837 116.266 149.764 116.266 149.69C116.266 149.615 116.292 149.542 116.34 149.485C116.388 149.428 116.454 149.389 116.528 149.375Z" fill="white"/>
<path d="M75.395 143.305C75.4788 143.278 83.5085 140.502 85.8707 127.214C85.9316 127.013 86.0556 126.836 86.2244 126.711C86.3933 126.585 86.598 126.518 86.8083 126.518C87.0186 126.518 87.2233 126.585 87.3922 126.711C87.561 126.836 87.685 127.013 87.7459 127.214C90.1186 140.502 98.1535 143.278 98.2216 143.305C98.3979 143.34 98.5564 143.436 98.6702 143.576C98.7841 143.715 98.8462 143.889 98.8462 144.069C98.8462 144.249 98.7841 144.424 98.6702 144.563C98.5564 144.702 98.3979 144.798 98.2216 144.834C98.143 144.86 90.1343 147.542 87.7459 160.925C87.685 161.126 87.561 161.302 87.3922 161.428C87.2233 161.553 87.0186 161.621 86.8083 161.621C86.598 161.621 86.3933 161.553 86.2244 161.428C86.0556 161.302 85.9316 161.126 85.8707 160.925C83.498 147.636 75.4684 144.86 75.395 144.834C75.2246 144.79 75.0727 144.692 74.9616 144.555C74.8504 144.419 74.7857 144.25 74.7769 144.075C74.7852 143.897 74.8495 143.727 74.9606 143.589C75.0716 143.45 75.2238 143.351 75.395 143.305Z" fill="white"/>
<path d="M229.692 370.709L265.222 276.194C265.64 275.088 266.384 274.135 267.356 273.462C268.329 272.789 269.482 272.428 270.665 272.426H419.815C420.733 272.428 421.638 272.647 422.455 273.065C423.272 273.483 423.98 274.088 424.519 274.831C425.058 275.574 425.414 276.434 425.557 277.341C425.701 278.247 425.628 279.175 425.345 280.049L394.432 374.554C394.049 375.718 393.309 376.731 392.318 377.451C391.326 378.17 390.132 378.558 388.907 378.56H235.135C234.197 378.556 233.274 378.327 232.444 377.89C231.614 377.454 230.901 376.824 230.367 376.053C229.833 375.282 229.492 374.394 229.375 373.464C229.257 372.533 229.366 371.588 229.692 370.709Z" fill="#F2811C"/>
<g style="mix-blend-mode:overlay" opacity="0.6">
<path d="M229.692 370.709L265.222 276.194C265.64 275.088 266.384 274.135 267.356 273.462C268.329 272.789 269.482 272.428 270.665 272.426H419.815C420.733 272.428 421.638 272.647 422.455 273.065C423.272 273.483 423.98 274.088 424.519 274.831C425.058 275.574 425.414 276.434 425.557 277.341C425.701 278.247 425.628 279.175 425.345 280.049L394.432 374.554C394.049 375.718 393.309 376.731 392.318 377.451C391.326 378.17 390.132 378.558 388.907 378.56H235.135C234.197 378.556 233.274 378.327 232.444 377.89C231.614 377.454 230.901 376.824 230.367 376.053C229.833 375.282 229.492 374.394 229.375 373.464C229.257 372.533 229.366 371.588 229.692 370.709Z" fill="#2E3442"/>
</g>
<path d="M246.962 373.384V378.569H158.385C157.009 378.569 155.691 378.023 154.718 377.051C153.746 376.078 153.199 374.759 153.199 373.384H246.962Z" fill="#F2811C"/>
<path d="M240.597 378.565H394.364C395.589 378.564 396.783 378.178 397.775 377.461C398.768 376.743 399.51 375.732 399.894 374.569L400.278 373.384L430.802 280.049C431.083 279.177 431.155 278.251 431.011 277.346C430.867 276.441 430.511 275.583 429.973 274.842C429.436 274.1 428.731 273.496 427.915 273.078C427.1 272.66 426.198 272.44 425.282 272.436H276.122C274.941 272.44 273.789 272.803 272.818 273.476C271.848 274.15 271.105 275.103 270.689 276.208L235.159 370.714C234.833 371.593 234.724 372.537 234.842 373.467C234.959 374.397 235.299 375.285 235.833 376.056C236.366 376.826 237.078 377.457 237.908 377.894C238.737 378.33 239.659 378.56 240.597 378.565Z" fill="#F2811C"/>
<g style="mix-blend-mode:overlay" opacity="0.3">
<path d="M315.104 321.312H356.596C357.707 321.312 358.773 321.754 359.559 322.54C360.345 323.325 360.786 324.391 360.786 325.502C360.786 326.614 360.345 327.68 359.559 328.465C358.773 329.251 357.707 329.692 356.596 329.692H315.104C313.993 329.692 312.927 329.251 312.141 328.465C311.355 327.68 310.914 326.614 310.914 325.502C310.914 324.391 311.355 323.325 312.141 322.54C312.927 321.754 313.993 321.312 315.104 321.312Z" fill="white"/>
</g>
<g style="mix-blend-mode:overlay" opacity="0.3">
<path d="M246.962 373.384H400.278L430.802 280.049C431.083 279.177 431.155 278.251 431.011 277.346C430.867 276.441 430.511 275.583 429.973 274.842C429.436 274.1 428.731 273.496 427.915 273.078C427.1 272.66 426.198 272.44 425.282 272.436H404.133L246.962 373.384Z" fill="#2E3442"/>
</g>
<path d="M30.9998 378.569H540.543V386.605H30.9998V378.569Z" fill="#B25A1F"/>
<path d="M463.303 308.684L384.611 338.043L463.303 368.32L542 338.043L463.303 308.684Z" fill="#314B87"/>
<g style="mix-blend-mode:overlay" opacity="0.6">
<path d="M463.308 311.636L387.582 339.184L463.308 368.32L539.15 339.141L463.308 311.636Z" fill="#2E3442"/>
</g>
<path d="M503.984 378.569H422.631L423.199 371.354L425.724 338.509C425.724 338.509 437.798 329.804 463.322 329.804C488.846 329.804 500.925 338.509 500.925 338.509L501.566 346.797L503.984 378.569Z" fill="#314B87"/>
<g style="mix-blend-mode:overlay" opacity="0.3">
<path d="M503.984 378.569H422.631L423.199 371.355C485.83 378.239 501.551 346.812 501.551 346.812L503.984 378.569Z" fill="#2E3442"/>
</g>
<path d="M494.555 378.118H492.098V338.063C492.098 317.972 481.621 315.443 481.514 315.418L477.145 313.855C479.14 312.321 482 313.015 482 313.015C482.485 313.127 494.511 316.016 494.511 338.063L494.555 378.118Z" fill="#FFB727"/>
<path d="M493.312 371.447C490.855 373.633 489.068 376.471 488.161 379.633C486.219 386.478 488.321 389.299 488.321 389.299L490.157 385.415C489.944 387.008 489.855 388.615 489.89 390.222C489.928 393.135 493.157 396.247 493.157 396.247C494.702 394.958 495.805 393.218 496.313 391.27C496.852 388.775 496.167 381.798 496.167 381.798L497.502 390.003C497.502 390.003 498.711 389.105 499.221 386.119C499.381 381.584 496.905 374.326 493.312 371.447Z" fill="#FFB727"/>
<path d="M496.512 372.491C496.45 373.129 496.201 373.735 495.794 374.232C495.388 374.729 494.844 375.094 494.23 375.281C493.617 375.469 492.961 375.47 492.347 375.284C491.733 375.099 491.187 374.736 490.779 374.24C490.372 373.745 490.12 373.14 490.056 372.501C489.993 371.863 490.12 371.22 490.422 370.654C490.723 370.087 491.186 369.624 491.752 369.321C492.317 369.017 492.96 368.889 493.599 368.951C494.454 369.035 495.242 369.455 495.788 370.118C496.334 370.782 496.594 371.635 496.512 372.491Z" fill="#F2811C"/>
<path d="M277.457 366.63C277.429 369.459 277.652 372.284 278.122 375.074C278.53 377.229 279.093 378.569 279.705 378.569C279.705 378.569 315.759 375.914 328.024 375.341C329.48 375.282 330.563 375.248 331.252 375.248C331.854 375.248 332.786 375.273 333.976 375.331C345.73 375.816 382.804 378.569 382.804 378.569V354.692C382.804 354.692 346.556 357.367 334.384 357.915C333 357.974 331.927 358.008 331.252 358.008C330.679 358.008 329.83 358.008 328.747 357.94C317.25 357.454 279.71 354.692 279.71 354.692C278.472 354.692 277.457 360.037 277.457 366.63Z" fill="white"/>
<path d="M387.009 363.63C387.009 363.63 386.747 378.564 382.8 378.564V363.63H387.009Z" fill="white"/>
<g style="mix-blend-mode:multiply" opacity="0.1">
<path d="M387.009 363.63C387.009 363.63 386.747 378.564 382.8 378.564V363.63H387.009Z" fill="#2E3442"/>
</g>
<path d="M380.571 366.63C380.571 367.14 380.571 367.645 380.571 368.145C380.697 373.826 381.586 378.254 382.678 378.56H382.795C384.033 378.56 385.033 373.219 385.033 366.621C385.033 360.023 384.033 354.682 382.795 354.682C381.557 354.682 380.571 360.037 380.571 366.63Z" fill="white"/>
<g style="mix-blend-mode:multiply" opacity="0.2">
<path d="M380.571 366.63C380.571 367.14 380.571 367.645 380.571 368.145C380.697 373.583 381.513 377.856 382.513 378.501C382.556 378.501 382.595 378.545 382.639 378.56H382.688H382.731C383.969 378.56 384.969 373.219 384.969 366.621C384.969 360.023 383.969 354.682 382.731 354.682C381.848 354.682 381.081 357.396 380.716 361.343C380.639 362.95 380.571 364.732 380.571 366.63Z" fill="#2E3442"/>
</g>
<path d="M328.024 375.341C329.48 375.283 330.563 375.249 331.252 375.249C331.855 375.249 332.787 375.273 333.976 375.331C331.155 366.592 334.384 357.916 334.384 357.916C333 357.974 331.927 358.008 331.252 358.008C330.68 358.008 329.83 358.008 328.747 357.94C325.999 364.208 327.325 372.219 328.024 375.341Z" fill="#3DB6C4"/>
<g style="mix-blend-mode:multiply" opacity="0.2">
<path d="M380.571 366.631C380.571 367.14 380.571 367.645 380.571 368.145C380.697 373.583 381.513 377.856 382.513 378.501L382.639 378.545C382.348 378.395 381.591 377.496 381.591 372.233C381.591 365.679 383.387 361.368 383.387 361.368H380.741C380.639 362.95 380.571 364.732 380.571 366.631Z" fill="#2E3442"/>
</g>
<path d="M39.9239 363.62C40.186 363.188 46.5074 352.886 59.5678 352.886H135.061V378.225H57.281C46.6725 378.225 41.1425 369.971 39.7054 365.601L39.3606 364.562L39.9239 363.62Z" fill="#314B87"/>
<g style="mix-blend-mode:overlay" opacity="0.2">
<path d="M39.9239 363.62C40.186 363.188 46.5074 352.886 59.5678 352.886H135.061V378.225H57.281C46.6725 378.225 41.1425 369.971 39.7054 365.601L39.3606 364.562L39.9239 363.62Z" fill="#2E3442"/>
</g>
<path d="M50.9063 363.616C51.1588 363.198 57.1694 353.42 69.5355 352.9C69.8705 352.9 70.2055 352.9 70.5502 352.9H146.048V355.299H70.5502C58.6988 355.299 52.9551 364.873 52.9551 364.873C52.9551 364.873 56.5965 375.851 68.2635 375.851H146.038V378.244H68.2537C57.6501 378.244 52.1201 369.99 50.683 365.621L50.3382 364.582L50.9063 363.616Z" fill="#314B87"/>
<path d="M143.64 355.279H70.5453C58.689 355.279 52.9502 364.854 52.9502 364.854C52.9502 364.854 56.5868 375.831 68.2537 375.831H143.64V355.279Z" fill="white"/>
<path d="M63.1363 358.124H143.635V358.722H63.1363V358.124Z" fill="#B7EBEA"/>
<path d="M60.7427 362.513H143.635V363.111H60.7427V362.513Z" fill="#B7EBEA"/>
<path d="M60.7427 366.902H143.635V367.5H60.7427V366.902Z" fill="#B7EBEA"/>
<path d="M63.1363 371.292H143.635V371.889H63.1363V371.292Z" fill="#B7EBEA"/>
<path d="M67.1418 362.513C67.6273 363.179 68.5401 364.004 68.5401 368.34V373.054L72.2883 370.219L75.4053 373.054V366.126C75.4094 365.672 75.3639 365.22 75.2694 364.776C75.0966 363.936 74.7065 363.156 74.1381 362.513H67.1418Z" fill="#FFB727"/>
<path d="M98.6907 351.783C98.3723 351.993 98.003 352.113 97.622 352.131C97.241 352.148 96.8623 352.062 96.5261 351.882C96.1899 351.702 95.9085 351.435 95.7118 351.108C95.5151 350.781 95.4104 350.407 95.4086 350.026L94.8017 253.408C94.8017 252.238 96.8409 248.204 96.8409 248.204C96.8409 248.204 99.0305 252.209 99.0354 253.379L99.6472 349.997C99.6499 350.351 99.5637 350.7 99.3966 351.012C99.2295 351.324 98.9868 351.589 98.6907 351.783Z" fill="#B25A1F"/>
<path d="M107.949 346.506C110.936 347.383 113.814 348.595 116.529 350.118V352.391L78.6584 352.546V350.274C88.8688 344.957 98.6082 343.811 107.949 346.506Z" fill="#B25A1F"/>
<g style="mix-blend-mode:overlay" opacity="0.2">
<path d="M116.529 350.118V352.39L78.6584 352.546V350.274C78.6584 350.274 101.308 351.521 107.935 346.506C110.927 347.382 113.81 348.594 116.529 350.118Z" fill="#2E3442"/>
</g>
<path d="M121.932 330.518L121.986 330.474C128.598 324.724 133.211 317.02 135.158 308.476C136.597 302.096 136.486 295.465 134.834 289.138C133.181 282.81 130.036 276.971 125.661 272.111C124.777 271.139 123.835 270.168 122.869 269.294C122.204 268.683 121.519 268.1 120.859 267.566C120.655 267.401 120.446 267.241 120.238 267.081C115.776 263.622 110.645 261.126 105.17 259.749C99.6948 258.373 93.9938 258.147 88.4267 259.084L89.1258 263.264C94.1174 262.423 99.2292 262.626 104.139 263.859C109.048 265.093 113.649 267.33 117.65 270.431L118.198 270.868C118.801 271.353 119.407 271.868 120.005 272.416C120.879 273.213 121.718 274.062 122.51 274.941C126.422 279.305 129.235 284.54 130.715 290.211C132.195 295.882 132.298 301.824 131.016 307.543C129.271 315.194 125.144 322.094 119.228 327.25C118.013 328.23 116.743 329.141 115.426 329.979C115.213 330.115 114.999 330.246 114.761 330.387L114.552 330.513C114.266 330.688 113.984 330.853 113.669 331.033L113.27 331.256L112.911 331.455C112.557 331.649 112.207 331.834 111.877 331.999L111.814 332.033L111.299 332.285L111.226 332.319L111.115 332.377L110.979 332.445L110.896 332.479L110.489 332.674L110.149 332.834L110.042 332.878L109.945 332.921L109.498 333.12C109.362 333.174 109.231 333.227 109.105 333.285C107.969 333.771 107.27 333.98 107.221 333.994C106.735 334.15 106.284 334.3 105.832 334.436L105.386 334.572L105.124 334.645H105.046L104.687 334.747C104.201 334.888 103.716 335.014 103.23 335.13C102.876 335.218 102.516 335.3 102.162 335.378H102.109L101.764 335.456L100.715 335.655C100.472 335.698 100.23 335.747 99.9334 335.791L99.6081 335.844H99.5498L99.2877 335.883H99.1663L98.6371 335.956H98.5109L98.1661 335.999L97.8263 336.038L97.6078 336.063C91.9943 336.449 86.3679 335.525 81.1731 333.363C75.4411 330.984 70.3991 327.203 66.5106 322.366L63.209 325.017C67.341 330.176 72.6598 334.259 78.7114 336.917C84.763 339.575 91.3678 340.729 97.9622 340.282H98.1176H98.2487H98.3264L98.6614 340.243L99.0838 340.189H99.1906C99.3993 340.16 99.6081 340.136 99.8072 340.102H99.9285L100.249 340.054L100.628 339.995C100.914 339.952 101.201 339.898 101.463 339.85L101.842 339.782L102.609 339.631H102.681L103.002 339.563H103.07C103.463 339.481 103.856 339.388 104.25 339.296C104.784 339.16 105.323 339.024 105.862 338.874L106.231 338.767L106.682 338.641L107.066 338.524C107.551 338.374 108.076 338.209 108.522 338.039C108.556 338.039 109.406 337.762 110.765 337.194L110.833 337.165L111.115 337.048L111.683 336.796L111.824 336.737L111.945 336.684L112.295 336.519L112.717 336.32L112.892 336.237L113.023 336.174L113.591 335.893L113.79 335.791C114.154 335.611 114.528 335.407 114.936 335.189L115.315 334.98L115.8 334.723C116.121 334.538 116.446 334.349 116.771 334.15C116.858 334.096 116.946 334.048 117.009 334.004L117.689 333.586L117.752 333.548L118.325 333.174C119.571 332.349 120.775 331.463 121.932 330.518Z" fill="#B25A1F"/>
<path d="M65.0443 290.206C64.7003 291.359 64.4231 292.531 64.2141 293.716C64 294.899 63.8525 296.094 63.7723 297.294C63.6978 298.414 63.68 299.547 63.7189 300.693C63.9494 307.71 66.437 314.466 70.8122 319.958C73.4547 323.279 76.714 326.059 80.4109 328.144C81.6408 328.783 82.905 329.353 84.1979 329.853L84.8534 330.091L85.0767 330.173C85.3631 330.275 85.6399 330.372 85.9166 330.46L86.3293 330.591L86.6789 330.702C87.0236 330.809 87.3635 330.906 87.679 330.989C87.741 331.011 87.8042 331.028 87.8684 331.042L88.2228 331.135L88.3927 331.183L88.587 331.232L88.9608 331.324L89.3152 331.406L89.4851 331.44C89.6551 331.484 89.8201 331.518 89.9707 331.547L90.2765 331.61C91.4224 331.839 92.1069 331.907 92.1069 331.907C92.539 331.96 92.9712 332.008 93.3936 332.047L93.7383 332.076L94.0733 332.106H94.418L95.758 332.178H96.729H98.0254H98.7099H99.0304H99.3363H99.4042C99.6033 332.178 99.7926 332.178 99.9868 332.14H100.307H100.628C100.694 332.135 100.761 332.135 100.827 332.14H100.938C108.651 331.087 115.735 327.319 120.917 321.512C121.18 321.22 121.432 320.929 121.685 320.628C126.851 314.44 129.547 306.559 129.254 298.503C129.225 297.76 129.176 297.022 129.103 296.294C128.391 289.312 125.451 282.745 120.718 277.563L120.233 277.029C119.448 276.204 118.62 275.421 117.752 274.684C111.524 269.365 103.525 266.578 95.3405 266.877C94.2772 266.92 93.2285 267.003 92.1944 267.139C88.3243 267.643 84.5764 268.838 81.1294 270.669C79.735 271.411 78.3949 272.252 77.1191 273.183C75.1208 274.625 73.2903 276.286 71.6619 278.136C71.526 278.291 71.39 278.451 71.2589 278.621C70.8074 279.165 70.3704 279.728 69.9529 280.301C69.3288 281.155 68.7487 282.039 68.2148 282.952C66.8678 285.232 65.8032 287.668 65.0443 290.206Z" fill="#3DB6C4"/>
<g style="mix-blend-mode:overlay" opacity="0.5">
<path d="M85.6056 275.436C85.8255 275.323 86.0751 275.283 86.3193 275.319C86.6319 275.39 86.9221 275.537 87.1642 275.747C87.3955 276.111 87.5339 276.526 87.5671 276.956C87.5671 277.126 87.5671 277.543 87.3924 277.631C87.2176 277.718 86.7855 277.538 86.6204 277.436C86.1309 277.121 85.7391 276.676 85.4891 276.15C85.46 276.029 85.4554 275.904 85.4754 275.781C85.4954 275.659 85.5397 275.541 85.6056 275.436Z" fill="#2E3442"/>
<path d="M82.5516 272.028C82.5461 272.172 82.5119 272.314 82.451 272.445C82.3902 272.575 82.3039 272.693 82.1972 272.79C82.0224 272.892 81.566 272.62 81.3815 272.703C81.0757 272.834 80.93 273.698 80.5999 273.747C80.2697 273.795 79.7356 272.775 79.3666 272.873C78.9976 272.97 78.5558 274.014 78.7452 274.378C78.7937 274.47 79.0559 274.46 79.1578 274.48C79.4443 274.528 80.0415 274.518 80.3231 274.596C80.7518 274.686 81.158 274.861 81.5175 275.111C81.8913 275.489 81.9253 276.694 82.2992 277.053C82.673 277.412 83.7265 277.368 83.9596 277.742C84.0608 277.984 84.1031 278.246 84.0828 278.507C84.0625 278.767 83.9804 279.02 83.8431 279.243C83.6974 279.374 83.2071 279.102 83.0711 279.243C82.9814 279.388 82.9315 279.554 82.9264 279.724C82.9213 279.895 82.9611 280.063 83.042 280.214C83.3478 280.534 84.4112 280.189 84.8433 280.301C85.2754 280.413 86.091 280.694 86.3289 281.024C86.4555 281.319 86.4959 281.644 86.4454 281.961C86.3823 282.447 86.0861 283.389 85.7123 283.685C85.3926 283.834 85.0399 283.9 84.6879 283.874C84.1596 283.796 83.6407 283.664 83.1391 283.481C82.8818 283.408 82.2895 283.34 82.1195 283.131C81.9496 282.923 82.0661 282.457 82.0079 282.243C81.8234 281.592 81.4689 280.15 80.9009 279.762C80.6678 279.607 80.0172 279.849 79.7745 279.713C79.454 279.534 79.323 278.505 78.954 278.519C78.7549 278.519 78.7209 279.073 78.5704 279.199C77.9538 279.684 75.8515 279.544 75.5262 280.267C75.4728 280.388 75.6282 280.675 75.735 280.752C75.9729 280.942 76.8468 280.699 76.9293 280.986C76.9779 281.18 76.5069 281.432 76.3176 281.495C76.0658 281.558 75.8023 281.558 75.5505 281.495C75.332 281.418 74.8756 281.155 74.7979 280.942C74.7202 280.728 75.1427 280.194 75.065 279.971C75.031 279.869 74.7251 279.806 74.7348 279.694C74.7445 279.582 75.0164 279.5 75.1184 279.456C75.6039 279.257 76.6817 279.238 77.0944 278.971C77.3809 278.772 78.0024 278.15 77.8713 277.825C77.7402 277.5 76.7983 277.417 76.4147 277.466C76.2104 277.553 76.0179 277.665 75.8418 277.801C75.4679 277.995 74.5989 278.218 74.327 278.539C74.0551 278.859 74.1522 279.51 73.9531 279.786C73.6185 280.216 73.19 280.563 72.7005 280.801C72.6406 280.826 72.5762 280.839 72.5112 280.839C72.4461 280.839 72.3817 280.826 72.3218 280.801C72.113 280.689 72.147 280.34 72.215 279.961C72.3317 279.603 72.3632 279.222 72.3072 278.849C72.215 278.645 71.8994 278.223 71.6469 278.16C74.3069 275.075 77.5173 272.511 81.1145 270.6C81.4575 270.774 81.7827 270.98 82.0855 271.217C82.3037 271.446 82.4636 271.724 82.5516 272.028Z" fill="#2E3442"/>
<path d="M84.0815 277.266C83.6427 277.185 83.2188 277.038 82.824 276.829C82.6201 276.655 82.2268 276.121 82.3385 275.892C82.4502 275.664 82.9308 275.863 83.1153 275.795C83.29 275.703 83.453 275.591 83.6008 275.46C83.8972 275.228 84.1719 274.97 84.4214 274.688C84.6253 274.412 84.6981 273.567 85.0283 273.455C85.3584 273.343 85.8779 273.737 86.0673 273.941C86.1771 274.098 86.2425 274.283 86.2567 274.475C86.2658 274.656 86.2201 274.835 86.1256 274.989C86.0187 275.106 85.6643 275.154 85.5089 275.208C85.3536 275.261 84.8049 275.329 84.6399 275.485C84.4748 275.64 84.3825 275.863 84.4408 275.994C84.499 276.125 85.106 276.174 85.2031 276.354C85.2738 276.545 85.2944 276.751 85.263 276.952C85.2315 277.154 85.1491 277.344 85.0234 277.504C84.8438 277.65 84.3145 277.339 84.0815 277.266Z" fill="#2E3442"/>
<path d="M71.0017 279.592C70.7136 279.908 70.3539 280.149 69.953 280.296C70.3705 279.719 70.8075 279.16 71.259 278.612C71.2278 278.95 71.1408 279.282 71.0017 279.592Z" fill="#2E3442"/>
<path d="M105.221 284.748C105.342 284.797 105.42 285.083 105.434 285.234C105.449 285.384 105.464 285.651 105.357 285.719C105.233 285.741 105.107 285.732 104.988 285.692C104.869 285.652 104.762 285.583 104.677 285.491C104.65 285.412 104.64 285.327 104.648 285.244C104.655 285.16 104.68 285.079 104.721 285.006C104.78 284.929 104.856 284.866 104.942 284.822C105.029 284.777 105.124 284.752 105.221 284.748Z" fill="#2E3442"/>
<path d="M128.205 296.347C127.719 296.804 127.875 298.343 127.549 298.925C127.224 299.508 126.287 300.576 125.651 300.804C125.389 300.897 124.709 300.906 124.53 300.693C124.35 300.479 124.496 300.081 124.583 299.901C124.84 299.367 126.006 298.789 126.35 298.299C126.627 297.901 127.297 296.93 127.074 296.498C126.974 296.407 126.854 296.343 126.723 296.31C126.593 296.278 126.456 296.279 126.326 296.313C125.865 296.532 125.84 297.746 125.515 298.153C125.03 298.814 123.243 299.532 123.005 300.319C122.927 300.557 123.335 301.047 123.262 301.29C123.112 301.804 122.16 302.552 121.646 302.746C120.927 303.023 119.029 303.324 118.553 302.746C118.48 302.654 118.742 302.387 118.669 302.29C118.497 302.167 118.295 302.09 118.084 302.067C117.874 302.044 117.66 302.076 117.465 302.159C117.295 302.295 117.538 302.868 117.368 302.999C117.198 303.13 116.655 302.941 116.397 302.936C115.895 302.882 115.387 302.892 114.887 302.965C114.144 303.198 113.086 304.528 112.324 304.684C111.683 304.82 110.299 303.926 109.726 304.242C109.241 304.499 108.867 305.698 108.959 306.184C109.051 306.669 110.26 307.286 110.416 307.805C110.571 308.325 110.09 309.175 110.037 309.641C109.998 309.932 110.139 310.549 110.003 310.811C109.59 311.592 107.881 312.267 107.017 312.957C106.9 313.05 106.791 313.154 106.692 313.267C106.517 313.481 106.464 314.117 106.206 314.273C105.848 314.361 105.473 314.361 105.114 314.273C105.002 314.273 103.118 314.719 102.686 315.2C101.715 316.292 102.414 319.875 101.269 320.769C101.123 320.88 100.662 320.662 100.521 320.769C100.035 321.254 100.657 322.856 100.341 323.449C100.113 323.886 99.04 324.26 98.7924 324.677C98.6267 325.087 98.5474 325.527 98.5594 325.969V326.26C98.5491 326.532 98.5117 326.802 98.4477 327.066C98.4315 327.14 98.4054 327.212 98.37 327.279C97.7715 328.156 97.0218 328.919 96.156 329.532C95.6171 329.926 94.4228 330.649 93.7285 330.722C93.243 330.785 92.0632 330.654 91.733 330.27C91.6796 330.168 91.6488 330.055 91.643 329.939C91.6371 329.823 91.6563 329.708 91.6991 329.6C91.9467 329.188 93.1799 329.154 93.4615 328.76C93.5313 328.563 93.5546 328.352 93.5295 328.144C93.5295 327.949 93.4469 327.551 93.4518 327.352C93.4518 327.236 93.4518 327.017 93.4518 326.867C93.4579 326.772 93.4995 326.684 93.5683 326.619C93.7819 326.483 94.316 326.891 94.5393 326.838C94.7626 326.784 95.1608 326.551 95.1996 326.352C95.2481 326.066 94.6461 325.653 94.5733 325.381C94.5344 325.235 94.5005 324.896 94.6121 324.774C94.7238 324.653 95.4084 324.905 95.5832 324.745C95.64 324.666 95.6771 324.575 95.6915 324.478C95.7058 324.382 95.6969 324.284 95.6657 324.192C95.5006 323.9 94.6947 323.847 94.4082 323.672C93.7516 323.301 93.1623 322.822 92.6652 322.254C92.5576 322.039 92.4854 321.808 92.4516 321.57C92.416 321.342 92.3658 321.116 92.3011 320.895C92.0826 320.273 91.4806 319.089 91.2087 318.467C91.1261 318.288 90.8785 317.953 90.8882 317.759C90.8882 317.22 91.6262 316.331 91.8593 315.855C91.767 315.545 91.733 314.841 91.4951 314.622C91.1358 314.287 89.9803 314.462 89.5531 314.2C89.0932 313.864 88.7339 313.409 88.514 312.884C88.2519 311.913 89.2472 309.874 89.1016 308.869C89.019 308.291 88.2373 307.31 88.1305 306.742C88.0674 306.446 87.9557 305.771 88.1693 305.543C88.383 305.315 89.2569 305.601 89.5774 305.465C89.8978 305.329 90.3784 304.407 90.7863 304.295C91.5194 304.101 92.9759 304.951 93.7333 304.999C94.0395 304.985 94.3443 304.951 94.6461 304.897C95.0539 304.849 95.9667 304.965 96.2871 304.718C96.6076 304.47 96.5882 303.475 96.8115 303.12C97.0349 302.766 97.5398 302.096 97.9282 301.984C98.4477 301.838 99.5158 302.615 100.04 302.47C100.565 302.324 101.22 301.173 101.735 300.911C102.011 300.77 102.706 300.46 102.948 300.664C103.06 300.761 102.778 301.12 102.856 301.246C103.128 301.664 104.313 301.945 104.798 301.843C105.109 301.785 105.468 301.144 105.769 301.047C106.48 300.851 107.235 300.887 107.925 301.149C108.483 301.503 108.576 303.091 109.129 303.48C109.683 303.868 111.328 304.072 111.906 303.698C112.484 303.324 112.202 301.236 112.843 300.819C113.266 300.542 114.543 301.358 114.868 300.979C115.193 300.6 114.382 299.77 114.455 299.348C114.489 299.129 114.669 298.61 114.892 298.581C115.674 298.498 116.32 300.523 117.019 300.877C117.535 301.118 118.114 301.191 118.674 301.086C119.075 300.826 119.384 300.447 119.558 300.003C119.628 299.557 119.618 299.101 119.529 298.658C119.536 297.941 119.323 297.238 118.92 296.644C118.516 296.051 117.941 295.595 117.271 295.337C116.368 294.876 114.198 293.842 113.334 294.366C113.071 294.522 113.27 295.337 113.042 295.536C112.814 295.736 111.736 296.124 111.464 295.828C111.192 295.532 111.95 294.57 112.076 294.017C112.085 293.964 112.085 293.91 112.076 293.857C111.905 293.391 111.645 292.964 111.309 292.599C110.93 292.114 109.789 291.366 109.59 290.774C109.513 290.545 109.741 290.05 109.687 289.803C109.527 289.069 108.643 287.793 108.168 287.205C107.765 286.72 106.187 286.108 106.284 285.486C106.284 285.423 106.502 285.438 106.517 285.375C106.658 284.889 105.847 283.918 105.386 283.656C105.197 283.603 104.997 283.603 104.808 283.656C104.711 283.69 104.585 283.923 104.483 283.899C104.274 283.855 104.216 283.316 104.08 283.156C104.051 283.122 103.944 283.098 103.953 283.059C104.012 282.918 104.439 283.127 104.589 283.127C104.74 283.127 105.138 283.19 105.264 283.083C105.391 282.915 105.447 282.704 105.42 282.496C105.364 282.357 105.272 282.236 105.153 282.146C104.925 282.037 104.677 281.976 104.424 281.966C104.297 281.961 104.17 281.981 104.051 282.025C103.905 282.107 103.783 282.51 103.618 282.51C103.554 282.513 103.491 282.501 103.432 282.476C103.373 282.451 103.321 282.413 103.279 282.364C103.279 282.364 103.279 282.326 103.279 282.321C103.279 282.316 103.191 282.321 103.167 282.321C102.811 282.275 102.475 282.133 102.196 281.908C102.118 281.801 102.269 281.476 102.196 281.384C102.114 281.322 102.015 281.287 101.912 281.285C101.809 281.283 101.709 281.314 101.625 281.373C101.54 281.432 101.477 281.515 101.444 281.613C101.41 281.71 101.408 281.815 101.438 281.913C101.477 282.068 101.977 282.267 101.89 282.398C101.754 282.466 101.788 282.884 101.667 282.962C101.371 283.161 100.579 283.01 100.21 283.03C100.079 283.03 99.7732 282.976 99.6615 283.059C99.5857 283.072 99.5076 283.067 99.4346 283.042C99.3616 283.017 99.296 282.975 99.244 282.918C99.211 282.782 99.2096 282.641 99.2399 282.504C99.2702 282.368 99.3314 282.24 99.4188 282.131C99.613 281.947 100.225 281.986 100.492 281.937C100.637 281.913 100.943 281.937 101.055 281.84C101.167 281.743 101.264 281.578 101.23 281.486C101.196 281.393 100.832 281.233 100.701 281.151C100.569 281.068 100.186 280.932 100.118 280.777C100.075 280.579 100.075 280.375 100.116 280.176C100.157 279.978 100.238 279.791 100.356 279.626C100.492 279.476 100.948 279.447 101.147 279.388C101.346 279.33 101.696 279.311 101.822 279.189C102.172 278.84 101.905 277.432 102.395 277.291C102.885 277.15 103.478 278.335 103.924 278.558C104.075 278.636 104.41 278.81 104.565 278.718C104.886 278.505 104.478 277.466 104.769 277.213C105.255 276.82 106.711 276.99 107.289 277.262C107.655 277.488 107.935 277.83 108.085 278.233C108.216 278.791 107.299 279.913 107.522 280.447C107.702 280.879 108.877 281.049 109.153 281.418C109.43 281.787 109.226 282.714 109.488 283.034C109.619 283.185 110.051 283.433 110.231 283.34C110.668 283.136 110.299 281.767 110.717 281.5C111.134 281.233 112.008 281.733 112.44 281.69C112.783 281.651 113.114 281.54 113.411 281.364C113.659 281.165 114.096 280.573 114.047 280.257C113.921 279.398 112.212 278.349 111.508 277.83C111.197 277.597 110.537 276.917 110.163 277.033C109.925 277.111 110.008 277.849 109.775 277.951C109.632 277.977 109.484 277.968 109.345 277.926C109.206 277.884 109.079 277.809 108.974 277.708C108.901 277.602 109.1 277.32 109.032 277.223C108.925 277.038 108.323 277.082 108.216 276.898C108.208 276.868 108.206 276.837 108.211 276.807C108.216 276.777 108.228 276.748 108.245 276.723C108.318 276.655 108.561 276.723 108.648 276.664C108.736 276.606 108.911 276.305 108.857 276.179C108.75 275.936 108.046 275.999 107.838 275.829C107.634 275.594 107.47 275.327 107.352 275.038C107.352 275.038 107.352 274.989 107.352 274.98C107.289 274.951 107.265 274.781 107.211 274.737C106.59 274.28 105.857 273.999 105.09 273.921C104.764 273.921 103.958 274.169 103.915 274.485C103.818 275.203 106.391 275.761 106.119 276.427C105.808 277.203 103.337 276.912 102.72 276.368C102.497 276.169 102.769 275.426 102.57 275.208C102.526 275.155 102.361 275.159 102.293 275.14C102.007 275.067 101.366 275.057 101.157 274.858C100.948 274.659 100.725 274.028 100.89 273.815C101.055 273.601 101.744 273.98 101.953 273.815C102.162 273.649 102.026 272.844 102.254 272.649C102.38 272.533 102.783 272.567 102.958 272.538C103.648 272.421 105.026 272.013 105.726 272.052C106.466 272.195 107.178 272.459 107.833 272.834C108.134 273.013 108.804 273.426 108.891 273.756C108.979 274.086 108.197 274.926 108.406 275.252C108.614 275.577 109.44 275.533 109.731 275.378C109.849 275.281 109.946 275.162 110.016 275.027C110.086 274.891 110.128 274.743 110.139 274.591C110.115 274.179 108.954 273.552 109.168 273.203C109.488 272.742 110.882 273.45 111.416 273.649C111.636 273.717 111.837 273.835 112.003 273.994C112.115 274.164 112.241 274.65 112.096 274.795C111.95 274.941 111.396 274.582 111.231 274.722C111.152 274.85 111.107 274.995 111.1 275.145C111.093 275.294 111.125 275.443 111.192 275.577C111.401 275.873 112.348 275.737 112.581 276.009C112.678 276.126 112.581 276.495 112.668 276.606C113.013 276.995 114.242 277.412 114.703 277.169C114.955 277.034 115.043 276.121 115.12 276.067C114.573 276.004 114.038 275.86 113.533 275.64C113.178 275.383 112.435 274.567 112.605 274.184C112.683 274.009 113.178 273.946 113.363 274.023C113.649 274.145 113.766 274.907 114.028 275.082C114.486 275.327 115.007 275.427 115.523 275.368C115.897 275.276 116.334 274.48 116.708 274.397C117.035 274.358 117.366 274.391 117.679 274.494C118.547 275.232 119.375 276.014 120.16 276.839C119.835 277.058 118.815 276.179 118.412 276.354C118.331 276.409 118.263 276.481 118.212 276.565C118.161 276.648 118.128 276.742 118.116 276.839C118.116 277 118.572 277.252 118.475 277.383C118.179 277.796 116.951 276.771 116.465 276.941C116.276 277.014 115.912 277.388 115.98 277.568C116.184 278.102 117.727 278.301 118.242 278.053C118.378 277.99 118.368 277.611 118.495 277.543C118.81 277.354 119.611 277.636 119.98 277.592C120.15 277.592 120.437 277.456 120.655 277.407C125.389 282.587 128.329 289.153 129.04 296.134C128.758 296.202 128.365 296.192 128.205 296.347Z" fill="#2E3442"/>
<path d="M63.714 300.698C63.8609 304.934 64.827 309.102 66.5592 312.971C66.6368 312.452 66.6174 311.787 66.8068 311.515C66.9961 311.243 67.7778 310.811 68.2051 310.461C68.3221 310.377 68.4239 310.274 68.5061 310.155C68.8751 309.592 68.7585 308.097 69.1712 307.558C69.2666 307.453 69.3845 307.372 69.5159 307.32C69.8283 307.203 70.1213 307.039 70.385 306.834C70.5862 306.513 70.7092 306.149 70.7443 305.771C70.7734 305.111 69.9189 303.829 70.0986 303.169C70.4093 302.013 72.934 300.79 73.468 299.717C73.7885 299.081 73.3078 297.343 73.8856 296.92C74.3225 296.605 75.5121 297.333 76.0461 297.231C76.3277 297.178 76.7404 296.707 77.0172 296.663C77.5124 296.651 78.0018 296.772 78.4348 297.012C78.6436 297.158 78.7796 297.697 78.9835 297.843C79.5127 298.207 81.0566 297.988 81.4839 298.459C81.5227 298.508 81.4839 298.654 81.5131 298.697C81.9184 298.974 82.4087 299.098 82.8968 299.047C84.1251 298.833 86.2953 297.294 86.9896 296.294C87.4023 295.706 87.9607 294.192 87.6742 293.526C87.6159 293.395 87.2567 293.332 87.1887 293.206C87.1357 293.078 87.1062 292.942 87.1013 292.803C87.1013 292.521 87.1013 292.206 87.2664 292.109C87.4315 292.012 87.8393 292.361 88.0141 292.288C88.1824 292.171 88.3224 292.018 88.4241 291.84C88.5257 291.662 88.5863 291.464 88.6016 291.259C88.4899 290.118 85.8438 288.861 85.572 287.749C85.4651 287.263 86.1788 286.365 86.0575 285.909C85.9361 285.452 84.9844 284.71 84.4989 284.481C84.2544 284.426 84.0062 284.388 83.7561 284.37C83.249 284.304 82.7507 284.181 82.2704 284.006C81.9743 283.85 81.5567 283.277 81.2654 283.107C80.4303 282.622 78.4348 281.442 77.5901 281.894C77.1579 282.122 77.5027 283.467 77.1045 283.758C76.7064 284.049 75.648 283.874 74.8129 283.758C74.5329 283.715 74.2481 283.715 73.9681 283.758C73.7836 283.787 73.4826 284.006 73.2787 284.015C73.0748 284.025 72.7932 284.015 72.7398 283.879C72.6038 283.656 73.1282 283.098 72.9971 282.865C72.7883 282.491 71.7736 282.272 71.3318 282.282C70.8123 282.282 69.9286 283.02 69.3897 283.054C68.9897 283.062 68.5903 283.021 68.2002 282.933C65.0384 288.304 63.4816 294.469 63.714 300.698Z" fill="#2E3442"/>
<path d="M103.779 285.151C103.643 285.214 103.332 285.04 103.206 284.967C103.079 284.887 102.973 284.779 102.895 284.651C102.851 284.539 102.982 284.277 102.895 284.166C102.807 284.054 102.511 284.102 102.409 284.01C102.307 283.918 102.249 283.67 102.322 283.588C102.395 283.505 102.667 283.588 102.778 283.588C102.89 283.588 103.089 283.622 103.157 283.695C103.225 283.767 103.157 284.132 103.225 284.238C103.39 284.418 104.055 284.268 104.196 284.476C104.222 284.561 104.224 284.65 104.203 284.736C104.181 284.821 104.137 284.9 104.075 284.962C104.021 284.991 103.9 284.879 103.847 284.904C103.793 284.928 103.91 285.098 103.779 285.151Z" fill="#2E3442"/>
</g>
<g style="mix-blend-mode:overlay" opacity="0.5">
<path d="M68.7099 282.112C68.6613 282.355 68.6127 282.598 68.569 282.845C68.3587 284.031 68.2128 285.227 68.1321 286.428C67.7611 291.804 68.7182 297.187 70.9189 302.106C72.0409 304.603 73.4732 306.948 75.1818 309.087C77.8234 312.397 81.0773 315.168 84.7658 317.249C85.9939 317.892 87.2584 318.462 88.5529 318.958L89.2083 319.196L89.4268 319.278C89.7132 319.38 89.9948 319.477 90.2716 319.565C90.4075 319.613 90.5484 319.657 90.6843 319.696L91.0339 319.807C91.3786 319.914 91.7184 320.011 92.034 320.099L92.2233 320.147L92.5778 320.24L92.7477 320.288L92.9419 320.337L93.3158 320.429L93.6702 320.511L93.8401 320.545C94.0101 320.589 94.1751 320.623 94.3257 320.652L94.6267 320.715C95.7773 320.944 96.4619 321.012 96.4619 321.012C96.894 321.065 97.3213 321.113 97.7485 321.152L98.0884 321.181L98.4282 321.211H98.7681L100.113 321.283H101.084H102.38H103.065H103.385C103.487 321.283 103.584 321.283 103.686 321.283H103.759C103.958 321.283 104.148 321.283 104.342 321.24H104.662H104.978C105.046 321.235 105.114 321.235 105.182 321.24H105.293C113.004 320.184 120.087 316.416 125.272 310.612C125.53 310.321 125.787 310.029 126.039 309.728C126.806 308.806 127.522 307.843 128.185 306.844C128.326 306.631 128.467 306.412 128.603 306.194C128.482 306.791 128.346 307.388 128.195 307.975C126.97 312.608 124.746 316.917 121.68 320.599C121.427 320.9 121.194 321.191 120.912 321.483C115.722 327.255 108.647 330.993 100.953 332.028H100.841C100.775 332.023 100.708 332.023 100.642 332.028H100.322H100.001C99.8071 332.028 99.6178 332.057 99.4187 332.067H99.3507H99.0449H98.7244H98.0398H96.7435H95.7725L94.4325 331.994H94.0877L93.7527 331.965L93.408 331.936C92.9856 331.897 92.5535 331.848 92.1214 331.795C92.1214 331.795 91.4368 331.727 90.291 331.499L89.9851 331.436C89.8298 331.406 89.6647 331.372 89.4996 331.329L89.3297 331.295L88.9753 331.212L88.6014 331.12L88.4072 331.071L88.2373 331.023L87.8829 330.931C87.8187 330.917 87.7555 330.899 87.6935 330.877C87.3779 330.795 87.038 330.698 86.6933 330.591L86.3438 330.479L85.9311 330.348C85.6543 330.261 85.3776 330.164 85.0911 330.062L84.8678 329.979L84.2123 329.741C82.9195 329.242 81.6553 328.671 80.4254 328.032C76.7339 325.985 73.4703 323.247 70.8121 319.968C66.4344 314.479 63.9434 307.724 63.709 300.707C63.6702 299.561 63.688 298.429 63.7624 297.309C63.8427 296.109 63.9902 294.914 64.2043 293.73C64.4133 292.545 64.6905 291.373 65.0345 290.22C65.7911 287.673 66.8558 285.227 68.2049 282.937C68.37 282.649 68.5383 282.374 68.7099 282.112Z" fill="#2E3442"/>
</g>
<path d="M187.326 304.266L179.767 281.816L234.45 287.938L187.326 304.266Z" fill="white"/>
<path d="M187.326 304.266L179.767 281.816L234.45 287.938L187.326 304.266Z" fill="#B7EBEA"/>
<path d="M234.45 287.938L172.96 301.047L177.82 287.19L234.45 287.938Z" fill="white"/>
<path d="M179.767 281.816L234.45 287.938L182.986 271.377L179.767 281.816Z" fill="white"/>
<path d="M74.7837 308.427V306.97C73.5068 306.97 72.1959 306.927 70.8996 306.868L70.8365 308.325C72.1668 308.378 73.4923 308.412 74.7837 308.427ZM79.7068 308.369C81.0177 308.32 82.3432 308.252 83.6395 308.16L83.5327 306.703C82.2558 306.796 80.9497 306.864 79.6486 306.907L79.7068 308.369ZM65.9327 308.019L66.0541 306.563C65.0831 306.485 64.0344 306.388 63.0003 306.281L62.1992 306.169L61.9952 307.626L62.8255 307.738C63.8936 307.839 64.9326 307.937 65.9327 308.019ZM88.5384 307.689C89.8395 307.534 91.1553 307.354 92.4225 307.145L92.1943 305.689C90.9271 305.893 89.6308 306.077 88.349 306.228L88.5384 307.689ZM57.1303 306.81L57.412 305.354C56.1558 305.114 54.9128 304.809 53.6881 304.441L53.2559 305.844C54.5301 306.232 55.8233 306.554 57.1303 306.81ZM97.2825 306.247C98.5546 305.98 99.846 305.684 101.118 305.359L100.759 303.936C99.5013 304.252 98.2292 304.548 96.9766 304.81L97.2825 306.247ZM105.866 304.048C107.095 303.674 108.357 303.271 109.615 302.848L109.129 301.455C107.886 301.877 106.638 302.275 105.425 302.64L105.866 304.048ZM50.5176 302.591C50.5468 302.411 50.8235 301.737 53.0326 300.717L52.416 299.387C50.3186 300.358 49.2553 301.295 49.0708 302.339L50.5176 302.591ZM114.237 301.193C115.421 300.746 116.616 300.275 117.893 299.736L117.339 298.372C116.077 298.887 114.912 299.343 113.717 299.799L114.237 301.193ZM57.5382 299.09C59.5822 298.484 61.2767 298.119 61.2912 298.119L60.9805 296.663C60.9077 296.663 59.2181 297.046 57.1255 297.668L57.5382 299.09ZM122.418 297.867L126.015 296.308L125.428 294.964C124.243 295.485 123.047 296.003 121.84 296.517L122.418 297.867ZM130.497 294.352C131.696 293.832 132.89 293.323 134.089 292.822L133.521 291.468C132.317 291.953 131.094 292.483 129.914 293.007L130.497 294.352ZM138.605 291.002C139.886 290.516 141.081 290.074 142.256 289.667L141.77 288.278C140.576 288.691 139.372 289.133 138.071 289.633L138.605 291.002ZM146.858 288.2C148.121 287.836 149.378 287.511 150.607 287.229L150.277 285.773C149.024 286.064 147.737 286.399 146.455 286.744L146.858 288.2ZM176.543 286.443L176.781 284.986C175.47 284.773 174.149 284.598 172.863 284.457L172.702 285.914C173.989 286.054 175.281 286.229 176.562 286.433L176.543 286.443ZM155.35 286.297C156.617 286.098 157.909 285.933 159.186 285.812L159.045 284.355C157.739 284.481 156.418 284.646 155.122 284.841L155.35 286.297ZM167.876 285.569L167.935 284.112C166.6 284.059 165.264 284.049 163.978 284.074L164.007 285.53C165.289 285.496 166.59 285.506 167.915 285.559L167.876 285.569Z" fill="white"/>
<path d="M452.687 249.653C452.78 249.622 461.784 246.546 464.451 231.769C464.522 231.546 464.662 231.351 464.85 231.213C465.039 231.075 465.267 231 465.5 231C465.734 231 465.962 231.075 466.15 231.213C466.339 231.351 466.479 231.546 466.55 231.769C469.216 246.54 478.22 249.622 478.308 249.648C478.504 249.689 478.679 249.796 478.805 249.951C478.931 250.106 479 250.3 479 250.5C479 250.7 478.931 250.894 478.805 251.049C478.679 251.204 478.504 251.311 478.308 251.352C478.215 251.378 469.232 254.361 466.55 269.231C466.479 269.454 466.339 269.649 466.15 269.787C465.962 269.925 465.734 270 465.5 270C465.267 270 465.039 269.925 464.85 269.787C464.662 269.649 464.522 269.454 464.451 269.231C461.784 254.46 452.78 251.378 452.693 251.352C452.503 251.301 452.334 251.192 452.209 251.039C452.085 250.887 452.012 250.699 452 250.503C452.01 250.306 452.082 250.118 452.205 249.966C452.329 249.813 452.498 249.703 452.687 249.653Z" fill="white"/>
<path d="M490.359 222.987C490.418 222.987 495.767 221.154 497.352 212.456C497.394 212.324 497.476 212.208 497.588 212.126C497.701 212.044 497.836 212 497.975 212C498.115 212 498.25 212.044 498.362 212.126C498.475 212.208 498.557 212.324 498.598 212.456C500.189 221.154 505.539 222.987 505.586 222.987C505.701 223.012 505.805 223.076 505.88 223.166C505.955 223.257 505.997 223.37 506 223.487C506.003 223.609 505.963 223.728 505.888 223.824C505.812 223.92 505.706 223.987 505.586 224.013C505.533 224.013 500.194 225.788 498.598 234.544C498.557 234.676 498.475 234.792 498.362 234.874C498.25 234.956 498.115 235 497.975 235C497.836 235 497.701 234.956 497.588 234.874C497.476 234.792 497.394 234.676 497.352 234.544C495.762 225.846 490.418 224.013 490.365 224.013C490.259 223.979 490.166 223.912 490.101 223.822C490.035 223.732 490 223.624 490 223.513C490 223.402 490.035 223.294 490.101 223.204C490.166 223.115 490.259 223.048 490.365 223.013L490.359 222.987Z" fill="white"/>
</g>
</svg>
