<svg width="350" height="228" viewBox="0 0 350 228" fill="none" xmlns="http://www.w3.org/2000/svg">
<g filter="url(#filter0_i_1113_177)">
<path d="M0 61.4898V226.968H349.502C353.736 201.474 331.851 110.294 249.306 124.89C205.728 132.595 186.222 137.874 137.539 55.5081C88.8556 -26.858 30.2668 -11.406 0 61.4898Z" fill="url(#paint0_linear_1113_177)" fill-opacity="0.6"/>
</g>
<mask id="mask0_1113_177" style="mask-type:alpha" maskUnits="userSpaceOnUse" x="84" y="99" width="182" height="129">
<rect x="84" y="99" width="181.707" height="128.036" fill="white"/>
</mask>
<g mask="url(#mask0_1113_177)">
<path d="M124.199 122.62C124.904 123.25 125.781 123.656 126.717 123.788C127.653 123.919 128.608 123.77 129.459 123.36C130.311 122.949 131.022 122.295 131.502 121.48C131.982 120.666 132.209 119.727 132.156 118.783C132.102 117.839 131.77 116.932 131.201 116.177C130.632 115.422 129.852 114.852 128.959 114.54C128.067 114.228 127.102 114.188 126.186 114.425C125.271 114.662 124.446 115.164 123.816 115.87C123.398 116.338 123.076 116.884 122.869 117.477C122.662 118.07 122.574 118.697 122.61 119.324C122.645 119.951 122.804 120.565 123.077 121.13C123.349 121.696 123.731 122.202 124.199 122.62Z" fill="#FFB727"/>
<path d="M103.04 222.036H100.773V108.693C100.772 107.464 101.122 106.261 101.781 105.225C102.44 104.188 103.381 103.361 104.494 102.841C105.607 102.321 106.845 102.129 108.063 102.287C109.281 102.446 110.429 102.949 111.371 103.737L117.427 108.804L115.974 110.542L109.918 105.477C109.306 104.965 108.561 104.639 107.77 104.537C106.98 104.434 106.176 104.559 105.454 104.896C104.732 105.234 104.121 105.771 103.693 106.444C103.266 107.116 103.038 107.897 103.039 108.694L103.04 222.036Z" fill="#2E3442"/>
<path d="M113.353 106.987C113.932 106.338 114.746 105.946 115.615 105.897C116.484 105.847 117.337 106.145 117.986 106.725L124.652 112.678L120.281 117.573L113.612 111.621C112.964 111.04 112.572 110.226 112.524 109.358C112.475 108.489 112.773 107.636 113.353 106.987Z" fill="#F2811C"/>
<path d="M115.251 117.103L123.613 107.731C125.442 105.682 128.009 104.444 130.751 104.288C133.493 104.132 136.184 105.071 138.233 106.899L116.081 131.718C114.033 129.89 112.795 127.323 112.639 124.582C112.484 121.841 113.423 119.151 115.251 117.103Z" fill="#314B87"/>
<path d="M115.71 220.629H165.194C165.194 220.629 163.84 177.587 159.008 171.983C154.176 166.379 107.307 164.86 106.023 170.708C104.739 176.555 115.71 220.629 115.71 220.629Z" fill="#2E3442"/>
<g style="mix-blend-mode:overlay" opacity="0.5">
<path d="M115.71 220.629H123.356C123.356 220.629 115.452 192.178 113.163 183.49C110.873 174.803 107.5 167.93 106.031 170.708C104.759 176.565 115.71 220.629 115.71 220.629Z" fill="#2E3442"/>
</g>
<path d="M126.804 221.564H182.908L173.74 172.254C166.671 166.631 153.925 160.506 153.925 160.506C153.925 160.506 136.186 159.49 125.539 168.057C120.277 176.366 118.46 192.733 117.537 205.46L117.1 209.393C116.649 215.847 126.804 221.564 126.804 221.564Z" fill="#FFB727"/>
<path d="M147.104 162.15C147.204 163.844 153.319 175.075 156.96 174.824C160.601 174.574 160.347 166.45 160.347 166.45V165.978L160.293 160.533C160.105 158.822 159.245 157.205 158.091 155.761C154.984 151.865 150.002 148.241 150.002 148.241L147.104 162.15Z" fill="#FFC0C4"/>
<g style="mix-blend-mode:multiply" opacity="0.7">
<path d="M152.694 154.516C152.694 154.516 155.965 163.183 160.353 165.972L160.298 160.528C160.11 158.817 159.25 157.2 158.097 155.755L152.694 154.516Z" fill="#FFC0C4"/>
</g>
<path d="M150.393 151.385C152.017 155.28 157.987 162.762 163.01 163.334C165.232 163.71 170.273 161.041 173.051 157.957C173.711 157.163 174.207 155.755 174.575 154.048C174.68 153.573 174.771 153.071 174.859 152.558C175.677 147.598 175.652 141.239 175.523 140.17C175.185 137.305 170.988 134.751 166.255 133.782C156.844 131.853 154.525 136.224 154.522 136.228C153.975 137.184 153.415 137.384 152.151 140.062C150.112 144.387 149.401 148.985 150.393 151.385Z" fill="#FFC0C4"/>
<path d="M179.456 138.859C179.456 138.859 182.9 143.923 175.068 146.089L176.898 143.505C176.898 143.505 173.874 146.59 166.942 144.268C166.942 144.268 169.772 144.035 170.961 142.405C170.961 142.405 165.389 144.422 158.112 140.035C158.112 140.035 157.266 144.113 153.57 144.218L152.776 151.369L150.541 149.552L151.521 144.719C151.521 144.719 150.224 140.688 149.447 140.373C149.447 140.373 151.817 132.036 153.525 131.228C155.232 130.42 156.515 131.721 156.515 131.721C156.515 131.721 158.378 128.829 161.437 128.392C164.495 127.955 176.543 134.244 179.456 138.859Z" fill="#2E3442"/>
<path d="M170.18 150.455C170.492 150.192 170.838 149.974 171.21 149.806C171.364 149.743 171.529 149.707 171.696 149.699H171.811C171.85 149.699 171.887 149.711 171.924 149.716C171.96 149.72 171.995 149.729 172.028 149.743C172.062 149.75 172.095 149.762 172.126 149.779C172.429 149.952 172.688 150.195 172.879 150.487C173.115 150.807 173.337 151.164 173.591 151.532C173.632 151.081 173.565 150.626 173.396 150.206C173.353 150.097 173.303 149.991 173.245 149.889C173.216 149.838 173.188 149.786 173.154 149.735L173.044 149.588C172.883 149.377 172.673 149.208 172.432 149.097C172.368 149.065 172.301 149.042 172.231 149.027C172.164 149.005 172.094 148.991 172.024 148.985C171.956 148.985 171.889 148.973 171.821 148.973C171.753 148.973 171.685 148.983 171.619 148.992C171.363 149.037 171.121 149.142 170.913 149.298C170.538 149.583 170.278 149.994 170.18 150.455Z" fill="#2E3442"/>
<g style="mix-blend-mode:multiply" opacity="0.7">
<path d="M160.298 150.941C160.298 150.941 158.893 151.557 157.712 151.044C156.532 150.531 156.019 149.085 156.019 149.085C156.019 149.085 157.423 148.468 158.605 148.981C159.787 149.495 160.298 150.941 160.298 150.941Z" fill="#FFC0C4"/>
</g>
<g style="mix-blend-mode:multiply" opacity="0.7">
<path d="M172.207 153.263C172.207 153.263 173.03 154.14 174.036 154.136C174.221 154.135 174.406 154.106 174.583 154.048C174.688 153.573 174.779 153.071 174.867 152.558C174.601 152.438 174.313 152.375 174.02 152.374C173.018 152.379 172.207 153.263 172.207 153.263Z" fill="#FFC0C4"/>
</g>
<path d="M164.969 145.046C164.969 145.046 161.568 142.797 158.025 145.979C158.034 145.975 162.149 139.913 164.969 145.046Z" fill="#2E3442"/>
<path d="M170.425 146.019C170.425 146.019 173.643 145.598 175.067 148.787C175.067 148.787 173.983 143.232 170.425 146.019Z" fill="#2E3442"/>
<g style="mix-blend-mode:multiply" opacity="0.7">
<path d="M167.001 151.921C167.275 151.904 167.548 151.889 167.817 151.889C168.083 151.885 168.348 151.902 168.611 151.94C168.734 151.96 168.854 151.993 168.97 152.038C169.066 152.069 169.148 152.133 169.202 152.218C169.242 152.316 169.256 152.423 169.243 152.528C169.233 152.649 169.207 152.768 169.167 152.883C169.005 153.369 168.686 153.786 168.259 154.069C167.803 154.347 167.262 154.452 166.735 154.367C167.129 154.529 167.565 154.561 167.978 154.457C168.118 154.418 168.254 154.366 168.383 154.299C168.903 154.019 169.297 153.552 169.484 152.992C169.531 152.848 169.56 152.7 169.57 152.55C169.572 152.51 169.572 152.471 169.57 152.431C169.569 152.391 169.565 152.351 169.558 152.311C169.552 152.269 169.543 152.228 169.531 152.187C169.517 152.144 169.498 152.103 169.475 152.064L169.438 152.004C169.423 151.986 169.406 151.967 169.389 151.95C169.373 151.933 169.355 151.918 169.336 151.904C169.32 151.891 169.303 151.878 169.285 151.867C169.218 151.823 169.145 151.787 169.069 151.76C168.928 151.714 168.781 151.687 168.633 151.679C168.35 151.662 168.066 151.677 167.787 151.725C167.52 151.769 167.257 151.835 167.001 151.921Z" fill="#FFC0C4"/>
</g>
<path d="M164.804 149.374C164.897 148.844 164.8 148.299 164.53 147.833C164.382 147.577 164.175 147.36 163.926 147.2C163.86 147.161 163.792 147.125 163.722 147.09C163.653 147.054 163.578 147.037 163.506 147.012C163.43 146.986 163.351 146.97 163.272 146.964C163.193 146.95 163.112 146.944 163.031 146.948C162.73 146.956 162.435 147.038 162.173 147.186L161.992 147.291C161.934 147.33 161.88 147.371 161.822 147.412C161.715 147.492 161.614 147.58 161.519 147.674C161.149 148.039 160.868 148.483 160.696 148.973C161.123 148.687 161.516 148.406 161.909 148.169C162.301 147.931 162.703 147.752 163.043 147.747C163.127 147.747 163.211 147.756 163.294 147.774C163.336 147.786 163.382 147.794 163.424 147.808C163.467 147.821 163.507 147.845 163.551 147.86C163.726 147.946 163.885 148.061 164.022 148.199C164.339 148.55 164.603 148.946 164.804 149.374Z" fill="#2E3442"/>
<path d="M160.503 156.531C161.04 157.491 162.098 158.352 164.085 158.733C165.27 158.975 166.239 158.87 167.023 158.58C169.258 157.764 170.01 155.467 170.01 155.467C169.7 155.582 169.38 155.667 169.053 155.721C168.834 155.763 168.612 155.793 168.39 155.811C167.035 155.935 164.925 155.774 162.576 154.324C162.447 154.248 162.317 154.165 162.186 154.077C161.528 153.632 160.908 153.131 160.334 152.582C160.334 152.582 159.5 154.732 160.503 156.531Z" fill="#2E3442"/>
<path d="M162.385 155.703C164.344 157.115 168.424 157.08 168.651 156.91C168.781 156.817 168.942 156.214 169.056 155.725C168.836 155.767 168.615 155.797 168.392 155.815C167.037 155.938 164.927 155.777 162.578 154.328C162.439 154.773 162.374 155.237 162.385 155.703Z" fill="white"/>
<path d="M160.503 156.531C161.04 157.491 162.098 158.352 164.085 158.733C165.27 158.975 166.239 158.87 167.023 158.58C166.058 157.732 163.372 155.723 160.503 156.531Z" fill="#FFC0C4"/>
<g style="mix-blend-mode:multiply">
<path d="M160.503 156.531C161.04 157.491 162.098 158.352 164.085 158.733C165.27 158.975 166.239 158.87 167.023 158.58C166.058 157.732 163.372 155.723 160.503 156.531Z" fill="#FFC0C4"/>
</g>
<path d="M151.521 144.734C151.521 144.734 151.128 140.578 148.67 140.075C146.213 139.572 143.739 152.418 150.703 148.756L151.521 144.734Z" fill="#FFC0C4"/>
<g style="mix-blend-mode:multiply" opacity="0.7">
<path d="M150.432 146.661C150.397 146.654 150.367 146.635 150.344 146.607C150.322 146.58 150.31 146.546 150.31 146.511C150.31 146.5 150.31 145.503 149.786 145.132C149.543 144.963 149.209 144.949 148.796 145.1C148.777 145.107 148.757 145.11 148.737 145.109C148.717 145.108 148.697 145.104 148.679 145.095C148.661 145.087 148.645 145.075 148.631 145.06C148.618 145.045 148.607 145.028 148.6 145.009C148.593 144.99 148.59 144.971 148.591 144.951C148.592 144.931 148.596 144.911 148.605 144.893C148.613 144.875 148.625 144.858 148.64 144.845C148.655 144.831 148.672 144.821 148.691 144.814C149.199 144.627 149.632 144.644 149.963 144.885C150.041 144.94 150.112 145.006 150.174 145.08C149.964 144.314 149.548 143.742 149.053 143.662C148.89 143.642 148.725 143.663 148.571 143.722C148.418 143.781 148.282 143.877 148.174 144.001C148.041 144.138 147.927 144.292 147.835 144.46C147.827 144.478 147.814 144.494 147.799 144.507C147.784 144.52 147.767 144.53 147.748 144.536C147.729 144.542 147.709 144.544 147.689 144.542C147.669 144.541 147.65 144.535 147.632 144.526C147.596 144.508 147.569 144.476 147.557 144.438C147.544 144.4 147.547 144.359 147.565 144.323C147.588 144.277 148.145 143.207 149.109 143.359C150.039 143.506 150.731 144.956 150.621 146.521C150.618 146.56 150.599 146.597 150.57 146.623C150.54 146.649 150.502 146.663 150.462 146.661H150.432Z" fill="#FFC0C4"/>
</g>
<path d="M148.022 147.52C148.022 147.52 149.18 148.717 150.012 149.552C150.143 149.689 150.288 149.812 150.445 149.918C151.001 150.279 151.27 149.965 151.058 149.454C150.72 148.585 150.222 147.561 149.99 147.098C150.262 146.715 150.415 146.26 150.428 145.791C150.474 144.663 149.797 143.718 148.904 143.682C148.857 143.68 148.81 143.68 148.764 143.682H148.753C147.934 143.747 147.258 144.593 147.214 145.659C147.185 146.467 147.514 147.161 148.022 147.52Z" fill="white"/>
<g style="mix-blend-mode:multiply" opacity="0.1">
<path d="M150.083 145.273C150.115 145.596 150.072 145.922 149.957 146.225C149.841 146.529 149.656 146.801 149.417 147.02C149.417 147.02 150.755 149.21 150.862 149.528C150.968 149.847 150.74 150.064 150.44 149.926C150.995 150.287 151.265 149.974 151.053 149.462C150.714 148.594 150.216 147.569 149.984 147.107C150.257 146.724 150.409 146.269 150.423 145.799C150.469 144.671 149.791 143.726 148.899 143.691C148.852 143.688 148.805 143.688 148.758 143.691C149.113 143.79 149.429 143.994 149.666 144.276C149.902 144.559 150.047 144.906 150.083 145.273Z" fill="#2E3442"/>
</g>
<g style="mix-blend-mode:multiply" opacity="0.1">
<path d="M147.912 145.501C147.888 146.118 148.169 146.629 148.54 146.644C148.911 146.66 149.235 146.172 149.258 145.555C149.282 144.939 149.003 144.429 148.63 144.414C148.257 144.399 147.937 144.887 147.912 145.501Z" fill="#2E3442"/>
</g>
<g style="mix-blend-mode:overlay" opacity="0.5">
<path d="M117.061 209.379V209.399C130.543 218.588 132.778 220.79 132.778 220.79C145.382 216.615 139.466 177.123 139.466 177.123C135.708 170.857 125.498 168.064 125.498 168.064C120.238 176.366 117.982 196.654 117.061 209.379Z" fill="#2E3442"/>
</g>
<path d="M173.748 172.254C173.748 172.254 200.806 199.181 204.05 205.321C207.295 211.462 203.911 220.351 197.649 220.351H182.494L173.748 172.254Z" fill="#FFB727"/>
<g style="mix-blend-mode:overlay" opacity="0.5">
<path d="M173.748 172.254C173.748 172.254 200.806 199.181 204.05 205.321C207.295 211.462 203.911 220.351 197.649 220.351H182.494L173.748 172.254Z" fill="#2E3442"/>
</g>
<path d="M204.147 172.667L203.424 182.416L193.767 185.565L197.366 172.132L204.147 172.667Z" fill="#FFC0C4"/>
<path d="M200.29 174.938C199.078 174.735 197.669 164.269 197.669 164.269L208.413 166.481C208.413 166.481 208.633 169.082 208.194 170.581C207.976 171.332 206.609 172.735 205.781 173.9C204.953 175.065 202.543 175.316 200.29 174.938Z" fill="#FFC0C4"/>
<g style="mix-blend-mode:multiply" opacity="0.7">
<path d="M200.297 174.357C199.085 174.154 197.669 164.269 197.669 164.269L208.413 166.481C208.413 166.481 208.633 169.082 208.194 170.581C207.976 171.332 206.35 172.701 205.337 173.688C204.324 174.675 202.553 174.733 200.297 174.357Z" fill="#FFC0C4"/>
</g>
<path d="M197.927 149.024C198.345 152.672 196.995 160.06 196.276 163.613C196.252 163.717 196.231 163.817 196.211 163.913C195.998 164.965 195.852 165.607 195.852 165.607C196.922 168.782 198.797 166.215 198.797 166.215C198.797 166.215 199.038 165.368 199.378 164.079L199.488 163.668C200.272 160.655 202.055 154.878 202.098 152.279C202.166 148.368 197.927 149.024 197.927 149.024Z" fill="#FFC0C4"/>
<path d="M197.457 165.124L197.352 168.254C197.491 170.328 206.064 171.487 206.836 171.065C207.608 170.643 208.384 168.863 208.77 168.232C209.156 167.6 209.313 164.298 208.927 163.81C208.541 163.322 207.007 163.178 207.007 163.178C207.026 162.902 206.941 162.628 206.769 162.411C206.596 162.194 206.349 162.049 206.075 162.005C205.059 161.811 203.638 161.93 203.638 161.93C203.638 161.93 203.13 160.794 202.702 160.755C202.158 160.703 201.61 160.711 201.068 160.777C200.779 160.815 200.495 160.883 200.221 160.98C200.028 161.048 199.843 161.14 199.672 161.253C198.685 161.911 197.457 165.124 197.457 165.124Z" fill="#FFC0C4"/>
<g style="mix-blend-mode:multiply" opacity="0.7">
<path d="M207.004 163.18C207.004 163.18 206.765 166.65 206.47 167.29C206.176 167.93 205.116 170.237 205.116 170.237C205.116 170.237 206.889 168.205 207.046 167.251C207.204 166.298 207.554 163.258 207.554 163.258L207.004 163.18Z" fill="#FFC0C4"/>
</g>
<g style="mix-blend-mode:multiply" opacity="0.7">
<path d="M203.634 161.93C203.634 161.93 203.464 165.864 203.18 166.503C202.895 167.141 201.698 169.763 201.698 169.763C201.698 169.763 203.168 167.83 203.669 166.694C203.828 165.735 204.604 161.893 204.604 161.893L203.634 161.93Z" fill="#FFC0C4"/>
</g>
<g style="mix-blend-mode:multiply" opacity="0.7">
<path d="M201.188 174.935L201.462 173.832C201.462 173.832 202.223 170.061 200.277 168.582C200.277 168.582 203.494 168.194 203.198 164.121C203.198 164.121 201.35 163.842 199.489 163.678C198.239 163.568 196.981 163.508 196.272 163.622C196.248 163.725 196.227 163.825 196.207 163.922C196.019 163.94 195.834 163.975 195.652 164.025C194.815 165.478 192.439 171.986 201.188 174.935Z" fill="#FFC0C4"/>
</g>
<path d="M194.307 165.456C193.938 168.083 196.561 173.297 196.665 173.963C198.133 175.162 200.729 174.947 201.188 174.935C201.312 174.746 201.391 174.532 201.42 174.308C201.437 174.139 201.451 173.986 201.462 173.832C201.801 168.899 198.583 168.137 198.583 168.137C203.156 168.594 202.848 164.425 202.848 164.425C201.81 164.438 200.663 164.255 199.374 164.086C198.233 163.932 197.11 163.808 196.207 163.917C196.02 163.935 195.834 163.97 195.652 164.02C194.924 164.215 194.424 164.643 194.307 165.456Z" fill="#FFC0C4"/>
<g style="mix-blend-mode:multiply" opacity="0.7">
<path d="M200.218 160.98L199.583 163.491L201.064 160.782C200.776 160.818 200.492 160.885 200.218 160.98Z" fill="#FFC0C4"/>
</g>
<path d="M205.508 179.483C205.508 179.483 207.261 198.415 205.368 211.687C203.474 224.959 194.985 222.837 188.273 218.575C181.562 214.312 187.161 202.203 187.161 202.203L194.35 178.21C194.35 178.21 199.489 174.045 205.508 179.483Z" fill="#FFB727"/>
<path d="M137.641 162.709L135.9 175.857L126.44 179.404L130.252 165.173L137.641 162.709Z" fill="#FFC0C4"/>
<path d="M131.764 141.779L132.142 150.675L134.186 155.64C135.422 155.171 136.984 155.205 137.958 155.302C137.353 154.37 136.721 153.207 136.469 152.109C135.917 149.721 135.482 141.256 131.764 141.779Z" fill="#FFC0C4"/>
<path d="M131.765 141.779L132.141 150.675C132.141 150.675 129.831 155.794 128.979 157.788C128.127 159.781 129.643 168.013 129.643 168.013L135.114 168.86C135.114 168.86 141.467 166.528 142.122 163.271C142.778 160.015 144.046 155.588 146.146 154.296C146.146 154.296 144.7 152.341 142.906 153.049C141.113 153.757 139.365 157.19 139.365 157.19C138.858 156.59 138.388 155.959 137.958 155.302C137.841 155.119 137.719 154.931 137.606 154.731C137.123 153.918 136.671 152.992 136.469 152.111C135.914 149.721 135.48 141.256 131.765 141.779Z" fill="#FFC0C4"/>
<g style="mix-blend-mode:multiply" opacity="0.7">
<path d="M136.466 152.106C136.711 153.031 137.094 153.914 137.6 154.726C137.714 154.926 137.836 155.114 137.953 155.296C138.383 155.954 138.853 156.585 139.36 157.185C136.107 158.931 135.041 162.435 134.816 163.334C135.616 159.844 134.72 157.278 134.72 157.278L135.819 155.288C135.26 155.332 134.709 155.451 134.181 155.64L132.137 150.675L131.759 141.779C135.482 141.256 135.917 149.721 136.466 152.106Z" fill="#FFC0C4"/>
</g>
<path d="M126.506 141.882L126.167 141.953C126.167 141.953 125.859 141.445 125.92 141.349C125.981 141.252 126.531 141.545 126.531 141.545L126.506 141.882Z" fill="#2E3442"/>
<path d="M127.067 143.549L126.164 141.953C126.186 141.86 126.231 141.775 126.295 141.703C126.358 141.632 126.439 141.578 126.528 141.545L128.191 142.326C128.105 142.6 127.959 142.851 127.765 143.062C127.571 143.274 127.332 143.44 127.067 143.549Z" fill="#F2811C"/>
<path d="M145.234 158.425L146.635 159.659C146.635 159.659 147.031 158.23 146.635 157.478C146.239 156.726 141.228 152.699 141.228 152.699C141.143 152.846 141.1 153.013 141.103 153.182C141.106 153.351 141.155 153.517 141.244 153.661C141.329 153.794 141.449 153.902 141.59 153.973C141.73 154.044 141.888 154.076 142.045 154.065C142.045 154.065 144.203 156.023 144.858 156.684C145.514 157.344 145.234 158.425 145.234 158.425Z" fill="#F2811C"/>
<path d="M147.417 160.118C146.816 162.138 145.36 162.292 145.263 162.301L127.072 143.559C127.41 142.26 128.198 142.333 128.198 142.333L147.417 160.118Z" fill="#2E3442"/>
<g style="mix-blend-mode:overlay" opacity="0.3">
<path d="M147.417 160.118C146.816 162.138 145.36 162.292 145.263 162.301C145.263 162.301 145.395 160.338 147.417 160.118Z" fill="white"/>
</g>
<path d="M148.283 161.696C148.24 162.026 148.097 162.336 147.872 162.581C147.648 162.827 147.353 162.998 147.028 163.071L145.801 161.608C145.846 161.384 145.953 161.177 146.109 161.011C146.266 160.844 146.465 160.724 146.686 160.665L148.283 161.696Z" fill="#F2811C"/>
<g style="mix-blend-mode:overlay" opacity="0.5">
<path d="M148.283 161.696C148.24 162.027 148.097 162.336 147.872 162.582C147.648 162.828 147.353 162.999 147.028 163.071C147.035 162.729 147.166 162.401 147.397 162.148C147.628 161.895 147.943 161.734 148.283 161.696Z" fill="#2E3442"/>
</g>
<path d="M134.777 157.083C134.777 157.083 138.911 150.26 138.645 148.616C138.379 146.971 137.837 146.844 137.837 146.844L136.345 149.031C136.345 149.031 138.262 145.234 137.846 143.669C137.563 142.7 136.948 141.86 136.11 141.298L132.138 150.668L134.777 157.083Z" fill="#FFC0C4"/>
<path d="M141.587 164.504C141.141 163.685 140.711 162.858 140.335 162.005C139.583 160.292 139.458 158.668 139.466 156.987C139.863 156.255 141.363 153.65 142.902 153.044C144.696 152.336 146.142 154.291 146.142 154.291C144.042 155.584 142.772 160.013 142.118 163.266C142.021 163.709 141.841 164.129 141.587 164.504Z" fill="#FFC0C4"/>
<path d="M138.877 172.962C138.877 172.962 140.739 193.013 138.728 207.074C136.716 221.135 127.2 224.292 120.099 219.775C112.998 215.259 114.197 203.496 118.353 194.1C122.509 184.704 127.064 171.608 127.064 171.608C127.064 171.608 132.501 167.2 138.877 172.962Z" fill="#FFB727"/>
<path d="M115.748 156.401C115.767 156.401 117.63 155.759 118.182 152.709C118.197 152.663 118.226 152.624 118.265 152.596C118.304 152.568 118.351 152.553 118.399 152.553C118.446 152.553 118.493 152.568 118.532 152.596C118.571 152.624 118.6 152.663 118.615 152.709C119.167 155.757 121.03 156.396 121.047 156.401C121.087 156.41 121.123 156.432 121.148 156.464C121.174 156.495 121.188 156.535 121.188 156.576C121.188 156.617 121.174 156.656 121.148 156.688C121.123 156.72 121.087 156.742 121.047 156.751C121.029 156.751 119.171 157.373 118.615 160.443C118.6 160.489 118.571 160.528 118.532 160.556C118.493 160.584 118.446 160.599 118.399 160.599C118.351 160.599 118.304 160.584 118.265 160.556C118.226 160.528 118.197 160.489 118.182 160.443C117.63 157.395 115.767 156.758 115.75 156.751C115.71 156.742 115.674 156.72 115.649 156.688C115.623 156.656 115.609 156.617 115.609 156.576C115.609 156.535 115.623 156.495 115.649 156.464C115.674 156.432 115.71 156.41 115.75 156.401H115.748Z" fill="white"/>
<path d="M121.676 147.296C121.686 147.296 122.767 146.924 123.085 145.157C123.093 145.13 123.109 145.106 123.132 145.089C123.155 145.072 123.183 145.063 123.212 145.064C123.24 145.063 123.268 145.072 123.291 145.089C123.314 145.106 123.33 145.13 123.337 145.157C123.657 146.924 124.736 147.293 124.746 147.296C124.77 147.301 124.792 147.313 124.807 147.332C124.823 147.35 124.831 147.374 124.831 147.398C124.831 147.422 124.823 147.446 124.807 147.464C124.792 147.483 124.77 147.495 124.746 147.5C124.736 147.5 123.659 147.859 123.337 149.638C123.33 149.666 123.314 149.69 123.291 149.706C123.268 149.723 123.24 149.731 123.212 149.73C123.184 149.731 123.156 149.723 123.133 149.706C123.109 149.69 123.093 149.666 123.085 149.638C122.767 147.87 121.686 147.503 121.676 147.5C121.652 147.495 121.631 147.483 121.615 147.464C121.6 147.446 121.591 147.422 121.591 147.398C121.591 147.374 121.6 147.35 121.615 147.332C121.631 147.313 121.652 147.301 121.676 147.296Z" fill="white"/>
<path d="M108.377 145.334C108.404 145.325 111 144.428 111.764 140.131C111.783 140.066 111.824 140.009 111.878 139.968C111.933 139.928 111.999 139.906 112.067 139.906C112.135 139.906 112.201 139.928 112.256 139.968C112.31 140.009 112.35 140.066 112.37 140.131C113.137 144.428 115.735 145.325 115.757 145.334C115.814 145.345 115.865 145.376 115.902 145.421C115.939 145.466 115.959 145.523 115.959 145.581C115.959 145.639 115.939 145.695 115.902 145.74C115.865 145.785 115.814 145.816 115.757 145.828C115.732 145.837 113.142 146.704 112.37 151.031C112.35 151.096 112.31 151.153 112.256 151.193C112.201 151.234 112.135 151.256 112.067 151.256C111.999 151.256 111.933 151.234 111.878 151.193C111.824 151.153 111.783 151.096 111.764 151.031C110.997 146.734 108.4 145.837 108.377 145.828C108.322 145.814 108.273 145.782 108.237 145.738C108.201 145.694 108.18 145.639 108.177 145.582C108.18 145.525 108.2 145.47 108.236 145.425C108.272 145.381 108.321 145.349 108.377 145.334Z" fill="white"/>
<path d="M158.264 218.858L169.752 188.3C169.887 187.942 170.127 187.634 170.442 187.416C170.756 187.199 171.129 187.082 171.511 187.081H219.735C220.032 187.082 220.324 187.153 220.589 187.288C220.853 187.423 221.081 187.619 221.256 187.859C221.43 188.099 221.545 188.377 221.592 188.67C221.638 188.964 221.614 189.264 221.523 189.546L211.528 220.102C211.404 220.478 211.165 220.806 210.844 221.038C210.524 221.271 210.138 221.396 209.742 221.397H160.024C159.721 221.396 159.422 221.321 159.154 221.18C158.885 221.039 158.655 220.835 158.482 220.586C158.31 220.337 158.199 220.05 158.161 219.749C158.123 219.448 158.159 219.143 158.264 218.858Z" fill="#F2811C"/>
<g style="mix-blend-mode:overlay" opacity="0.6">
<path d="M158.264 218.858L169.752 188.3C169.887 187.942 170.127 187.634 170.442 187.416C170.756 187.199 171.129 187.082 171.511 187.081H219.735C220.032 187.082 220.324 187.153 220.589 187.288C220.853 187.423 221.081 187.619 221.256 187.859C221.43 188.099 221.545 188.377 221.592 188.67C221.638 188.964 221.614 189.264 221.523 189.546L211.528 220.102C211.404 220.478 211.165 220.806 210.844 221.038C210.524 221.271 210.138 221.396 209.742 221.397H160.024C159.721 221.396 159.422 221.321 159.154 221.18C158.885 221.039 158.655 220.835 158.482 220.586C158.31 220.337 158.199 220.05 158.161 219.749C158.123 219.448 158.159 219.143 158.264 218.858Z" fill="#2E3442"/>
</g>
<path d="M163.848 219.723V221.4H135.209C134.764 221.4 134.338 221.223 134.024 220.909C133.709 220.594 133.533 220.168 133.533 219.723H163.848Z" fill="#F2811C"/>
<path d="M161.79 221.398H211.507C211.903 221.398 212.289 221.273 212.61 221.041C212.931 220.81 213.171 220.482 213.295 220.106L213.419 219.723L223.288 189.546C223.379 189.264 223.402 188.965 223.355 188.672C223.309 188.38 223.194 188.102 223.02 187.862C222.846 187.623 222.618 187.427 222.355 187.292C222.091 187.157 221.799 187.086 221.503 187.085H173.277C172.895 187.086 172.522 187.203 172.208 187.421C171.895 187.639 171.655 187.947 171.52 188.304L160.032 218.86C159.927 219.144 159.892 219.45 159.93 219.75C159.968 220.051 160.078 220.338 160.25 220.587C160.423 220.836 160.653 221.04 160.921 221.181C161.189 221.323 161.487 221.397 161.79 221.398Z" fill="#F2811C"/>
<g style="mix-blend-mode:overlay" opacity="0.3">
<path d="M185.88 202.888H199.295C199.654 202.888 199.999 203.03 200.253 203.284C200.507 203.538 200.65 203.883 200.65 204.242C200.65 204.602 200.507 204.946 200.253 205.2C199.999 205.454 199.654 205.597 199.295 205.597H185.88C185.521 205.597 185.176 205.454 184.922 205.2C184.668 204.946 184.525 204.602 184.525 204.242C184.525 203.883 184.668 203.538 184.922 203.284C185.176 203.03 185.521 202.888 185.88 202.888Z" fill="white"/>
</g>
<g style="mix-blend-mode:overlay" opacity="0.3">
<path d="M163.848 219.723H213.419L223.288 189.546C223.379 189.264 223.402 188.965 223.355 188.672C223.309 188.38 223.194 188.102 223.02 187.862C222.846 187.623 222.618 187.427 222.355 187.292C222.091 187.157 221.799 187.086 221.503 187.085H214.665L163.848 219.723Z" fill="#2E3442"/>
</g>
<path d="M94.0224 221.4H258.769V223.998H94.0224V221.4Z" fill="#B25A1F"/>
<path d="M233.796 198.805L208.353 208.297L233.796 218.086L259.241 208.297L233.796 198.805Z" fill="#314B87"/>
<g style="mix-blend-mode:overlay" opacity="0.6">
<path d="M233.797 199.759L209.313 208.666L233.797 218.086L258.319 208.652L233.797 199.759Z" fill="#2E3442"/>
</g>
<path d="M246.949 221.4H220.646L220.83 219.067L221.646 208.448C221.646 208.448 225.55 205.633 233.802 205.633C242.055 205.633 245.96 208.448 245.96 208.448L246.167 211.127L246.949 221.4Z" fill="#314B87"/>
<g style="mix-blend-mode:overlay" opacity="0.3">
<path d="M246.949 221.4H220.646L220.83 219.067C241.08 221.293 246.163 211.132 246.163 211.132L246.949 221.4Z" fill="#2E3442"/>
</g>
<path d="M243.901 221.254H243.107V208.303C243.107 201.807 239.719 200.99 239.684 200.982L238.272 200.476C238.917 199.98 239.841 200.205 239.841 200.205C239.998 200.241 243.887 201.175 243.887 208.303L243.901 221.254Z" fill="#FFB727"/>
<path d="M243.499 219.097C242.705 219.804 242.127 220.721 241.834 221.744C241.206 223.957 241.886 224.869 241.886 224.869L242.479 223.613C242.41 224.128 242.381 224.648 242.393 225.167C242.405 226.109 243.449 227.115 243.449 227.115C243.949 226.698 244.305 226.136 244.469 225.506C244.644 224.699 244.422 222.444 244.422 222.444L244.854 225.097C244.854 225.097 245.245 224.806 245.41 223.841C245.462 222.375 244.661 220.028 243.499 219.097Z" fill="#FFB727"/>
<path d="M244.533 219.435C244.513 219.641 244.433 219.837 244.301 219.998C244.17 220.158 243.994 220.276 243.796 220.337C243.597 220.397 243.385 220.398 243.187 220.338C242.988 220.278 242.812 220.16 242.68 220C242.548 219.84 242.467 219.644 242.446 219.438C242.425 219.232 242.467 219.024 242.564 218.841C242.662 218.658 242.811 218.508 242.994 218.41C243.177 218.312 243.385 218.27 243.591 218.29C243.868 218.317 244.123 218.453 244.299 218.668C244.476 218.882 244.56 219.158 244.533 219.435Z" fill="#F2811C"/>
<path d="M173.708 217.54C173.699 218.454 173.771 219.368 173.923 220.27C174.055 220.967 174.237 221.4 174.435 221.4C174.435 221.4 186.092 220.541 190.057 220.356C190.528 220.337 190.878 220.326 191.101 220.326C191.296 220.326 191.597 220.334 191.982 220.353C195.782 220.51 207.769 221.4 207.769 221.4V213.68C207.769 213.68 196.049 214.545 192.114 214.722C191.666 214.741 191.319 214.752 191.101 214.752C190.916 214.752 190.641 214.752 190.291 214.73C186.574 214.573 174.436 213.68 174.436 213.68C174.036 213.68 173.708 215.408 173.708 217.54Z" fill="white"/>
<path d="M209.129 216.57C209.129 216.57 209.044 221.398 207.768 221.398V216.57H209.129Z" fill="white"/>
<g style="mix-blend-mode:multiply" opacity="0.1">
<path d="M209.129 216.57C209.129 216.57 209.044 221.398 207.768 221.398V216.57H209.129Z" fill="#2E3442"/>
</g>
<path d="M207.047 217.54C207.047 217.705 207.047 217.868 207.047 218.03C207.087 219.866 207.375 221.298 207.728 221.397H207.766C208.166 221.397 208.489 219.67 208.489 217.537C208.489 215.403 208.166 213.677 207.766 213.677C207.365 213.677 207.047 215.408 207.047 217.54Z" fill="white"/>
<g style="mix-blend-mode:multiply" opacity="0.2">
<path d="M207.047 217.54C207.047 217.705 207.047 217.868 207.047 218.03C207.088 219.788 207.352 221.169 207.675 221.378C207.689 221.378 207.702 221.392 207.716 221.397H207.731H207.746C208.146 221.397 208.469 219.67 208.469 217.537C208.469 215.403 208.146 213.677 207.746 213.677C207.46 213.677 207.212 214.554 207.094 215.83C207.069 216.35 207.047 216.926 207.047 217.54Z" fill="#2E3442"/>
</g>
<path d="M190.057 220.356C190.528 220.337 190.878 220.326 191.101 220.326C191.295 220.326 191.597 220.334 191.981 220.353C191.069 217.527 192.113 214.722 192.113 214.722C191.666 214.741 191.319 214.752 191.101 214.752C190.916 214.752 190.641 214.752 190.291 214.73C189.402 216.756 189.831 219.347 190.057 220.356Z" fill="#3DB6C4"/>
<g style="mix-blend-mode:multiply" opacity="0.2">
<path d="M207.047 217.54C207.047 217.705 207.047 217.868 207.047 218.03C207.088 219.788 207.352 221.169 207.675 221.378L207.716 221.392C207.622 221.343 207.377 221.053 207.377 219.351C207.377 217.232 207.958 215.838 207.958 215.838H207.102C207.069 216.35 207.047 216.926 207.047 217.54Z" fill="#2E3442"/>
</g>
<path d="M96.9082 216.567C96.9929 216.427 99.0368 213.096 103.259 213.096H127.668V221.288H102.52C99.0902 221.288 97.3022 218.62 96.8375 217.207L96.7261 216.871L96.9082 216.567Z" fill="#314B87"/>
<g style="mix-blend-mode:overlay" opacity="0.2">
<path d="M96.9082 216.567C96.9929 216.427 99.0368 213.096 103.259 213.096H127.668V221.288H102.52C99.0902 221.288 97.3022 218.62 96.8375 217.207L96.7261 216.871L96.9082 216.567Z" fill="#2E3442"/>
</g>
<path d="M100.459 216.565C100.541 216.43 102.484 213.268 106.483 213.101C106.591 213.101 106.699 213.101 106.811 213.101H131.221V213.876H106.811C102.979 213.876 101.122 216.972 101.122 216.972C101.122 216.972 102.299 220.521 106.071 220.521H131.218V221.295H106.068C102.64 221.295 100.852 218.626 100.387 217.213L100.276 216.877L100.459 216.565Z" fill="#314B87"/>
<path d="M130.442 213.87H106.809C102.975 213.87 101.12 216.965 101.12 216.965C101.12 216.965 102.296 220.515 106.068 220.515H130.442V213.87Z" fill="white"/>
<path d="M104.413 214.79H130.44V214.983H104.413V214.79Z" fill="#B7EBEA"/>
<path d="M103.639 216.209H130.44V216.402H103.639V216.209Z" fill="#B7EBEA"/>
<path d="M103.639 217.628H130.44V217.821H103.639V217.628Z" fill="#B7EBEA"/>
<path d="M104.413 219.047H130.44V219.24H104.413V219.047Z" fill="#B7EBEA"/>
<path d="M105.708 216.209C105.865 216.424 106.16 216.691 106.16 218.092V219.617L107.372 218.7L108.38 219.617V217.377C108.381 217.23 108.366 217.084 108.336 216.94C108.28 216.669 108.154 216.416 107.97 216.209H105.708Z" fill="#FFB727"/>
<path d="M115.909 212.739C115.806 212.807 115.686 212.846 115.563 212.852C115.44 212.857 115.317 212.83 115.209 212.771C115.1 212.713 115.009 212.627 114.945 212.521C114.882 212.415 114.848 212.294 114.847 212.171L114.651 180.933C114.651 180.554 115.31 179.25 115.31 179.25C115.31 179.25 116.018 180.545 116.02 180.923L116.218 212.162C116.219 212.276 116.191 212.389 116.137 212.49C116.083 212.591 116.004 212.677 115.909 212.739Z" fill="#B25A1F"/>
<path d="M118.902 211.033C119.868 211.317 120.799 211.708 121.676 212.201V212.936L109.432 212.986V212.251C112.733 210.532 115.882 210.162 118.902 211.033Z" fill="#B25A1F"/>
<g style="mix-blend-mode:overlay" opacity="0.2">
<path d="M121.676 212.201V212.936L109.432 212.986V212.251C109.432 212.251 116.755 212.655 118.898 211.033C119.865 211.316 120.797 211.708 121.676 212.201Z" fill="#2E3442"/>
</g>
<path d="M123.423 205.864L123.441 205.85C125.579 203.99 127.07 201.5 127.7 198.737C128.165 196.675 128.129 194.53 127.595 192.485C127.061 190.439 126.044 188.551 124.629 186.979C124.343 186.665 124.039 186.352 123.726 186.069C123.511 185.871 123.29 185.683 123.077 185.51C123.011 185.457 122.943 185.405 122.876 185.353C121.433 184.235 119.774 183.428 118.004 182.983C116.234 182.538 114.39 182.465 112.59 182.768L112.816 184.119C114.43 183.847 116.083 183.913 117.67 184.312C119.258 184.71 120.745 185.434 122.039 186.436L122.216 186.578C122.411 186.735 122.607 186.901 122.8 187.078C123.083 187.336 123.354 187.61 123.61 187.895C124.875 189.305 125.785 190.998 126.263 192.832C126.742 194.665 126.775 196.587 126.361 198.436C125.796 200.909 124.462 203.14 122.549 204.807C122.156 205.124 121.746 205.419 121.32 205.69C121.251 205.734 121.182 205.776 121.105 205.821L121.037 205.862C120.945 205.919 120.854 205.972 120.752 206.03L120.623 206.102L120.507 206.167C120.392 206.23 120.279 206.289 120.172 206.343L120.152 206.354L119.986 206.435L119.962 206.446L119.926 206.465L119.882 206.487L119.855 206.498L119.723 206.561L119.614 206.613L119.579 206.627L119.548 206.641L119.403 206.705C119.359 206.723 119.317 206.74 119.276 206.759C118.909 206.916 118.683 206.983 118.667 206.988C118.51 207.038 118.364 207.087 118.218 207.131L118.074 207.175L117.989 207.198H117.964L117.848 207.231C117.691 207.277 117.534 207.317 117.377 207.355C117.262 207.383 117.146 207.41 117.031 207.435H117.014L116.903 207.46L116.564 207.525C116.485 207.539 116.407 207.555 116.311 207.569L116.206 207.586H116.187L116.102 207.598H116.063L115.892 207.622H115.851L115.739 207.636L115.629 207.649L115.559 207.657C113.744 207.782 111.925 207.483 110.245 206.784C108.392 206.015 106.762 204.792 105.504 203.228L104.437 204.085C105.773 205.753 107.493 207.073 109.449 207.933C111.406 208.792 113.541 209.165 115.673 209.021H115.724H115.766H115.791L115.899 209.008L116.036 208.991H116.071C116.138 208.981 116.206 208.974 116.27 208.963H116.309L116.413 208.947L116.535 208.928C116.628 208.914 116.72 208.897 116.805 208.881L116.928 208.859L117.176 208.81H117.199L117.303 208.788H117.325C117.452 208.762 117.579 208.732 117.706 208.702C117.879 208.658 118.053 208.614 118.227 208.565L118.347 208.531L118.493 208.49L118.617 208.452C118.774 208.404 118.943 208.35 119.088 208.295C119.099 208.295 119.373 208.206 119.813 208.022L119.835 208.013L119.926 207.975L120.11 207.894L120.155 207.875L120.194 207.857L120.307 207.804L120.444 207.74L120.501 207.713L120.543 207.693L120.727 207.602L120.791 207.569C120.909 207.511 121.03 207.445 121.161 207.374L121.284 207.306L121.441 207.223C121.544 207.164 121.65 207.102 121.755 207.038C121.783 207.021 121.811 207.005 121.832 206.991L122.051 206.856L122.072 206.843L122.257 206.723C122.66 206.456 123.049 206.169 123.423 205.864Z" fill="#B25A1F"/>
<path d="M105.03 192.83C104.919 193.203 104.829 193.582 104.762 193.965C104.692 194.348 104.645 194.734 104.619 195.122C104.595 195.484 104.589 195.85 104.601 196.221C104.676 198.49 105.48 200.674 106.895 202.45C107.749 203.523 108.803 204.422 109.998 205.096C110.396 205.303 110.805 205.487 111.223 205.649L111.435 205.726L111.507 205.752C111.6 205.785 111.689 205.817 111.779 205.845L111.912 205.887L112.025 205.923C112.136 205.958 112.246 205.989 112.348 206.016C112.368 206.023 112.389 206.029 112.41 206.033L112.524 206.063L112.579 206.079L112.642 206.095L112.763 206.124L112.877 206.151L112.932 206.162C112.987 206.176 113.041 206.187 113.089 206.197L113.188 206.217C113.559 206.291 113.78 206.313 113.78 206.313C113.92 206.33 114.059 206.346 114.196 206.358L114.307 206.368L114.416 206.377H114.527L114.96 206.401H115.274H115.694H115.915H116.018H116.117H116.139C116.204 206.401 116.265 206.401 116.328 206.388H116.431H116.535C116.556 206.387 116.578 206.387 116.599 206.388H116.635C119.129 206.048 121.419 204.83 123.095 202.952C123.18 202.858 123.261 202.764 123.343 202.666C125.014 200.665 125.885 198.117 125.79 195.513C125.781 195.273 125.765 195.034 125.742 194.798C125.511 192.541 124.561 190.418 123.031 188.742L122.874 188.57C122.62 188.303 122.352 188.05 122.072 187.811C120.058 186.092 117.472 185.191 114.825 185.287C114.482 185.301 114.143 185.328 113.808 185.372C112.557 185.535 111.345 185.921 110.231 186.513C109.78 186.753 109.347 187.025 108.934 187.326C108.288 187.792 107.696 188.33 107.17 188.927C107.126 188.978 107.082 189.03 107.039 189.084C106.893 189.26 106.752 189.442 106.617 189.628C106.415 189.904 106.228 190.19 106.055 190.485C105.62 191.222 105.275 192.01 105.03 192.83Z" fill="#3DB6C4"/>
<g style="mix-blend-mode:overlay" opacity="0.5">
<path d="M111.678 188.055C111.749 188.018 111.83 188.005 111.909 188.017C112.01 188.04 112.103 188.087 112.182 188.155C112.257 188.273 112.301 188.407 112.312 188.546C112.312 188.601 112.312 188.736 112.256 188.764C112.199 188.792 112.059 188.734 112.006 188.701C111.848 188.599 111.721 188.455 111.64 188.285C111.631 188.246 111.629 188.206 111.636 188.166C111.642 188.126 111.656 188.089 111.678 188.055Z" fill="#2E3442"/>
<path d="M110.69 186.953C110.688 186.999 110.677 187.045 110.658 187.087C110.638 187.13 110.61 187.168 110.576 187.199C110.519 187.232 110.372 187.144 110.312 187.171C110.213 187.213 110.166 187.493 110.059 187.508C109.952 187.524 109.78 187.194 109.66 187.226C109.541 187.257 109.398 187.595 109.46 187.712C109.475 187.742 109.56 187.739 109.593 187.745C109.686 187.761 109.879 187.758 109.97 187.783C110.108 187.812 110.24 187.869 110.356 187.949C110.477 188.072 110.488 188.461 110.609 188.577C110.73 188.694 111.07 188.679 111.145 188.8C111.178 188.878 111.192 188.963 111.185 189.047C111.179 189.132 111.152 189.213 111.108 189.285C111.061 189.328 110.902 189.24 110.858 189.285C110.829 189.332 110.813 189.386 110.811 189.441C110.81 189.496 110.823 189.551 110.849 189.599C110.948 189.703 111.291 189.591 111.431 189.628C111.571 189.664 111.835 189.755 111.912 189.861C111.952 189.957 111.966 190.062 111.949 190.164C111.929 190.321 111.833 190.626 111.712 190.722C111.609 190.77 111.495 190.791 111.381 190.783C111.21 190.758 111.042 190.715 110.88 190.656C110.797 190.632 110.606 190.61 110.551 190.543C110.496 190.475 110.533 190.325 110.514 190.255C110.455 190.045 110.34 189.579 110.157 189.453C110.081 189.403 109.871 189.482 109.792 189.438C109.689 189.38 109.646 189.047 109.527 189.051C109.463 189.051 109.452 189.23 109.403 189.271C109.204 189.428 108.524 189.383 108.419 189.617C108.402 189.656 108.452 189.748 108.486 189.774C108.563 189.835 108.846 189.756 108.872 189.849C108.888 189.912 108.736 189.993 108.675 190.014C108.593 190.034 108.508 190.034 108.427 190.014C108.356 189.989 108.208 189.904 108.183 189.835C108.158 189.766 108.295 189.593 108.27 189.521C108.259 189.488 108.16 189.467 108.163 189.431C108.166 189.395 108.254 189.369 108.287 189.354C108.444 189.29 108.792 189.284 108.926 189.197C109.018 189.133 109.219 188.932 109.177 188.827C109.135 188.722 108.83 188.695 108.706 188.711C108.64 188.739 108.578 188.775 108.521 188.819C108.4 188.882 108.119 188.954 108.031 189.058C107.943 189.161 107.975 189.372 107.91 189.461C107.802 189.6 107.663 189.712 107.505 189.789C107.486 189.797 107.465 189.802 107.444 189.802C107.423 189.802 107.402 189.797 107.383 189.789C107.315 189.753 107.326 189.64 107.348 189.518C107.386 189.402 107.396 189.279 107.378 189.158C107.348 189.092 107.246 188.956 107.165 188.935C108.025 187.938 109.063 187.109 110.226 186.491C110.337 186.547 110.442 186.614 110.54 186.691C110.61 186.765 110.662 186.854 110.69 186.953Z" fill="#2E3442"/>
<path d="M111.185 188.646C111.043 188.62 110.906 188.572 110.778 188.505C110.713 188.449 110.585 188.276 110.621 188.202C110.658 188.128 110.813 188.193 110.873 188.171C110.929 188.141 110.982 188.105 111.03 188.062C111.125 187.987 111.214 187.904 111.295 187.813C111.361 187.723 111.384 187.45 111.491 187.414C111.598 187.378 111.766 187.505 111.827 187.571C111.863 187.622 111.884 187.682 111.888 187.744C111.891 187.802 111.876 187.86 111.846 187.91C111.811 187.948 111.697 187.964 111.647 187.981C111.596 187.998 111.419 188.02 111.366 188.07C111.312 188.121 111.282 188.193 111.301 188.235C111.32 188.277 111.516 188.293 111.548 188.351C111.571 188.413 111.577 188.48 111.567 188.545C111.557 188.61 111.53 188.671 111.49 188.723C111.431 188.77 111.26 188.67 111.185 188.646Z" fill="#2E3442"/>
<path d="M106.956 189.398C106.863 189.5 106.747 189.578 106.617 189.626C106.752 189.439 106.894 189.259 107.04 189.081C107.029 189.191 107.001 189.298 106.956 189.398Z" fill="#2E3442"/>
<path d="M118.02 191.065C118.059 191.081 118.084 191.174 118.089 191.222C118.094 191.271 118.098 191.357 118.064 191.379C118.024 191.387 117.983 191.384 117.945 191.371C117.906 191.358 117.872 191.335 117.844 191.306C117.835 191.28 117.832 191.253 117.835 191.226C117.837 191.199 117.845 191.172 117.858 191.149C117.877 191.124 117.902 191.104 117.93 191.089C117.958 191.075 117.989 191.067 118.02 191.065Z" fill="#2E3442"/>
<path d="M125.451 194.816C125.294 194.963 125.344 195.461 125.239 195.649C125.134 195.838 124.831 196.183 124.625 196.257C124.541 196.286 124.321 196.29 124.263 196.221C124.205 196.151 124.252 196.023 124.28 195.965C124.363 195.792 124.74 195.605 124.852 195.447C124.941 195.318 125.158 195.004 125.085 194.864C125.053 194.835 125.014 194.814 124.972 194.804C124.93 194.793 124.886 194.794 124.844 194.805C124.695 194.875 124.687 195.268 124.582 195.4C124.425 195.613 123.847 195.845 123.77 196.1C123.745 196.177 123.877 196.335 123.853 196.414C123.804 196.58 123.497 196.822 123.33 196.885C123.098 196.974 122.484 197.071 122.33 196.885C122.307 196.855 122.392 196.768 122.368 196.737C122.312 196.697 122.247 196.672 122.179 196.665C122.111 196.658 122.042 196.668 121.979 196.695C121.924 196.739 122.002 196.924 121.947 196.966C121.892 197.009 121.717 196.947 121.633 196.946C121.471 196.928 121.307 196.932 121.145 196.955C120.905 197.031 120.563 197.461 120.316 197.511C120.109 197.555 119.662 197.266 119.477 197.368C119.32 197.451 119.199 197.839 119.229 197.996C119.258 198.153 119.649 198.352 119.7 198.52C119.75 198.688 119.594 198.963 119.577 199.114C119.565 199.208 119.61 199.407 119.566 199.492C119.433 199.745 118.88 199.963 118.601 200.186C118.563 200.216 118.527 200.25 118.495 200.286C118.439 200.355 118.422 200.561 118.339 200.611C118.223 200.64 118.101 200.64 117.985 200.611C117.949 200.611 117.34 200.756 117.2 200.911C116.886 201.264 117.113 202.423 116.742 202.712C116.695 202.748 116.546 202.677 116.5 202.712C116.343 202.869 116.544 203.387 116.442 203.578C116.368 203.719 116.022 203.84 115.941 203.975C115.888 204.108 115.862 204.25 115.866 204.393V204.487C115.863 204.575 115.851 204.662 115.83 204.748C115.825 204.772 115.816 204.795 115.805 204.817C115.611 205.1 115.369 205.347 115.089 205.545C114.915 205.672 114.529 205.906 114.304 205.93C114.147 205.95 113.766 205.908 113.659 205.784C113.642 205.75 113.632 205.714 113.63 205.677C113.628 205.639 113.634 205.602 113.648 205.567C113.728 205.434 114.127 205.423 114.218 205.295C114.24 205.232 114.248 205.163 114.24 205.096C114.24 205.033 114.213 204.905 114.215 204.84C114.215 204.803 114.215 204.732 114.215 204.683C114.217 204.653 114.23 204.624 114.252 204.603C114.321 204.559 114.494 204.691 114.566 204.674C114.639 204.657 114.767 204.581 114.78 204.517C114.796 204.424 114.601 204.291 114.577 204.203C114.565 204.156 114.554 204.046 114.59 204.007C114.626 203.967 114.847 204.049 114.904 203.997C114.922 203.972 114.934 203.942 114.939 203.911C114.943 203.88 114.941 203.848 114.931 203.818C114.877 203.724 114.617 203.707 114.524 203.65C114.312 203.53 114.121 203.375 113.96 203.192C113.926 203.122 113.902 203.048 113.891 202.971C113.88 202.897 113.864 202.824 113.843 202.752C113.772 202.551 113.577 202.168 113.489 201.968C113.463 201.909 113.383 201.801 113.386 201.738C113.386 201.564 113.624 201.277 113.7 201.123C113.67 201.023 113.659 200.795 113.582 200.724C113.466 200.616 113.092 200.672 112.954 200.588C112.806 200.479 112.689 200.332 112.618 200.162C112.533 199.848 112.855 199.189 112.808 198.864C112.782 198.677 112.529 198.36 112.494 198.177C112.474 198.081 112.438 197.863 112.507 197.789C112.576 197.715 112.858 197.808 112.962 197.764C113.066 197.72 113.221 197.421 113.353 197.385C113.59 197.323 114.061 197.597 114.306 197.613C114.405 197.608 114.503 197.597 114.601 197.58C114.733 197.564 115.028 197.602 115.131 197.522C115.235 197.442 115.229 197.12 115.301 197.005C115.373 196.891 115.536 196.674 115.662 196.638C115.83 196.591 116.175 196.842 116.345 196.795C116.514 196.748 116.726 196.376 116.893 196.291C116.982 196.246 117.207 196.145 117.285 196.211C117.321 196.243 117.23 196.359 117.255 196.4C117.343 196.535 117.726 196.626 117.883 196.593C117.984 196.574 118.1 196.367 118.197 196.335C118.427 196.272 118.671 196.283 118.894 196.368C119.075 196.483 119.105 196.996 119.284 197.122C119.462 197.247 119.995 197.313 120.181 197.192C120.368 197.071 120.277 196.396 120.484 196.261C120.621 196.172 121.034 196.436 121.139 196.313C121.244 196.191 120.982 195.922 121.006 195.786C121.017 195.715 121.075 195.547 121.147 195.538C121.4 195.511 121.608 196.166 121.834 196.28C122.001 196.358 122.189 196.382 122.37 196.348C122.499 196.264 122.599 196.141 122.655 195.998C122.678 195.853 122.675 195.706 122.646 195.563C122.648 195.331 122.58 195.104 122.449 194.912C122.319 194.72 122.133 194.572 121.916 194.489C121.624 194.34 120.922 194.006 120.643 194.175C120.558 194.225 120.623 194.489 120.549 194.553C120.475 194.618 120.126 194.743 120.039 194.648C119.951 194.552 120.196 194.241 120.236 194.062C120.239 194.045 120.239 194.027 120.236 194.01C120.181 193.86 120.097 193.722 119.988 193.604C119.866 193.447 119.497 193.205 119.433 193.014C119.408 192.94 119.481 192.78 119.464 192.7C119.412 192.463 119.127 192.05 118.973 191.86C118.842 191.703 118.332 191.505 118.364 191.304C118.364 191.284 118.434 191.288 118.439 191.268C118.485 191.111 118.222 190.797 118.073 190.712C118.012 190.695 117.947 190.695 117.886 190.712C117.855 190.723 117.814 190.799 117.781 190.791C117.714 190.777 117.695 190.602 117.651 190.551C117.642 190.54 117.607 190.532 117.61 190.519C117.629 190.474 117.767 190.541 117.816 190.541C117.864 190.541 117.993 190.562 118.034 190.527C118.075 190.473 118.093 190.404 118.084 190.337C118.066 190.292 118.036 190.253 117.998 190.224C117.924 190.189 117.844 190.169 117.762 190.166C117.721 190.164 117.68 190.171 117.642 190.185C117.594 190.211 117.555 190.342 117.502 190.342C117.481 190.343 117.461 190.339 117.442 190.331C117.423 190.323 117.406 190.31 117.392 190.295C117.392 190.295 117.392 190.282 117.392 190.281C117.392 190.279 117.364 190.281 117.356 190.281C117.241 190.266 117.132 190.22 117.042 190.147C117.017 190.113 117.065 190.007 117.042 189.978C117.015 189.958 116.983 189.946 116.95 189.946C116.917 189.945 116.884 189.955 116.857 189.974C116.83 189.993 116.809 190.02 116.799 190.052C116.788 190.083 116.787 190.117 116.797 190.149C116.81 190.199 116.971 190.263 116.943 190.306C116.899 190.328 116.91 190.463 116.871 190.488C116.775 190.552 116.519 190.503 116.4 190.51C116.357 190.51 116.259 190.492 116.222 190.519C116.198 190.524 116.173 190.522 116.149 190.514C116.125 190.506 116.104 190.492 116.087 190.474C116.077 190.43 116.076 190.384 116.086 190.34C116.096 190.296 116.116 190.255 116.144 190.219C116.207 190.16 116.405 190.172 116.491 190.157C116.538 190.149 116.637 190.157 116.673 190.125C116.709 190.094 116.74 190.04 116.729 190.011C116.719 189.981 116.601 189.929 116.558 189.902C116.516 189.876 116.392 189.832 116.37 189.781C116.356 189.717 116.356 189.651 116.369 189.587C116.383 189.523 116.409 189.463 116.447 189.409C116.491 189.361 116.638 189.351 116.703 189.332C116.767 189.314 116.88 189.307 116.921 189.268C117.034 189.155 116.948 188.7 117.106 188.654C117.265 188.609 117.456 188.992 117.601 189.064C117.649 189.089 117.758 189.146 117.808 189.116C117.912 189.047 117.78 188.711 117.874 188.629C118.031 188.502 118.502 188.557 118.689 188.645C118.807 188.718 118.897 188.828 118.946 188.959C118.988 189.139 118.692 189.502 118.764 189.675C118.822 189.814 119.202 189.869 119.291 189.989C119.381 190.108 119.315 190.408 119.4 190.511C119.442 190.56 119.582 190.64 119.64 190.61C119.781 190.544 119.662 190.102 119.797 190.015C119.932 189.929 120.214 190.091 120.354 190.076C120.465 190.064 120.572 190.028 120.668 189.971C120.748 189.907 120.889 189.715 120.874 189.613C120.833 189.336 120.28 188.996 120.053 188.828C119.952 188.753 119.739 188.533 119.618 188.571C119.541 188.596 119.568 188.835 119.492 188.868C119.446 188.876 119.398 188.873 119.353 188.86C119.308 188.846 119.267 188.822 119.233 188.789C119.21 188.755 119.274 188.664 119.252 188.632C119.218 188.573 119.023 188.587 118.988 188.527C118.986 188.518 118.985 188.508 118.987 188.498C118.988 188.488 118.992 188.479 118.998 188.471C119.021 188.449 119.1 188.471 119.128 188.452C119.156 188.433 119.213 188.336 119.196 188.295C119.161 188.216 118.933 188.237 118.866 188.182C118.8 188.106 118.747 188.019 118.709 187.926C118.709 187.926 118.709 187.91 118.709 187.907C118.689 187.898 118.681 187.843 118.663 187.829C118.462 187.681 118.226 187.59 117.977 187.565C117.872 187.565 117.612 187.645 117.598 187.747C117.566 187.979 118.398 188.16 118.31 188.375C118.21 188.626 117.411 188.532 117.211 188.356C117.139 188.292 117.227 188.051 117.163 187.981C117.149 187.964 117.095 187.965 117.073 187.959C116.981 187.935 116.773 187.932 116.706 187.868C116.638 187.803 116.566 187.599 116.62 187.53C116.673 187.461 116.896 187.584 116.963 187.53C117.031 187.477 116.987 187.216 117.061 187.154C117.102 187.116 117.232 187.127 117.288 187.117C117.511 187.08 117.957 186.948 118.183 186.96C118.423 187.007 118.653 187.092 118.864 187.213C118.962 187.271 119.178 187.405 119.207 187.511C119.235 187.618 118.982 187.89 119.05 187.995C119.117 188.1 119.384 188.086 119.478 188.036C119.516 188.005 119.548 187.966 119.57 187.922C119.593 187.878 119.606 187.831 119.61 187.781C119.602 187.648 119.227 187.446 119.296 187.332C119.4 187.183 119.85 187.413 120.023 187.477C120.094 187.499 120.159 187.537 120.213 187.588C120.249 187.643 120.29 187.8 120.243 187.847C120.196 187.894 120.017 187.778 119.963 187.824C119.938 187.865 119.923 187.912 119.921 187.96C119.919 188.009 119.929 188.057 119.951 188.1C120.018 188.196 120.324 188.152 120.4 188.24C120.431 188.277 120.4 188.397 120.428 188.433C120.539 188.558 120.937 188.693 121.086 188.615C121.167 188.571 121.196 188.276 121.221 188.259C121.044 188.238 120.871 188.191 120.707 188.121C120.593 188.037 120.353 187.774 120.407 187.65C120.433 187.593 120.593 187.573 120.652 187.598C120.745 187.637 120.783 187.883 120.867 187.94C121.015 188.019 121.184 188.052 121.351 188.033C121.472 188.003 121.613 187.745 121.734 187.719C121.84 187.706 121.947 187.717 122.048 187.75C122.328 187.988 122.596 188.242 122.85 188.508C122.745 188.579 122.415 188.295 122.285 188.351C122.259 188.369 122.237 188.392 122.22 188.419C122.204 188.447 122.193 188.477 122.189 188.508C122.189 188.56 122.337 188.642 122.305 188.684C122.21 188.817 121.812 188.486 121.655 188.541C121.594 188.565 121.477 188.686 121.498 188.744C121.564 188.916 122.064 188.981 122.23 188.901C122.274 188.88 122.271 188.758 122.312 188.736C122.414 188.675 122.673 188.766 122.792 188.752C122.847 188.752 122.94 188.708 123.01 188.692C124.541 190.366 125.491 192.49 125.721 194.747C125.63 194.769 125.503 194.765 125.451 194.816Z" fill="#2E3442"/>
<path d="M104.599 196.222C104.647 197.592 104.959 198.94 105.519 200.191C105.544 200.023 105.538 199.808 105.599 199.72C105.66 199.632 105.913 199.492 106.051 199.379C106.089 199.352 106.122 199.318 106.149 199.28C106.268 199.098 106.23 198.615 106.364 198.44C106.395 198.406 106.433 198.38 106.475 198.363C106.576 198.325 106.671 198.272 106.756 198.206C106.821 198.102 106.861 197.985 106.872 197.863C106.882 197.649 106.605 197.235 106.664 197.021C106.764 196.648 107.58 196.252 107.753 195.905C107.857 195.699 107.701 195.137 107.888 195.001C108.029 194.899 108.414 195.134 108.587 195.101C108.678 195.084 108.811 194.932 108.901 194.918C109.061 194.914 109.219 194.953 109.359 195.031C109.426 195.078 109.47 195.252 109.536 195.299C109.707 195.417 110.207 195.346 110.345 195.498C110.357 195.514 110.345 195.561 110.354 195.575C110.485 195.665 110.644 195.705 110.802 195.688C111.199 195.619 111.9 195.122 112.125 194.798C112.258 194.608 112.439 194.119 112.346 193.904C112.327 193.861 112.211 193.841 112.189 193.8C112.172 193.759 112.163 193.714 112.161 193.67C112.161 193.579 112.161 193.477 112.214 193.445C112.268 193.414 112.4 193.527 112.456 193.503C112.51 193.465 112.556 193.416 112.589 193.358C112.621 193.301 112.641 193.237 112.646 193.171C112.61 192.802 111.754 192.395 111.666 192.036C111.632 191.879 111.863 191.588 111.823 191.441C111.784 191.293 111.476 191.053 111.32 190.979C111.24 190.961 111.16 190.949 111.079 190.943C110.915 190.922 110.754 190.882 110.599 190.825C110.503 190.775 110.368 190.59 110.274 190.535C110.004 190.378 109.359 189.996 109.086 190.142C108.946 190.216 109.057 190.651 108.929 190.745C108.8 190.839 108.458 190.783 108.188 190.745C108.097 190.731 108.005 190.731 107.915 190.745C107.855 190.755 107.758 190.825 107.692 190.828C107.626 190.832 107.535 190.828 107.518 190.784C107.474 190.712 107.643 190.532 107.601 190.456C107.533 190.335 107.205 190.265 107.062 190.268C106.894 190.268 106.609 190.507 106.434 190.518C106.305 190.52 106.176 190.507 106.05 190.478C105.027 192.215 104.524 194.208 104.599 196.222Z" fill="#2E3442"/>
<path d="M117.553 191.196C117.51 191.216 117.409 191.16 117.368 191.136C117.327 191.11 117.293 191.075 117.268 191.034C117.254 190.998 117.296 190.913 117.268 190.877C117.239 190.841 117.144 190.857 117.111 190.827C117.078 190.797 117.059 190.717 117.083 190.69C117.106 190.664 117.194 190.69 117.23 190.69C117.266 190.69 117.331 190.701 117.353 190.725C117.375 190.748 117.353 190.866 117.375 190.901C117.428 190.959 117.643 190.91 117.688 190.977C117.697 191.005 117.698 191.034 117.691 191.061C117.684 191.089 117.669 191.114 117.649 191.134C117.632 191.144 117.593 191.108 117.575 191.116C117.558 191.123 117.596 191.178 117.553 191.196Z" fill="#2E3442"/>
</g>
<g style="mix-blend-mode:overlay" opacity="0.5">
<path d="M106.215 190.213C106.2 190.292 106.184 190.37 106.17 190.45C106.102 190.833 106.055 191.22 106.028 191.609C105.909 193.347 106.218 195.087 106.93 196.677C107.292 197.485 107.755 198.243 108.308 198.935C109.162 200.005 110.214 200.901 111.407 201.574C111.804 201.781 112.212 201.966 112.631 202.126L112.843 202.203L112.914 202.23C113.006 202.263 113.097 202.294 113.187 202.322C113.231 202.338 113.276 202.352 113.32 202.365L113.433 202.401C113.545 202.435 113.654 202.467 113.756 202.495L113.818 202.511L113.932 202.541L113.987 202.556L114.05 202.572L114.171 202.602L114.286 202.629L114.34 202.639C114.395 202.654 114.449 202.665 114.497 202.674L114.595 202.694C114.967 202.768 115.188 202.79 115.188 202.79C115.328 202.807 115.466 202.823 115.604 202.836L115.714 202.845L115.824 202.855H115.934L116.369 202.878H116.683H117.102H117.323H117.427C117.46 202.878 117.491 202.878 117.524 202.878H117.548C117.612 202.878 117.673 202.878 117.736 202.864H117.839H117.942C117.963 202.862 117.986 202.862 118.007 202.864H118.044C120.537 202.523 122.827 201.304 124.503 199.428C124.586 199.334 124.67 199.239 124.751 199.142C124.999 198.844 125.231 198.533 125.445 198.21C125.491 198.141 125.536 198.07 125.58 197.999C125.541 198.192 125.497 198.385 125.448 198.575C125.052 200.073 124.333 201.466 123.342 202.657C123.26 202.754 123.185 202.848 123.094 202.942C121.415 204.809 119.128 206.017 116.64 206.352H116.604C116.583 206.35 116.561 206.35 116.54 206.352H116.436H116.333C116.27 206.352 116.209 206.361 116.144 206.365H116.122H116.023H115.92H115.698H115.279H114.965L114.532 206.341H114.421L114.312 206.332L114.201 206.322C114.064 206.31 113.924 206.294 113.785 206.277C113.785 206.277 113.563 206.255 113.193 206.181L113.094 206.161C113.044 206.151 112.99 206.14 112.937 206.126L112.882 206.115L112.768 206.088L112.647 206.058L112.584 206.043L112.529 206.027L112.414 205.997C112.394 205.993 112.373 205.987 112.353 205.98C112.251 205.953 112.141 205.922 112.03 205.887L111.917 205.851L111.783 205.809C111.694 205.781 111.604 205.749 111.512 205.716L111.439 205.69L111.228 205.613C110.81 205.451 110.401 205.267 110.003 205.06C108.81 204.398 107.754 203.513 106.895 202.453C105.48 200.678 104.674 198.494 104.598 196.225C104.586 195.855 104.592 195.489 104.616 195.127C104.642 194.739 104.689 194.352 104.759 193.97C104.826 193.586 104.916 193.208 105.027 192.835C105.272 192.011 105.616 191.22 106.052 190.48C106.105 190.387 106.16 190.298 106.215 190.213Z" fill="#2E3442"/>
</g>
<path d="M144.566 197.376L142.122 190.117L159.803 192.097L144.566 197.376Z" fill="white"/>
<path d="M144.566 197.376L142.122 190.117L159.803 192.097L144.566 197.376Z" fill="#B7EBEA"/>
<path d="M159.803 192.097L139.921 196.335L141.493 191.855L159.803 192.097Z" fill="white"/>
<path d="M142.122 190.117L159.803 192.097L143.163 186.742L142.122 190.117Z" fill="white"/>
<path d="M108.179 198.721V198.25C107.766 198.25 107.343 198.236 106.923 198.217L106.903 198.688C107.333 198.706 107.762 198.717 108.179 198.721ZM109.771 198.702C110.195 198.687 110.623 198.665 111.043 198.635L111.008 198.164C110.595 198.194 110.173 198.216 109.752 198.23L109.771 198.702ZM105.318 198.589L105.357 198.118C105.043 198.093 104.704 198.062 104.369 198.027L104.11 197.991L104.045 198.462L104.313 198.498C104.658 198.531 104.994 198.563 105.318 198.589ZM112.626 198.483C113.047 198.432 113.473 198.374 113.882 198.307L113.809 197.836C113.399 197.902 112.98 197.962 112.565 198.01L112.626 198.483ZM102.472 198.199L102.563 197.728C102.156 197.65 101.755 197.552 101.359 197.432L101.219 197.886C101.631 198.012 102.049 198.116 102.472 198.199ZM115.454 198.016C115.865 197.93 116.283 197.834 116.694 197.729L116.578 197.269C116.171 197.371 115.76 197.467 115.355 197.552L115.454 198.016ZM118.229 197.305C118.626 197.184 119.034 197.054 119.441 196.918L119.284 196.467C118.882 196.604 118.479 196.732 118.086 196.85L118.229 197.305ZM100.334 196.834C100.343 196.776 100.432 196.558 101.147 196.228L100.947 195.798C100.269 196.112 99.9254 196.415 99.8658 196.753L100.334 196.834ZM120.935 196.382C121.318 196.238 121.705 196.086 122.117 195.911L121.938 195.47C121.53 195.637 121.154 195.784 120.767 195.932L120.935 196.382ZM102.603 195.703C103.264 195.506 103.812 195.389 103.817 195.389L103.716 194.918C103.693 194.918 103.147 195.042 102.47 195.243L102.603 195.703ZM123.58 195.307L124.744 194.803L124.554 194.368C124.171 194.537 123.784 194.704 123.394 194.871L123.58 195.307ZM126.193 194.171C126.58 194.003 126.966 193.838 127.354 193.676L127.171 193.238C126.781 193.395 126.386 193.566 126.004 193.736L126.193 194.171ZM128.814 193.087C129.228 192.93 129.615 192.788 129.995 192.656L129.838 192.207C129.451 192.34 129.062 192.483 128.641 192.645L128.814 193.087ZM131.483 192.182C131.891 192.064 132.297 191.959 132.695 191.868L132.588 191.397C132.183 191.491 131.767 191.599 131.352 191.711L131.483 192.182ZM141.08 191.613L141.157 191.142C140.733 191.073 140.306 191.017 139.89 190.971L139.839 191.442C140.255 191.488 140.672 191.544 141.087 191.61L141.08 191.613ZM134.228 191.566C134.638 191.502 135.055 191.448 135.468 191.409L135.423 190.938C135.001 190.979 134.574 191.033 134.154 191.095L134.228 191.566ZM138.278 191.331L138.297 190.86C137.865 190.843 137.434 190.839 137.018 190.847L137.027 191.318C137.442 191.307 137.862 191.31 138.291 191.328L138.278 191.331Z" fill="white"/>
<path d="M230.364 179.718C230.394 179.708 233.305 178.714 234.167 173.936C234.19 173.864 234.235 173.801 234.296 173.756C234.357 173.711 234.431 173.687 234.506 173.687C234.582 173.687 234.656 173.711 234.716 173.756C234.777 173.801 234.823 173.864 234.846 173.936C235.708 178.712 238.619 179.708 238.647 179.717C238.711 179.73 238.767 179.764 238.808 179.815C238.849 179.865 238.871 179.927 238.871 179.992C238.871 180.057 238.849 180.12 238.808 180.17C238.767 180.22 238.711 180.254 238.647 180.268C238.617 180.276 235.713 181.241 234.846 186.048C234.823 186.12 234.777 186.183 234.716 186.228C234.656 186.273 234.582 186.297 234.506 186.297C234.431 186.297 234.357 186.273 234.296 186.228C234.235 186.183 234.19 186.12 234.167 186.048C233.305 181.272 230.394 180.276 230.365 180.268C230.304 180.251 230.249 180.216 230.209 180.167C230.169 180.117 230.145 180.057 230.141 179.993C230.145 179.93 230.168 179.869 230.208 179.819C230.248 179.77 230.302 179.735 230.364 179.718Z" fill="white"/>
<path d="M242.544 171.097C242.562 171.097 244.292 170.504 244.805 167.692C244.818 167.649 244.845 167.612 244.881 167.585C244.917 167.559 244.961 167.544 245.006 167.544C245.051 167.544 245.095 167.559 245.131 167.585C245.167 167.612 245.194 167.649 245.207 167.692C245.722 170.504 247.451 171.097 247.467 171.097C247.504 171.105 247.537 171.125 247.562 171.155C247.586 171.184 247.6 171.22 247.601 171.258C247.602 171.298 247.589 171.336 247.564 171.367C247.54 171.398 247.505 171.42 247.467 171.429C247.45 171.429 245.723 172.002 245.207 174.833C245.194 174.876 245.167 174.913 245.131 174.94C245.095 174.966 245.051 174.981 245.006 174.981C244.961 174.981 244.917 174.966 244.881 174.94C244.845 174.913 244.818 174.876 244.805 174.833C244.29 172.021 242.562 171.429 242.545 171.429C242.511 171.417 242.481 171.396 242.46 171.367C242.439 171.338 242.427 171.303 242.427 171.267C242.427 171.231 242.439 171.196 242.46 171.167C242.481 171.138 242.511 171.116 242.545 171.105L242.544 171.097Z" fill="white"/>
</g>
<defs>
<filter id="filter0_i_1113_177" x="0" y="0" width="350" height="227.578" filterUnits="userSpaceOnUse" color-interpolation-filters="sRGB">
<feFlood flood-opacity="0" result="BackgroundImageFix"/>
<feBlend mode="normal" in="SourceGraphic" in2="BackgroundImageFix" result="shape"/>
<feColorMatrix in="SourceAlpha" type="matrix" values="0 0 0 0 0 0 0 0 0 0 0 0 0 0 0 0 0 0 127 0" result="hardAlpha"/>
<feOffset dy="0.609137"/>
<feGaussianBlur stdDeviation="1.46954"/>
<feComposite in2="hardAlpha" operator="arithmetic" k2="-1" k3="1"/>
<feColorMatrix type="matrix" values="0 0 0 0 0.841667 0 0 0 0 0.535861 0 0 0 0 0.535861 0 0 0 0.18 0"/>
<feBlend mode="normal" in2="shape" result="effect1_innerShadow_1113_177"/>
</filter>
<linearGradient id="paint0_linear_1113_177" x1="350.074" y1="117.972" x2="-3.15181e-05" y2="117.972" gradientUnits="userSpaceOnUse">
<stop stop-color="#F1C995"/>
<stop offset="0.649" stop-color="#FFFDF6"/>
</linearGradient>
</defs>
</svg>
