<svg width="120" height="69" viewBox="0 0 120 69" fill="none" xmlns="http://www.w3.org/2000/svg">
<path d="M120 65.4675L118.454 65.5799C116.464 66.5075 114.439 66.2859 112.408 65.753C111.708 65.2307 111.643 64.4671 111.71 63.708C112.169 58.6691 111.826 53.4981 113.394 48.6353C115.399 42.4259 114.18 36.1147 114.526 29.8582C114.611 28.3491 113.893 28.0971 112.585 28.6437C109.905 29.7641 107.161 30.7175 104.424 31.6801C103.008 32.2023 101.608 32.7686 100.193 33.2954C95.69 34.9913 91.1822 36.6719 86.7005 38.4224C84.6172 39.057 82.6534 40.0028 80.6054 40.73C76.4404 42.1921 72.3673 43.8985 68.207 45.3924C66.208 46.1272 64.186 46.8286 62.2527 47.6955C59.6889 48.8463 57.2582 48.9526 54.7188 47.7305C53.8004 47.2871 52.8009 46.9805 51.8366 46.6222C47.191 44.6485 42.3786 43.0939 37.7132 41.1688C35.5901 40.3308 33.3952 39.6825 31.2951 38.7807C26.8271 37.0515 22.3744 35.2888 17.8482 33.7114C16.3467 32.8506 14.4563 32.7534 13.2058 31.3992C9.75871 30.0647 6.31777 28.7074 2.86154 27.4033C0.0344099 26.3406 -0.450804 25.4691 0.342079 22.6331C0.822706 21.2667 2.15439 21.0831 3.25953 20.5896C4.33099 20.1129 5.46826 19.8305 6.53666 19.3523C10.6572 17.866 14.7119 16.2066 18.8325 14.7173C22.6071 13.1869 26.4552 11.8418 30.2435 10.3418C34.8003 8.78869 39.2178 6.87121 43.7486 5.25281C45.7736 4.43146 47.8553 3.75739 49.862 2.89201C52.1779 2.17694 54.376 1.15367 56.6597 0.355103C57.9608 -0.100356 59.2052 -0.144379 60.494 0.379399C62.9905 1.39204 65.5544 2.23615 68.0601 3.2245C69.0795 3.67996 70.1142 4.09595 71.1704 4.46183C72.4148 4.87175 73.6056 5.4183 74.8439 5.82821C76.8047 6.68144 78.8574 7.30086 80.8258 8.13283C83.1371 8.97088 85.4009 9.93189 87.7245 10.735C90.8087 11.9875 93.9558 13.0806 97.0508 14.3073C101.846 16.1292 106.605 18.0375 111.439 19.7607C112.746 20.324 114.118 20.7217 115.419 21.2895C116.435 21.7328 117.079 22.4084 117.148 23.541C117.165 28.9488 117.21 34.3567 117.187 39.7645C117.174 42.6931 117.425 45.5033 118.276 48.3878C119.927 53.9308 119.899 59.7272 120 65.4675Z" fill="#6A1C1A"/>
<path d="M83.0944 42.3119C84.4412 41.9984 85.7366 41.498 86.9425 40.8256L95.1866 37.9274C97.6449 37.6237 97.6449 37.6237 97.6449 40.1045C97.6449 42.9739 97.5255 45.8524 97.6923 48.7126C97.8071 50.6863 97.08 51.8158 95.2524 52.4171C94.9249 52.5248 94.4014 52.5233 94.3861 53.0881C92.4314 54.7369 89.8707 55.165 87.6941 56.3644C83.0133 58.212 78.4887 60.4164 73.8155 62.2762C71.9313 63.0794 70.0379 63.8612 68.1628 64.6841C65.7137 65.7741 63.2218 66.7443 60.785 67.8495C60.1368 68.1644 59.4254 68.3304 58.7036 68.3354C57.9818 68.3404 57.2681 68.1842 56.6155 67.8784C54.0991 66.7832 51.5715 65.7149 49.0326 64.6735C47.8708 64.0252 46.5836 63.6639 45.3896 63.0809C40.441 61.0389 35.5934 58.7707 30.6111 56.791C28.3013 55.7282 25.9426 54.7794 23.6068 53.7743C22.8415 53.4464 22.093 53.12 21.5481 52.4596C20.2608 51.6382 19.82 50.5011 19.8643 48.9677C19.97 45.8174 19.898 42.6596 19.8949 39.5048C19.8949 38.5726 19.8949 37.6738 21.1348 37.5068L30.1948 40.8226L42.7768 45.6277C45.0605 46.5978 47.3443 47.574 49.7444 48.2405C51.249 48.8797 52.7888 49.455 54.2537 50.1732C57.416 51.7323 60.4345 51.3649 63.5004 49.8467C65.1459 49.033 66.9276 48.4925 68.6465 47.8291L83.0944 42.3119Z" fill="#6A1C1A"/>
</svg>
