<svg width="120" height="121" viewBox="0 0 120 121" fill="none" xmlns="http://www.w3.org/2000/svg">
<path d="M52.2494 108.877C52.8445 104.399 53.413 100.168 53.967 95.9468C54.2283 93.951 54.4847 91.9552 54.6928 89.9521C54.7944 89.0013 55.346 88.7764 56.1806 88.7812C58.6409 88.7981 61.1012 88.8417 63.5566 88.7619C64.7662 88.7231 65.1702 89.2602 65.2936 90.3658C65.6758 93.7671 66.1088 97.1612 66.5443 100.558C66.8563 102.994 67.2047 105.425 67.5458 107.856C67.5821 108.127 67.5845 108.427 67.9063 108.681C68.4458 108.004 68.6659 107.191 68.9441 106.412C72.7011 95.9468 76.0952 85.3653 78.8288 74.5855C79.2498 72.9284 79.2861 72.9163 80.9263 73.4533C90.7965 76.6853 100.689 79.8617 110.44 83.4348C114.042 84.7557 117.035 86.9813 118.864 90.4964C119.617 91.928 120.004 93.5236 119.991 95.1412C119.969 100.26 120.042 105.379 119.96 110.496C119.911 113.52 118.992 116.287 116.778 118.479C116.015 119.26 115.101 119.878 114.092 120.296C113.083 120.714 111.999 120.923 110.907 120.91C76.9726 120.91 43.0396 120.905 9.1083 120.896C5.33923 120.896 2.7483 118.871 1.19277 115.515C0.399025 113.788 -0.000139623 111.906 0.0242956 110.005C0.0509065 105.331 0.130779 100.655 0.00498239 95.9734C-0.113557 91.5125 1.88952 88.2611 5.32716 85.7064C7.2625 84.2719 9.42762 83.3163 11.6944 82.5615C20.7421 79.5375 29.7914 76.5184 38.8423 73.5041C40.6712 72.8945 40.6882 72.9042 41.1599 74.7742C43.8839 85.6048 47.3337 96.2081 51.0906 106.707C51.3277 107.394 51.4874 108.12 52.2494 108.877Z" fill="#6A1C1A"/>
<path d="M60.2031 0C65.3668 0.0196801 70.4634 1.17079 75.1342 3.37233C81.5571 6.43984 85.1012 12.7007 84.569 19.7888C84.3658 22.5346 83.7054 25.1933 83.3474 27.9052C83.2337 28.7543 83.2675 29.3397 84.1529 29.7728C84.625 30.0112 85.0441 30.3423 85.3853 30.7463C85.7266 31.1503 85.9829 31.6189 86.139 32.1242C87.726 36.9819 87.6728 44.0265 82.7522 47.6601C81.8716 48.3109 81.4072 49.1915 81.0975 50.2414C78.5719 58.8609 72.9352 64.408 64.3472 66.9337C61.6967 67.7066 58.8773 67.6822 56.2405 66.8635C47.5315 64.2677 42.0085 58.527 39.4708 49.864C39.2575 48.9737 38.7168 48.1964 37.9564 47.6867C35.9219 46.3102 34.826 44.2491 34.289 41.9073C33.7423 39.6331 33.4751 37.3008 33.493 34.9619C33.5366 32.5427 34.3083 30.5324 36.7105 29.5018C37.354 29.226 37.3177 28.7253 37.2161 28.1882C36.5097 24.4844 36.4202 20.7468 36.563 16.9947C36.6207 15.3 36.9897 13.6304 37.6516 12.0692C38.2137 10.6257 39.2887 9.44042 40.6707 8.74047C42.1361 8.0564 43.3732 6.96452 44.2341 5.59555C46.2783 2.30547 49.5563 1.07653 53.1851 0.544314C55.509 0.200948 57.854 0.0190744 60.2031 0Z" fill="#6A1C1A"/>
<path d="M60.0224 76.2162C61.5924 76.2162 63.1673 76.2331 64.7349 76.2162C65.1603 76.1864 65.5843 76.2903 65.9477 76.5132C66.3112 76.7361 66.596 77.067 66.7622 77.4596C66.7933 77.534 66.8314 77.6053 66.8759 77.6725C68.1654 79.3829 68.0855 81.0206 67.0283 82.9028C64.8511 86.8 66.3026 86.0114 61.8537 86.0985C59.7999 86.1372 57.7411 86.0815 55.6897 86.113C54.9954 86.113 54.572 85.8856 54.2817 85.2445C53.7011 83.9623 53.0939 82.6874 52.4383 81.4416C51.9787 80.5683 51.9666 79.7675 52.5012 78.9377C52.7213 78.5999 52.9053 78.2399 53.0503 77.8636C53.5342 76.5815 54.4535 76.1242 55.7937 76.1992C57.1992 76.2742 58.612 76.2162 60.0224 76.2162Z" fill="#6A1C1A"/>
</svg>
