<svg width="40" height="46" viewBox="0 0 40 46" fill="none" xmlns="http://www.w3.org/2000/svg">
<path d="M26.1533 29.7097L25.2561 30.4637C22.4453 29.2841 19.873 27.7367 17.6137 25.8662C15.525 23.8522 13.8588 21.5029 12.6831 18.9141L13.3267 18.325L4.79138 10.7652C4.14443 11.7279 3.69538 12.7747 3.46832 13.8494C2.45127 18.7223 5.1319 24.4259 10.103 29.0142C15.0741 33.6025 19.9818 37.4997 26.3961 38.5655C30.1866 39.197 32.9021 38.4449 34.7859 37.3387L26.1533 29.7097Z" fill="#6A1C1A"/>
<path d="M28.9856 27.221L27.748 28.2603L36.4792 36.0086C36.9125 35.6631 37.3146 35.2864 37.6807 34.883C38.1498 34.3625 38.4092 33.7244 38.4103 33.0884C38.4113 32.4523 38.154 31.8619 37.6864 31.4278L33.0091 27.1223C32.5108 26.6613 31.8116 26.4136 31.0602 26.4321C30.3087 26.4505 29.5644 26.7336 28.9856 27.221Z" fill="#6A1C1A"/>
<path d="M7.69477 7.60508C7.13905 8.05988 6.62633 8.55624 6.16327 9.08774L14.8815 16.8752L16.2179 15.6512C16.7767 15.141 17.1135 14.4733 17.1561 13.7912C17.1986 13.1092 16.9436 12.4669 16.4456 12.0022L11.7143 7.56713C11.2255 7.09738 10.5319 6.83849 9.78108 6.84558C9.03029 6.85267 8.28171 7.12518 7.69477 7.60508Z" fill="#6A1C1A"/>
</svg>
