<svg width="387" height="318" viewBox="0 0 387 318" fill="none" xmlns="http://www.w3.org/2000/svg">
<g clip-path="url(#clip0_548_520)">
<path d="M224.62 55.68C224.66 55.81 220.92 52.93 217.04 54.21C213.16 55.49 210 52.66 209.96 52.54C209.92 52.41 212.85 54.7899 216.73 53.5099C220.61 52.2299 224.58 55.56 224.63 55.68H224.62Z" fill="#100808"/>
<path d="M176.53 9.84001L178.32 9.74001C196.37 8.70001 212.19 21.7 214.68 39.61C216.99 56.26 219.33 74.69 219.74 83.67C220.58 102.27 202.15 106.23 202.15 106.23L202.81 113.79C203.9 126.28 194.63 137.27 182.14 138.3C169.81 139.32 158.95 130.23 157.77 117.92L151.17 48.91C148.4 29.71 157.26 12.08 176.53 9.84001Z" fill="#F6AB74"/>
<path d="M202.3 106.19C202.3 106.19 190.47 107.59 177.53 100.46C177.53 100.46 184.03 113.51 202.48 110.77L202.3 106.19Z" fill="#F6AB74"/>
<path d="M209.47 56.8801C209.6 58.2801 208.52 59.5401 207.06 59.7101C205.6 59.8701 204.32 58.8701 204.19 57.4701C204.06 56.0701 205.14 54.8101 206.59 54.6401C208.05 54.4801 209.34 55.4801 209.47 56.8801Z" fill="#2F2421"/>
<path d="M211.2 48.9201C210.89 49.2901 208.79 47.9101 205.94 48.0801C203.08 48.2101 201.07 49.8001 200.74 49.4701C200.58 49.3201 200.88 48.6801 201.75 47.9601C202.61 47.2501 204.11 46.5101 205.89 46.4201C207.67 46.3301 209.2 46.9001 210.1 47.5201C211.02 48.1401 211.35 48.7501 211.2 48.9201Z" fill="#2F2421"/>
<path d="M184.77 58.6301C184.9 60.0301 183.82 61.2901 182.36 61.4501C180.9 61.6101 179.62 60.6101 179.49 59.2101C179.36 57.8101 180.44 56.5501 181.89 56.3801C183.35 56.2201 184.64 57.2201 184.77 58.6201V58.6301Z" fill="#2F2421"/>
<path d="M183.16 51.0701C182.85 51.4401 180.75 50.0601 177.9 50.2401C175.05 50.3701 173.03 51.9601 172.7 51.6301C172.54 51.4801 172.83 50.8401 173.71 50.1201C174.57 49.4101 176.07 48.6701 177.85 48.5801C179.63 48.4901 181.16 49.0601 182.06 49.6801C182.97 50.3001 183.31 50.9101 183.16 51.0801V51.0701Z" fill="#2F2421"/>
<path d="M194.74 71.6601C194.72 71.5001 196.47 71.0901 199.33 70.5601C200.06 70.4401 200.74 70.2601 200.83 69.7501C200.97 69.2101 200.62 68.4401 200.22 67.6201C199.43 65.8901 198.61 64.0901 197.74 62.1901C194.29 54.4501 191.75 48.0801 192.06 47.9401C192.37 47.8001 195.42 53.9601 198.87 61.7001C199.7 63.6101 200.5 65.4301 201.26 67.1701C201.58 67.9801 202.11 68.9001 201.8 70.0101C201.63 70.5701 201.12 70.9901 200.66 71.1501C200.2 71.3201 199.79 71.3501 199.43 71.3901C196.54 71.7101 194.75 71.8301 194.73 71.6701L194.74 71.6601Z" fill="#2F2421"/>
<path d="M183.25 39.83C183.01 40.62 180.14 40.42 176.81 41.02C173.47 41.55 170.82 42.69 170.34 42.02C170.12 41.7 170.55 40.94 171.6 40.13C172.64 39.32 174.33 38.5 176.33 38.16C178.33 37.82 180.19 38.04 181.44 38.46C182.7 38.88 183.35 39.46 183.25 39.83Z" fill="#2F2421"/>
<path d="M209.68 40.71C209.21 41.39 207.21 40.83 204.84 40.93C202.47 40.95 200.49 41.62 200 40.97C199.78 40.65 200.06 39.98 200.9 39.32C201.73 38.66 203.14 38.08 204.77 38.03C206.4 37.99 207.84 38.5 208.7 39.11C209.57 39.73 209.89 40.38 209.68 40.71Z" fill="#2F2421"/>
<path d="M212.4 31.17C212.4 31.17 206.83 19.81 201.06 17.42C194.08 14.52 191.58 22.15 185 20.71C178.42 19.27 171.75 16.49 165.42 21.88C158.49 27.78 162.11 31.42 162.13 39.7C162.24 73.24 156.68 83.05 154.03 67.4C153.74 65.69 148.87 64.59 147.74 57.34C146.28 47.94 145.25 36.48 146.98 29.65C148.43 23.89 151.43 19.8 156.97 15.16C165.71 7.84004 178.23 6.97004 186.8 7.34004C195.36 7.71004 212.34 16.56 212.4 31.18V31.17Z" fill="#3F3A39"/>
<path d="M155.19 66.82C154.91 63.96 152.31 61.8301 149.46 62.2701C146.01 62.8001 142.27 64.99 142.91 72.14C144.05 84.82 156.55 81.07 156.54 80.7C156.54 80.45 155.71 72.12 155.19 66.82Z" fill="#F6AB74"/>
<path d="M153.35 76.18C153.29 76.14 153.14 76.35 152.78 76.56C152.43 76.76 151.81 76.93 151.13 76.74C149.75 76.37 148.43 74.34 148.16 72.06C148.02 70.91 148.16 69.79 148.5 68.84C148.8 67.88 149.35 67.18 150.01 67C150.67 66.78 151.18 67.15 151.37 67.49C151.57 67.83 151.51 68.09 151.58 68.11C151.62 68.14 151.83 67.87 151.68 67.36C151.6 67.11 151.43 66.83 151.11 66.61C150.78 66.39 150.32 66.3 149.86 66.4C148.89 66.56 148.09 67.53 147.73 68.57C147.32 69.62 147.13 70.88 147.28 72.17C147.59 74.72 149.11 76.99 150.99 77.36C151.9 77.51 152.62 77.18 152.98 76.84C153.34 76.49 153.39 76.2 153.34 76.18H153.35Z" fill="#F6AB74"/>
<path d="M221.22 7.07999C219.88 5.95999 218 6.24999 216.49 6.80999C215.46 7.19999 214.45 7.68999 213.36 7.85999C210.8 8.25999 208.48 6.87999 206.18 5.97999C203.78 5.03999 201.4 4.03999 198.98 3.13999C193.89 1.24999 188.41 0.269987 182.98 0.049987C178.79 -0.120013 174.58 0.049987 170.47 1.00999C166.17 1.99999 160.64 4.06999 157.98 7.79999C156.55 9.80999 155.9 12.44 155.79 14.89C155.8 14.59 153.89 15.22 153.83 15.24C149.33 17.14 146.38 21.45 145.26 26.09C143.97 31.4 145.33 36.03 147.5 40.87C148.9 44 150.74 47.54 155.02 46.95C157.22 46.65 158.97 45.02 159.74 42.94C160.9 39.79 162.92 36.62 164.44 33.59C166.94 28.63 169.5 24 167.4 20.82C167.9 19.35 172.65 20.16 173.75 20.33C177.58 20.93 180.65 23.08 184.28 24.23C187.39 25.22 190.63 25.75 193.89 25.72C196.49 25.69 199.08 25.34 201.68 25.36C203.45 25.37 205.25 25.56 206.94 26.13C208.63 26.7 210.11 27.66 211.99 27.77C214.3 27.91 216.65 27.21 218.41 25.67C225.94 19.1 224.12 9.47999 221.21 7.04999L221.22 7.07999Z" fill="#2F2421"/>
<path d="M186.63 76.33C186.07 77.73 186.09 79.1 185.91 80.6C185.73 82.1 186.37 83.16 187.3 84.35C188.26 85.58 189.85 86.22 191.42 86.25C191.44 86.25 191.45 86.25 191.47 86.25C194.39 86.29 196.86 84.08 197.32 81.2L197.82 78.05C194.84 77.24 186.86 76.53 186.64 76.33H186.63Z" fill="#F6AB74"/>
<path d="M194.45 85.34C194.43 85.28 194.08 85.36 193.43 85.45C192.79 85.54 191.85 85.65 190.75 85.47C189.65 85.3 188.39 84.72 187.48 83.56C186.57 82.44 186.09 80.79 186.19 79.1C186.24 78.17 186.49 77.28 186.87 76.52L186.48 76.72C189.34 77.15 191.83 77.49 193.62 77.71C195.41 77.92 196.48 78.01 196.5 77.92C196.51 77.83 195.46 77.58 193.7 77.23C191.93 76.88 189.45 76.45 186.6 75.98L186.33 75.94L186.2 76.18C185.74 77.04 185.47 78.04 185.41 79.07C185.3 80.94 185.84 82.77 186.92 84.04C187.98 85.31 189.46 85.92 190.66 86.03C191.88 86.15 192.85 85.94 193.48 85.76C194.12 85.58 194.45 85.4 194.43 85.36L194.45 85.34Z" fill="#2F2421"/>
<path d="M153.77 68.3C153.12 67.02 151.34 66.26 150.17 67.09C148.72 67.9 148.45 69.05 148.05 70.66C147.77 71.8 147.84 73.07 148.48 74.06C149.12 75.04 150.4 75.65 151.52 75.3C152.71 74.93 153.38 73.68 153.77 72.5C154.21 71.13 154.42 69.58 153.77 68.3Z" fill="#691D1B"/>
<path d="M176.35 90.36C172.43 90.36 168.5 89.54 164.92 87.9C157.77 84.63 152.18 78.17 149.98 70.62L152.08 70.01C154.11 76.96 159.24 82.9 165.83 85.92C172.41 88.93 180.27 88.93 186.85 85.92L187.76 87.91C184.18 89.54 180.26 90.36 176.34 90.36H176.35Z" fill="#691D1B"/>
<path d="M180.243 83.9699L190.477 81.9565C192.4 81.5782 194.267 82.8313 194.646 84.7545L195.092 87.021C195.47 88.9442 194.217 90.8112 192.294 91.1895L182.05 93.2048C181.275 93.3573 180.523 92.8529 180.371 92.0778L179.105 85.6411C178.952 84.866 179.457 84.1145 180.232 83.962L180.243 83.9699Z" fill="#691D1B"/>
<path d="M153.53 70.41C154.58 69.32 155.55 68.1 156.07 66.66C156.58 65.23 156.58 63.55 155.77 62.27C155.07 61.15 153.87 60.45 152.65 59.97C151.58 59.55 150.44 59.26 149.29 59.34C148.14 59.43 146.99 59.93 146.31 60.86C145.94 61.37 145.74 62.12 146.14 62.6C146.59 63.15 147.46 63.01 148.15 62.83C149.1 62.59 150.07 62.38 151.04 62.48C152.01 62.58 152.99 63.04 153.51 63.86C154.1 64.81 153.97 66.08 153.47 67.08C152.97 68.08 152.14 68.88 151.33 69.65" fill="#691D1B"/>
<path d="M110.91 137.9C109.81 137.9 94.0701 144.19 89.9301 159.65C85.7901 175.11 74.4701 231.72 74.4701 231.72L62.4801 248.33C62.4801 248.33 66.3601 278.68 88.4401 272.92C88.4401 272.92 103.17 275.49 107.87 260.55C112.56 245.61 121.67 201.06 121.67 201.06L110.91 137.9Z" fill="#6A1C1A"/>
<path d="M156.85 111.98L148.51 124.6L110.91 137.9L121.67 246.93L117.65 304.07C117.11 311.67 123.25 318.08 130.87 317.87L249.04 314.38C252 314.3 253.38 310.56 253.87 306.52C254.31 302.9 253.93 299.22 252.93 295.71L246.7 273.85C247.62 287.45 243.55 192.72 243.39 189.27L252.5 140.52L209.72 123.22L203.1 113L183.85 127.64L156.85 111.98Z" fill="#6A1C1A"/>
<path d="M252.49 140.52C252.49 140.52 261.1 148.08 262.54 153.83C263.98 159.59 294.91 226.63 294.91 226.63L310.28 230.78L314.38 239.29C319.24 249.38 316.6 261.67 307.68 268.44C307.12 268.87 306.57 269.24 306.03 269.56C297.72 274.5 282.8 274.3 274.1 264.04C265.86 254.32 241.75 219.36 241.75 219.36V176.59L252.49 140.52Z" fill="#6A1C1A"/>
<path d="M302.9 233.4L325 220.35L335.65 233.4L333.45 239.72L304.96 260.87C304.96 260.87 299.62 256.95 298.35 249.41C297.02 241.48 302.9 233.4 302.9 233.4Z" fill="#F6AB74"/>
<path d="M295.87 226.66C295.87 226.87 294 226.71 291.22 227.6C288.46 228.45 284.9 230.57 282.04 233.96C279.18 237.37 277.43 241.09 276.2 243.77C274.98 246.47 274.26 248.17 274.11 248.11C273.97 248.06 274.42 246.27 275.46 243.46C276.51 240.68 278.18 236.79 281.18 233.22C284.19 229.65 288.04 227.51 291.01 226.82C294 226.09 295.91 226.56 295.88 226.66H295.87Z" fill="#2F2421"/>
<path d="M324.63 227.59C324.43 227.18 322.79 217.79 329.94 211.67C337.09 205.55 343.52 203.4 347.39 201.67C351.26 199.94 359.33 193.2 360.76 194.83C362.19 196.46 362.8 198.91 360.76 201.87C358.72 204.83 347.03 209.28 348.66 213.03C349.33 214.57 353.01 214.83 353.01 214.83C353.01 214.83 367.1 215.75 373.02 215.24C378.94 214.73 384.25 215.85 383.94 217.89C383.63 219.93 382.51 221.05 377.61 221.46C372.71 221.87 364.75 221.56 364.34 222.68C363.93 223.8 365.56 224.52 368.42 224.31C371.28 224.11 384.75 224.11 385.67 225.64C386.59 227.17 385.87 229.52 384.04 230.03L380.88 231.15C380.88 231.15 382.72 233.7 381.19 235.13C379.66 236.56 376.19 236.05 376.19 236.05L358.33 235.54C358.33 235.54 357.31 236.62 357.82 237.35C358.33 238.09 372.31 237.07 372.42 238.6C372.52 240.13 373.75 240.85 369.56 241.87C365.38 242.89 354.86 242.89 351.08 241.87C347.3 240.85 331.48 240.13 331.48 240.13L324.64 227.57L324.63 227.59Z" fill="#F6AB74"/>
<path d="M81.9 235.73L61.24 218.57L49.37 231.91L50.82 238.44L76.65 262.77C76.65 262.77 82.24 260.07 84.77 252.86C87.34 245.54 81.9 235.73 81.9 235.73Z" fill="#F6AB74"/>
<path d="M60.9901 227.43C61.2401 227.05 63.9601 217.91 57.5701 211C51.1901 204.08 45.0501 201.21 41.4001 199.03C37.7501 196.85 30.5301 189.22 28.9201 190.68C27.3101 192.14 26.4201 194.5 28.1001 197.68C29.7801 200.86 37.8201 204.58 37.5301 208.66C37.3201 211.61 34.2901 211.46 34.2901 211.46C34.2901 211.46 20.1901 210.73 14.3701 209.53C8.55005 208.33 3.15005 208.83 3.21005 210.89C3.28005 212.95 4.26005 214.2 9.08005 215.18C13.9001 216.16 21.8401 216.78 22.1201 217.94C22.3901 219.1 20.6901 219.62 17.8701 219.09C15.0601 218.55 1.67005 216.98 0.580052 218.4C-0.509948 219.81 -0.0699474 222.23 1.69005 222.95L4.70005 224.43C4.70005 224.43 2.58005 226.75 3.93005 228.35C5.28005 229.95 8.79005 229.85 8.79005 229.85L26.5901 231.43C26.5901 231.43 27.4801 232.62 26.8901 233.29C26.3001 233.96 12.5301 231.32 12.2501 232.83C11.9701 234.34 10.6701 234.91 14.7101 236.41C18.7501 237.91 29.1901 239.14 33.0601 238.56C36.9301 237.99 52.7301 239.12 52.7301 239.12L60.9901 227.45V227.43Z" fill="#F6AB74"/>
<path d="M208.65 126.34C208.76 126.46 207.29 127.89 204.94 130.2C202.59 132.51 199.36 135.72 195.95 139.41C195.23 140.2 194.53 140.96 193.85 141.7L193.4 142.2L192.99 141.68C190.34 138.29 188.06 135.27 186.46 133.08C184.86 130.89 183.95 129.53 184.06 129.44C184.17 129.35 185.28 130.56 187.04 132.62C188.79 134.69 191.19 137.62 193.87 140.98L193.01 140.95C193.69 140.2 194.39 139.42 195.11 138.63C198.55 134.92 201.89 131.77 204.39 129.6C206.9 127.43 208.55 126.21 208.65 126.33V126.34Z" fill="#2F2421"/>
<path d="M113.36 166.81C113.44 166.8 113.65 167.62 113.97 169.12C114.3 170.62 114.69 172.8 115.13 175.51C116 180.92 116.93 188.45 117.7 196.77C118.47 205.1 119.03 212.64 119.46 218.1C119.64 220.63 119.8 222.79 119.93 224.57C120.03 226.1 120.04 226.95 119.96 226.96C119.88 226.96 119.72 226.14 119.49 224.62C119.26 223.1 118.97 220.9 118.66 218.18C118.03 212.74 117.34 205.2 116.57 196.88C115.8 188.57 115.01 181.05 114.34 175.63C114.03 173.11 113.76 170.97 113.55 169.2C113.37 167.68 113.3 166.83 113.38 166.82L113.36 166.81Z" fill="#2F2421"/>
<path d="M244.08 163.01C244.16 163.01 244.3 164.04 244.48 165.91C244.67 167.79 244.87 170.51 245.05 173.87C245.42 180.6 245.62 189.9 245.64 200.18C245.64 210.33 245.64 219.52 245.64 226.48C245.64 229.67 245.64 232.34 245.64 234.45C245.64 236.33 245.59 237.37 245.51 237.38C245.43 237.38 245.32 236.35 245.19 234.47C245.06 232.59 244.93 229.87 244.82 226.5C244.59 219.77 244.51 210.46 244.49 200.19C244.47 189.92 244.4 180.63 244.23 173.91C244.15 170.72 244.08 168.05 244.03 165.95C243.98 164.07 243.99 163.02 244.07 163.02L244.08 163.01Z" fill="#2F2421"/>
<path d="M96.3901 259.42C96.2201 259.44 95.9201 257.2 95.2401 253.63C94.5401 250.09 93.4201 245.15 90.7801 240.35C88.1301 235.56 84.2801 232.19 81.1201 230.55C77.9501 228.86 75.6501 228.65 75.6901 228.44C75.6901 228.37 76.2701 228.36 77.3001 228.51C78.3201 228.66 79.7901 229.05 81.4801 229.83C84.8701 231.35 89.0201 234.8 91.7801 239.8C94.5201 244.8 95.5401 249.89 96.0401 253.5C96.5201 257.14 96.5401 259.41 96.4001 259.42H96.3901Z" fill="#2F2421"/>
<path d="M101.76 236.84C101.53 237.11 98.1901 233.68 92.7901 231.88C87.4101 229.99 82.6801 230.66 82.6601 230.31C82.5401 230.05 87.4601 228.82 93.1601 230.8C98.8801 232.72 102.02 236.71 101.76 236.83V236.84Z" fill="#2F2421"/>
<path d="M186.54 314.48C186.54 314.48 186.46 313.84 186.42 312.61C186.39 311.28 186.35 309.5 186.29 307.25C186.2 302.49 186.06 295.79 185.9 287.56C185.51 270.83 184.97 247.91 184.38 222.58C183.8 197.2 183.45 174.21 183.48 157.57C183.48 149.25 183.56 142.52 183.67 137.87C183.74 135.63 183.79 133.84 183.83 132.51C183.88 131.29 183.92 130.64 183.96 130.64C184 130.64 184.03 131.28 184.06 132.51C184.07 133.84 184.09 135.62 184.12 137.87C184.16 142.63 184.22 149.33 184.29 157.57C184.47 174.2 184.94 197.18 185.52 222.56C186.1 247.93 186.58 270.91 186.71 287.55C186.79 295.87 186.78 302.6 186.74 307.25C186.7 309.5 186.67 311.28 186.65 312.61C186.62 313.83 186.58 314.48 186.54 314.48Z" fill="#2F2421"/>
<path d="M80.8901 235.02C80.9801 234.9 82.5201 236.15 83.9101 238.91C84.6001 240.28 85.2801 242 85.6701 244.01C86.0501 246.04 86.0601 248.3 85.7601 250.63C85.4401 252.95 84.8501 255.16 83.8201 256.98C82.8001 258.79 81.4701 260.15 80.2001 261.05C77.6101 262.87 75.5401 262.83 75.5601 262.72C75.5001 262.52 77.4301 262.26 79.7101 260.4C80.8301 259.48 82.0001 258.16 82.8901 256.47C83.7801 254.79 84.3201 252.69 84.6201 250.47C84.9101 248.25 84.9301 246.08 84.6201 244.19C84.3101 242.28 83.7401 240.6 83.1601 239.25C82.0101 236.51 80.7501 235.13 80.8701 235.02H80.8901Z" fill="#2F2421"/>
<path d="M309.1 263.24C309.07 263.31 308.57 263.19 307.72 262.83C306.87 262.47 305.68 261.82 304.36 260.81C301.73 258.82 298.62 254.99 297.63 249.89C296.66 244.78 298.12 240.07 299.82 237.25C300.67 235.81 301.53 234.77 302.19 234.12C302.85 233.47 303.27 233.17 303.32 233.22C303.47 233.36 301.98 234.77 300.53 237.63C299.08 240.44 297.84 244.9 298.75 249.67C299.68 254.44 302.49 258.12 304.88 260.18C307.29 262.29 309.2 263.05 309.11 263.24H309.1Z" fill="#2F2421"/>
<path d="M351.51 208.13C351.64 208.26 350.68 209.19 349.46 210.81C348.86 211.63 348.29 212.66 348.05 213.95C347.78 215.24 347.8 216.75 347.58 218.39C347.14 221.79 345.06 224.33 343.32 225.58C341.54 226.86 340.16 227.06 340.13 226.94C340.06 226.76 341.29 226.29 342.81 224.95C344.3 223.62 346.06 221.28 346.45 218.23C346.66 216.71 346.67 215.14 347.02 213.72C347.35 212.28 348.11 211.11 348.83 210.31C350.31 208.72 351.43 208.05 351.51 208.14V208.13Z" fill="#F6AB74"/>
<path d="M29.3401 225.7C29.3401 226.01 23.7701 226.3 16.9101 225.97C10.0401 225.65 4.53006 224.83 4.56006 224.52C4.59006 224.2 10.1301 224.51 16.9601 224.83C23.7901 225.16 29.3301 225.38 29.3401 225.7Z" fill="#F6AB74"/>
<path d="M41.99 224.76C41.96 224.88 40.66 224.66 39.09 223.33C37.55 222.05 35.83 219.44 35.95 216.2C36.02 214.61 36.44 213.22 36.72 211.99C37.02 210.76 37.18 209.67 37.14 208.74C37.1 206.87 36.3 205.91 36.45 205.8C36.52 205.67 37.67 206.57 37.95 208.67C38.1 209.69 38.01 210.93 37.75 212.21C37.51 213.49 37.15 214.85 37.09 216.25C36.98 219.05 38.38 221.44 39.65 222.75C40.94 224.11 42.07 224.59 41.99 224.77V224.76Z" fill="#F6AB74"/>
<path d="M354.69 228.7C354.72 228.39 360.65 228.62 367.94 229.23C375.23 229.84 381.12 230.58 381.09 230.9C381.06 231.21 375.13 230.98 367.84 230.37C360.55 229.76 354.66 229.02 354.69 228.7Z" fill="#F6AB74"/>
<path d="M182.7 128.36C182.84 128.43 181.87 130.89 180.18 134.83C179.74 135.84 179.27 136.91 178.78 138.04C178.22 139.21 177.85 140.39 177.02 141.76C176.62 142.42 175.67 143.1 174.67 142.9C173.72 142.73 173.08 142.17 172.46 141.77C171.18 140.9 169.87 139.99 168.53 139.07C163.15 135.36 158.31 131.95 154.84 129.43C151.37 126.91 149.27 125.29 149.36 125.16C149.45 125.03 151.71 126.42 155.3 128.76C158.88 131.11 163.79 134.41 169.17 138.12C170.51 139.05 171.82 139.96 173.09 140.84C173.73 141.29 174.31 141.73 174.85 141.82C175.36 141.92 175.81 141.65 176.17 141.14C177.44 138.83 178.49 136.35 179.44 134.48C181.32 130.63 182.55 128.28 182.69 128.34L182.7 128.36Z" fill="#2F2421"/>
<path d="M193.26 59.7201C193.19 59.7201 193.26 58.5401 192.76 56.5101C192.25 54.5201 190.93 51.6001 187.93 49.3301C186.45 48.2201 184.58 47.2901 182.43 46.9101C180.29 46.5501 177.88 46.6201 175.59 47.4901C174.44 47.8901 173.32 48.5001 172.3 49.2601C171.27 50.0101 170.33 50.9401 169.55 52.0201C167.95 54.1501 167.05 56.8801 167.02 59.7001C167.05 62.5201 167.95 65.2601 169.55 67.3801C170.32 68.4601 171.26 69.3901 172.3 70.1401C173.32 70.9101 174.44 71.5101 175.59 71.9201C177.88 72.7901 180.29 72.8601 182.43 72.5001C184.58 72.1201 186.45 71.1901 187.93 70.0801C190.92 67.8201 192.25 64.8901 192.75 62.9001C193.26 60.8701 193.18 59.6901 193.25 59.6901C193.25 59.6901 193.26 59.7601 193.26 59.9001C193.26 60.0701 193.26 60.2801 193.26 60.5301C193.26 60.8101 193.25 61.1501 193.18 61.5501C193.13 61.9501 193.08 62.4201 192.93 62.9301C192.71 63.9701 192.25 65.2001 191.5 66.5001C190.74 67.8001 189.64 69.1701 188.13 70.3301C186.62 71.4801 184.71 72.4701 182.5 72.8701C180.3 73.2601 177.81 73.2001 175.44 72.3101C174.24 71.9001 173.09 71.2801 172.03 70.4901C170.96 69.7201 169.98 68.7501 169.18 67.6401C167.52 65.4401 166.58 62.6001 166.55 59.6801C166.58 56.7601 167.52 53.9201 169.18 51.7201C169.98 50.6001 170.96 49.6401 172.03 48.8701C173.09 48.0801 174.25 47.4601 175.44 47.0501C177.82 46.1601 180.3 46.1001 182.5 46.4901C184.71 46.9001 186.62 47.8801 188.13 49.0301C189.64 50.1901 190.74 51.5601 191.5 52.8601C192.25 54.1701 192.72 55.4001 192.93 56.4301C193.07 56.9401 193.12 57.4101 193.18 57.8101C193.25 58.2101 193.26 58.5601 193.26 58.8301C193.26 59.0801 193.26 59.2901 193.26 59.4601C193.26 59.6001 193.26 59.6701 193.25 59.6701L193.26 59.7201Z" fill="#100808"/>
<path d="M224.87 58.48C224.8 58.48 224.87 57.33 224.38 55.35C223.88 53.41 222.59 50.56 219.68 48.36C218.24 47.28 216.42 46.37 214.32 46C212.24 45.65 209.89 45.72 207.66 46.57C206.54 46.96 205.45 47.55 204.46 48.3C203.45 49.03 202.54 49.94 201.79 50.99C200.23 53.06 199.36 55.73 199.33 58.47C199.35 61.22 200.23 63.88 201.79 65.95C202.54 67 203.46 67.91 204.47 68.64C205.47 69.39 206.55 69.98 207.67 70.37C209.9 71.22 212.25 71.29 214.33 70.94C216.43 70.57 218.24 69.66 219.69 68.58C222.6 66.38 223.9 63.53 224.39 61.59C224.89 59.61 224.81 58.46 224.88 58.46C224.9 58.46 224.9 58.74 224.88 59.28C224.88 59.55 224.87 59.89 224.8 60.28C224.75 60.67 224.7 61.13 224.56 61.63C224.11 63.61 222.85 66.55 219.88 68.84C218.41 69.96 216.55 70.92 214.39 71.32C212.25 71.7 209.82 71.65 207.5 70.78C206.33 70.38 205.21 69.77 204.17 69C203.12 68.25 202.17 67.31 201.39 66.22C199.77 64.07 198.85 61.31 198.83 58.46C198.85 55.61 199.77 52.85 201.39 50.7C202.17 49.61 203.12 48.67 204.17 47.92C205.2 47.15 206.33 46.54 207.5 46.14C209.82 45.27 212.24 45.21 214.38 45.6C216.54 46 218.4 46.95 219.87 48.08C222.83 50.38 224.1 53.32 224.55 55.29C224.69 55.79 224.74 56.24 224.79 56.64C224.86 57.03 224.87 57.37 224.87 57.64C224.88 58.18 224.87 58.46 224.87 58.46V58.48Z" fill="#100808"/>
<path d="M199.08 55.5601C199.03 55.6101 198.72 55.3601 198.16 55.0901C197.6 54.8201 196.77 54.5601 195.84 54.5801C194.9 54.5901 194.08 54.8801 193.54 55.1701C192.99 55.4601 192.7 55.7301 192.64 55.6801C192.6 55.6401 192.81 55.2701 193.36 54.8801C193.9 54.4901 194.79 54.1101 195.83 54.1001C196.87 54.0801 197.77 54.4301 198.33 54.7901C198.89 55.1601 199.12 55.5201 199.08 55.5601Z" fill="#100808"/>
<path d="M167.6 57.8401C167.68 57.9501 163.22 56.4101 159.95 58.8501C156.68 61.2901 150.75 59.4301 150.68 59.3201C150.6 59.2101 156.16 60.7301 159.43 58.2801C162.7 55.8401 167.53 57.7301 167.61 57.8401H167.6Z" fill="#100808"/>
<g opacity="0.2">
<path d="M187.86 82.79C188.15 85.44 187.36 88.79 185.22 90.56" stroke="#D8CD7F" stroke-width="0.25" stroke-miterlimit="10"/>
<path d="M189.2 82.79C189.49 85.44 188.7 88.79 186.56 90.56" stroke="#D8CD7F" stroke-width="0.25" stroke-miterlimit="10"/>
<path d="M190.41 82.79C190.7 85.44 189.91 88.79 187.77 90.56" stroke="#D8CD7F" stroke-width="0.25" stroke-miterlimit="10"/>
<path d="M191.76 82.79C192.05 85.44 191.26 88.79 189.12 90.56" stroke="#D8CD7F" stroke-width="0.25" stroke-miterlimit="10"/>
<path d="M192.95 82.79C193.24 85.44 192.45 88.79 190.31 90.56" stroke="#D8CD7F" stroke-width="0.25" stroke-miterlimit="10"/>
</g>
<path d="M230.5 177.87H201.79V180.96H230.5V177.87Z" fill="#E0C6BA"/>
<g opacity="0.2">
<path d="M186.61 89.21C189.02 88.07 192.44 87.71 194.82 89.15" stroke="#D8CD7F" stroke-width="0.25" stroke-miterlimit="10"/>
<path d="M186.16 87.9399C188.57 86.7999 191.99 86.4399 194.37 87.8799" stroke="#D8CD7F" stroke-width="0.25" stroke-miterlimit="10"/>
<path d="M185.77 86.8C188.18 85.66 191.6 85.3 193.98 86.74" stroke="#D8CD7F" stroke-width="0.25" stroke-miterlimit="10"/>
<path d="M185.32 85.52C187.73 84.38 191.15 84.02 193.53 85.46" stroke="#D8CD7F" stroke-width="0.25" stroke-miterlimit="10"/>
<path d="M184.93 84.4C187.34 83.26 190.76 82.9 193.14 84.34" stroke="#D8CD7F" stroke-width="0.25" stroke-miterlimit="10"/>
</g>
<path d="M230.5 177.87V204.89C230.5 207.36 228.5 209.36 226.03 209.36H206.25C203.78 209.36 201.78 207.36 201.78 204.89V177.87L208.72 178.7C213.16 179.23 217.64 179.27 222.08 178.81C222.45 178.77 222.83 178.72 223.2 178.66L230.5 177.87Z" fill="#F9E9E1"/>
<path d="M226.26 185.79C226.26 185.79 226.29 185.76 226.26 185.75L216.68 182.15C216.35 182.03 215.98 182.03 215.65 182.15L206.07 185.75C206.07 185.75 206.05 185.79 206.07 185.79H226.24H226.26Z" fill="#E4C582"/>
<path d="M226.38 187.61V185.93C226.38 185.86 226.32 185.79 226.24 185.79H206.06C205.98 185.79 205.91 185.86 205.91 185.94V187.61H226.37H226.38Z" fill="#D9AD70"/>
<path d="M209.93 203.56H209.22L208.56 187.62H205.92L205.26 203.56H204.55C204.48 203.56 204.42 203.62 204.42 203.69V205.04C204.42 205.11 204.48 205.17 204.55 205.17H209.94C210.01 205.17 210.07 205.11 210.07 205.04V203.69C210.07 203.62 210.01 203.56 209.94 203.56H209.93Z" fill="#6A1C1A"/>
<path d="M218.87 203.56H218.12L217.46 187.62H214.82L214.16 203.56H213.48C213.41 203.56 213.35 203.62 213.35 203.69V205.04C213.35 205.11 213.41 205.17 213.48 205.17H218.87C218.94 205.17 219 205.11 219 205.04V203.69C219 203.62 218.94 203.56 218.87 203.56Z" fill="#6A1C1A"/>
<path d="M227.75 203.56H227.04L226.38 187.62H223.74L223.08 203.56H222.37C222.3 203.56 222.24 203.62 222.24 203.69V205.04C222.24 205.11 222.3 205.17 222.37 205.17H227.76C227.83 205.17 227.89 205.11 227.89 205.04V203.69C227.89 203.62 227.83 203.56 227.76 203.56H227.75Z" fill="#6A1C1A"/>
</g>
<defs>
<clipPath id="clip0_548_520">
<rect width="386.07" height="317.87" fill="white"/>
</clipPath>
</defs>
</svg>
