<svg width="120" height="127" viewBox="0 0 120 127" fill="none" xmlns="http://www.w3.org/2000/svg">
<path d="M58.6204 69.686C67.9495 69.686 75.5122 62.1233 75.5122 52.7942C75.5122 43.4651 67.9495 35.9023 58.6204 35.9023C49.2913 35.9023 41.7285 43.4651 41.7285 52.7942C41.7285 62.1233 49.2913 69.686 58.6204 69.686Z" fill="#6A1C1A"/>
<path d="M83.0452 86.8769V94.4785H34.1953V86.8769C34.1953 79.0946 40.5009 72.7952 48.277 72.7952H48.4328C51.2616 74.9448 54.7945 76.2097 58.6203 76.2097C62.446 76.2097 65.9727 74.9386 68.8077 72.7952H68.9635C76.7458 72.7952 83.0452 79.1008 83.0452 86.8769Z" fill="#6A1C1A"/>
<path d="M32.9237 77.2564C36.3787 77.2564 39.1795 74.4556 39.1795 71.0007C39.1795 67.5457 36.3787 64.7449 32.9237 64.7449C29.4688 64.7449 26.668 67.5457 26.668 71.0007C26.668 74.4556 29.4688 77.2564 32.9237 77.2564Z" fill="#6A1C1A"/>
<path d="M41.9651 83.6244V86.4407H23.877V83.6244C23.877 80.7457 26.2135 78.4092 29.0922 78.4092H29.1483C30.195 79.2067 31.5035 79.674 32.9179 79.674C34.3323 79.674 35.6408 79.2067 36.6876 78.4092H36.7437C39.6223 78.4092 41.9589 80.7457 41.9589 83.6244H41.9651Z" fill="#6A1C1A"/>
<path d="M84.3163 77.2564C87.7713 77.2564 90.5721 74.4556 90.5721 71.0007C90.5721 67.5457 87.7713 64.7449 84.3163 64.7449C80.8614 64.7449 78.0605 67.5457 78.0605 71.0007C78.0605 74.4556 80.8614 77.2564 84.3163 77.2564Z" fill="#6A1C1A"/>
<path d="M93.3636 83.6244V86.4407H75.2754V83.6244C75.2754 80.7457 77.612 78.4092 80.4906 78.4092H80.5467C81.5935 79.2067 82.902 79.674 84.3164 79.674C85.7308 79.674 87.0392 79.2067 88.086 78.4092H88.1421C91.0208 78.4092 93.3573 80.7457 93.3573 83.6244H93.3636Z" fill="#6A1C1A"/>
<path d="M6.36173 73.8106C6.29319 73.3994 6.23088 72.9881 6.1748 72.5769" stroke="#6A1B1B" stroke-width="2" stroke-miterlimit="10" stroke-linecap="round"/>
<path d="M5.88214 70.0536C5.73883 68.4522 5.66406 66.826 5.66406 65.1873C5.66406 60.3334 6.3183 55.6354 7.53955 51.1741" stroke="#6A1B1B" stroke-width="2" stroke-miterlimit="10" stroke-linecap="round"/>
<path d="M7.88867 49.9528C8.00706 49.554 8.13168 49.1552 8.26252 48.7627" stroke="#6A1B1B" stroke-width="2" stroke-miterlimit="10" stroke-linecap="round"/>
<path d="M50.7558 117.57C50.3446 117.508 49.9333 117.445 49.5283 117.371" stroke="#6A1B1B" stroke-width="2" stroke-miterlimit="10" stroke-linecap="round"/>
<path d="M46.9427 116.853C33.3033 113.782 21.6516 105.451 14.2432 94.0984" stroke="#6A1B1B" stroke-width="2" stroke-miterlimit="10" stroke-linecap="round"/>
<path d="M13.5392 92.9893C13.3212 92.6341 13.1093 92.279 12.8975 91.9238" stroke="#6A1B1B" stroke-width="2" stroke-miterlimit="10" stroke-linecap="round"/>
<path d="M105.326 90.1792C105.127 90.5468 104.927 90.9082 104.722 91.2696" stroke="#6A1B1B" stroke-width="2" stroke-miterlimit="10" stroke-linecap="round"/>
<path d="M103.439 93.4194C96.5535 104.33 85.7991 112.548 73.1006 116.15" stroke="#6A1B1B" stroke-width="2" stroke-miterlimit="10" stroke-linecap="round"/>
<path d="M71.8914 116.473C71.4926 116.579 71.0876 116.679 70.6826 116.772" stroke="#6A1B1B" stroke-width="2" stroke-miterlimit="10" stroke-linecap="round"/>
<path d="M109.868 51.7783C109.974 52.1771 110.074 52.5821 110.167 52.9871" stroke="#6A1B1B" stroke-width="2" stroke-miterlimit="10" stroke-linecap="round"/>
<path d="M110.74 55.7534C111.289 58.8128 111.575 61.9656 111.575 65.1869C111.575 65.324 111.575 65.4611 111.575 65.6044" stroke="#6A1B1B" stroke-width="2" stroke-miterlimit="10" stroke-linecap="round"/>
<path d="M111.55 67.019C111.538 67.4365 111.519 67.8477 111.494 68.2652" stroke="#6A1B1B" stroke-width="2" stroke-miterlimit="10" stroke-linecap="round"/>
<path d="M66.1719 12.7671C66.5831 12.8232 66.9943 12.8917 67.4056 12.9602" stroke="#6A1B1B" stroke-width="2" stroke-miterlimit="10" stroke-linecap="round"/>
<path d="M69.6865 13.3901C80.1917 15.6208 89.5443 20.9731 96.7347 28.4252" stroke="#6A1B1B" stroke-width="2" stroke-miterlimit="10" stroke-linecap="round"/>
<path d="M97.5322 29.2666C97.8126 29.5719 98.093 29.8772 98.3672 30.1888" stroke="#6A1B1B" stroke-width="2" stroke-miterlimit="10" stroke-linecap="round"/>
<path d="M22.2441 26.7055C22.5432 26.4189 22.8485 26.1385 23.1601 25.8582" stroke="#6A1B1B" stroke-width="2" stroke-miterlimit="10" stroke-linecap="round"/>
<path d="M25.1357 24.1569C31.4538 18.9977 38.9807 15.2654 47.2303 13.4585" stroke="#6A1B1B" stroke-width="2" stroke-miterlimit="10" stroke-linecap="round"/>
<path d="M48.5137 13.197C48.9187 13.116 49.3299 13.0412 49.7412 12.9727" stroke="#6A1B1B" stroke-width="2" stroke-miterlimit="10" stroke-linecap="round"/>
<path d="M68.4961 0.00623085C68.4088 0.00623085 68.3154 0.00623085 68.2282 0.0186926V0.00623085H48.738C46.6569 0.00623085 44.9746 1.68856 44.9746 3.76967C44.9746 5.85077 46.6569 7.5331 48.738 7.5331C49.2241 7.5331 49.6914 7.43964 50.1275 7.25894C51.5108 10.5925 53.81 13.0349 56.5266 13.8263V18.2813C52.0902 18.867 48.7443 21.3967 48.7443 24.4436H68.2344C68.2344 21.3967 64.8884 18.8608 60.4458 18.2813V13.8325C63.1874 13.0225 65.5115 10.5426 66.8885 7.15925C67.3745 7.40225 67.9228 7.52687 68.5023 7.52687C70.5834 7.52687 72.2657 5.83831 72.2657 3.76344C72.2657 1.68856 70.5834 0 68.5023 0L68.4961 0.00623085ZM48.7443 6.40532C47.2925 6.40532 46.1149 5.22769 46.1149 3.7759C46.1149 2.32411 47.2925 1.14648 48.7443 1.14648H48.7754C48.8751 2.95342 49.2054 4.66068 49.735 6.21216C49.4359 6.34301 49.0932 6.41155 48.7443 6.41155V6.40532ZM68.4961 6.40532C68.0599 6.40532 67.6425 6.29316 67.2748 6.10624C67.7795 4.59214 68.1035 2.92227 68.1908 1.16517C68.2905 1.15271 68.3902 1.14648 68.4898 1.14648C69.9416 1.14648 71.1193 2.32411 71.1193 3.7759C71.1193 5.22769 69.9416 6.40532 68.4898 6.40532H68.4961Z" fill="#6A1B1B"/>
<path d="M16.287 46.9122H9.98136C9.71966 46.9122 9.50781 46.6941 9.50781 46.42C9.50781 46.1458 9.71966 45.9277 9.98136 45.9277H16.287C16.5487 45.9277 16.7605 46.1458 16.7605 46.42C16.7605 46.6941 16.5487 46.9122 16.287 46.9122Z" fill="#6A1B1B"/>
<path d="M16.287 47.7598H9.98759C9.72589 47.7598 9.50781 47.9778 9.50781 48.252C9.50781 50.3331 11.1341 52.0217 13.1342 52.0217C15.1343 52.0217 16.7605 50.3331 16.7605 48.252C16.7605 47.9778 16.5424 47.7598 16.2807 47.7598H16.287Z" fill="#6A1B1B"/>
<path d="M19.87 26.556C17.9197 24.6306 15.3588 23.6337 12.6546 23.7708C7.61388 24.02 3.44544 28.4875 3.37067 33.7464C3.30836 37.3852 5.1527 40.7872 8.1622 42.6378C8.98467 43.1363 9.46445 44.0024 9.46445 44.9619C9.46445 45.0741 9.50806 45.1925 9.58906 45.2735C9.67006 45.3482 9.77599 45.3981 9.88814 45.3981H11.3898C11.3898 45.0741 11.3898 44.7501 11.396 44.4198C11.4209 42.507 11.4396 40.5567 10.8415 38.6127C10.6857 38.1142 10.505 37.6656 10.3056 37.2917L10.2433 37.1796L10.1187 37.2045C9.85699 37.2481 9.60776 37.2793 9.36475 37.2793C8.8289 37.2793 8.37405 37.1546 8.0625 36.9303C7.73227 36.6936 7.60765 36.3571 7.71981 36.0019C7.84442 35.5658 8.21204 35.2979 8.66067 35.2979C9.24013 35.2979 9.87568 35.734 10.3991 36.4755L10.4738 36.5814L10.5922 36.544C11.0907 36.3696 11.5767 36.0954 12.0316 35.7465C12.2808 35.5533 12.5051 35.3352 12.6983 35.1109L12.8042 35.005L12.7232 34.8866C12.1188 34.0081 11.8882 33.0361 12.0939 32.3631C12.2496 31.8958 12.636 31.6092 13.122 31.6092C13.608 31.6092 13.9943 31.8958 14.15 32.3631C14.3619 33.0361 14.1251 34.0081 13.5207 34.8866L13.4397 35.005L13.5457 35.1109C13.7388 35.3352 13.9631 35.5533 14.2124 35.7465C14.661 36.0954 15.1532 36.3758 15.6517 36.544L15.7701 36.5814L15.8448 36.4755C16.3682 35.7278 17.0038 35.2979 17.5832 35.2979C18.0319 35.2979 18.3995 35.5658 18.5241 36.0019C18.6363 36.3509 18.5116 36.6873 18.1814 36.9303C17.8761 37.1546 17.415 37.2793 16.8792 37.2793C16.6299 37.2793 16.3807 37.2481 16.1252 37.2045L16.0006 37.1796L15.9383 37.2917C15.7389 37.6656 15.5582 38.1142 15.4024 38.6127C14.8043 40.5567 14.8292 42.5007 14.8479 44.3949C14.8541 44.7563 14.8604 45.0803 14.8604 45.4043H16.3558C16.5863 45.4043 16.7795 45.2049 16.7795 44.9619C16.7795 44.0211 17.2717 43.1425 18.0693 42.644C21.0351 40.8246 22.8795 37.4662 22.8795 33.9084C22.8795 31.0983 21.8015 28.4938 19.845 26.556H19.87ZM17.9135 36.5129C17.9633 36.4693 18.1316 36.3571 18.0693 36.1639C17.9945 35.9459 17.8325 35.8275 17.5957 35.8275C17.2717 35.8275 16.8792 36.058 16.5365 36.4568L16.281 36.7309L16.6486 36.7559C16.7234 36.7621 16.7982 36.7621 16.8667 36.7621C17.3091 36.7621 17.6892 36.6749 17.9135 36.5129ZM14.9476 38.4631C15.0909 38.0083 15.2467 37.5908 15.4336 37.2232L15.5146 37.0425L15.3277 36.9677C14.8292 36.7746 14.3494 36.5066 13.9257 36.1639C13.689 35.977 13.4522 35.7652 13.259 35.5596L13.1344 35.4225L13.0098 35.5596C12.8166 35.7714 12.5923 35.9708 12.3431 36.1639C11.9069 36.5066 11.4396 36.7746 10.9412 36.9677L10.7542 37.0425L10.8352 37.2232C11.0222 37.5908 11.1779 38.0083 11.3212 38.4631C11.9506 40.4944 11.9256 42.5755 11.8945 44.4136V45.4043H14.3744V44.4198C14.3432 42.5755 14.312 40.4944 14.9476 38.4631ZM13.284 34.3383C13.6827 33.6654 13.826 32.98 13.689 32.5314C13.608 32.2634 13.4148 32.1263 13.1344 32.1263C12.854 32.1263 12.6609 32.2634 12.5799 32.5314C12.4366 32.98 12.5861 33.6654 12.9849 34.3383L13.1344 34.5938L13.284 34.3383ZM8.19958 36.1702C8.14974 36.3571 8.30551 36.4693 8.35535 36.5129C8.57966 36.6686 8.95352 36.7621 9.39591 36.7621C9.46445 36.7621 9.54545 36.7621 9.62022 36.7559L9.98784 36.7309L9.73237 36.4568C9.38968 36.058 8.9909 35.8275 8.67313 35.8275C8.44259 35.8275 8.26812 35.9459 8.19958 36.1702Z" fill="#6A1B1B"/>
<g opacity="0.9">
<path d="M19.87 26.556C17.9197 24.6306 15.3588 23.6337 12.6546 23.7708C7.61388 24.02 3.44544 28.4875 3.37067 33.7464C3.30836 37.3852 5.1527 40.7872 8.1622 42.6378C8.98467 43.1363 9.46445 44.0024 9.46445 44.9619C9.46445 45.0741 9.50806 45.1925 9.58906 45.2735C9.67006 45.3482 9.77599 45.3981 9.88814 45.3981H11.3898C11.3898 45.0741 11.3898 44.7501 11.396 44.4198C11.4209 42.507 11.4396 40.5567 10.8415 38.6127C10.6857 38.1142 10.505 37.6656 10.3056 37.2917L10.2433 37.1796L10.1187 37.2045C9.85699 37.2481 9.60776 37.2793 9.36475 37.2793C8.8289 37.2793 8.37405 37.1546 8.0625 36.9303C7.73227 36.6936 7.60765 36.3571 7.71981 36.0019C7.84442 35.5658 8.21204 35.2979 8.66067 35.2979C9.24013 35.2979 9.87568 35.734 10.3991 36.4755L10.4738 36.5814L10.5922 36.544C11.0907 36.3696 11.5767 36.0954 12.0316 35.7465C12.2808 35.5533 12.5051 35.3352 12.6983 35.1109L12.8042 35.005L12.7232 34.8866C12.1188 34.0081 11.8882 33.0361 12.0939 32.3631C12.2496 31.8958 12.636 31.6092 13.122 31.6092C13.608 31.6092 13.9943 31.8958 14.15 32.3631C14.3619 33.0361 14.1251 34.0081 13.5207 34.8866L13.4397 35.005L13.5457 35.1109C13.7388 35.3352 13.9631 35.5533 14.2124 35.7465C14.661 36.0954 15.1532 36.3758 15.6517 36.544L15.7701 36.5814L15.8448 36.4755C16.3682 35.7278 17.0038 35.2979 17.5832 35.2979C18.0319 35.2979 18.3995 35.5658 18.5241 36.0019C18.6363 36.3509 18.5116 36.6873 18.1814 36.9303C17.8761 37.1546 17.415 37.2793 16.8792 37.2793C16.6299 37.2793 16.3807 37.2481 16.1252 37.2045L16.0006 37.1796L15.9383 37.2917C15.7389 37.6656 15.5582 38.1142 15.4024 38.6127C14.8043 40.5567 14.8292 42.5007 14.8479 44.3949C14.8541 44.7563 14.8604 45.0803 14.8604 45.4043H16.3558C16.5863 45.4043 16.7795 45.2049 16.7795 44.9619C16.7795 44.0211 17.2717 43.1425 18.0693 42.644C21.0351 40.8246 22.8795 37.4662 22.8795 33.9084C22.8795 31.0983 21.8015 28.4938 19.845 26.556H19.87ZM17.9135 36.5129C17.9633 36.4693 18.1316 36.3571 18.0693 36.1639C17.9945 35.9459 17.8325 35.8275 17.5957 35.8275C17.2717 35.8275 16.8792 36.058 16.5365 36.4568L16.281 36.7309L16.6486 36.7559C16.7234 36.7621 16.7982 36.7621 16.8667 36.7621C17.3091 36.7621 17.6892 36.6749 17.9135 36.5129ZM14.9476 38.4631C15.0909 38.0083 15.2467 37.5908 15.4336 37.2232L15.5146 37.0425L15.3277 36.9677C14.8292 36.7746 14.3494 36.5066 13.9257 36.1639C13.689 35.977 13.4522 35.7652 13.259 35.5596L13.1344 35.4225L13.0098 35.5596C12.8166 35.7714 12.5923 35.9708 12.3431 36.1639C11.9069 36.5066 11.4396 36.7746 10.9412 36.9677L10.7542 37.0425L10.8352 37.2232C11.0222 37.5908 11.1779 38.0083 11.3212 38.4631C11.9506 40.4944 11.9256 42.5755 11.8945 44.4136V45.4043H14.3744V44.4198C14.3432 42.5755 14.312 40.4944 14.9476 38.4631ZM13.284 34.3383C13.6827 33.6654 13.826 32.98 13.689 32.5314C13.608 32.2634 13.4148 32.1263 13.1344 32.1263C12.854 32.1263 12.6609 32.2634 12.5799 32.5314C12.4366 32.98 12.5861 33.6654 12.9849 34.3383L13.1344 34.5938L13.284 34.3383ZM8.19958 36.1702C8.14974 36.3571 8.30551 36.4693 8.35535 36.5129C8.57966 36.6686 8.95352 36.7621 9.39591 36.7621C9.46445 36.7621 9.54545 36.7621 9.62022 36.7559L9.98784 36.7309L9.73237 36.4568C9.38968 36.058 8.9909 35.8275 8.67313 35.8275C8.44259 35.8275 8.26812 35.9459 8.19958 36.1702Z" fill="#6A1B1B"/>
</g>
<path d="M103.14 38.9739C101.451 42.1578 98.691 44.4072 95.5319 45.5038C93.8745 42.3074 93.7624 38.3757 95.5818 34.955C97.4012 31.5342 100.716 29.422 104.299 29.0107C105.146 32.2446 104.835 35.7899 103.14 38.9739Z" fill="#6A1B1B"/>
<path d="M106.829 40.9367C105.016 44.3512 104.636 48.1458 105.483 51.635C103.72 51.6163 101.944 51.1926 100.28 50.3079C98.6166 49.4231 97.2707 48.1894 96.2676 46.7376C99.6322 45.4852 102.567 43.0489 104.38 39.6344C106.193 36.2199 106.573 32.4253 105.726 28.936C107.489 28.9547 109.265 29.3784 110.929 30.2632C112.592 31.148 113.938 32.3817 114.941 33.8335C111.577 35.0859 108.642 37.5222 106.829 40.9367Z" fill="#6A1B1B"/>
<path d="M115.627 45.6098C113.807 49.0305 110.493 51.1365 106.916 51.554C106.056 48.3202 106.38 44.7748 108.069 41.5909C109.757 38.4069 112.524 36.1575 115.677 35.0547C117.334 38.2511 117.446 42.1828 115.627 45.6035V45.6098Z" fill="#6A1B1B"/>
<path d="M113.521 76.2471L113.309 77.9979L117.976 78.5587C118.1 78.5712 118.194 78.6896 118.181 78.8204C118.169 78.9513 118.051 79.0385 117.92 79.026L113.253 78.4653L113.135 79.4248L117.801 79.9856C117.926 79.998 118.019 80.1164 118.007 80.2473C117.995 80.3781 117.876 80.4654 117.745 80.4529L113.078 79.8921L112.96 80.8517L117.627 81.4124C117.752 81.4249 117.845 81.5433 117.833 81.6741C117.82 81.805 117.702 81.8922 117.571 81.8798L112.904 81.319L112.786 82.2785L117.452 82.8393C117.577 82.8518 117.671 82.9702 117.658 83.101C117.646 83.2319 117.527 83.3191 117.396 83.3066L112.729 82.7458L112.611 83.7054L117.278 84.2662C117.403 84.2786 117.496 84.397 117.484 84.5279C117.471 84.6587 117.353 84.746 117.222 84.7335L112.555 84.1727L112.437 85.1323L117.104 85.693C117.228 85.7055 117.322 85.8239 117.309 85.9547C117.297 86.0856 117.178 86.1728 117.047 86.1604L112.381 85.5996L112.331 86.0108L107.483 85.4251L106.947 89.8428L118.281 91.2136L119.988 77.0571L113.508 76.272L113.521 76.2471ZM111.838 88.1792L109.022 87.8365C108.898 87.824 108.804 87.7056 108.817 87.5748C108.829 87.4439 108.947 87.3567 109.078 87.3691L111.895 87.7118C112.019 87.7243 112.113 87.8427 112.1 87.9735C112.088 88.1044 111.969 88.1916 111.838 88.1792ZM116.748 88.7711L113.938 88.4284C113.814 88.4159 113.72 88.2975 113.733 88.1667C113.745 88.0358 113.864 87.9486 113.994 87.9611L116.804 88.3038C116.929 88.3162 117.023 88.4346 117.01 88.5655C116.998 88.6963 116.879 88.7836 116.748 88.7711Z" fill="#6A1C1A"/>
<g style="mix-blend-mode:multiply" opacity="0.3">
<path d="M113.511 76.2437L113.3 77.9944L114.215 78.1049L114.427 76.3542L113.511 76.2437Z" fill="#6A1C1A"/>
<path d="M113.244 78.4572L113.128 79.416L114.043 79.5265L114.159 78.5677L113.244 78.4572Z" fill="#6A1C1A"/>
<path d="M113.069 79.8849L112.953 80.8438L113.869 80.9542L113.984 79.9954L113.069 79.8849Z" fill="#6A1C1A"/>
<path d="M112.895 81.3L112.779 82.2588L113.695 82.3693L113.811 81.4104L112.895 81.3Z" fill="#6A1C1A"/>
<path d="M112.727 82.7282L112.611 83.687L113.527 83.7975L113.643 82.8386L112.727 82.7282Z" fill="#6A1C1A"/>
<path d="M112.553 84.1435L112.438 85.1023L113.353 85.2128L113.469 84.2539L112.553 84.1435Z" fill="#6A1C1A"/>
<path d="M113.303 85.6868L113.116 87.2569L107.353 86.5591L107.496 85.4001L112.343 85.9858L112.393 85.5746L113.303 85.6868Z" fill="#6A1C1A"/>
</g>
<path d="M102.716 70.4521L101.009 84.6149L112.343 85.9857L114.05 71.8229L102.716 70.4521ZM104.299 72.4273L112.025 73.362C112.15 73.3744 112.243 73.4928 112.231 73.6237C112.218 73.7545 112.1 73.8355 111.975 73.823L104.249 72.8884C104.124 72.876 104.031 72.7638 104.043 72.6329C104.056 72.5021 104.174 72.4149 104.305 72.4273H104.299ZM104.124 73.848L111.85 74.7826C111.975 74.7951 112.069 74.9072 112.056 75.0381C112.044 75.1689 111.925 75.2561 111.794 75.2437L104.068 74.309C103.944 74.2966 103.85 74.1782 103.863 74.0474C103.875 73.9165 103.993 73.8355 104.118 73.848H104.124ZM103.975 75.0941L111.701 76.0288C111.826 76.0412 111.919 76.1534 111.907 76.2842C111.894 76.4151 111.776 76.5023 111.645 76.4898L103.919 75.5552C103.794 75.5428 103.701 75.4244 103.713 75.2935C103.725 75.1627 103.844 75.0817 103.968 75.0941H103.975ZM103.825 76.3403L111.551 77.2749C111.676 77.2874 111.769 77.3995 111.757 77.5304C111.745 77.6612 111.626 77.7485 111.495 77.736L103.769 76.8014C103.644 76.7889 103.551 76.6705 103.563 76.5397C103.576 76.4088 103.694 76.3278 103.819 76.3403H103.825ZM103.676 77.5865L111.402 78.5211C111.526 78.5336 111.62 78.6457 111.607 78.7766C111.595 78.9074 111.477 78.9946 111.346 78.9822L103.62 78.0476C103.495 78.0351 103.401 77.9167 103.414 77.7859C103.426 77.655 103.545 77.574 103.669 77.5865H103.676ZM103.526 78.8326L111.252 79.7673C111.377 79.7797 111.47 79.8919 111.458 80.0227C111.445 80.1536 111.327 80.2408 111.196 80.2284L103.47 79.2937C103.345 79.2813 103.252 79.1629 103.264 79.032C103.277 78.9012 103.395 78.8202 103.52 78.8326H103.526ZM103.377 80.0788L111.103 81.0134C111.227 81.0259 111.321 81.1381 111.308 81.2689C111.296 81.3998 111.178 81.487 111.047 81.4745L103.32 80.5399C103.196 80.5274 103.102 80.4091 103.115 80.2782C103.127 80.1474 103.246 80.0664 103.37 80.0788H103.377ZM105.881 82.9824L103.071 82.6397C102.947 82.6272 102.853 82.5088 102.866 82.378C102.878 82.2472 102.996 82.1662 103.121 82.1786L105.931 82.5213C106.056 82.5338 106.149 82.6459 106.137 82.7768C106.124 82.9076 106.006 82.9949 105.875 82.9824H105.881Z" fill="#6A1C1A"/>
<path d="M107.794 82.9263L107.781 83.0322C107.781 83.0322 107.781 82.9948 107.781 82.9699C107.781 82.9574 107.781 82.9387 107.794 82.9263Z" fill="#6A1C1A"/>
<path fill-rule="evenodd" clip-rule="evenodd" d="M47.0244 106.192L47.2363 104.099L48.4762 104.037C48.5385 103.906 48.607 103.781 48.6818 103.663L48.0525 102.603L49.6788 101.27L50.5947 102.093C50.7505 102.036 50.9062 101.993 51.0682 101.955L51.3735 100.778L53.4671 100.99L53.5294 102.236C53.6478 102.292 53.7662 102.354 53.8784 102.429L54.9376 101.8L56.271 103.426L55.4423 104.342C55.4921 104.479 55.5295 104.61 55.5669 104.753L56.7695 105.065L56.5576 107.158L55.3301 107.214C55.2678 107.358 55.1931 107.495 55.1121 107.626L55.7414 108.685L54.1151 110.018L53.1992 109.189C53.0559 109.239 52.9126 109.283 52.763 109.32L52.4577 110.51L50.3642 110.299L50.3081 109.065C50.1772 109.003 50.0464 108.934 49.928 108.859L48.8687 109.489L47.5353 107.862L48.3578 106.946C48.3017 106.803 48.2581 106.654 48.227 106.504L47.0369 106.205L47.0244 106.192ZM49.5728 107.532C50.6196 108.809 52.5076 109.003 53.7787 107.956C55.0622 106.909 55.2491 105.021 54.2024 103.744C53.1556 102.466 51.2676 102.273 49.9965 103.32C48.7192 104.367 48.526 106.249 49.5728 107.526V107.532Z" fill="#6A1C1A"/>
<path fill-rule="evenodd" clip-rule="evenodd" d="M58.1095 126.38L54.4457 124.324L55.318 122.006C55.1311 121.795 54.9567 121.57 54.7884 121.333L52.3459 121.645L51.2119 117.601L53.455 116.586C53.4737 116.255 53.5111 115.931 53.5796 115.607L51.6605 114.112L53.7167 110.448L56.0471 111.333C56.2464 111.158 56.4583 110.996 56.6764 110.841L56.3773 108.398L60.4211 107.264L61.4305 109.513C61.7171 109.532 61.9975 109.563 62.2779 109.613L63.7982 107.663L67.462 109.719L66.5897 112.012C66.7953 112.243 66.9884 112.486 67.1629 112.741L69.6116 112.442L70.7456 116.486L68.4963 117.495C68.4776 117.801 68.4402 118.1 68.3904 118.399L70.3219 119.913L68.2658 123.577L65.9541 122.698C65.736 122.891 65.5117 123.072 65.2687 123.234L65.574 125.676L61.5302 126.81L60.5146 124.567C60.203 124.549 59.8977 124.511 59.5924 124.455L58.0908 126.393L58.1095 126.38ZM62.5957 122.785C65.7734 121.894 67.624 118.592 66.733 115.42C65.842 112.243 62.5396 110.392 59.3619 111.283C56.1841 112.174 54.3336 115.47 55.2246 118.648C56.1156 121.826 59.4179 123.676 62.5957 122.785Z" fill="#6A1C1A"/>
<path fill-rule="evenodd" clip-rule="evenodd" d="M61.7163 114.186C60.1524 113.788 58.551 114.741 58.1523 116.305C57.7535 117.869 58.7068 119.47 60.2708 119.869C61.8347 120.268 63.4298 119.321 63.8286 117.757C64.2273 116.193 63.2803 114.591 61.7163 114.193V114.186Z" fill="#6A1C1A"/>
<path fill-rule="evenodd" clip-rule="evenodd" d="M52.2774 104.124C51.4425 103.912 50.5951 104.417 50.3833 105.246C50.1714 106.074 50.6761 106.928 51.511 107.14C52.3398 107.352 53.1934 106.847 53.4052 106.012C53.6171 105.183 53.1124 104.33 52.2837 104.118L52.2774 104.124Z" fill="#6A1C1A"/>
<path fill-rule="evenodd" clip-rule="evenodd" d="M16.7982 89.5312C14.5488 83.506 15.6517 84.7833 9.28376 83.3564C5.40817 88.6028 5.40817 86.9205 7.6575 92.9395L6.43003 93.4006L6.97834 94.8586L18.574 90.5282L18.0256 89.0701L16.7982 89.5312ZM16.5739 89.6185L16.1564 89.7742C14.5551 89.4814 12.9537 89.1885 11.3524 88.8894C10.3368 90.1668 9.32737 91.4379 8.31174 92.7027L7.88805 92.8585C5.78825 87.2943 5.88171 88.796 9.44576 83.7739C15.4336 85.2319 14.5114 84.0356 16.5739 89.6185Z" fill="#6A1C1A"/>
<path fill-rule="evenodd" clip-rule="evenodd" d="M11.5956 71.8542L0 76.1847L0.542084 77.6365L1.76956 77.1754C4.0189 83.2006 2.91604 81.9233 9.28397 83.3564C13.1533 78.1038 13.1596 79.7861 10.9102 73.7671L12.1377 73.306L11.5956 71.8542ZM11.6268 76.3218L2.90981 79.5805L2.06241 77.3125L10.7794 74.0537L11.6268 76.3218Z" fill="#6A1C1A"/>
</svg>
