<svg width="184" height="164" viewBox="0 0 184 164" fill="none" xmlns="http://www.w3.org/2000/svg">
<path d="M164.447 26.5941H15.8987C10.1772 26.5941 5.53906 31.2323 5.53906 36.9538V150.562C5.53906 156.283 10.1772 160.921 15.8987 160.921H164.447C170.168 160.921 174.806 156.283 174.806 150.562V36.9538C174.806 31.2323 170.168 26.5941 164.447 26.5941Z" fill="#691D1B"/>
<path d="M0 152.247H183.388C183.388 155.364 182.15 158.353 179.946 160.558C177.742 162.762 174.752 164 171.635 164H11.7533C8.63612 164 5.64662 162.762 3.44246 160.558C1.23829 158.353 0 155.364 0 152.247Z" fill="#5B1010"/>
<path d="M73.4919 150.988L75.7672 155.333H107.785L109.897 150.988H73.4919Z" fill="#100808"/>
<path d="M173.348 150.988C173.348 151.059 135.785 151.123 89.4471 151.123C43.1095 151.123 5.5459 151.059 5.5459 150.988C5.5459 150.917 43.1095 150.86 89.4471 150.86C135.785 150.86 173.348 150.917 173.348 150.988Z" fill="#100808"/>
<path d="M166.971 34.323H12.7132C11.4291 34.323 10.3882 35.3639 10.3882 36.648V145.115C10.3882 146.399 11.4291 147.44 12.7132 147.44H166.971C168.255 147.44 169.296 146.399 169.296 145.115V36.648C169.296 35.3639 168.255 34.323 166.971 34.323Z" fill="#DECCCB"/>
<path d="M169.125 147.604H10.2175L10.3882 42.7771H169.125V147.604Z" fill="white"/>
<path d="M23.4213 38.6958C23.3767 38.9376 23.2642 39.1617 23.0968 39.3419C22.9295 39.5221 22.7143 39.6508 22.4764 39.713C22.2385 39.7753 21.9878 39.7685 21.7536 39.6934C21.5194 39.6183 21.3115 39.4781 21.1542 39.2891C20.9969 39.1002 20.8967 38.8703 20.8653 38.6264C20.8339 38.3825 20.8726 38.1347 20.977 37.912C21.0813 37.6894 21.2468 37.5011 21.4543 37.3691C21.6618 37.2372 21.9028 37.1671 22.1487 37.1671C22.5186 37.2049 22.8588 37.3861 23.0967 37.6719C23.3346 37.9576 23.4511 38.3252 23.4213 38.6958Z" fill="#5B1010"/>
<path d="M15.7278 38.6958C15.6832 38.9379 15.5704 39.1623 15.4027 39.3426C15.235 39.5228 15.0193 39.6515 14.7811 39.7135C14.5428 39.7755 14.2918 39.7683 14.0575 39.6926C13.8232 39.617 13.6153 39.4761 13.4583 39.2864C13.3013 39.0968 13.2018 38.8662 13.1712 38.622C13.1406 38.3777 13.1802 38.1297 13.2856 37.9072C13.391 37.6847 13.5577 37.4969 13.7661 37.3658C13.9745 37.2347 14.216 37.1658 14.4622 37.1671C14.8308 37.2067 15.1692 37.3886 15.4056 37.6742C15.642 37.9597 15.7577 38.3263 15.7278 38.6958Z" fill="#5B1010"/>
<path d="M19.4182 38.6958C19.3736 38.9379 19.2608 39.1623 19.0931 39.3426C18.9254 39.5228 18.7097 39.6515 18.4715 39.7135C18.2332 39.7755 17.9822 39.7683 17.7479 39.6926C17.5137 39.617 17.3059 39.4761 17.1489 39.2864C16.9919 39.0968 16.8922 38.8662 16.8616 38.622C16.831 38.3777 16.8708 38.1297 16.9762 37.9072C17.0815 37.6847 17.2481 37.4969 17.4565 37.3658C17.6649 37.2347 17.9064 37.1658 18.1526 37.1671C18.5212 37.2067 18.8598 37.3886 19.0962 37.6742C19.3326 37.9597 19.4482 38.3263 19.4182 38.6958Z" fill="#5B1010"/>
<path d="M169.296 137.479H10.2175V147.604H169.296V137.479Z" fill="#100808"/>
<path d="M16.2258 143.715V144.042H14.9601V143.778L15.6712 143.003C15.7312 142.949 15.7798 142.884 15.814 142.81C15.8482 142.737 15.8673 142.658 15.8703 142.577C15.8727 142.535 15.8659 142.493 15.8503 142.455C15.8348 142.416 15.8109 142.381 15.7804 142.352C15.7498 142.324 15.7134 142.302 15.6736 142.29C15.6338 142.277 15.5918 142.273 15.5504 142.278C15.4702 142.276 15.3908 142.295 15.3198 142.332C15.2489 142.369 15.1887 142.424 15.145 142.492L14.9246 142.285C14.9919 142.174 15.0885 142.083 15.2039 142.023C15.3192 141.963 15.4488 141.936 15.5787 141.944C15.6596 141.937 15.7413 141.947 15.8179 141.974C15.8944 142.001 15.9642 142.045 16.0223 142.102C16.0805 142.158 16.1255 142.227 16.1545 142.303C16.1834 142.379 16.1957 142.46 16.1902 142.541C16.1887 142.663 16.1629 142.783 16.114 142.894C16.0651 143.005 15.9943 143.105 15.9059 143.188L15.4436 143.715H16.2258Z" fill="white"/>
<path d="M16.3962 142.691C16.3906 142.661 16.3915 142.63 16.3991 142.601C16.4067 142.572 16.4207 142.544 16.4401 142.521C16.4594 142.498 16.4836 142.479 16.5111 142.466C16.5385 142.453 16.5684 142.446 16.5987 142.446C16.629 142.446 16.659 142.453 16.6864 142.466C16.7138 142.479 16.7382 142.498 16.7576 142.521C16.7769 142.544 16.7908 142.572 16.7984 142.601C16.806 142.63 16.8071 142.661 16.8015 142.691C16.8071 142.72 16.806 142.751 16.7984 142.78C16.7908 142.81 16.7769 142.837 16.7576 142.86C16.7382 142.884 16.7138 142.903 16.6864 142.915C16.659 142.928 16.629 142.935 16.5987 142.935C16.5684 142.935 16.5385 142.928 16.5111 142.915C16.4836 142.903 16.4594 142.884 16.4401 142.86C16.4207 142.837 16.4067 142.81 16.3991 142.78C16.3915 142.751 16.3906 142.72 16.3962 142.691ZM16.3962 143.814C16.3906 143.784 16.3915 143.754 16.3991 143.724C16.4067 143.695 16.4207 143.668 16.4401 143.644C16.4594 143.621 16.4836 143.602 16.5111 143.589C16.5385 143.576 16.5684 143.57 16.5987 143.57C16.629 143.57 16.659 143.576 16.6864 143.589C16.7138 143.602 16.7382 143.621 16.7576 143.644C16.7769 143.668 16.7908 143.695 16.7984 143.724C16.806 143.754 16.8071 143.784 16.8015 143.814C16.8071 143.844 16.806 143.874 16.7984 143.904C16.7908 143.933 16.7769 143.96 16.7576 143.984C16.7382 144.007 16.7138 144.026 16.6864 144.039C16.659 144.052 16.629 144.058 16.5987 144.058C16.5684 144.058 16.5385 144.052 16.5111 144.039C16.4836 144.026 16.4594 144.007 16.4401 143.984C16.4207 143.96 16.4067 143.933 16.3991 143.904C16.3915 143.874 16.3906 143.844 16.3962 143.814Z" fill="white"/>
<path d="M17.6052 141.973V144.042H17.2852V142.3H16.9226V141.973H17.6052Z" fill="white"/>
<path d="M19.475 143.572H19.1691V144.042H18.8634V143.572H17.9177V143.302L18.764 141.973H19.1053L18.3088 143.245H18.8706V142.833H19.1691V143.245H19.475V143.572Z" fill="white"/>
<path d="M152.672 142.74H22.2834V143.451H152.672V142.74Z" fill="white"/>
<path d="M62.9328 141.972H22.1838V143.878H62.9328V141.972Z" fill="#E0C07E"/>
<path d="M64.2483 143.103C64.1794 143.481 64.0042 143.831 63.7432 144.113C63.4822 144.394 63.1463 144.596 62.7749 144.693C62.4035 144.791 62.0121 144.781 61.6464 144.664C61.2807 144.547 60.956 144.328 60.7102 144.033C60.4645 143.738 60.3078 143.379 60.2589 142.998C60.2099 142.617 60.2707 142.23 60.4339 141.882C60.597 141.535 60.8559 141.241 61.1801 141.035C61.5044 140.83 61.8806 140.721 62.2646 140.721C62.8415 140.779 63.3727 141.061 63.7437 141.506C64.1148 141.952 64.296 142.525 64.2483 143.103Z" fill="#E0C07E"/>
<path d="M155.957 143.082C155.963 143.168 155.951 143.255 155.921 143.336C155.892 143.417 155.846 143.492 155.787 143.555C155.727 143.617 155.656 143.667 155.576 143.701C155.496 143.734 155.41 143.751 155.324 143.75C154.855 143.75 154.613 143.387 154.613 142.726C154.613 142.065 154.954 141.624 155.452 141.624C155.614 141.622 155.772 141.669 155.907 141.759L155.786 142.051C155.693 141.979 155.577 141.943 155.459 141.951C155.132 141.951 154.933 142.193 154.933 142.662C154.985 142.592 155.054 142.536 155.134 142.499C155.213 142.461 155.3 142.444 155.388 142.449C155.468 142.451 155.546 142.468 155.619 142.502C155.691 142.535 155.756 142.583 155.809 142.642C155.863 142.701 155.903 142.771 155.929 142.847C155.954 142.922 155.964 143.002 155.957 143.082ZM155.644 143.082C155.648 143.035 155.642 142.989 155.627 142.945C155.611 142.901 155.586 142.862 155.554 142.829C155.521 142.795 155.482 142.77 155.439 142.753C155.395 142.737 155.349 142.73 155.302 142.733C155.256 142.732 155.21 142.741 155.166 142.758C155.123 142.776 155.084 142.802 155.051 142.836C155.019 142.869 154.993 142.909 154.976 142.952C154.96 142.996 154.952 143.042 154.954 143.089C154.952 143.135 154.96 143.182 154.977 143.225C154.994 143.269 155.021 143.308 155.054 143.34C155.088 143.373 155.128 143.397 155.172 143.413C155.216 143.428 155.263 143.434 155.31 143.43C155.354 143.432 155.398 143.425 155.44 143.409C155.481 143.393 155.519 143.368 155.551 143.337C155.582 143.305 155.606 143.268 155.623 143.226C155.639 143.185 155.646 143.14 155.644 143.096V143.082Z" fill="white"/>
<path d="M156.092 142.371C156.086 142.341 156.087 142.31 156.095 142.281C156.103 142.252 156.117 142.224 156.136 142.201C156.155 142.178 156.179 142.159 156.207 142.146C156.234 142.133 156.264 142.126 156.295 142.126C156.325 142.126 156.355 142.133 156.382 142.146C156.41 142.159 156.434 142.178 156.453 142.201C156.473 142.224 156.487 142.252 156.494 142.281C156.502 142.31 156.503 142.341 156.497 142.371C156.503 142.4 156.502 142.431 156.494 142.46C156.487 142.49 156.473 142.517 156.453 142.54C156.434 142.564 156.41 142.583 156.382 142.595C156.355 142.608 156.325 142.615 156.295 142.615C156.264 142.615 156.234 142.608 156.207 142.595C156.179 142.583 156.155 142.564 156.136 142.54C156.117 142.517 156.103 142.49 156.095 142.46C156.087 142.431 156.086 142.4 156.092 142.371ZM156.092 143.494C156.086 143.464 156.087 143.434 156.095 143.404C156.103 143.375 156.117 143.348 156.136 143.324C156.155 143.301 156.179 143.282 156.207 143.269C156.234 143.256 156.264 143.25 156.295 143.25C156.325 143.25 156.355 143.256 156.382 143.269C156.41 143.282 156.434 143.301 156.453 143.324C156.473 143.348 156.487 143.375 156.494 143.404C156.502 143.434 156.503 143.464 156.497 143.494C156.503 143.524 156.502 143.555 156.494 143.584C156.487 143.613 156.473 143.641 156.453 143.664C156.434 143.687 156.41 143.706 156.382 143.719C156.355 143.732 156.325 143.738 156.295 143.738C156.264 143.738 156.234 143.732 156.207 143.719C156.179 143.706 156.155 143.687 156.136 143.664C156.117 143.641 156.103 143.613 156.095 143.584C156.087 143.555 156.086 143.524 156.092 143.494Z" fill="white"/>
<path d="M156.718 142.691C156.718 141.98 157.023 141.624 157.429 141.624C157.834 141.624 158.14 142.008 158.14 142.691C158.14 143.373 157.827 143.75 157.429 143.75C157.03 143.75 156.718 143.366 156.718 142.691ZM157.834 142.691C157.834 142.193 157.67 141.98 157.436 141.98C157.201 141.98 157.038 142.214 157.038 142.691C157.038 143.167 157.201 143.402 157.436 143.402C157.67 143.402 157.834 143.188 157.834 142.691Z" fill="white"/>
<path d="M158.367 142.691C158.367 141.98 158.673 141.624 159.078 141.624C159.484 141.624 159.789 142.008 159.789 142.691C159.789 143.373 159.484 143.75 159.078 143.75C158.673 143.75 158.367 143.366 158.367 142.691ZM159.484 142.691C159.484 142.193 159.32 141.98 159.085 141.98C158.851 141.98 158.687 142.214 158.687 142.691C158.687 143.167 158.851 143.402 159.085 143.402C159.32 143.402 159.484 143.188 159.484 142.691Z" fill="white"/>
<path d="M162.584 142.556H161.986V140.501H163.7V141.212H162.584V142.556Z" fill="white"/>
<path d="M163.7 145.243H161.986V143.188H162.576V144.525H163.7V145.243Z" fill="white"/>
<path d="M166.43 145.243H164.717V144.525H165.833V143.181H166.43V145.243Z" fill="white"/>
<path d="M166.43 142.548H165.833V141.212H164.717V140.501H166.43V142.548Z" fill="white"/>
<path d="M32.0103 49.0057H22.6461L17.9604 58.7396L22.6461 68.4736H32.0103L36.696 58.7396L32.0103 49.0057Z" fill="#DECCCB"/>
<path d="M23.4072 60.6523C22.9654 60.1008 22.5819 59.5051 22.2626 58.8748C21.9339 58.2148 21.8007 57.4748 21.8786 56.7417C21.9355 56.3079 22.0848 55.8956 22.1133 55.4618C22.0386 54.8669 22.0386 54.265 22.1133 53.67C22.3906 52.7884 23.3788 52.6533 23.9761 52.0418C24.4454 51.5654 24.6871 50.7975 25.1848 50.3993C25.4123 50.2508 25.6687 50.1518 25.937 50.1089C26.2053 50.0661 26.4796 50.0802 26.7421 50.1504C27.2585 50.2891 27.7938 50.3442 28.3277 50.314C28.7013 50.2159 29.0693 50.0972 29.4298 49.9584C29.6108 49.8887 29.8052 49.8609 29.9985 49.8769C30.1918 49.8929 30.3789 49.9523 30.546 50.0509C30.7202 50.1829 30.8447 50.37 30.8989 50.5818C30.9531 50.7936 30.9341 51.0175 30.8447 51.217C31.4562 50.8757 32.2667 51.4516 32.4018 52.2337C32.4644 52.6203 32.4323 53.0162 32.3084 53.3877C32.1846 53.7592 31.9728 54.0951 31.6908 54.3668C31.1727 54.8424 30.5282 55.1585 29.8349 55.277C28.892 55.5196 27.9073 55.5525 26.9502 55.3731C25.9932 55.1937 25.0871 54.8065 24.296 54.2388" fill="#5B1010"/>
<path d="M32.0888 63.0556C32.0248 61.6335 31.7048 58.7894 31.3777 56.2226C31.0364 53.4425 28.9743 51.4516 26.6351 51.6365H26.4077C23.9191 52.0133 22.7885 54.7579 23.1724 57.7371L23.8835 68.4594H29.9628C29.9628 68.4594 29.8133 66.5752 29.8133 66.5609C30.5375 66.3268 31.159 65.8506 31.5734 65.2122C31.9877 64.5738 32.1698 63.8123 32.0888 63.0556Z" fill="#D2AA70"/>
<path d="M29.849 66.5396C28.7216 66.653 27.5905 66.3633 26.6565 65.7219C26.9333 66.3152 27.4064 66.7947 27.9957 67.0797C28.5851 67.3647 29.2548 67.4376 29.8917 67.2862L29.849 66.5396Z" fill="#6B201D"/>
<path d="M30.6095 58.697C30.6227 58.7954 30.5986 58.8951 30.542 58.9766C30.4854 59.0581 30.4006 59.1157 30.3038 59.1378C30.2563 59.1417 30.2085 59.1358 30.1634 59.1205C30.1183 59.1052 30.0767 59.0808 30.0414 59.0488C30.006 59.0168 29.9777 58.9779 29.958 58.9345C29.9384 58.8912 29.9278 58.8442 29.927 58.7965C29.9152 58.6975 29.9397 58.5976 29.9959 58.5152C30.0521 58.4329 30.1362 58.3737 30.2327 58.3486C30.2805 58.3457 30.3285 58.3525 30.3736 58.3686C30.4188 58.3848 30.4603 58.4099 30.4955 58.4424C30.5307 58.475 30.5588 58.5143 30.5785 58.558C30.5981 58.6018 30.6087 58.6491 30.6095 58.697Z" fill="#100808"/>
<path d="M30.951 57.6731C30.951 57.73 30.6382 57.5167 30.24 57.5522C29.8418 57.5878 29.6143 57.8224 29.5717 57.7726C29.529 57.7229 29.5716 57.6518 29.6996 57.538C29.8443 57.3974 30.0322 57.3097 30.2329 57.2892C30.4305 57.2739 30.6264 57.335 30.7804 57.4598C30.951 57.5522 30.951 57.6447 30.951 57.6731Z" fill="#100808"/>
<path d="M27.1256 58.9956C27.1368 59.0947 27.1111 59.1945 27.0534 59.2758C26.9956 59.3572 26.9098 59.4143 26.8126 59.4364C26.7654 59.4404 26.7179 59.4345 26.6732 59.4191C26.6284 59.4037 26.5875 59.3792 26.5527 59.3471C26.518 59.315 26.4902 59.2761 26.4713 59.2327C26.4524 59.1893 26.4427 59.1425 26.4428 59.0952C26.4262 58.9963 26.4489 58.8948 26.506 58.8125C26.5632 58.7301 26.6503 58.6733 26.7487 58.6543C26.7962 58.6504 26.844 58.6563 26.8891 58.6716C26.9343 58.6869 26.9757 58.7113 27.011 58.7433C27.0463 58.7753 27.0746 58.8142 27.0943 58.8576C27.114 58.901 27.1248 58.948 27.1256 58.9956Z" fill="#100808"/>
<path d="M27.3175 58.0428C27.3175 58.0997 27.0047 57.8935 26.642 57.9219C26.2794 57.9504 26.0092 58.1992 25.931 58.1495C25.8528 58.0997 25.931 58.0215 26.0661 57.9148C26.2069 57.7728 26.3933 57.6847 26.5924 57.666C26.7887 57.6522 26.9831 57.7103 27.1397 57.8295C27.2962 57.929 27.3388 58.0215 27.3175 58.0428Z" fill="#100808"/>
<path d="M28.8178 61.2211C29.0063 61.1374 29.2046 61.0776 29.408 61.0434C29.5004 61.0434 29.5929 61.0007 29.6 60.9154C29.6029 60.8014 29.5758 60.6886 29.5217 60.5883C29.415 60.3252 29.3084 60.0408 29.1946 59.7493C28.8918 59.0332 28.6399 58.2967 28.4409 57.5451C28.7908 58.2335 29.0902 58.9464 29.3368 59.6782L29.6567 60.5243C29.722 60.6615 29.7467 60.8144 29.7279 60.9652C29.7178 61.004 29.6991 61.0401 29.6732 61.0709C29.6474 61.1016 29.6152 61.1262 29.5786 61.1429C29.5269 61.1521 29.474 61.1521 29.4222 61.1429C29.2268 61.2037 29.0222 61.2302 28.8178 61.2211Z" fill="#100808"/>
<path d="M27.3174 56.3008C27.3174 56.4288 26.9193 56.4003 26.4856 56.4928C26.0519 56.5852 25.7177 56.763 25.6537 56.6563C25.5897 56.5497 25.6537 56.4928 25.8101 56.3648C25.9834 56.2093 26.194 56.1015 26.4215 56.0519C26.6411 55.9984 26.872 56.0133 27.0829 56.0946C27.2464 56.1586 27.3317 56.2439 27.3174 56.3008Z" fill="#100808"/>
<path d="M30.7377 56.4004C30.6808 56.5071 30.4178 56.4004 30.1121 56.4431C29.8064 56.4857 29.5503 56.5568 29.4863 56.4431C29.4223 56.3293 29.4864 56.2866 29.6002 56.1799C29.7392 56.0588 29.9139 55.9864 30.0979 55.9738C30.2824 55.9667 30.4635 56.0246 30.6098 56.1373C30.7235 56.2511 30.7662 56.3506 30.7377 56.4004Z" fill="#100808"/>
<path d="M23.4994 59.8773C23.4568 59.8773 21.8142 59.4222 21.9778 61.3918C21.9585 61.6276 22.0033 61.8643 22.1073 62.0769C22.2112 62.2894 22.3707 62.47 22.5687 62.5995C22.7666 62.7291 22.9959 62.8029 23.2323 62.8131C23.4687 62.8232 23.7035 62.7695 23.9119 62.6574C23.9119 62.6005 23.4994 59.8773 23.4994 59.8773Z" fill="#D2AA70"/>
<path d="M23.1865 62.0104C23.1865 62.0104 23.1865 62.0104 23.1154 62.0744C23.0818 62.0893 23.0455 62.0969 23.0088 62.0969C22.972 62.0969 22.9356 62.0893 22.902 62.0744C22.7172 62.0175 22.5465 61.7046 22.5109 61.3633C22.4817 61.1987 22.4817 61.0302 22.5109 60.8656C22.5536 60.7163 22.6176 60.6096 22.71 60.5812C22.7259 60.5743 22.7429 60.5707 22.7602 60.5705C22.7775 60.5704 22.7946 60.5737 22.8105 60.5803C22.8265 60.587 22.841 60.5968 22.8531 60.6091C22.8651 60.6215 22.8744 60.6362 22.8807 60.6523C22.8807 60.7021 22.8807 60.7448 22.8807 60.7448C22.8807 60.7448 22.9162 60.7447 22.8807 60.631C22.8694 60.5866 22.8446 60.5468 22.8097 60.5172C22.7869 60.4993 22.7602 60.4868 22.7319 60.4807C22.7036 60.4745 22.6743 60.4749 22.6462 60.4817C22.5752 60.5111 22.5126 60.5576 22.4642 60.6172C22.4158 60.6768 22.383 60.7475 22.3688 60.823C22.3148 61.005 22.298 61.196 22.3191 61.3847C22.3618 61.7757 22.5608 62.1312 22.8026 62.181C22.8483 62.1929 22.8964 62.1919 22.9416 62.178C22.9868 62.1642 23.0271 62.1382 23.0584 62.1028C23.1864 62.0601 23.1937 62.0175 23.1865 62.0104Z" fill="#6B201D"/>
<path d="M31.2639 53.5278C31.1501 54.31 29.8418 55.0281 28.7326 54.9925C27.6234 54.957 27.2182 54.3526 26.4858 53.926C26.0165 53.6558 26.0165 53.6558 25.3837 53.7767C24.8788 53.8763 24.6087 54.6015 24.3242 55.1134C24.8717 56.5355 24.6514 58.2064 24.4168 59.7493C24.4105 59.9186 24.3535 60.0821 24.2532 60.2186C24.0684 60.4177 23.7696 60.2968 23.5919 60.0977C23.3128 59.7356 23.1339 59.3065 23.0728 58.8534C22.8411 57.8033 22.7858 56.722 22.9093 55.6538C23.0218 54.6115 23.4041 53.6165 24.0186 52.767C24.3688 52.2967 24.8162 51.9073 25.3302 51.6251C25.8442 51.343 26.4129 51.1747 26.9977 51.1317C28.1535 51.0924 29.2838 51.4767 30.176 52.2124C30.6389 52.5573 31.012 53.0084 31.2639 53.5278Z" fill="#5B1010"/>
<path d="M29.0882 62.2237L28.2493 61.7544C28.2062 61.7221 28.1538 61.7046 28.1 61.7046C28.0371 61.7253 27.984 61.7683 27.9507 61.8255C27.8521 61.9753 27.792 62.1472 27.7759 62.3258C27.7598 62.5045 27.788 62.6843 27.8582 62.8494C27.9185 62.9988 28.0347 63.1188 28.1821 63.1839C28.3295 63.2489 28.4965 63.2539 28.6475 63.1978C28.7954 63.0895 28.9149 62.9468 28.9954 62.782C29.0759 62.6173 29.115 62.4354 29.1096 62.2521L29.0882 62.2237Z" fill="#6B201D"/>
<path d="M28.6686 63.2689C28.6686 63.2689 28.498 63.4253 28.1781 63.3187C27.9871 63.239 27.8343 63.0887 27.7514 62.8991C27.6283 62.6414 27.6079 62.3465 27.6944 62.0744C27.7347 61.9409 27.8025 61.8173 27.8935 61.7117C27.9356 61.6635 27.9833 61.6205 28.0357 61.5838C28.068 61.5611 28.1065 61.549 28.1459 61.549C28.1854 61.549 28.2239 61.5611 28.2562 61.5838C28.4482 61.7117 28.5762 61.8184 28.7042 61.9179C28.9531 62.1099 29.0953 62.245 29.0811 62.2734C29.0669 62.3019 28.9032 62.2166 28.6402 62.053L28.1923 61.7757C28.1923 61.7757 28.1922 61.7757 28.1282 61.7757L28.0215 61.8753C27.9551 61.9604 27.9046 62.0567 27.8722 62.1597C27.7966 62.3663 27.7966 62.593 27.8722 62.7996C27.9321 62.9606 28.0483 63.0945 28.1992 63.1764C28.4765 63.2973 28.6686 63.2333 28.6686 63.2689Z" fill="#100808"/>
<path d="M28.4055 58.7468C28.4055 58.7468 28.4056 58.5619 28.3203 58.2561C28.2242 57.8415 28.0062 57.4651 27.6945 57.1754C27.4906 56.984 27.2349 56.8569 26.9592 56.8101C26.6835 56.7633 26.4001 56.7989 26.1445 56.9123C25.8278 57.1016 25.5657 57.3698 25.3836 57.6907C25.2016 58.0116 25.1059 58.3742 25.1059 58.7432C25.1059 59.1121 25.2016 59.4748 25.3836 59.7957C25.5657 60.1166 25.8278 60.3848 26.1445 60.5741C26.4001 60.6875 26.6835 60.723 26.9592 60.6762C27.2349 60.6294 27.4906 60.5024 27.6945 60.311C28.005 60.0232 28.2229 59.6494 28.3203 59.2374C28.3914 58.9245 28.3913 58.7468 28.4055 58.7468C28.4197 58.7468 28.4055 58.7894 28.4055 58.8747C28.4209 59.0023 28.4209 59.1311 28.4055 59.2587C28.3283 59.7073 28.112 60.1202 27.787 60.439C27.5703 60.6569 27.2935 60.8051 26.992 60.8646C26.6905 60.9242 26.378 60.8923 26.0947 60.7732C25.7334 60.5714 25.4325 60.2769 25.2231 59.9201C25.0136 59.5632 24.9033 59.157 24.9033 58.7432C24.9033 58.3294 25.0136 57.9231 25.2231 57.5663C25.4325 57.2094 25.7334 56.9149 26.0947 56.7132C26.378 56.594 26.6905 56.5622 26.992 56.6217C27.2935 56.6813 27.5703 56.8295 27.787 57.0474C28.1125 57.3686 28.3288 57.784 28.4055 58.2348C28.4206 58.3599 28.4206 58.4865 28.4055 58.6117C28.4197 58.697 28.4126 58.7468 28.4055 58.7468Z" fill="#100808"/>
<path d="M32.4938 58.5548C32.4938 58.5548 32.4939 58.3699 32.4086 58.0713C32.314 57.6695 32.1009 57.3054 31.797 57.026C31.5962 56.8443 31.3478 56.7236 31.0808 56.6783C30.8138 56.6329 30.5393 56.6648 30.2897 56.7701C29.9765 56.9492 29.716 57.208 29.535 57.5202C29.3539 57.8323 29.2586 58.1868 29.2586 58.5477C29.2586 58.9085 29.3539 59.263 29.535 59.5751C29.716 59.8873 29.9765 60.1461 30.2897 60.3252C30.5393 60.4305 30.8138 60.4624 31.0808 60.4171C31.3478 60.3717 31.5962 60.2511 31.797 60.0693C32.1009 59.7899 32.314 59.4258 32.4086 59.024C32.4797 58.7254 32.4796 58.5405 32.4938 58.5477C32.5081 58.5548 32.4938 58.5903 32.4938 58.6756C32.5089 58.7984 32.5089 58.9226 32.4938 59.0454C32.4214 59.4843 32.2096 59.8882 31.8896 60.1972C31.6799 60.4097 31.4112 60.5544 31.1185 60.6127C30.8257 60.671 30.5221 60.6402 30.247 60.5243C29.8928 60.3291 29.5973 60.0423 29.3916 59.694C29.1859 59.3457 29.0774 58.9486 29.0774 58.5441C29.0774 58.1396 29.1859 57.7425 29.3916 57.3942C29.5973 57.0459 29.8928 56.7592 30.247 56.5639C30.5221 56.448 30.8257 56.4172 31.1185 56.4755C31.4112 56.5338 31.6799 56.6785 31.8896 56.8909C32.2096 57.1999 32.4214 57.6039 32.4938 58.0429C32.5089 58.1656 32.5089 58.2898 32.4938 58.4126C32.5081 58.505 32.5009 58.5548 32.4938 58.5548Z" fill="#100808"/>
<path d="M29.1592 58.0997C29.1236 58.1424 28.96 58.0144 28.7396 58.0215C28.5192 58.0286 28.3629 58.1566 28.3273 58.1139C28.2918 58.0713 28.4268 57.8011 28.7396 57.794C29.0525 57.7868 29.2089 58.0641 29.1592 58.0997Z" fill="#100808"/>
<path d="M25.0852 58.4552C25.1207 58.505 24.8007 58.8534 24.3741 59.2303C23.9475 59.6071 23.5778 59.8773 23.5494 59.8275C23.521 59.7777 23.8338 59.4293 24.2604 59.0454C24.687 58.6614 25.0567 58.4055 25.0852 58.4552Z" fill="#100808"/>
<path d="M58.8731 58.6472C58.8731 58.7112 54.6567 58.761 49.4662 58.761C44.2757 58.761 40.0593 58.7112 40.0593 58.6472C40.0593 58.5832 44.2686 58.5335 49.4662 58.5335C54.6638 58.5335 58.8731 58.5832 58.8731 58.6472Z" fill="#100808"/>
<path d="M50.149 61.0007C50.149 61.0647 47.9163 61.1145 45.1718 61.1145C42.4272 61.1145 40.1946 61.0647 40.1946 61.0007C40.1946 60.9367 42.4272 60.887 45.1718 60.887C47.9163 60.887 50.149 60.9438 50.149 61.0007Z" fill="#100808"/>
<path d="M120.96 77.0131C122.903 78.1173 124.608 79.5957 125.976 81.3629C127.344 83.1301 128.348 85.151 128.93 87.3087C130.999 94.7318 137.349 114.065 137.349 114.065C137.349 114.065 140.975 118.331 141.366 121.488C141.757 124.645 140.975 132.288 139.809 133.71C139.469 134.127 139.032 134.453 138.536 134.66C138.04 134.867 137.5 134.949 136.965 134.898L121.706 133.476L115.698 93.2316L120.96 77.0131Z" fill="#691D1B"/>
<path d="M70.4914 76.3091C70.4914 76.3091 59.577 79.7292 56.8538 82.7084L65.7914 124.282L65.6493 137.393H117.384C117.384 136.746 117.853 93.8502 117.853 93.8502L120.96 77.013L102.573 73.7992L98.9465 70.9551L78.4833 71.9932L75.3761 75.1004L70.4914 76.3091Z" fill="#691D1B"/>
<g opacity="0.3">
<path d="M74.6365 112.372C74.473 112.017 74.2456 111.661 73.8687 111.562C73.243 111.434 72.8306 112.166 72.6173 112.771C70.9678 117.483 68.6807 121.947 65.8199 126.038L65.6848 132.438C68.6996 129.899 71.6787 127.176 73.5985 123.742C75.5182 120.307 76.2577 115.963 74.6365 112.372Z" fill="black"/>
</g>
<path d="M56.8537 82.7084C56.8537 82.7084 53.2987 87.6145 51.77 90.8141C50.2412 94.0137 37.9049 120.891 37.1583 123.664C36.4117 126.437 34.4919 135.182 40.1446 137.173H51.77L63.4378 113.617L64.0352 86.2351L56.8537 82.7084Z" fill="#691D1B"/>
<path d="M52.5093 120.165C52.2557 119.974 51.9922 119.796 51.72 119.632C50.9535 119.216 50.1291 118.916 49.2741 118.743C48.6884 118.618 48.0943 118.534 47.4966 118.494C46.8157 118.441 46.1308 118.487 45.4629 118.629C43.9335 119.019 42.5638 119.877 41.5452 121.082C40.5117 122.277 39.7543 123.685 39.3269 125.206C38.9746 126.45 38.7366 127.723 38.6158 129.01C38.5092 130.105 38.4665 131.001 38.431 131.62C38.431 131.911 38.3954 132.146 38.3811 132.331C38.3931 132.413 38.3931 132.497 38.3811 132.58C38.3703 132.497 38.3703 132.414 38.3811 132.331V131.62C38.3811 131.001 38.3813 130.098 38.5021 128.996C38.5913 127.695 38.8128 126.406 39.1633 125.15C39.582 123.594 40.3504 122.154 41.4101 120.94C42.4547 119.698 43.8661 118.82 45.4416 118.43C46.1309 118.286 46.838 118.246 47.5393 118.309C48.1458 118.354 48.7476 118.449 49.3382 118.594C50.2006 118.785 51.0281 119.109 51.7912 119.554C51.9931 119.682 52.1856 119.825 52.3672 119.98C52.4596 120.094 52.5165 120.158 52.5093 120.165Z" fill="#100808"/>
<path d="M46.999 115.465C47.1259 115.427 47.2575 115.405 47.3901 115.401C47.7499 115.375 48.111 115.375 48.4707 115.401C49.0051 115.433 49.5358 115.512 50.0565 115.636C50.6911 115.798 51.3097 116.017 51.905 116.29C52.4963 116.579 53.0583 116.924 53.5831 117.321C54.0078 117.646 54.4027 118.007 54.7634 118.402C55.0077 118.666 55.2311 118.949 55.4317 119.248C55.5668 119.461 55.6379 119.582 55.6237 119.596C55.6095 119.611 55.2754 119.156 54.6497 118.509C54.2781 118.138 53.8786 117.795 53.455 117.485C52.9376 117.108 52.3881 116.777 51.8127 116.496C51.2307 116.225 50.6264 116.004 50.0067 115.835C49.4973 115.706 48.9793 115.613 48.4567 115.558C47.5608 115.458 46.999 115.508 46.999 115.465Z" fill="#100808"/>
<path d="M57.5079 114.171C57.3292 114.176 57.1504 114.162 56.9747 114.129C56.6263 114.086 56.1285 114.036 55.5526 113.994C53.9485 113.875 52.3368 113.909 50.7389 114.093C49.1453 114.29 47.5739 114.637 46.0461 115.131C45.4559 115.316 44.9867 115.487 44.6596 115.608C44.4962 115.682 44.3243 115.737 44.1477 115.771C44.2991 115.672 44.4612 115.591 44.6312 115.529C45.0744 115.324 45.5276 115.141 45.9892 114.982C47.5191 114.437 49.1051 114.065 50.7176 113.873C52.3278 113.685 53.9536 113.671 55.5668 113.83C56.1854 113.901 56.6832 113.972 56.9889 114.043C57.1656 114.069 57.3395 114.112 57.5079 114.171Z" fill="#100808"/>
<path d="M90.6204 91.2051C90.5775 91.1645 90.5394 91.1192 90.5067 91.07L90.1868 90.6434L89.0206 89.0223L84.9678 83.334H85.1526C84.5198 85.1756 83.8302 87.202 83.105 89.3422L83.0551 89.4773L82.9414 89.3991L82.6996 89.2427C81.7639 88.6485 80.9125 87.9311 80.1683 87.1096C79.4796 86.3414 78.8742 85.5025 78.3623 84.6068C77.5005 83.0941 76.8316 81.4793 76.3714 79.8003C76.0612 78.6716 75.8098 77.5277 75.6178 76.3731C75.5538 75.982 75.497 75.6621 75.4543 75.4417C75.4435 75.36 75.4268 75.2792 75.4045 75.1999C75.4045 75.1501 75.3689 75.1217 75.4045 75.1217C75.5821 75.5128 75.6926 75.9311 75.7315 76.3589C75.9022 77.1694 76.1367 78.3427 76.5562 79.7576C77.031 81.4169 77.7068 83.0119 78.5685 84.5073C79.0805 85.384 79.6809 86.206 80.3603 86.9603C81.0915 87.7685 81.9286 88.4741 82.8489 89.0579L83.0836 89.2071L82.9201 89.2711C83.6311 87.1381 84.3421 85.1045 84.982 83.2701L85.0532 83.0781L85.1669 83.2417C86.7809 85.588 88.1604 87.5789 89.1487 89.001L90.272 90.6577L90.5636 91.0985C90.5866 91.1318 90.6055 91.1675 90.6204 91.2051Z" fill="#100808"/>
<g opacity="0.3">
<path d="M104.094 111.05C103.623 115.895 104.666 120.767 107.081 124.993C109.491 129.181 113.018 132.914 117.412 134.948C117.554 130.681 117.348 125.662 117.49 121.395L104.094 111.05Z" fill="black"/>
</g>
<path d="M103.604 105.44C103.604 105.44 101.727 105.959 103.135 109.806C104.543 113.652 105.012 113.425 105.979 117.03C106.946 120.635 108.012 123.919 109.655 125.953C111.297 127.987 117.405 132.139 117.405 132.139L122.887 126.97C122.382 124.851 122.143 122.677 122.176 120.499C122.389 117.89 122.937 111.462 122.887 110.367C122.605 109.075 122.186 107.816 121.636 106.613V104.793L118.792 96.1183C118.792 96.1183 117.22 95.4073 116.658 97.9172L115.72 95.258C115.72 95.258 114.234 95.0233 113.843 98.1021C113.658 100.533 113.763 102.977 114.156 105.383L113.373 110.709L112.2 114.314L111.176 114.47C111.176 114.47 109.648 114.05 108.809 111.171C107.97 108.291 105.723 104.807 103.604 105.44Z" fill="#D2AA70"/>
<path d="M121.031 119.056C121.021 118.99 121.021 118.923 121.031 118.857L120.988 118.288C120.988 117.762 120.924 117.037 120.874 116.155C120.789 114.285 120.668 111.683 120.533 108.647V108.711C120.392 108.566 120.214 108.463 120.019 108.412C119.823 108.36 119.618 108.363 119.424 108.419C119.213 108.47 119.015 108.562 118.841 108.69C118.666 108.819 118.519 108.98 118.407 109.166C118.011 110.029 117.789 110.961 117.753 111.91C117.454 114.107 117.17 116.176 116.914 118.096C116.779 119.049 116.644 119.959 116.459 120.791C116.277 121.57 116.039 122.335 115.748 123.081C115.506 123.792 115.293 124.382 115.158 124.936C115.042 125.401 114.985 125.879 114.987 126.358C115.001 126.776 115.073 127.19 115.2 127.588C115.15 127.492 115.107 127.393 115.072 127.29C114.974 126.991 114.914 126.68 114.895 126.365C114.878 125.866 114.926 125.367 115.037 124.879C115.165 124.311 115.371 123.685 115.599 122.995C115.876 122.256 116.102 121.498 116.274 120.727C116.452 119.895 116.58 118.992 116.708 118.046C116.964 116.141 117.241 114.05 117.525 111.853C117.597 111.363 117.654 110.879 117.739 110.431C117.809 109.947 117.973 109.481 118.222 109.059C118.348 108.849 118.514 108.666 118.712 108.522C118.91 108.377 119.136 108.275 119.374 108.22C119.606 108.154 119.851 108.152 120.083 108.216C120.315 108.28 120.525 108.407 120.69 108.583V108.64C120.789 111.676 120.882 114.278 120.946 116.155L121.002 118.288C121.002 118.523 121.002 118.715 121.002 118.864C121.022 118.926 121.031 118.991 121.031 119.056Z" fill="#6B201D"/>
<path d="M118.037 109.187C117.939 109.034 117.86 108.869 117.803 108.696C117.621 108.233 117.469 107.758 117.348 107.274C117.159 106.575 117.026 105.862 116.95 105.141C116.903 104.709 116.903 104.273 116.95 103.84C116.992 103.359 117.156 102.896 117.426 102.496C117.665 102.138 118.018 101.872 118.429 101.743H118.507L118.549 101.814C119.346 103.236 120.035 104.452 120.519 105.369L121.081 106.421C121.153 106.546 121.215 106.677 121.266 106.812C121.166 106.706 121.082 106.587 121.017 106.457C120.846 106.186 120.64 105.845 120.398 105.44C119.879 104.572 119.161 103.349 118.364 101.956L118.485 102.006C118.126 102.125 117.816 102.36 117.604 102.674C117.354 103.041 117.204 103.468 117.17 103.911C117.127 104.332 117.127 104.756 117.17 105.177C117.24 105.894 117.354 106.607 117.511 107.31C117.653 107.907 117.796 108.391 117.902 108.732C117.96 108.88 118.005 109.032 118.037 109.187Z" fill="#6B201D"/>
<path d="M116.729 109.891C116.687 109.729 116.668 109.561 116.672 109.393C116.672 109.023 116.672 108.568 116.623 108.028C116.58 106.883 116.544 105.291 116.523 103.534C116.456 102.032 116.48 100.526 116.594 99.0264C116.646 98.5699 116.744 98.1197 116.886 97.6826C116.934 97.5215 117.001 97.3664 117.085 97.2204C116.934 97.8194 116.823 98.4274 116.751 99.0407C116.637 100.178 116.751 101.771 116.751 103.527C116.751 105.283 116.786 106.876 116.786 108.028C116.786 108.568 116.786 109.023 116.786 109.393C116.782 109.56 116.763 109.727 116.729 109.891Z" fill="#6B201D"/>
<path d="M112.094 124.332C112.094 124.332 112.406 123.905 112.805 123.173C113.05 122.743 113.263 122.297 113.444 121.836C113.655 121.267 113.819 120.682 113.935 120.087C114.034 119.493 114.084 118.891 114.084 118.288C114.076 117.793 114.033 117.299 113.956 116.809C113.814 115.977 113.629 115.48 113.672 115.465C113.743 115.569 113.796 115.685 113.828 115.807C113.951 116.122 114.043 116.448 114.106 116.781C114.215 117.274 114.277 117.776 114.29 118.281C114.303 118.9 114.258 119.519 114.155 120.13C114.038 120.737 113.865 121.332 113.636 121.907C113.439 122.375 113.201 122.825 112.925 123.251C112.746 123.539 112.544 123.813 112.321 124.069C112.254 124.164 112.178 124.252 112.094 124.332Z" fill="#6B201D"/>
<path d="M121.714 121.637L126.47 123.287C126.47 123.287 131.014 120.94 134.142 123.287C137.271 125.633 139.994 131.819 139.119 134.336C139.119 134.336 136.986 137.002 135.316 137.393C133.645 137.785 127.281 136.242 124.65 135.68C122.019 135.118 117.398 132.125 117.398 132.125L121.714 121.637Z" fill="#D2AA70"/>
<path d="M122.297 128.648C122.264 128.51 122.248 128.37 122.247 128.228C122.247 127.901 122.205 127.517 122.183 127.076C122.126 126.102 122.062 124.766 122.041 123.28C122.014 122.01 122.052 120.741 122.155 119.476C122.197 118.992 122.247 118.601 122.297 118.331C122.31 118.189 122.344 118.05 122.397 117.918C122.397 117.918 122.354 118.516 122.311 119.483C122.268 120.45 122.247 121.794 122.268 123.272C122.29 124.751 122.318 126.038 122.34 127.069C122.34 127.56 122.34 127.951 122.34 128.221C122.345 128.365 122.331 128.508 122.297 128.648Z" fill="#6B201D"/>
<path d="M137.982 123.102C137.489 122.592 136.962 122.117 136.403 121.68C135.029 120.648 133.379 120.047 131.663 119.952C129.947 119.857 128.242 120.273 126.762 121.147C126.154 121.519 125.575 121.935 125.027 122.391C125.144 122.235 125.277 122.091 125.425 121.964C125.806 121.602 126.226 121.283 126.676 121.011C128.169 120.077 129.914 119.628 131.672 119.725C133.43 119.821 135.115 120.46 136.496 121.552C136.913 121.875 137.296 122.24 137.64 122.64C137.775 122.777 137.89 122.932 137.982 123.102Z" fill="#100808"/>
<path d="M137.37 119.134C136.757 118.694 136.094 118.329 135.394 118.046C133.67 117.436 131.798 117.379 130.04 117.883C129.073 118.155 128.142 118.542 127.267 119.035C126.556 119.446 125.885 119.922 125.262 120.457C124.728 120.912 124.323 121.31 124.039 121.587C123.902 121.74 123.752 121.88 123.591 122.007C123.704 121.834 123.832 121.673 123.975 121.523C124.348 121.108 124.742 120.711 125.155 120.336C125.774 119.776 126.448 119.28 127.167 118.857C128.05 118.345 128.994 117.946 129.976 117.67C131.777 117.146 133.7 117.226 135.451 117.897C135.973 118.106 136.466 118.383 136.915 118.722C137.037 118.814 137.154 118.914 137.264 119.02C137.342 119.092 137.378 119.134 137.37 119.134Z" fill="#100808"/>
<path d="M137.413 115.7C137.413 115.743 136.567 115.487 135.187 115.302C134.379 115.196 133.564 115.144 132.748 115.145C131.75 115.16 130.754 115.25 129.769 115.416C128.788 115.596 127.823 115.853 126.882 116.184C126.114 116.455 125.365 116.78 124.643 117.158C123.406 117.805 122.716 118.331 122.688 118.288C122.836 118.15 122.995 118.024 123.164 117.911C123.352 117.764 123.549 117.628 123.754 117.506C123.989 117.357 124.252 117.179 124.565 117.015C125.287 116.616 126.038 116.272 126.811 115.984C127.762 115.642 128.74 115.378 129.734 115.195C130.73 115.031 131.738 114.945 132.748 114.939C133.573 114.945 134.395 115.014 135.209 115.145C135.557 115.188 135.87 115.266 136.14 115.323C136.41 115.38 136.645 115.444 136.851 115.501C137.044 115.551 137.232 115.618 137.413 115.7Z" fill="#100808"/>
<path d="M100.966 73.6357C101.145 74.0367 101.258 74.4641 101.3 74.9013C101.424 76.1313 101.361 77.3729 101.115 78.5844C100.961 79.4535 100.757 80.3129 100.504 81.1583C100.161 82.1375 99.7431 83.0884 99.2525 84.0024C98.2286 85.9791 96.9416 88.1335 95.4484 90.4017L95.2707 90.6719V90.3519C95.2707 88.8303 95.2707 87.2376 95.2707 85.5809L95.4342 85.6591C94.1614 86.6972 92.8106 87.7922 91.4241 88.9014L91.4596 88.8516C90.4911 91.985 89.8922 95.2208 89.675 98.4932C89.411 103.412 89.468 108.343 89.8456 113.254C90.0589 117.798 90.194 121.893 90.3362 125.342C90.4784 128.79 90.5993 131.556 90.7059 133.476C90.7557 134.421 90.8054 135.168 90.8339 135.68L90.8694 136.256C90.8694 136.384 90.8694 136.455 90.8694 136.455C90.8661 136.389 90.8661 136.322 90.8694 136.256L90.8125 135.687C90.7627 135.182 90.6987 134.436 90.6347 133.476C90.5068 131.563 90.3575 128.783 90.2011 125.349C90.0447 121.914 89.8669 117.819 89.6607 113.261C89.2673 108.341 89.2055 103.4 89.4759 98.4719C89.6943 95.1799 90.2981 91.9248 91.2748 88.7734L95.292 85.5454L95.4627 85.4103V85.6236C95.4627 87.2803 95.4627 88.873 95.4627 90.3946L95.2849 90.3377C98.2357 85.7587 100.639 81.8054 101.009 78.5702C101.261 77.367 101.337 76.1336 101.236 74.9084C101.206 74.5867 101.148 74.268 101.066 73.9556C100.995 73.7423 100.966 73.6357 100.966 73.6357Z" fill="#100808"/>
<path d="M93.2655 129.046H93.1091C92.8734 129.052 92.6446 129.126 92.4504 129.26C92.2562 129.394 92.1051 129.581 92.0155 129.8C91.9259 130.018 91.9017 130.257 91.9457 130.489C91.9898 130.72 92.1003 130.934 92.2638 131.104C92.4272 131.274 92.6365 131.393 92.8663 131.446C93.096 131.499 93.3362 131.484 93.5577 131.403C93.7792 131.322 93.9722 131.179 94.1135 130.99C94.2548 130.801 94.3382 130.575 94.3534 130.34C94.3651 130.028 94.2603 129.722 94.0592 129.483C93.8581 129.244 93.5752 129.088 93.2655 129.046Z" fill="white"/>
<path d="M93.2655 112.493H93.1091C92.8734 112.499 92.6446 112.574 92.4504 112.708C92.2562 112.841 92.1051 113.029 92.0155 113.247C91.9259 113.465 91.9017 113.704 91.9457 113.936C91.9898 114.168 92.1003 114.382 92.2638 114.551C92.4272 114.721 92.6365 114.84 92.8663 114.893C93.096 114.946 93.3362 114.932 93.5577 114.851C93.7792 114.77 93.9722 114.626 94.1135 114.437C94.2548 114.249 94.3382 114.023 94.3534 113.787C94.3668 113.475 94.2625 113.168 94.0611 112.929C93.8597 112.689 93.5758 112.534 93.2655 112.493Z" fill="white"/>
<path d="M93.102 97.6755C93.2607 97.6863 93.4201 97.6656 93.5709 97.6148C93.7216 97.564 93.8609 97.4839 93.9807 97.3793C94.1005 97.2746 94.1985 97.1474 94.2692 97.0048C94.3399 96.8623 94.3819 96.7073 94.3926 96.5485C94.4034 96.3898 94.3827 96.2305 94.3319 96.0797C94.2811 95.929 94.201 95.7897 94.0963 95.6698C93.9917 95.55 93.8644 95.452 93.7219 95.3813C93.5793 95.3106 93.4242 95.2687 93.2655 95.258H93.1091C92.7885 95.258 92.4812 95.3854 92.2545 95.612C92.0278 95.8387 91.9004 96.1462 91.9004 96.4668C91.9004 96.7873 92.0278 97.0948 92.2545 97.3215C92.4812 97.5482 92.7885 97.6755 93.1091 97.6755H93.102Z" fill="white"/>
<path d="M74.5583 54.2317C72.9871 52.623 71.6036 50.8412 70.4344 48.9204C69.2477 46.9869 68.7467 44.7101 69.0123 42.4571C69.2256 41.1559 69.7802 39.9188 69.8655 38.6105C69.9864 36.8045 69.2256 34.9203 69.8655 33.228C70.868 30.5901 74.4231 30.1777 76.5847 28.3575C78.2627 26.9354 79.0804 24.6246 80.9291 23.43C82.5432 22.3848 84.6121 22.4062 86.5177 22.6763C88.4232 22.9465 90.3359 23.3874 92.2059 23.167C93.547 22.8873 94.8716 22.5336 96.1735 22.1075C97.4934 21.6827 98.9259 21.7794 100.177 22.3777C101.364 23.0888 102.025 24.7526 101.25 25.8831C103.462 24.8592 106.263 26.5941 106.867 28.9405C107.472 31.2869 106.263 33.8395 104.393 35.3895C102.523 36.9396 100.127 37.6648 97.7093 38.1199C90.9474 39.3926 83.6096 38.6745 77.8005 35.0127" fill="#100808"/>
<path d="M98.335 76.9775C98.008 74.4178 97.7377 72.2776 97.7235 72.0003C97.7235 72.0003 106.256 70.0805 105.808 61.4273C105.58 57.2394 104.386 48.6288 103.262 40.9213C102.664 36.907 100.576 33.2651 97.4138 30.7209C94.2516 28.1766 90.2471 26.9165 86.1977 27.1914L85.3659 27.2483C76.3998 28.3788 72.354 36.6196 73.7263 45.543L78.5613 75.4701C78.5613 75.4701 80.6234 82.0898 85.0389 83.2417L90.6061 91.1909L91.5304 87.7709L95.6829 84.1589C96.477 83.2231 97.1615 82.1997 97.7235 81.1086C98.3672 79.8334 98.5818 78.3844 98.335 76.9775Z" fill="#D2AA70"/>
<path d="M97.7235 71.8865C93.7379 72.2291 89.7405 71.3776 86.2405 69.4406C86.2405 69.4406 89.3191 75.4843 97.8941 74.1263L97.7235 71.8865Z" fill="#6B201D"/>
<path d="M100.482 48.3729C100.506 48.6944 100.404 49.0125 100.196 49.2595C99.9893 49.5065 99.6939 49.6629 99.3731 49.6954C99.217 49.7184 99.0578 49.7101 98.9049 49.6708C98.7521 49.6316 98.6086 49.5623 98.4828 49.467C98.357 49.3717 98.2515 49.2522 98.1724 49.1156C98.0933 48.979 98.0423 48.828 98.0222 48.6715C97.9983 48.3492 98.1006 48.0302 98.3076 47.7821C98.5146 47.5339 98.8099 47.3761 99.1313 47.3419C99.2878 47.3199 99.4473 47.3292 99.6002 47.3693C99.7531 47.4093 99.8965 47.4793 100.022 47.5752C100.148 47.6711 100.253 47.791 100.332 47.9279C100.411 48.0648 100.462 48.2161 100.482 48.3729Z" fill="#100808"/>
<path d="M101.684 45.3012C101.542 45.4718 100.561 44.8461 99.2309 44.9386C97.9013 45.031 96.9768 45.7562 96.8204 45.6069C96.664 45.4576 96.8845 45.2372 97.2827 44.8959C97.8348 44.468 98.5048 44.2199 99.2024 44.1849C99.8953 44.1355 100.586 44.31 101.172 44.6826C101.599 44.9457 101.755 45.223 101.684 45.3012Z" fill="#100808"/>
<path d="M87.9254 49.2688C87.9512 49.5907 87.8493 49.9098 87.6418 50.1573C87.4343 50.4047 87.1378 50.5606 86.8164 50.5913C86.6605 50.6153 86.5014 50.6076 86.3485 50.5687C86.1957 50.5298 86.0522 50.4605 85.9267 50.365C85.8013 50.2694 85.6965 50.1495 85.6184 50.0124C85.5404 49.8754 85.4907 49.7241 85.4724 49.5674C85.4485 49.2451 85.5508 48.9262 85.7578 48.678C85.9648 48.4299 86.2603 48.272 86.5817 48.2378C86.7378 48.2158 86.8967 48.2252 87.0491 48.2653C87.2016 48.3055 87.3447 48.3756 87.4698 48.4716C87.5949 48.5675 87.6996 48.6874 87.7779 48.8243C87.8561 48.9612 87.9062 49.1123 87.9254 49.2688Z" fill="#100808"/>
<path d="M88.6437 46.4246C88.5015 46.5953 87.5132 45.9696 86.1907 46.062C84.8681 46.1545 83.9297 46.8797 83.7732 46.7304C83.6168 46.5811 83.8372 46.3607 84.2424 46.0194C84.7936 45.5899 85.4642 45.3415 86.1622 45.3083C86.8518 45.2599 87.539 45.4317 88.1246 45.7989C88.5441 46.0691 88.7148 46.3464 88.6437 46.4246Z" fill="#100808"/>
<path d="M94.126 55.9595C94.8105 55.6875 95.5276 55.5059 96.259 55.4192C96.6003 55.3623 96.9132 55.277 96.9701 55.0423C96.9771 54.6885 96.8753 54.341 96.6784 54.0469C96.3016 53.2505 95.9106 52.4115 95.5053 51.537C93.8628 47.9463 92.6612 44.9884 92.7962 44.9244C92.9313 44.8604 94.389 47.7116 96.0243 51.3237L97.1621 53.8549C97.4044 54.2504 97.4976 54.7193 97.425 55.1774C97.3854 55.3002 97.3179 55.4123 97.2278 55.5048C97.1378 55.5973 97.0277 55.6677 96.906 55.7107C96.7196 55.7739 96.5262 55.8144 96.33 55.8315C95.6031 55.9621 94.8632 56.0051 94.126 55.9595Z" fill="#100808"/>
<path d="M88.6366 41.1915C88.5299 41.5683 87.2145 41.483 85.6432 41.7745C84.0718 42.0661 82.8702 42.578 82.6355 42.2651C82.536 42.1158 82.7351 41.7603 83.2186 41.3764C83.8641 40.896 84.6149 40.5767 85.4087 40.4449C86.1984 40.2927 87.0132 40.3342 87.7834 40.5658C88.3735 40.7578 88.6792 41.0208 88.6366 41.1915Z" fill="#100808"/>
<path d="M100.937 41.4901C100.724 41.8101 99.7925 41.5541 98.6904 41.6181C97.5883 41.6821 96.6711 41.9523 96.4365 41.6181C96.3298 41.4688 96.4364 41.1559 96.8416 40.8431C97.3678 40.4673 97.993 40.2548 98.6392 40.2321C99.2853 40.2093 99.9238 40.3773 100.475 40.7151C100.887 41.035 101.037 41.3337 100.937 41.4901Z" fill="#100808"/>
<path d="M74.8782 51.9137C74.7217 51.8569 68.8203 50.5486 69.4033 56.4501C69.9863 62.3516 76.3783 60.4248 76.3712 60.2541C76.3641 60.0835 74.8782 51.9137 74.8782 51.9137Z" fill="#D2AA70"/>
<path d="M73.7619 58.3201C73.7619 58.3201 73.6625 58.3983 73.4989 58.4979C73.2642 58.6257 72.9893 58.6588 72.731 58.5903C72.0839 58.4197 71.4653 57.4882 71.3089 56.4572C71.2417 55.9528 71.2903 55.4398 71.4511 54.957C71.4883 54.7647 71.5729 54.5848 71.6971 54.4334C71.8212 54.2819 71.9809 54.1638 72.1621 54.0895C72.2778 54.0465 72.4049 54.045 72.5216 54.0852C72.6383 54.1254 72.7375 54.2048 72.8021 54.3099C72.8946 54.4664 72.866 54.5872 72.9016 54.5943C72.9372 54.6014 73.0154 54.4877 72.9443 54.2459C72.8989 54.1012 72.8029 53.9775 72.674 53.8975C72.4989 53.7925 72.2901 53.7593 72.0911 53.8051C71.8523 53.875 71.6359 54.0063 71.4637 54.186C71.2916 54.3657 71.1695 54.5874 71.1098 54.829C70.9103 55.3644 70.8444 55.9404 70.9178 56.507C71.0742 57.6873 71.7923 58.7396 72.6669 58.9032C72.8298 58.9344 72.9977 58.9282 73.1578 58.8851C73.3179 58.842 73.4661 58.7631 73.5913 58.6543C73.7619 58.4623 73.7832 58.3272 73.7619 58.3201Z" fill="#6B201D"/>
<path d="M102.822 32.8796C102.424 35.226 97.6597 37.3733 93.7064 37.2595C90.073 37.1529 88.2741 35.3469 85.6291 34.067C83.951 33.2564 83.9512 33.2564 81.683 33.6191C79.8414 33.9177 78.8886 36.0863 77.8576 37.6364C79.8271 41.9025 79.0308 46.8797 78.1988 51.537C78.1657 52.0647 77.9553 52.5658 77.6017 52.959C76.9404 53.5421 75.8596 53.1936 75.2126 52.5964C74.239 51.5561 73.5913 50.2534 73.3496 48.8493C72.5178 45.7228 72.3197 42.4617 72.7667 39.2575C73.2197 36.0425 74.6066 33.0312 76.7554 30.5972C79.56 27.6379 83.4046 25.8839 87.4778 25.7053C91.5383 25.557 95.542 26.6942 98.9183 28.9547C100.528 29.9216 101.87 31.2758 102.822 32.8938" fill="#100808"/>
<path d="M94.9936 58.9458L91.9859 57.5238C91.8209 57.4248 91.6308 57.3754 91.4384 57.3816C91.2273 57.4316 91.0423 57.5583 90.9194 57.7371C90.5678 58.1595 90.3485 58.6762 90.2891 59.2225C90.2297 59.7689 90.3327 60.3206 90.5852 60.8087C90.8614 61.2887 91.2979 61.656 91.8181 61.8458C92.3383 62.0357 92.9089 62.036 93.4293 61.8468C94.4959 61.406 95.0148 60.1688 95.093 59.0027L94.9936 58.9458Z" fill="#6B201D"/>
<path d="M93.5216 62.0815C93.5216 62.0815 93.3864 62.1952 93.0806 62.2521C92.6485 62.3326 92.203 62.3008 91.7867 62.1597C91.1544 61.9439 90.6231 61.5037 90.2935 60.9225C90.0912 60.564 89.9704 60.1654 89.9397 59.7549C89.909 59.3444 89.9691 58.9323 90.1157 58.5477C90.2721 58.1487 90.5149 57.7893 90.8267 57.4954C90.9736 57.3544 91.1357 57.2304 91.3102 57.1256C91.4176 57.066 91.5363 57.0297 91.6586 57.019C91.7779 57.0155 91.8968 57.0373 92.0072 57.0829C92.169 57.1632 92.3257 57.2535 92.4764 57.3531L92.8888 57.602L93.5999 58.057C94.1166 58.3261 94.5949 58.6633 95.0219 59.0596C94.4749 58.8893 93.9516 58.6504 93.4646 58.3486L92.704 57.9362L92.2844 57.7015C92.1422 57.6304 91.9857 57.5309 91.8577 57.4811C91.8082 57.4517 91.7517 57.4362 91.6942 57.4362C91.6366 57.4362 91.5801 57.4517 91.5307 57.4811C91.0822 57.7713 90.7385 58.1974 90.5495 58.697C90.3258 59.2975 90.3439 59.9614 90.5999 60.5489C90.8558 61.1364 91.3297 61.6017 91.9218 61.8468C92.2918 61.9974 92.6883 62.0723 93.0878 62.0673C93.3295 62.0744 93.5216 62.0459 93.5216 62.0815Z" fill="#100808"/>
<path d="M92.5544 48.5222C92.5088 48.0199 92.4306 47.5211 92.3199 47.029C91.9677 45.6942 91.1761 44.5171 90.0729 43.6872C89.3203 43.1146 88.4435 42.7273 87.5134 42.5566C86.4458 42.3646 85.3463 42.4603 84.328 42.834C83.7792 43.029 83.2635 43.3072 82.7991 43.6587C82.3058 44.0158 81.8738 44.4504 81.5194 44.9457C80.7571 45.9823 80.3458 47.2354 80.3458 48.5222C80.3458 49.8089 80.7571 51.062 81.5194 52.0986C82.2392 53.0717 83.2278 53.8132 84.3635 54.2317C85.3825 54.6033 86.482 54.6966 87.5489 54.5019C88.4791 54.3312 89.3559 53.944 90.1085 53.3714C91.21 52.5429 92.0013 51.3686 92.3555 50.0367C92.465 49.5444 92.5433 49.0456 92.59 48.5435C92.5935 48.5766 92.5935 48.6099 92.59 48.643V48.9132C92.6021 49.0718 92.6021 49.231 92.59 49.3896C92.5652 49.6074 92.5272 49.8235 92.4763 50.0367C92.3361 50.621 92.1109 51.1815 91.808 51.7004C91.4031 52.3883 90.8694 52.9918 90.2365 53.478C89.4704 54.0737 88.5735 54.4784 87.6199 54.6583C86.5194 54.8683 85.3828 54.7799 84.328 54.4023C83.162 53.9822 82.1472 53.2248 81.4127 52.2266C80.6189 51.1533 80.1904 49.8536 80.1904 48.5186C80.1904 47.1836 80.6189 45.8839 81.4127 44.8106C82.1535 43.8186 83.1662 43.0628 84.328 42.6348C85.3828 42.2573 86.5194 42.1689 87.6199 42.3789C88.5735 42.5589 89.4704 42.9635 90.2365 43.5592C90.8698 44.0479 91.4034 44.6538 91.808 45.3439C92.1132 45.8617 92.3385 46.4226 92.4763 47.0077C92.5272 47.2185 92.5651 47.4322 92.59 47.6476C92.6021 47.8061 92.6021 47.9654 92.59 48.124V48.4226C92.5813 48.4568 92.5694 48.4902 92.5544 48.5222Z" fill="#100808"/>
<path d="M107.266 47.9391C107.218 47.4606 107.139 46.9856 107.031 46.5171C106.824 45.7156 106.452 44.9662 105.938 44.3172C105.424 43.6682 104.78 43.134 104.048 42.7489C103.315 42.3638 102.51 42.1363 101.684 42.0811C100.858 42.026 100.03 42.1444 99.2523 42.4287C98.7266 42.6186 98.2328 42.8871 97.7876 43.225C97.3094 43.574 96.8895 43.9963 96.5433 44.4764C95.7995 45.4858 95.3983 46.7067 95.3983 47.9604C95.3983 49.2142 95.7995 50.4351 96.5433 51.4445C96.8875 51.9263 97.3078 52.3489 97.7876 52.6959C98.2408 53.0411 98.7444 53.3145 99.2808 53.5065C100.273 53.8652 101.342 53.9559 102.381 53.7696C103.287 53.6024 104.142 53.225 104.876 52.6675C105.949 51.8611 106.718 50.7161 107.059 49.4181C107.168 48.9497 107.247 48.4746 107.294 47.996C107.303 48.1238 107.303 48.2522 107.294 48.38C107.306 48.5362 107.306 48.693 107.294 48.8492C107.272 49.0604 107.234 49.2695 107.18 49.4749C106.908 50.6008 106.317 51.6245 105.478 52.4238C104.64 53.2231 103.59 53.7643 102.452 53.9829C101.38 54.1883 100.273 54.1023 99.2452 53.734C98.6898 53.539 98.1672 53.2609 97.6952 52.9092C97.1988 52.5454 96.7621 52.1064 96.4011 51.608C95.6296 50.5617 95.2134 49.296 95.2134 47.996C95.2134 46.6961 95.6296 45.4303 96.4011 44.384C97.1151 43.4052 98.1056 42.6623 99.2452 42.2509C100.203 41.9019 101.233 41.8011 102.24 41.9577C103.247 42.1144 104.198 42.5235 105.004 43.1468C106.095 43.984 106.864 45.1719 107.18 46.51C107.235 46.7151 107.273 46.9244 107.294 47.1357C107.306 47.2895 107.306 47.444 107.294 47.5979C107.292 47.7121 107.283 47.8261 107.266 47.9391Z" fill="#100808"/>
<path d="M95.256 46.5811C95.256 46.5811 95.0926 46.4887 94.8295 46.3678C94.493 46.2042 94.1229 46.1214 93.7487 46.1261C93.3743 46.1351 93.007 46.2299 92.6751 46.4033C92.4191 46.5384 92.2839 46.6593 92.2555 46.638C92.227 46.6166 92.3408 46.446 92.5968 46.2683C92.9371 46.0399 93.3361 45.9144 93.7459 45.9068C94.1558 45.8992 94.559 46.0099 94.9076 46.2256C95.1707 46.3962 95.2773 46.5669 95.256 46.5811Z" fill="#100808"/>
<path d="M80.6021 47.6476C78.8556 49.14 77.0124 50.5153 75.0845 51.7645C75.9374 50.9979 76.8374 50.2855 77.7793 49.6314C78.6762 48.9096 79.6191 48.247 80.6021 47.6476Z" fill="#100808"/>
<g opacity="0.3">
<path d="M75.5183 75.6052C74.921 81.4356 77.1395 87.586 81.8181 91.1198C81.98 91.283 82.1792 91.4044 82.3984 91.4738C82.6176 91.5431 82.8503 91.5583 83.0766 91.518C83.3649 91.3735 83.5956 91.1353 83.7307 90.8425C85.0486 88.5809 85.5506 85.9355 85.1528 83.3483C84.4417 85.3036 83.7734 87.2163 83.0197 89.2569C78.9242 86.7826 76.3857 81.5209 75.5183 75.6052Z" fill="black"/>
</g>
<path opacity="0.3" d="M91.3884 88.8588L94.8156 87.6074L95.3845 93.4094C95.3845 93.4094 99.0888 86.6617 100.618 83.583C102.146 80.5042 101.364 75.0506 101.364 75.0506C101.364 75.0506 101.912 79.779 98.2001 85.8156L95.3985 90.3733V85.6022L91.3884 88.8588Z" fill="black"/>
<g opacity="0.3">
<path d="M51.4359 118.352C49.8662 117.689 48.1437 117.472 46.4587 117.726C44.6562 117.872 42.9311 118.522 41.4815 119.604C40.7739 120.151 40.2099 120.862 39.8383 121.676C39.4667 122.49 39.2986 123.382 39.3484 124.275H39.519C40.7136 121.033 43.0741 118.679 46.167 118.395C47.6932 118.292 49.2227 118.539 50.6394 119.115C52.0562 119.692 53.3229 120.583 54.3439 121.722C54.1448 120.066 52.993 119.077 51.4359 118.352Z" fill="black"/>
</g>
<g opacity="0.3">
<path d="M138.202 121.666C137.012 120.446 135.457 119.645 133.773 119.383C132.303 119.138 130.797 119.226 129.366 119.641C127.934 120.056 126.615 120.786 125.503 121.779L126.158 121.246C127.819 120.245 129.728 119.727 131.668 119.753C133.614 119.783 135.482 120.527 136.915 121.843C138.121 123.148 139.067 124.671 139.703 126.33C139.82 125.49 139.746 124.634 139.486 123.826C139.227 123.018 138.788 122.28 138.202 121.666Z" fill="black"/>
</g>
<path d="M116.082 94.7176C116.115 94.5554 116.168 94.3978 116.239 94.2484L116.729 92.9969C117.142 91.9446 117.711 90.487 118.315 88.873C118.919 87.259 119.438 85.78 119.808 84.7135L120.256 83.4479C120.3 83.2883 120.364 83.1353 120.448 82.9928C120.429 83.1571 120.393 83.3191 120.341 83.4763C120.256 83.782 120.128 84.1873 119.957 84.7632C119.623 85.844 119.125 87.3301 118.535 88.9512C117.945 90.5723 117.334 92.0229 116.879 93.061C116.651 93.58 116.466 93.9924 116.324 94.2768C116.261 94.4327 116.18 94.5807 116.082 94.7176Z" fill="#100808"/>
<path d="M61.9306 95.13C61.8667 95.13 61.4045 93.0965 60.8855 90.5652C60.3664 88.034 60.0037 85.9649 60.0606 85.9507C60.1174 85.9364 60.5867 87.9842 61.1057 90.5226C61.6248 93.0609 61.9875 95.13 61.9306 95.13Z" fill="#100808"/>
<path d="M61.12 120.727C61.2551 120.791 59.5415 107.338 59.5415 107.338C59.5415 107.338 60.6223 97.128 61.2267 96.6729V93.068C61.2267 93.068 62.8976 92.0584 63.3598 93.6866C63.3598 93.6866 64.8387 92.4068 65.0947 95.4642C65.3506 98.5216 65.4075 101.65 65.4075 101.65L68.7067 109.891L69.2471 110.168C69.2471 110.168 69.958 103.712 70.3704 102.759C70.7828 101.807 71.0816 99.5029 72.6245 99.8513C74.1674 100.2 74.3168 101.487 74.0466 103.591C73.7108 105.454 73.5441 107.344 73.5487 109.237C73.6767 110.595 74.2598 113.588 74.1104 115.97C73.7883 118.405 72.8046 120.704 71.2663 122.618C69.9012 124.382 67.2918 128.022 65.8698 129.124C65.3436 129.458 61.12 120.727 61.12 120.727Z" fill="#D2AA70"/>
<path d="M62.7838 109.742C62.7636 109.55 62.7636 109.357 62.7838 109.166L62.8904 107.601C62.9899 106.286 63.1464 104.466 63.3313 102.454C63.4237 101.451 63.5161 100.498 63.6014 99.6095C63.6473 99.2055 63.6473 98.7977 63.6014 98.3937C63.559 98.0493 63.4156 97.7252 63.1891 97.4622C63.017 97.2777 62.809 97.1301 62.5779 97.0286C62.3469 96.9272 62.0975 96.8739 61.8452 96.8721C61.6568 96.8853 61.4692 96.909 61.2834 96.9432C61.2834 96.9432 61.3262 96.9432 61.4187 96.8721C61.5538 96.8241 61.6949 96.7954 61.8381 96.7867C62.1089 96.7691 62.3805 96.8109 62.6335 96.9092C62.8865 97.0074 63.1149 97.1598 63.3028 97.3556C63.5623 97.6347 63.7287 97.9875 63.7792 98.3652C63.8362 98.7828 63.8362 99.2062 63.7792 99.6237C63.7081 100.498 63.6228 101.458 63.5304 102.468C63.3455 104.473 63.1678 106.293 63.0256 107.609L62.8478 109.166C62.847 109.359 62.8254 109.552 62.7838 109.742Z" fill="#6B201D"/>
<path d="M64.5541 104.238C64.3131 104.564 64.1169 104.92 63.971 105.298C63.7059 106.25 63.5228 107.223 63.4235 108.206C63.2457 109.358 63.068 110.396 62.9329 111.142C62.8813 111.552 62.7933 111.957 62.6699 112.351C62.6704 111.939 62.706 111.527 62.7765 111.121C62.8761 110.367 63.0254 109.322 63.2032 108.17C63.3042 107.175 63.5115 106.192 63.8217 105.241C63.9387 104.957 64.0994 104.693 64.298 104.459C64.3644 104.366 64.4523 104.29 64.5541 104.238Z" fill="#6B201D"/>
<path d="M63.3455 93.4591C63.398 93.597 63.4361 93.74 63.4592 93.8857C63.516 94.163 63.5943 94.5968 63.6725 95.0589C63.836 96.0473 64.0208 97.4338 64.1346 98.9625C64.2484 100.491 64.2698 101.885 64.2556 102.894C64.2556 103.392 64.2556 103.805 64.2129 104.082C64.218 104.229 64.1987 104.375 64.156 104.516C64.156 104.516 64.1561 103.897 64.0921 102.894C64.0281 101.892 64.021 100.505 63.9072 98.9767C63.7934 97.4479 63.6441 96.0757 63.5161 95.0802C63.4264 94.5438 63.3694 94.0025 63.3455 93.4591Z" fill="#6B201D"/>
<path d="M72.852 106.08C72.6876 106.182 72.5013 106.243 72.3084 106.26C72.1156 106.276 71.9219 106.246 71.7429 106.172C71.5514 106.131 71.3723 106.045 71.2204 105.921C71.0684 105.798 70.9477 105.64 70.8682 105.461C71.1676 105.647 71.4815 105.809 71.8068 105.945C72.1512 106.016 72.5006 106.061 72.852 106.08Z" fill="#6B201D"/>
<path d="M61.3047 119.013L52.5946 122.675H47.4112C47.4112 122.675 42.2777 124.275 41.4885 129.074C40.6992 133.874 40.5854 136.355 42.8394 136.953C45.0933 137.55 51.4713 137.614 54.6283 136.569C57.7852 135.524 66.0545 128.847 66.0545 128.847L66.8508 124.012L61.3047 119.013Z" fill="#D2AA70"/>
<path d="M63.3456 124.332C63.3456 124.332 63.246 124.261 63.0967 124.104C62.8855 123.885 62.6951 123.647 62.5278 123.393C61.9855 122.543 61.5755 121.615 61.312 120.642C61.0426 119.674 60.864 118.684 60.7787 117.684C60.7294 117.27 60.7294 116.853 60.7787 116.439C60.8726 116.842 60.9368 117.251 60.9707 117.662C61.1028 118.646 61.3 119.62 61.5609 120.578C61.822 121.533 62.2042 122.45 62.6985 123.308C63.054 123.955 63.374 124.282 63.3456 124.332Z" fill="#6B201D"/>
<path d="M67.1351 125.861C67.3614 125.255 67.5259 124.629 67.6258 123.991C67.7134 123.3 67.6796 122.6 67.5262 121.922C67.3322 121.091 66.9692 120.309 66.4596 119.625C65.9335 118.914 65.3362 118.203 64.8313 117.613C64.3734 117.067 63.9798 116.471 63.6582 115.835C63.4413 115.404 63.2948 114.94 63.2244 114.463C63.1964 114.286 63.1964 114.106 63.2244 113.93C63.3253 114.569 63.527 115.188 63.8217 115.764C64.1594 116.377 64.5596 116.954 65.0162 117.485C65.521 118.096 66.1184 118.736 66.6659 119.497C67.1908 120.205 67.5592 121.017 67.7466 121.879C67.8949 122.581 67.9142 123.303 67.8036 124.012C67.7375 124.502 67.6035 124.981 67.4053 125.434C67.3555 125.553 67.2986 125.67 67.2347 125.782C67.1636 125.825 67.1422 125.861 67.1351 125.861Z" fill="#6B201D"/>
<path d="M53.7037 104.892C52.927 103.643 52.2151 102.354 51.5707 101.032C50.8593 99.7461 50.2161 98.4242 49.6438 97.0711C50.4205 98.3207 51.1325 99.6093 51.7769 100.932C52.4883 102.217 53.1314 103.539 53.7037 104.892Z" fill="white"/>
<path d="M67.7893 89.2214C68.157 88.1202 68.5963 87.0442 69.1046 86.0004C69.5429 84.9266 70.0488 83.8817 70.6192 82.8719C70.2501 83.9726 69.8107 85.0485 69.3037 86.0928C68.8671 87.1674 68.3613 88.2124 67.7893 89.2214Z" fill="white"/>
<path d="M81.5832 99.3962C80.868 98.714 80.2071 97.977 79.6065 97.192C78.9449 96.4569 78.3433 95.6699 77.8076 94.8385C79.1734 96.2656 80.4352 97.7887 81.5832 99.3962Z" fill="white"/>
<path d="M78.4048 113.382C78.8404 112.596 79.3398 111.847 79.898 111.142C80.3923 110.386 80.9487 109.673 81.5617 109.009C81.1333 109.8 80.6362 110.552 80.0758 111.256C79.5816 112.012 79.0225 112.723 78.4048 113.382Z" fill="white"/>
<path d="M74.1387 133.149C73.9354 132.881 73.7659 132.59 73.6339 132.281C73.3495 131.734 72.9869 130.966 72.6172 130.098C72.2475 129.231 71.9487 128.442 71.7496 127.852C71.6204 127.544 71.5297 127.221 71.4795 126.892C71.6496 127.18 71.7902 127.485 71.8991 127.802C72.1693 128.442 72.482 129.188 72.8233 130.013L73.7761 132.217C73.9279 132.515 74.0494 132.827 74.1387 133.149Z" fill="white"/>
<path d="M86.2688 124.744C85.3893 124.69 84.516 124.559 83.6592 124.353C82.7897 124.225 81.9333 124.02 81.0996 123.742C82.8479 123.929 84.5772 124.265 86.2688 124.744Z" fill="white"/>
<path d="M95.6545 106.279C96.4298 105.285 97.2606 104.335 98.1431 103.435C98.973 102.485 99.8586 101.585 100.795 100.74C100.023 101.736 99.1916 102.686 98.3067 103.584C97.4789 104.536 96.5932 105.436 95.6545 106.279Z" fill="white"/>
<path d="M105.147 130.909C105.097 130.909 103.725 129.338 102.04 127.318C100.354 125.299 99.0675 123.621 99.1102 123.585C99.1528 123.55 100.532 125.15 102.217 127.176C103.902 129.202 105.189 130.866 105.147 130.909Z" fill="white"/>
<path d="M46.3873 120.414C46.3873 120.471 45.1502 121.125 43.7637 122.177C42.3772 123.23 41.4172 124.311 41.3674 124.239C41.5276 123.976 41.7239 123.737 41.9505 123.528C42.9808 122.435 44.1814 121.515 45.5057 120.805C45.7764 120.628 46.0741 120.496 46.3873 120.414Z" fill="white"/>
<path d="M49.9211 110.915C49.6561 111.526 49.3197 112.104 48.9186 112.636C48.579 113.212 48.176 113.749 47.717 114.235C47.9915 113.628 48.3299 113.051 48.7266 112.515C49.068 111.941 49.4683 111.405 49.9211 110.915Z" fill="white"/>
<path d="M57.8988 120.236C57.2081 119.145 56.9143 117.85 57.067 116.568C57.131 116.568 57.1523 117.414 57.3869 118.423C57.6216 119.433 57.9699 120.208 57.8988 120.236Z" fill="white"/>
<path d="M59.0791 90.6292C57.9909 90.934 56.8673 91.0942 55.7373 91.1056C56.8255 90.8009 57.9491 90.6407 59.0791 90.6292Z" fill="white"/>
<path d="M65.0805 80.0136C64.646 80.3806 64.1685 80.6934 63.6584 80.945C63.1696 81.2433 62.6469 81.482 62.1013 81.6561C62.5338 81.2863 63.0116 80.9733 63.5234 80.7246C64.007 80.4166 64.531 80.1773 65.0805 80.0136Z" fill="white"/>
<path d="M81.9102 84.5002C81.3049 83.8825 80.751 83.2167 80.2537 82.5093C79.7003 81.842 79.2055 81.1284 78.7747 80.3762C79.3836 80.993 79.938 81.6615 80.4314 82.3742C80.9883 83.0361 81.4833 83.7478 81.9102 84.5002Z" fill="white"/>
<path d="M103.298 95.1798C102.682 94.6216 102.159 93.9687 101.748 93.2458C101.275 92.5607 100.919 91.8013 100.696 90.999C100.76 90.999 101.222 91.9802 101.94 93.132C102.658 94.2839 103.348 95.13 103.298 95.1798Z" fill="white"/>
<path d="M111.454 97.8675C111.235 98.6393 110.944 99.3892 110.586 100.107C110.291 100.852 109.924 101.566 109.491 102.24C109.722 101.476 110.02 100.734 110.38 100.022C110.673 99.273 111.032 98.552 111.454 97.8675Z" fill="white"/>
<path d="M112.598 86.7328C111.818 85.9706 111.091 85.1558 110.422 84.294C109.701 83.4806 109.033 82.6208 108.424 81.7201C109.933 83.2898 111.328 84.965 112.598 86.7328Z" fill="white"/>
<path d="M100.134 77.6814C99.9936 76.9961 99.9268 76.2977 99.9347 75.5981C99.8708 74.9021 99.8827 74.2012 99.9703 73.5077C100.102 74.1943 100.166 74.892 100.162 75.591C100.222 76.287 100.213 76.9873 100.134 77.6814Z" fill="white"/>
<path d="M110.295 77.1197C109.425 77.3457 108.538 77.5027 107.643 77.589C106.757 77.7435 105.861 77.8243 104.962 77.8307C106.716 77.4426 108.5 77.2047 110.295 77.1197Z" fill="white"/>
<path d="M126.3 88.873C125.702 87.8974 125.17 86.8831 124.707 85.8369C124.168 84.8202 123.693 83.7705 123.285 82.6942C123.886 83.6717 124.42 84.6883 124.885 85.7373C125.423 86.7512 125.896 87.7986 126.3 88.873Z" fill="white"/>
<path d="M123.605 99.0336C123.658 98.2087 123.784 97.3903 123.982 96.5876C124.106 95.7728 124.304 94.9708 124.572 94.1915C124.523 95.0139 124.399 95.8303 124.202 96.6303C124.078 97.4482 123.878 98.2527 123.605 99.0336Z" fill="white"/>
<path d="M131.028 107.047C130.537 105.971 130.112 104.867 129.755 103.741C129.326 102.642 128.972 101.516 128.696 100.37C129.615 102.544 130.394 104.774 131.028 107.047Z" fill="white"/>
<path d="M129.997 111.725C129.229 111.619 128.49 111.355 127.828 110.95C127.124 110.611 126.498 110.126 125.994 109.528C126.037 109.479 126.826 110.133 127.935 110.73C129.044 111.327 130.018 111.661 129.997 111.725Z" fill="white"/>
<path d="M139.504 122.412C139.187 121.973 138.929 121.495 138.736 120.99C138.481 120.5 138.29 119.979 138.167 119.44C138.488 119.89 138.749 120.38 138.942 120.898C139.197 121.375 139.386 121.884 139.504 122.412Z" fill="white"/>
<path d="M83.3322 137.308C83.1534 136.687 83.0414 136.048 82.9981 135.403C82.8866 134.767 82.8508 134.12 82.8915 133.476C83.0703 134.097 83.1823 134.736 83.2256 135.381C83.3371 136.017 83.3729 136.664 83.3322 137.308Z" fill="white"/>
<path d="M112.513 136.569C112.539 135.941 112.634 135.319 112.798 134.713C112.892 134.091 113.059 133.483 113.295 132.9C113.187 134.15 112.924 135.383 112.513 136.569Z" fill="white"/>
<path d="M117.775 44.1636L122.681 35.5175C119.642 30.5906 118.556 24.7052 119.636 19.0182C120.716 13.3312 123.885 8.25394 128.518 4.78449C133.152 1.31505 138.916 -0.29562 144.677 0.269098C150.438 0.833816 155.78 3.53306 159.652 7.83626C163.524 12.1395 165.646 17.7353 165.601 23.5239C165.557 29.3124 163.348 34.8748 159.41 39.1178C155.473 43.3608 150.09 45.9774 144.321 46.4532C138.552 46.9291 132.814 45.2297 128.234 41.6892L117.775 44.1636Z" fill="#F7F2F2"/>
<path d="M117.775 44.1636L128.255 41.7674H128.362L128.298 41.6821L128.198 41.7816C131.415 44.3026 135.247 45.9179 139.297 46.4602C140.51 46.6304 141.736 46.6923 142.959 46.6451C143.592 46.6451 144.232 46.5953 144.879 46.5455L146.834 46.2469C152.658 45.1019 157.829 41.7847 161.297 36.968C163.221 34.2982 164.554 31.2488 165.207 28.0233C165.875 24.6153 165.78 21.1018 164.93 17.7347C164.052 14.2105 162.345 10.9465 159.953 8.21406L159.007 7.17594C158.694 6.82754 158.296 6.53603 157.99 6.21607C157.685 5.89611 157.322 5.56902 156.938 5.30594L155.829 4.47405C155.465 4.19122 155.08 3.93686 154.677 3.71324L153.504 3.00221L152.274 2.40498C151.875 2.19135 151.461 2.006 151.036 1.85035C147.742 0.546777 144.196 0.00239745 140.663 0.25766C137.319 0.495699 134.068 1.4667 131.142 3.10177C125.883 6.02727 121.952 10.8649 120.164 16.6113C119.445 19.0549 119.104 21.5943 119.154 24.141C119.22 26.3506 119.603 28.5393 120.292 30.6398C120.865 32.3844 121.644 34.0551 122.61 35.617V35.5459L117.76 44.2276L122.738 35.617V35.5815C121.79 34.0159 121.026 32.3457 120.462 30.6043C119.789 28.5186 119.42 26.3465 119.367 24.1553C119.326 21.6337 119.671 19.1207 120.391 16.7037C122.173 11.0189 126.073 6.23753 131.284 3.35061C134.18 1.74701 137.395 0.802605 140.698 0.584748C144.189 0.335316 147.691 0.87479 150.944 2.16321C151.364 2.31783 151.772 2.50076 152.167 2.71071L153.383 3.30083L154.542 4.01186C154.939 4.23472 155.319 4.48663 155.679 4.76555L156.774 5.58325C157.151 5.84633 157.485 6.18763 157.813 6.48627C158.14 6.7849 158.524 7.09061 158.815 7.4319L159.754 8.4629C162.109 11.1609 163.788 14.3804 164.653 17.8556C165.492 21.1856 165.587 24.6596 164.93 28.0304C164.29 31.2175 162.976 34.2309 161.076 36.8684C157.661 41.6546 152.55 44.9598 146.785 46.1118L144.851 46.4104C144.211 46.4673 143.571 46.4815 142.952 46.5171C141.738 46.5723 140.522 46.5152 139.319 46.3465C137.145 46.0599 135.024 45.4637 133.019 44.576C131.332 43.8175 129.74 42.8629 128.276 41.7319L127.843 41.4048L128.177 41.8314L128.22 41.7177L117.775 44.1636Z" fill="#5B1010"/>
<path d="M148.633 22.4417C148.633 22.8889 148.766 23.3261 149.014 23.6979C149.263 24.0698 149.616 24.3595 150.029 24.5307C150.442 24.7018 150.897 24.7466 151.335 24.6594C151.774 24.5721 152.177 24.3568 152.493 24.0406C152.809 23.7243 153.025 23.3214 153.112 22.8828C153.199 22.4442 153.154 21.9896 152.983 21.5764C152.812 21.1633 152.522 20.8102 152.151 20.5617C151.779 20.3133 151.342 20.1807 150.894 20.1807C150.597 20.1797 150.303 20.2375 150.028 20.3508C149.753 20.4641 149.504 20.6307 149.293 20.8408C149.083 21.0509 148.917 21.3006 148.803 21.5753C148.69 21.8501 148.632 22.1445 148.633 22.4417Z" fill="#5B1010"/>
<path d="M139.589 22.4417C139.589 22.8889 139.722 23.3261 139.97 23.6979C140.219 24.0698 140.572 24.3595 140.985 24.5307C141.398 24.7018 141.853 24.7466 142.291 24.6594C142.73 24.5721 143.133 24.3568 143.449 24.0406C143.765 23.7243 143.981 23.3214 144.068 22.8828C144.155 22.4442 144.11 21.9896 143.939 21.5764C143.768 21.1633 143.478 20.8102 143.106 20.5617C142.735 20.3133 142.297 20.1807 141.85 20.1807C141.553 20.1797 141.258 20.2375 140.984 20.3508C140.709 20.4641 140.459 20.6307 140.249 20.8408C140.039 21.0509 139.873 21.3006 139.759 21.5753C139.646 21.8501 139.588 22.1445 139.589 22.4417Z" fill="#5B1010"/>
<path d="M130.566 21.3112C130.345 21.6977 130.243 22.1411 130.274 22.5853C130.305 23.0295 130.466 23.4547 130.739 23.8072C131.011 24.1597 131.381 24.4237 131.803 24.5659C132.225 24.7081 132.679 24.7221 133.109 24.6062C133.539 24.4903 133.925 24.2497 134.219 23.9146C134.512 23.5796 134.699 23.1652 134.757 22.7237C134.816 22.2822 134.741 21.8335 134.545 21.434C134.348 21.0346 134.037 20.7023 133.652 20.4793C133.395 20.3305 133.111 20.2339 132.817 20.1952C132.522 20.1565 132.223 20.1764 131.936 20.2537C131.649 20.331 131.381 20.4642 131.146 20.6457C130.91 20.8272 130.714 21.0533 130.566 21.3112Z" fill="#5B1010"/>
</svg>
