<svg width="39" height="29" viewBox="0 0 39 29" fill="none" xmlns="http://www.w3.org/2000/svg">
<g clip-path="url(#clip0_488_1378)">
<path d="M0.0707438 6.81805C0.573637 7.19284 1.06528 7.55724 1.55432 7.92511C7.07143 12.0758 12.588 16.2273 18.1039 20.3797C19.1218 21.1457 19.7615 21.1414 20.7872 20.3702C26.6828 15.9333 32.579 11.497 38.4759 7.06128C38.5771 6.98511 38.6827 6.91413 38.7875 6.83969C38.9294 6.95308 38.8662 7.09157 38.8662 7.20756C38.8703 13.6127 38.8703 20.0156 38.8662 26.4162C38.8662 27.628 38.2448 28.2425 37.02 28.2434C30.6027 28.2434 7.351 28.2434 2.1429 28.2434C1.95594 28.2434 1.76811 28.2503 1.58202 28.2373C0.629895 28.1672 0.0144766 27.5302 0.0110144 26.5728C0.00235871 24.3717 0.0110144 22.1706 0.0110144 19.9686C0.0110144 15.7533 0.0110144 11.5377 0.0110144 7.32181C0.0118799 7.17121 -0.0305273 7.01281 0.0707438 6.81805Z" fill="#6A1C1A"/>
<path d="M19.4566 0.0065717C25.313 0.0065717 31.1694 0.0178226 37.0276 -0.000354293C38.5856 -0.00554768 38.9959 1.05823 38.8652 2.33667C38.8461 2.5245 38.6765 2.58249 38.5562 2.67338C34.0985 6.03177 29.6394 9.38843 25.1789 12.7434C23.3612 14.1101 21.5435 15.4725 19.7362 16.8496C19.5138 17.0184 19.3753 17.0227 19.1485 16.8496C12.8893 12.1288 6.62549 7.41465 0.35707 2.70713C0.239207 2.63119 0.144033 2.52485 0.0815727 2.39932C0.0191124 2.27379 -0.00831694 2.13373 0.00219048 1.99391C0.0186362 0.533702 0.546635 -0.0012207 2.01896 -0.0012207L19.4566 0.0065717Z" fill="#6A1C1A"/>
</g>
<defs>
<clipPath id="clip0_488_1378">
<rect width="38.8864" height="28.2468" fill="white"/>
</clipPath>
</defs>
</svg>
