<svg width="120" height="95" viewBox="0 0 120 95" fill="none" xmlns="http://www.w3.org/2000/svg">
<mask id="mask0_488_1157" style="mask-type:alpha" maskUnits="userSpaceOnUse" x="0" y="0" width="120" height="95">
<rect width="120" height="94.9813" transform="matrix(-1 0 0 1 120 0)" fill="#D9D9D9"/>
</mask>
<g mask="url(#mask0_488_1157)">
<path d="M12.4778 79.2419C12.4778 91.127 12.4778 103.009 12.4778 114.888C12.4778 119.001 16.0733 122.039 19.934 121.198C22.8089 120.572 24.7115 118.202 24.9287 114.968C24.9662 114.421 24.9662 113.87 24.9662 113.32C24.9662 99.8646 24.9622 86.4099 24.9542 72.9557C24.9542 72.731 24.9542 72.5063 24.9662 72.2816C25.0426 71.2689 25.3917 70.9572 26.3969 70.9932C27.1595 71.0217 27.3797 71.3048 27.3811 72.3415C27.3871 80.1048 27.3901 87.8686 27.3901 95.6329C27.3901 101.598 27.3901 107.564 27.3901 113.531C27.3901 115.016 27.555 116.461 28.2366 117.819C29.549 120.431 31.9819 121.673 34.9392 121.198C37.3168 120.816 39.3737 118.607 39.7737 116.007C39.8733 115.29 39.9183 114.567 39.9085 113.843C39.9025 90.5767 39.898 67.3118 39.895 44.0479C39.895 43.7977 39.895 43.5475 39.895 43.2988C39.922 41.8696 40.5692 41.3917 41.9819 41.7333C42.1172 41.757 42.243 41.8184 42.345 41.9103C42.447 42.0023 42.5211 42.1211 42.5587 42.2531C42.6803 42.6332 42.7415 43.0301 42.74 43.4292C42.74 45.6014 42.749 47.7737 42.749 49.9445C42.7356 50.5691 42.8128 51.1923 42.9782 51.7947C43.904 54.9408 47.522 56.0014 50.4014 53.967C51.9699 52.8584 53.504 51.7033 55.0591 50.5752C57.7452 48.6277 60.4134 46.6531 63.1295 44.749C65.1774 43.3153 66.1257 41.4651 65.6208 38.9647C65.4261 37.9939 65.883 37.3602 66.6321 36.8179C71.1385 33.557 75.6383 30.2861 80.1317 27.0052C82.8284 25.0307 85.5759 23.1235 88.1797 21.0247C89.0036 20.361 89.0786 19.964 88.5737 19.2674C88.0688 18.5707 87.6868 18.4659 86.9512 18.9962C85.5759 19.9895 84.2216 21.0112 82.8583 22.0194C77.4181 26.0324 71.9779 30.0449 66.5377 34.0569C65.8755 34.5438 65.1744 34.9767 64.4958 35.4412C64.3014 35.5775 64.0752 35.6613 63.8389 35.6844C63.6027 35.7075 63.3645 35.6691 63.1474 35.573C61.0501 34.758 59.2523 35.164 57.5385 36.6412C56.1647 37.8277 54.6276 38.8254 53.1504 39.8921C52.3849 40.4434 52.1572 40.3295 52.0448 39.3632C51.7138 36.5363 50.8958 33.8951 49.0381 31.6719C46.725 28.9018 43.6283 27.594 40.1647 27.0052C37.3842 26.5333 34.5842 26.8823 31.7932 26.8554C31.1639 26.8554 30.8389 27.3183 30.5602 27.8142C29.3617 29.9475 28.1632 32.0788 26.9647 34.2082C26.4538 35.1175 26.2156 35.158 25.6733 34.2367C24.5437 32.3265 23.4381 30.3999 22.4194 28.4299C21.7872 27.2059 20.9422 26.7086 19.549 26.8014C17.7602 26.9198 15.9535 26.8359 14.1557 26.8404C10.9362 26.8479 8.01337 27.8142 5.37517 29.6239C2.30101 31.7333 0.807365 34.77 0.530212 38.4194C0.300995 41.4322 0.341446 44.4569 0.344444 47.4771C0.351936 54.0913 0.389412 60.7071 0.40889 67.3213C0.3927 68.474 0.649376 69.6141 1.15795 70.6486C1.93998 72.2007 3.21336 73.0666 4.95119 73.17C6.68902 73.2734 7.98039 72.5183 8.91373 71.0831C9.63133 69.9775 9.901 68.749 9.89951 67.4531C9.89352 59.8396 9.88403 52.2262 9.87105 44.6127C9.87105 43.9146 9.88153 43.2134 9.94296 42.5153C10.0044 41.8172 10.3115 41.6629 11.3257 41.6614C11.9519 41.6614 12.4164 41.8546 12.4808 42.5483C12.5137 42.8943 12.4808 43.2464 12.4808 43.597V79.2434L12.4778 79.2419Z" fill="#6A1C1A"/>
<path d="M84.8918 65.3646H115.816C118.465 65.3646 119.852 64.0163 119.851 61.3751C119.845 44.8757 119.833 28.3773 119.816 11.8799C119.828 11.3056 119.75 10.7329 119.585 10.1826C119.179 8.91814 118.342 8.16459 117 8.02826C116.701 8.00171 116.401 7.99022 116.101 7.9938C95.2599 8.00279 74.4189 8.01327 53.5779 8.02526C53.0276 8.01593 52.4772 8.04145 51.93 8.10167C50.5382 8.27695 49.7263 9.06946 49.512 10.4552C49.4385 10.9512 49.4019 11.452 49.4026 11.9534C49.3862 16.8193 49.3847 21.6912 49.3697 26.5541C49.3557 27.4593 49.6169 28.3474 50.1188 29.1009C51.0341 30.4972 51.93 31.9084 52.8304 33.3151C53.2049 33.8979 53.4746 33.9399 54.0169 33.4889C54.4558 33.1234 54.5967 32.62 54.6161 32.0882C54.6581 31.1164 54.6801 30.1436 54.6821 29.1698C54.689 24.6515 54.692 20.1336 54.691 15.6163C54.691 13.7721 54.742 13.7286 56.5727 13.7286H102.624C106.042 13.7286 109.462 13.7286 112.881 13.7286C114.379 13.7286 114.517 13.8665 114.517 15.3451C114.517 29.6722 114.517 43.9988 114.517 58.3249C114.517 59.417 114.282 59.6507 113.206 59.6522H55.9255C54.9667 59.6522 54.6611 59.3661 54.6686 58.4088C54.6686 57.5099 54.7105 56.611 54.5922 55.7121C54.4993 55.0095 54.2221 54.8567 53.6544 55.2477C52.4843 56.0552 51.3368 56.8957 50.2087 57.7511C49.9331 57.9514 49.714 58.2196 49.5728 58.5297C49.4316 58.8397 49.3729 59.181 49.4026 59.5204C49.4836 60.665 49.4686 61.814 49.6319 62.9556C49.7817 63.9593 50.3375 64.5721 51.2439 64.9226C52.1188 65.2612 53.0326 65.3406 53.963 65.3406C64.2711 65.3406 74.5792 65.3406 84.8873 65.3406L84.8918 65.3646Z" fill="#6A1C1A"/>
<path d="M15.7351 13.4875C15.7351 17.8051 17.4355 21.2463 21.1883 23.4875C25.6467 26.1496 31.2992 24.8178 34.4662 20.4672C37.5269 16.262 37.3666 9.71369 34.0033 5.74366C31.3067 2.55564 27.8115 1.4695 23.7666 2.44778C19.6407 3.43954 17.1748 6.16462 16.1156 10.2231C15.8573 11.2918 15.7295 12.388 15.7351 13.4875Z" fill="#6A1C1A"/>
</g>
</svg>
