<svg width="200" height="168" viewBox="0 0 200 168" fill="none" xmlns="http://www.w3.org/2000/svg">
<path d="M131.985 103.789H26.9741V168H131.985V103.789Z" fill="#F7DA7F"/>
<path d="M131.988 103.789H26.9741L53.3921 80.3819H158.403L131.988 103.789Z" fill="#AA8937"/>
<path d="M26.8725 103.789L0 76.4271L26.4144 53.0199L53.2869 80.3819L26.8725 103.789Z" fill="#D8BC77"/>
<path d="M158.402 144.593L131.988 168V103.789L158.402 80.3819V144.593Z" fill="#C6A23C"/>
<path d="M131.988 103.789L173.585 77.4866L200 54.0794L158.402 80.3819L131.988 103.789Z" fill="#D8BC77"/>
<path d="M53.3918 80.3819L64.8437 52.0058H169.855L158.403 80.3819H53.3918Z" fill="#D8BC77"/>
<path d="M142.161 6.77599L71.1667 0.152588L63.0706 86.9322L134.065 93.5556L142.161 6.77599Z" fill="#892C2C"/>
<path d="M142.161 6.77826L83.2549 1.28264L75.1588 88.0622L134.064 93.5579L142.161 6.77826Z" fill="#C7835E"/>
<path d="M142.161 6.77826L83.2549 1.28264L75.1588 88.0622L134.064 93.5579L142.161 6.77826Z" fill="#C7835E"/>
<path d="M142.157 6.77801L109.124 3.69612L101.027 90.4757L134.061 93.5576L142.157 6.77801Z" fill="#996848"/>
<path d="M74.728 0.488975L66.6318 87.2686L67.0287 87.3056L75.1249 0.526004L74.728 0.488975Z" fill="#FBF0E4"/>
<path d="M136.468 37.4523L81.6631 32.3366L83.324 14.5347L138.129 19.6504L136.468 37.4523ZM82.2191 31.8156L136.02 36.8369L137.576 20.1714L83.7751 15.1501L82.2191 31.8156Z" fill="#FBF0E4"/>
<path d="M94.4736 38.4179L94.4363 38.8183L122.711 41.4562L122.748 41.0558L94.4736 38.4179Z" fill="#FBF0E4"/>
<path d="M90.4233 81.835L90.386 82.2354L118.66 84.8733L118.698 84.4729L90.4233 81.835Z" fill="#FBF0E4"/>
<g filter="url(#filter0_d_615_19158)">
<path d="M93.531 23.2276C93.7268 23.3919 93.8562 23.4968 93.9156 23.5388C94.0065 23.6017 94.1324 23.6787 94.2863 23.7626L93.7303 24.6613C93.5065 24.5249 93.2862 24.3675 93.0694 24.1892C92.8526 24.0109 92.7057 23.878 92.6218 23.7906C92.2372 23.9164 91.7651 23.9549 91.2056 23.9025C90.3804 23.8255 89.7475 23.5493 89.3104 23.0737C88.7929 22.5108 88.5796 21.7694 88.667 20.8498C88.7544 19.9302 89.0621 19.2833 89.6006 18.8322C90.1391 18.3811 90.8525 18.1993 91.7371 18.2832C92.6218 18.3671 93.3142 18.6748 93.7583 19.2063C94.2023 19.7378 94.3842 20.4512 94.3003 21.3533C94.2268 22.1576 93.9681 22.78 93.5275 23.2276H93.531ZM92.3246 22.2485C92.4819 22.0212 92.5799 21.668 92.6253 21.1925C92.6778 20.6435 92.6113 20.2414 92.4295 19.9896C92.2477 19.7378 91.9784 19.591 91.6183 19.5595C91.2861 19.528 91.0028 19.6224 90.772 19.8427C90.5413 20.063 90.4049 20.4267 90.3559 20.9372C90.3 21.5317 90.3629 21.9548 90.5447 22.2135C90.7266 22.4723 90.9923 22.6192 91.3455 22.6506C91.4609 22.6611 91.5693 22.6611 91.6707 22.6506C91.5413 22.5003 91.3315 22.3534 91.0378 22.203L91.356 21.6226C91.5029 21.6645 91.6148 21.7065 91.6917 21.7555C91.7686 21.8044 91.9225 21.9233 92.1463 22.1121C92.1987 22.1576 92.2582 22.203 92.3211 22.252L92.3246 22.2485Z" fill="#F4E7C9"/>
<path d="M98.9999 19.056L100.675 19.2133L100.374 22.4513C100.343 22.773 100.266 23.0702 100.14 23.3465C100.014 23.6227 99.8321 23.857 99.5978 24.0528C99.3635 24.2451 99.1258 24.3745 98.8845 24.4409C98.5453 24.5319 98.1502 24.5563 97.6921 24.5144C97.4263 24.4899 97.1396 24.4444 96.8319 24.378C96.5242 24.3116 96.2689 24.2137 96.0696 24.0843C95.8703 23.9549 95.6919 23.7801 95.5381 23.5633C95.3842 23.343 95.2828 23.1262 95.2374 22.9024C95.1674 22.5457 95.143 22.2345 95.1674 21.9687L95.4682 18.7308L97.1431 18.8881L96.8354 22.203C96.8074 22.5003 96.8669 22.738 97.0172 22.9199C97.1676 23.1017 97.3879 23.2066 97.6781 23.2346C97.9683 23.2625 98.2026 23.1996 98.381 23.0527C98.5593 22.9024 98.6642 22.6786 98.6922 22.3779L98.9999 19.0629V19.056Z" fill="#F4E7C9"/>
<path d="M101.787 19.3147L106.287 19.7343L106.179 20.8952L103.36 20.633L103.28 21.4967L105.895 21.7415L105.791 22.8499L103.175 22.6052L103.074 23.6752L105.972 23.9444L105.857 25.1753L101.273 24.7487L101.78 19.3147H101.787Z" fill="#F4E7C9"/>
<path d="M106.64 23.4374L108.249 23.4863C108.259 23.7486 108.312 23.9549 108.406 24.0983C108.56 24.336 108.794 24.4689 109.116 24.4969C109.357 24.5179 109.546 24.4794 109.686 24.3815C109.826 24.2836 109.903 24.1577 109.917 24.0074C109.931 23.857 109.878 23.7346 109.766 23.6122C109.654 23.4898 109.375 23.357 108.934 23.2171C108.214 22.9828 107.707 22.7136 107.42 22.4093C107.13 22.1051 107.004 21.7415 107.042 21.3149C107.067 21.0351 107.175 20.7799 107.36 20.5456C107.546 20.3113 107.808 20.14 108.147 20.0281C108.486 19.9162 108.938 19.8882 109.504 19.9406C110.2 20.0071 110.717 20.1854 111.057 20.4756C111.396 20.7659 111.574 21.1995 111.592 21.7694L110.001 21.7135C109.983 21.4652 109.91 21.2799 109.784 21.154C109.658 21.0281 109.479 20.9582 109.242 20.9337C109.046 20.9162 108.896 20.9442 108.791 21.0176C108.686 21.0911 108.626 21.189 108.616 21.3044C108.609 21.3918 108.64 21.4722 108.717 21.5491C108.791 21.6296 108.972 21.7135 109.263 21.8009C109.983 22.0282 110.494 22.238 110.794 22.4268C111.095 22.6156 111.308 22.8394 111.431 23.0947C111.553 23.35 111.599 23.6227 111.574 23.9199C111.543 24.2696 111.417 24.5808 111.196 24.8571C110.976 25.1333 110.686 25.3326 110.326 25.4515C109.966 25.5704 109.521 25.6054 108.997 25.5564C108.074 25.469 107.448 25.2312 107.126 24.8431C106.804 24.4549 106.644 23.9829 106.647 23.4304L106.64 23.4374Z" fill="#F4E7C9"/>
<path d="M112.375 20.3043L117.48 20.7799L117.354 22.1226L115.641 21.9618L115.26 26.0564L113.581 25.8991L113.962 21.8044L112.249 21.6435L112.375 20.3008V20.3043Z" fill="#F4E7C9"/>
<path d="M118.305 20.8568L119.987 21.0142L119.48 26.4481L117.798 26.2907L118.305 20.8568Z" fill="#F4E7C9"/>
<path d="M120.728 23.829C120.812 22.9408 121.124 22.273 121.662 21.8254C122.201 21.3778 122.914 21.1925 123.795 21.2764C124.676 21.3603 125.376 21.668 125.82 22.1995C126.264 22.731 126.446 23.4339 126.362 24.3081C126.302 24.9445 126.148 25.455 125.897 25.8396C125.645 26.2243 125.306 26.5145 124.883 26.7033C124.459 26.8922 123.942 26.9586 123.341 26.9027C122.739 26.8467 122.229 26.6998 121.847 26.4691C121.466 26.2383 121.166 25.8956 120.956 25.4515C120.746 25.0074 120.669 24.4654 120.728 23.829ZM122.407 23.9934C122.354 24.5424 122.421 24.9445 122.603 25.2032C122.785 25.462 123.05 25.6089 123.4 25.6403C123.75 25.6718 124.05 25.5844 124.271 25.3676C124.491 25.1508 124.627 24.7382 124.687 24.1297C124.736 23.6192 124.666 23.2346 124.48 22.9793C124.295 22.724 124.026 22.5807 123.673 22.5457C123.32 22.5107 123.05 22.6086 122.823 22.8289C122.596 23.0492 122.456 23.4374 122.403 23.9899L122.407 23.9934Z" fill="#F4E7C9"/>
<path d="M127.53 21.717L129.1 21.8639L130.866 25.0634L131.146 22.0562L132.73 22.2031L132.223 27.637L130.639 27.4901L128.883 24.3151L128.603 27.2978L127.023 27.151L127.53 21.717Z" fill="#F4E7C9"/>
<path d="M94.3352 26.8922L96.3074 27.0775C97.1606 27.1579 97.4928 27.6055 97.4438 28.1091C97.4053 28.5217 97.1256 28.742 96.8424 28.8189C97.1781 28.9588 97.4683 29.2525 97.4263 29.7071C97.3634 30.3749 96.8144 30.7211 95.9402 30.6372L93.9995 30.4554L94.3317 26.8922H94.3352ZM95.9962 28.4552C96.3843 28.4902 96.5207 28.3503 96.5416 28.1335C96.5661 27.8643 96.3738 27.7349 96.0731 27.7104L95.1255 27.623L95.0555 28.3713L95.9962 28.4587V28.4552ZM94.9122 29.8924L95.8878 29.9833C96.2199 30.0148 96.4822 29.9413 96.5172 29.5882C96.5451 29.3049 96.3633 29.1371 95.9892 29.1021L94.9961 29.0077L94.9122 29.8889V29.8924Z" fill="white"/>
<path d="M103.986 30.5708L103.602 31.3505L102.714 31.2666L104.479 27.8363L105.588 27.9412L106.763 31.6443L105.829 31.5568L105.574 30.7176L103.986 30.5708ZM105.396 30.0043C105.14 29.1581 105.018 28.7245 104.959 28.4447H104.952C104.847 28.7035 104.609 29.228 104.273 29.8994L105.392 30.0043H105.396Z" fill="white"/>
<path d="M112.316 32.1618L112.648 28.5986L113.672 28.693C114.533 30.3155 114.879 30.9065 115.064 31.3505H115.075C115.075 30.9729 115.141 30.3085 115.197 29.7211L115.277 28.8399L116.071 28.9133L115.739 32.4765L114.781 32.3856C114.494 31.8226 113.519 29.9449 113.344 29.5182H113.333C113.323 29.9588 113.274 30.4659 113.214 31.0988L113.109 32.2282L112.316 32.1548V32.1618Z" fill="white"/>
<path d="M122.089 29.4798L122.953 29.5602L122.806 31.1198C123.365 30.6932 123.9 30.2875 124.635 29.7176L125.694 29.8155L123.879 31.1932L125.456 33.3857L124.383 33.2842L123.218 31.6058L122.729 31.9415L122.621 33.1199L121.757 33.0395L122.089 29.4763V29.4798Z" fill="white"/>
</g>
<path d="M15.522 75.4131L26.9738 103.789H131.988L120.533 75.4131H15.522Z" fill="#C9B16B"/>
<g filter="url(#filter1_d_615_19158)">
<path d="M94.5975 121.934C94.636 121.934 94.6465 121.881 94.608 121.867L79.7608 116.29C79.2468 116.098 78.6838 116.098 78.1698 116.29L63.3226 121.867C63.2876 121.881 63.2981 121.934 63.3331 121.934H94.594H94.5975Z" fill="#F7DA7F"/>
<path d="M94.7863 124.752V122.147C94.7863 122.032 94.6919 121.937 94.5765 121.937H63.2981C63.1722 121.937 63.0708 122.039 63.0708 122.165V124.752H94.7863Z" fill="#F7DA7F"/>
<path d="M69.2846 149.464H68.1761L67.1516 124.752H63.0674L62.0428 149.464H60.9343C60.8224 149.464 60.728 149.555 60.728 149.67V151.764C60.728 151.876 60.8189 151.971 60.9343 151.971H69.2846C69.3965 151.971 69.4909 151.88 69.4909 151.764V149.67C69.4909 149.558 69.4 149.464 69.2846 149.464Z" fill="#F7DA7F"/>
<path d="M83.1422 149.464H81.9882L80.9637 124.752H76.8795L75.8549 149.464H74.7954C74.6835 149.464 74.5891 149.555 74.5891 149.67V151.764C74.5891 151.876 74.68 151.971 74.7954 151.971H83.1457C83.2576 151.971 83.352 151.88 83.352 151.764V149.67C83.352 149.558 83.261 149.464 83.1457 149.464H83.1422Z" fill="#F7DA7F"/>
<path d="M96.9052 149.464H95.7967L94.7722 124.752H90.688L89.6634 149.464H88.5549C88.443 149.464 88.3486 149.555 88.3486 149.67V151.764C88.3486 151.876 88.4395 151.971 88.5549 151.971H96.9052C97.0171 151.971 97.1115 151.88 97.1115 151.764V149.67C97.1115 149.558 97.0206 149.464 96.9052 149.464Z" fill="#F7DA7F"/>
</g>
<defs>
<filter id="filter0_d_615_19158" x="84.6479" y="15.2633" width="52.0818" height="23.1223" filterUnits="userSpaceOnUse" color-interpolation-filters="sRGB">
<feFlood flood-opacity="0" result="BackgroundImageFix"/>
<feColorMatrix in="SourceAlpha" type="matrix" values="0 0 0 0 0 0 0 0 0 0 0 0 0 0 0 0 0 0 127 0" result="hardAlpha"/>
<feOffset dy="1"/>
<feGaussianBlur stdDeviation="2"/>
<feColorMatrix type="matrix" values="0 0 0 0 0.137255 0 0 0 0 0.121569 0 0 0 0 0.12549 0 0 0 0.3 0"/>
<feBlend mode="normal" in2="BackgroundImageFix" result="effect1_dropShadow_615_19158"/>
<feBlend mode="normal" in="SourceGraphic" in2="effect1_dropShadow_615_19158" result="shape"/>
</filter>
<filter id="filter1_d_615_19158" x="56.728" y="112.146" width="48.3835" height="47.8251" filterUnits="userSpaceOnUse" color-interpolation-filters="sRGB">
<feFlood flood-opacity="0" result="BackgroundImageFix"/>
<feColorMatrix in="SourceAlpha" type="matrix" values="0 0 0 0 0 0 0 0 0 0 0 0 0 0 0 0 0 0 127 0" result="hardAlpha"/>
<feOffset dx="2" dy="2"/>
<feGaussianBlur stdDeviation="3"/>
<feColorMatrix type="matrix" values="0 0 0 0 0.137255 0 0 0 0 0.121569 0 0 0 0 0.12549 0 0 0 0.25 0"/>
<feBlend mode="normal" in2="BackgroundImageFix" result="effect1_dropShadow_615_19158"/>
<feBlend mode="normal" in="SourceGraphic" in2="effect1_dropShadow_615_19158" result="shape"/>
</filter>
</defs>
</svg>
